%TF.GenerationSoftware,KiCad,Pcbnew,(7.0.0-0)*%
%TF.CreationDate,2023-07-19T11:54:47-04:00*%
%TF.ProjectId,meadowstumble,6d656164-6f77-4737-9475-6d626c652e6b,rev?*%
%TF.SameCoordinates,Original*%
%TF.FileFunction,Paste,Bot*%
%TF.FilePolarity,Positive*%
%FSLAX46Y46*%
G04 Gerber Fmt 4.6, Leading zero omitted, Abs format (unit mm)*
G04 Created by KiCad (PCBNEW (7.0.0-0)) date 2023-07-19 11:54:47*
%MOMM*%
%LPD*%
G01*
G04 APERTURE LIST*
G04 Aperture macros list*
%AMRoundRect*
0 Rectangle with rounded corners*
0 $1 Rounding radius*
0 $2 $3 $4 $5 $6 $7 $8 $9 X,Y pos of 4 corners*
0 Add a 4 corners polygon primitive as box body*
4,1,4,$2,$3,$4,$5,$6,$7,$8,$9,$2,$3,0*
0 Add four circle primitives for the rounded corners*
1,1,$1+$1,$2,$3*
1,1,$1+$1,$4,$5*
1,1,$1+$1,$6,$7*
1,1,$1+$1,$8,$9*
0 Add four rect primitives between the rounded corners*
20,1,$1+$1,$2,$3,$4,$5,0*
20,1,$1+$1,$4,$5,$6,$7,0*
20,1,$1+$1,$6,$7,$8,$9,0*
20,1,$1+$1,$8,$9,$2,$3,0*%
G04 Aperture macros list end*
%ADD10RoundRect,0.135000X-0.185000X0.135000X-0.185000X-0.135000X0.185000X-0.135000X0.185000X0.135000X0*%
%ADD11RoundRect,0.140000X0.170000X-0.140000X0.170000X0.140000X-0.170000X0.140000X-0.170000X-0.140000X0*%
%ADD12RoundRect,0.140000X0.140000X0.170000X-0.140000X0.170000X-0.140000X-0.170000X0.140000X-0.170000X0*%
%ADD13RoundRect,0.225000X0.375000X-0.225000X0.375000X0.225000X-0.375000X0.225000X-0.375000X-0.225000X0*%
%ADD14RoundRect,0.140000X-0.140000X-0.170000X0.140000X-0.170000X0.140000X0.170000X-0.140000X0.170000X0*%
%ADD15RoundRect,0.135000X0.185000X-0.135000X0.185000X0.135000X-0.185000X0.135000X-0.185000X-0.135000X0*%
%ADD16R,1.400000X1.200000*%
%ADD17RoundRect,0.140000X-0.170000X0.140000X-0.170000X-0.140000X0.170000X-0.140000X0.170000X0.140000X0*%
%ADD18RoundRect,0.150000X-0.150000X0.650000X-0.150000X-0.650000X0.150000X-0.650000X0.150000X0.650000X0*%
%ADD19RoundRect,0.250000X0.292217X0.292217X-0.292217X0.292217X-0.292217X-0.292217X0.292217X-0.292217X0*%
%ADD20RoundRect,0.050000X0.387500X0.050000X-0.387500X0.050000X-0.387500X-0.050000X0.387500X-0.050000X0*%
%ADD21RoundRect,0.050000X0.050000X0.387500X-0.050000X0.387500X-0.050000X-0.387500X0.050000X-0.387500X0*%
%ADD22RoundRect,0.150000X0.150000X-0.587500X0.150000X0.587500X-0.150000X0.587500X-0.150000X-0.587500X0*%
%ADD23RoundRect,0.140000X-0.219203X-0.021213X-0.021213X-0.219203X0.219203X0.021213X0.021213X0.219203X0*%
%ADD24RoundRect,0.150000X-0.625000X0.150000X-0.625000X-0.150000X0.625000X-0.150000X0.625000X0.150000X0*%
%ADD25RoundRect,0.250000X-0.650000X0.350000X-0.650000X-0.350000X0.650000X-0.350000X0.650000X0.350000X0*%
G04 APERTURE END LIST*
D10*
%TO.C,R_Flash1*%
X86750000Y-124890000D03*
X86750000Y-125910000D03*
%TD*%
D11*
%TO.C,C_3V-Decoup3*%
X75212500Y-137125000D03*
X75212500Y-136165000D03*
%TD*%
D12*
%TO.C,C_3V-Decoup4*%
X68565000Y-143532500D03*
X67605000Y-143532500D03*
%TD*%
D13*
%TO.C,D14*%
X325225000Y-86162500D03*
X325225000Y-82862500D03*
%TD*%
%TO.C,D46*%
X129962500Y-148075000D03*
X129962500Y-144775000D03*
%TD*%
D10*
%TO.C,R_DATA2*%
X73012500Y-138005000D03*
X73012500Y-139025000D03*
%TD*%
D13*
%TO.C,D53*%
X263312500Y-148075000D03*
X263312500Y-144775000D03*
%TD*%
%TO.C,D23*%
X191875000Y-109975000D03*
X191875000Y-106675000D03*
%TD*%
D14*
%TO.C,C_3V-Decoup6*%
X79232500Y-143325000D03*
X80192500Y-143325000D03*
%TD*%
D15*
%TO.C,R_Crystal1*%
X74712500Y-155125000D03*
X74712500Y-154105000D03*
%TD*%
D13*
%TO.C,D16*%
X58525000Y-109975000D03*
X58525000Y-106675000D03*
%TD*%
%TO.C,D56*%
X60906250Y-167125000D03*
X60906250Y-163825000D03*
%TD*%
%TO.C,D68*%
X344275000Y-167125000D03*
X344275000Y-163825000D03*
%TD*%
%TO.C,D67*%
X325225000Y-167125000D03*
X325225000Y-163825000D03*
%TD*%
%TO.C,D7*%
X182350000Y-86162500D03*
X182350000Y-82862500D03*
%TD*%
D11*
%TO.C,C_3V-Decoup2*%
X70712500Y-140705000D03*
X70712500Y-139745000D03*
%TD*%
D13*
%TO.C,D51*%
X225212500Y-148075000D03*
X225212500Y-144775000D03*
%TD*%
D16*
%TO.C,Y1*%
X74712499Y-156624999D03*
X76912499Y-156624999D03*
X76912499Y-158324999D03*
X74712499Y-158324999D03*
%TD*%
D13*
%TO.C,D41*%
X253787500Y-129025000D03*
X253787500Y-125725000D03*
%TD*%
%TO.C,D34*%
X120437500Y-129025000D03*
X120437500Y-125725000D03*
%TD*%
D12*
%TO.C,C_LD2*%
X63430000Y-116450000D03*
X62470000Y-116450000D03*
%TD*%
D13*
%TO.C,D32*%
X82337500Y-129025000D03*
X82337500Y-125725000D03*
%TD*%
%TO.C,D59*%
X120437500Y-167125000D03*
X120437500Y-163825000D03*
%TD*%
%TO.C,D8*%
X201400000Y-86162500D03*
X201400000Y-82862500D03*
%TD*%
D17*
%TO.C,C_Crystal1*%
X78712500Y-157145000D03*
X78712500Y-158105000D03*
%TD*%
D13*
%TO.C,D57*%
X82337500Y-167125000D03*
X82337500Y-163825000D03*
%TD*%
%TO.C,D50*%
X206162500Y-148075000D03*
X206162500Y-144775000D03*
%TD*%
D18*
%TO.C,U2*%
X85402500Y-130925000D03*
X86672500Y-130925000D03*
X87942500Y-130925000D03*
X89212500Y-130925000D03*
X89212500Y-138125000D03*
X87942500Y-138125000D03*
X86672500Y-138125000D03*
X85402500Y-138125000D03*
%TD*%
D13*
%TO.C,D2*%
X82337500Y-86162500D03*
X82337500Y-82862500D03*
%TD*%
%TO.C,D40*%
X234737500Y-129025000D03*
X234737500Y-125725000D03*
%TD*%
D17*
%TO.C,C_1V-Decoup3*%
X72312500Y-154125000D03*
X72312500Y-155085000D03*
%TD*%
D13*
%TO.C,D5*%
X139487500Y-86162500D03*
X139487500Y-82862500D03*
%TD*%
D11*
%TO.C,C_Crystal2*%
X72912500Y-158025000D03*
X72912500Y-157065000D03*
%TD*%
D13*
%TO.C,D42*%
X277600000Y-129025000D03*
X277600000Y-125725000D03*
%TD*%
%TO.C,D19*%
X115675000Y-109975000D03*
X115675000Y-106675000D03*
%TD*%
D19*
%TO.C,U1*%
X75212500Y-147462500D03*
X75212500Y-146187500D03*
X73937500Y-147462500D03*
X73937500Y-146187500D03*
D20*
X78012500Y-144225000D03*
X78012500Y-144625000D03*
X78012500Y-145025000D03*
X78012500Y-145425000D03*
X78012500Y-145825000D03*
X78012500Y-146225000D03*
X78012500Y-146625000D03*
X78012500Y-147025000D03*
X78012500Y-147425000D03*
X78012500Y-147825000D03*
X78012500Y-148225000D03*
X78012500Y-148625000D03*
X78012500Y-149025000D03*
X78012500Y-149425000D03*
D21*
X77175000Y-150262500D03*
X76775000Y-150262500D03*
X76375000Y-150262500D03*
X75975000Y-150262500D03*
X75575000Y-150262500D03*
X75175000Y-150262500D03*
X74775000Y-150262500D03*
X74375000Y-150262500D03*
X73975000Y-150262500D03*
X73575000Y-150262500D03*
X73175000Y-150262500D03*
X72775000Y-150262500D03*
X72375000Y-150262500D03*
X71975000Y-150262500D03*
D20*
X71137500Y-149425000D03*
X71137500Y-149025000D03*
X71137500Y-148625000D03*
X71137500Y-148225000D03*
X71137500Y-147825000D03*
X71137500Y-147425000D03*
X71137500Y-147025000D03*
X71137500Y-146625000D03*
X71137500Y-146225000D03*
X71137500Y-145825000D03*
X71137500Y-145425000D03*
X71137500Y-145025000D03*
X71137500Y-144625000D03*
X71137500Y-144225000D03*
D21*
X71975000Y-143387500D03*
X72375000Y-143387500D03*
X72775000Y-143387500D03*
X73175000Y-143387500D03*
X73575000Y-143387500D03*
X73975000Y-143387500D03*
X74375000Y-143387500D03*
X74775000Y-143387500D03*
X75175000Y-143387500D03*
X75575000Y-143387500D03*
X75975000Y-143387500D03*
X76375000Y-143387500D03*
X76775000Y-143387500D03*
X77175000Y-143387500D03*
%TD*%
D13*
%TO.C,D6*%
X163300000Y-86162500D03*
X163300000Y-82862500D03*
%TD*%
%TO.C,D44*%
X91862500Y-148075000D03*
X91862500Y-144775000D03*
%TD*%
%TO.C,D63*%
X239500000Y-167125000D03*
X239500000Y-163825000D03*
%TD*%
%TO.C,D33*%
X101387500Y-129025000D03*
X101387500Y-125725000D03*
%TD*%
%TO.C,D24*%
X210925000Y-109975000D03*
X210925000Y-106675000D03*
%TD*%
D12*
%TO.C,C_3V-Decoup1*%
X63430000Y-117450000D03*
X62470000Y-117450000D03*
%TD*%
D13*
%TO.C,D52*%
X244262500Y-148075000D03*
X244262500Y-144775000D03*
%TD*%
%TO.C,D21*%
X153775000Y-109975000D03*
X153775000Y-106675000D03*
%TD*%
%TO.C,D15*%
X344275000Y-86162500D03*
X344275000Y-82862500D03*
%TD*%
%TO.C,D37*%
X177587500Y-129025000D03*
X177587500Y-125725000D03*
%TD*%
%TO.C,D61*%
X191875000Y-167125000D03*
X191875000Y-163825000D03*
%TD*%
%TO.C,D31*%
X60906250Y-129025000D03*
X60906250Y-125725000D03*
%TD*%
%TO.C,D60*%
X151393750Y-167125000D03*
X151393750Y-163825000D03*
%TD*%
%TO.C,D4*%
X120437500Y-86162500D03*
X120437500Y-82862500D03*
%TD*%
D11*
%TO.C,C_1V-Decoup2*%
X76612500Y-137925000D03*
X76612500Y-136965000D03*
%TD*%
D13*
%TO.C,D66*%
X306175000Y-167125000D03*
X306175000Y-163825000D03*
%TD*%
%TO.C,D49*%
X187112500Y-148075000D03*
X187112500Y-144775000D03*
%TD*%
%TO.C,D62*%
X220450000Y-167125000D03*
X220450000Y-163825000D03*
%TD*%
%TO.C,D36*%
X158537500Y-129025000D03*
X158537500Y-125725000D03*
%TD*%
%TO.C,D64*%
X258550000Y-167125000D03*
X258550000Y-163825000D03*
%TD*%
%TO.C,D20*%
X134725000Y-109975000D03*
X134725000Y-106675000D03*
%TD*%
D12*
%TO.C,C_LD1*%
X64410000Y-111350000D03*
X63450000Y-111350000D03*
%TD*%
D13*
%TO.C,D39*%
X215687500Y-129025000D03*
X215687500Y-125725000D03*
%TD*%
D10*
%TO.C,R_DATA1*%
X74112500Y-138005000D03*
X74112500Y-139025000D03*
%TD*%
D13*
%TO.C,D10*%
X244262500Y-86162500D03*
X244262500Y-82862500D03*
%TD*%
D15*
%TO.C,R_RST1*%
X50362500Y-133485000D03*
X50362500Y-132465000D03*
%TD*%
D13*
%TO.C,D47*%
X149012500Y-148075000D03*
X149012500Y-144775000D03*
%TD*%
D22*
%TO.C,U3*%
X65350000Y-114787500D03*
X63450000Y-114787500D03*
X64400000Y-112912500D03*
%TD*%
D13*
%TO.C,D48*%
X168062500Y-148075000D03*
X168062500Y-144775000D03*
%TD*%
D12*
%TO.C,C_3V-Decoup7*%
X68565000Y-141532500D03*
X67605000Y-141532500D03*
%TD*%
D13*
%TO.C,D13*%
X306175000Y-86162500D03*
X306175000Y-82862500D03*
%TD*%
D11*
%TO.C,C_1V-Decoup1*%
X71912500Y-139605000D03*
X71912500Y-138645000D03*
%TD*%
D13*
%TO.C,D35*%
X139487500Y-129025000D03*
X139487500Y-125725000D03*
%TD*%
%TO.C,D17*%
X77575000Y-109975000D03*
X77575000Y-106675000D03*
%TD*%
%TO.C,D3*%
X101387500Y-86162500D03*
X101387500Y-82862500D03*
%TD*%
D23*
%TO.C,C_3V-Decoup9*%
X82910589Y-154060589D03*
X83589411Y-154739411D03*
%TD*%
D13*
%TO.C,D18*%
X96625000Y-109975000D03*
X96625000Y-106675000D03*
%TD*%
D11*
%TO.C,C_Flash1*%
X83612500Y-138125000D03*
X83612500Y-137165000D03*
%TD*%
D13*
%TO.C,D22*%
X172825000Y-109975000D03*
X172825000Y-106675000D03*
%TD*%
%TO.C,D26*%
X249025000Y-109975000D03*
X249025000Y-106675000D03*
%TD*%
%TO.C,D30*%
X344275000Y-109975000D03*
X344275000Y-106675000D03*
%TD*%
D17*
%TO.C,C_3V-Decoup8*%
X73512500Y-154125000D03*
X73512500Y-155085000D03*
%TD*%
D13*
%TO.C,D1*%
X58525000Y-86162500D03*
X58525000Y-82862500D03*
%TD*%
D12*
%TO.C,C_3V-Decoup5*%
X68565000Y-142532500D03*
X67605000Y-142532500D03*
%TD*%
D13*
%TO.C,D54*%
X282362500Y-148075000D03*
X282362500Y-144775000D03*
%TD*%
%TO.C,D11*%
X263312500Y-86162500D03*
X263312500Y-82862500D03*
%TD*%
%TO.C,D12*%
X282362500Y-86162500D03*
X282362500Y-82862500D03*
%TD*%
%TO.C,D9*%
X220450000Y-86162500D03*
X220450000Y-82862500D03*
%TD*%
%TO.C,D27*%
X275218750Y-109975000D03*
X275218750Y-106675000D03*
%TD*%
%TO.C,D65*%
X279981250Y-167125000D03*
X279981250Y-163825000D03*
%TD*%
%TO.C,D43*%
X65668750Y-148075000D03*
X65668750Y-144775000D03*
%TD*%
%TO.C,D38*%
X196637500Y-129025000D03*
X196637500Y-125725000D03*
%TD*%
%TO.C,D58*%
X108387500Y-167125000D03*
X108387500Y-163825000D03*
%TD*%
%TO.C,D45*%
X110912500Y-148075000D03*
X110912500Y-144775000D03*
%TD*%
%TO.C,D55*%
X325225000Y-148075000D03*
X325225000Y-144775000D03*
%TD*%
%TO.C,D29*%
X325225000Y-109975000D03*
X325225000Y-106675000D03*
%TD*%
%TO.C,D25*%
X229975000Y-109975000D03*
X229975000Y-106675000D03*
%TD*%
D24*
%TO.C,J1*%
X69912500Y-116625000D03*
X69912500Y-117625000D03*
X69912500Y-118625000D03*
X69912500Y-119625000D03*
D25*
X73787500Y-115325000D03*
X73787500Y-120925000D03*
%TD*%
D13*
%TO.C,D28*%
X306175000Y-109975000D03*
X306175000Y-106675000D03*
%TD*%
M02*
