%TF.GenerationSoftware,KiCad,Pcbnew,(7.0.0-0)*%
%TF.CreationDate,2023-07-19T14:43:01-04:00*%
%TF.ProjectId,meadowstumble,6d656164-6f77-4737-9475-6d626c652e6b,rev?*%
%TF.SameCoordinates,Original*%
%TF.FileFunction,Soldermask,Bot*%
%TF.FilePolarity,Negative*%
%FSLAX46Y46*%
G04 Gerber Fmt 4.6, Leading zero omitted, Abs format (unit mm)*
G04 Created by KiCad (PCBNEW (7.0.0-0)) date 2023-07-19 14:43:01*
%MOMM*%
%LPD*%
G01*
G04 APERTURE LIST*
G04 Aperture macros list*
%AMRoundRect*
0 Rectangle with rounded corners*
0 $1 Rounding radius*
0 $2 $3 $4 $5 $6 $7 $8 $9 X,Y pos of 4 corners*
0 Add a 4 corners polygon primitive as box body*
4,1,4,$2,$3,$4,$5,$6,$7,$8,$9,$2,$3,0*
0 Add four circle primitives for the rounded corners*
1,1,$1+$1,$2,$3*
1,1,$1+$1,$4,$5*
1,1,$1+$1,$6,$7*
1,1,$1+$1,$8,$9*
0 Add four rect primitives between the rounded corners*
20,1,$1+$1,$2,$3,$4,$5,0*
20,1,$1+$1,$4,$5,$6,$7,0*
20,1,$1+$1,$6,$7,$8,$9,0*
20,1,$1+$1,$8,$9,$2,$3,0*%
G04 Aperture macros list end*
%ADD10C,1.750000*%
%ADD11C,3.987800*%
%ADD12C,2.250000*%
%ADD13C,3.048000*%
%ADD14RoundRect,0.135000X-0.185000X0.135000X-0.185000X-0.135000X0.185000X-0.135000X0.185000X0.135000X0*%
%ADD15RoundRect,0.140000X0.170000X-0.140000X0.170000X0.140000X-0.170000X0.140000X-0.170000X-0.140000X0*%
%ADD16RoundRect,0.140000X0.140000X0.170000X-0.140000X0.170000X-0.140000X-0.170000X0.140000X-0.170000X0*%
%ADD17RoundRect,0.225000X0.375000X-0.225000X0.375000X0.225000X-0.375000X0.225000X-0.375000X-0.225000X0*%
%ADD18RoundRect,0.140000X-0.140000X-0.170000X0.140000X-0.170000X0.140000X0.170000X-0.140000X0.170000X0*%
%ADD19RoundRect,0.135000X0.185000X-0.135000X0.185000X0.135000X-0.185000X0.135000X-0.185000X-0.135000X0*%
%ADD20R,1.000000X1.700000*%
%ADD21R,1.400000X1.200000*%
%ADD22RoundRect,0.140000X-0.170000X0.140000X-0.170000X-0.140000X0.170000X-0.140000X0.170000X0.140000X0*%
%ADD23RoundRect,0.150000X-0.150000X0.650000X-0.150000X-0.650000X0.150000X-0.650000X0.150000X0.650000X0*%
%ADD24RoundRect,0.050000X0.387500X0.050000X-0.387500X0.050000X-0.387500X-0.050000X0.387500X-0.050000X0*%
%ADD25RoundRect,0.050000X0.050000X0.387500X-0.050000X0.387500X-0.050000X-0.387500X0.050000X-0.387500X0*%
%ADD26RoundRect,0.144000X1.456000X1.456000X-1.456000X1.456000X-1.456000X-1.456000X1.456000X-1.456000X0*%
%ADD27R,1.000000X1.000000*%
%ADD28O,1.000000X1.000000*%
%ADD29R,1.700000X1.700000*%
%ADD30O,1.700000X1.700000*%
%ADD31RoundRect,0.150000X0.150000X-0.587500X0.150000X0.587500X-0.150000X0.587500X-0.150000X-0.587500X0*%
%ADD32RoundRect,0.140000X-0.219203X-0.021213X-0.021213X-0.219203X0.219203X0.021213X0.021213X0.219203X0*%
%ADD33RoundRect,0.150000X-0.512500X-0.150000X0.512500X-0.150000X0.512500X0.150000X-0.512500X0.150000X0*%
%ADD34RoundRect,0.150000X-0.625000X0.150000X-0.625000X-0.150000X0.625000X-0.150000X0.625000X0.150000X0*%
%ADD35RoundRect,0.250000X-0.650000X0.350000X-0.650000X-0.350000X0.650000X-0.350000X0.650000X0.350000X0*%
G04 APERTURE END LIST*
D10*
%TO.C,MX10*%
X236082500Y-84512500D03*
D11*
X241162500Y-84512500D03*
D10*
X246242500Y-84512500D03*
D12*
X237352500Y-81972500D03*
X243702500Y-79432500D03*
%TD*%
D10*
%TO.C,MX6*%
X155120000Y-84512500D03*
D11*
X160200000Y-84512500D03*
D10*
X165280000Y-84512500D03*
D12*
X156390000Y-81972500D03*
X162740000Y-79432500D03*
%TD*%
D10*
%TO.C,MX32*%
X74157500Y-127375000D03*
D11*
X79237500Y-127375000D03*
D10*
X84317500Y-127375000D03*
D12*
X75427500Y-124835000D03*
X81777500Y-122295000D03*
%TD*%
D10*
%TO.C,MX24*%
X202745000Y-108325000D03*
D11*
X207825000Y-108325000D03*
D10*
X212905000Y-108325000D03*
D12*
X204015000Y-105785000D03*
X210365000Y-103245000D03*
%TD*%
D10*
%TO.C,MX49*%
X178932500Y-146425000D03*
D11*
X184012500Y-146425000D03*
D10*
X189092500Y-146425000D03*
D12*
X180202500Y-143885000D03*
X186552500Y-141345000D03*
%TD*%
D10*
%TO.C,MX65*%
X271801250Y-165475000D03*
D11*
X276881250Y-165475000D03*
D10*
X281961250Y-165475000D03*
D12*
X273071250Y-162935000D03*
X279421250Y-160395000D03*
%TD*%
D10*
%TO.C,MX19*%
X107495000Y-108325000D03*
D11*
X112575000Y-108325000D03*
D10*
X117655000Y-108325000D03*
D12*
X108765000Y-105785000D03*
X115115000Y-103245000D03*
%TD*%
D10*
%TO.C,MX17*%
X69395000Y-108325000D03*
D11*
X74475000Y-108325000D03*
D10*
X79555000Y-108325000D03*
D12*
X70665000Y-105785000D03*
X77015000Y-103245000D03*
%TD*%
D10*
%TO.C,MX21*%
X145595000Y-108325000D03*
D11*
X150675000Y-108325000D03*
D10*
X155755000Y-108325000D03*
D12*
X146865000Y-105785000D03*
X153215000Y-103245000D03*
%TD*%
D10*
%TO.C,MX44*%
X83682500Y-146425000D03*
D11*
X88762500Y-146425000D03*
D10*
X93842500Y-146425000D03*
D12*
X84952500Y-143885000D03*
X91302500Y-141345000D03*
%TD*%
D10*
%TO.C,MX5*%
X131307500Y-84512500D03*
D11*
X136387500Y-84512500D03*
D10*
X141467500Y-84512500D03*
D12*
X132577500Y-81972500D03*
X138927500Y-79432500D03*
%TD*%
D10*
%TO.C,MX47*%
X140832500Y-146425000D03*
D11*
X145912500Y-146425000D03*
D10*
X150992500Y-146425000D03*
D12*
X142102500Y-143885000D03*
X148452500Y-141345000D03*
%TD*%
D10*
%TO.C,MX56*%
X52726250Y-165475000D03*
D11*
X57806250Y-165475000D03*
D10*
X62886250Y-165475000D03*
D12*
X53996250Y-162935000D03*
X60346250Y-160395000D03*
%TD*%
D10*
%TO.C,MX45*%
X102732500Y-146425000D03*
D11*
X107812500Y-146425000D03*
D10*
X112892500Y-146425000D03*
D12*
X104002500Y-143885000D03*
X110352500Y-141345000D03*
%TD*%
D10*
%TO.C,MX64*%
X250370000Y-165475000D03*
D11*
X255450000Y-165475000D03*
D10*
X260530000Y-165475000D03*
D12*
X251640000Y-162935000D03*
X257990000Y-160395000D03*
%TD*%
D10*
%TO.C,MX41*%
X245607500Y-127375000D03*
D11*
X250687500Y-127375000D03*
D10*
X255767500Y-127375000D03*
D12*
X246877500Y-124835000D03*
X253227500Y-122295000D03*
%TD*%
D10*
%TO.C,MX13*%
X297995000Y-84512500D03*
D11*
X303075000Y-84512500D03*
D10*
X308155000Y-84512500D03*
D12*
X299265000Y-81972500D03*
X305615000Y-79432500D03*
%TD*%
D10*
%TO.C,MX57*%
X74157500Y-165475000D03*
D11*
X79237500Y-165475000D03*
D10*
X84317500Y-165475000D03*
D12*
X75427500Y-162935000D03*
X81777500Y-160395000D03*
%TD*%
D11*
%TO.C,MX61*%
X176868750Y-157220000D03*
D13*
X176868750Y-172460000D03*
D10*
X183695000Y-165475000D03*
D11*
X188775000Y-165475000D03*
D10*
X193855000Y-165475000D03*
D11*
X200681250Y-157220000D03*
D13*
X200681250Y-172460000D03*
D12*
X184965000Y-162935000D03*
X191315000Y-160395000D03*
%TD*%
D10*
%TO.C,MX67*%
X317045000Y-165475000D03*
D11*
X322125000Y-165475000D03*
D10*
X327205000Y-165475000D03*
D12*
X318315000Y-162935000D03*
X324665000Y-160395000D03*
%TD*%
D10*
%TO.C,MX27*%
X267038750Y-108325000D03*
D11*
X272118750Y-108325000D03*
D10*
X277198750Y-108325000D03*
D12*
X268308750Y-105785000D03*
X274658750Y-103245000D03*
%TD*%
D10*
%TO.C,MX39*%
X207507500Y-127375000D03*
D11*
X212587500Y-127375000D03*
D10*
X217667500Y-127375000D03*
D12*
X208777500Y-124835000D03*
X215127500Y-122295000D03*
%TD*%
D10*
%TO.C,MX1*%
X50345000Y-84512500D03*
D11*
X55425000Y-84512500D03*
D10*
X60505000Y-84512500D03*
D12*
X51615000Y-81972500D03*
X57965000Y-79432500D03*
%TD*%
D10*
%TO.C,MX20*%
X126545000Y-108325000D03*
D11*
X131625000Y-108325000D03*
D10*
X136705000Y-108325000D03*
D12*
X127815000Y-105785000D03*
X134165000Y-103245000D03*
%TD*%
D10*
%TO.C,MX12*%
X274182500Y-84512500D03*
D11*
X279262500Y-84512500D03*
D10*
X284342500Y-84512500D03*
D12*
X275452500Y-81972500D03*
X281802500Y-79432500D03*
%TD*%
D11*
%TO.C,MX61*%
X179250000Y-157220000D03*
D13*
X179250000Y-172460000D03*
D10*
X193220000Y-165475000D03*
D11*
X198300000Y-165475000D03*
D10*
X203380000Y-165475000D03*
D11*
X217350000Y-157220000D03*
D13*
X217350000Y-172460000D03*
D12*
X194490000Y-162935000D03*
X200840000Y-160395000D03*
%TD*%
D10*
%TO.C,MX7*%
X174170000Y-84512500D03*
D11*
X179250000Y-84512500D03*
D10*
X184330000Y-84512500D03*
D12*
X175440000Y-81972500D03*
X181790000Y-79432500D03*
%TD*%
D10*
%TO.C,MX2*%
X74157500Y-84512500D03*
D11*
X79237500Y-84512500D03*
D10*
X84317500Y-84512500D03*
D12*
X75427500Y-81972500D03*
X81777500Y-79432500D03*
%TD*%
D10*
%TO.C,MX48*%
X159882500Y-146425000D03*
D11*
X164962500Y-146425000D03*
D10*
X170042500Y-146425000D03*
D12*
X161152500Y-143885000D03*
X167502500Y-141345000D03*
%TD*%
D10*
%TO.C,MX3*%
X93207500Y-84512500D03*
D11*
X98287500Y-84512500D03*
D10*
X103367500Y-84512500D03*
D12*
X94477500Y-81972500D03*
X100827500Y-79432500D03*
%TD*%
D10*
%TO.C,MX58*%
X95588750Y-165475000D03*
D11*
X100668750Y-165475000D03*
D10*
X105748750Y-165475000D03*
D12*
X96858750Y-162935000D03*
X103208750Y-160395000D03*
%TD*%
D10*
%TO.C,MX18*%
X88445000Y-108325000D03*
D11*
X93525000Y-108325000D03*
D10*
X98605000Y-108325000D03*
D12*
X89715000Y-105785000D03*
X96065000Y-103245000D03*
%TD*%
D10*
%TO.C,MX58*%
X93207500Y-165475000D03*
D11*
X98287500Y-165475000D03*
D10*
X103367500Y-165475000D03*
D12*
X94477500Y-162935000D03*
X100827500Y-160395000D03*
%TD*%
D10*
%TO.C,MX40*%
X226557500Y-127375000D03*
D11*
X231637500Y-127375000D03*
D10*
X236717500Y-127375000D03*
D12*
X227827500Y-124835000D03*
X234177500Y-122295000D03*
%TD*%
D10*
%TO.C,MX35*%
X131307500Y-127375000D03*
D11*
X136387500Y-127375000D03*
D10*
X141467500Y-127375000D03*
D12*
X132577500Y-124835000D03*
X138927500Y-122295000D03*
%TD*%
D11*
%TO.C,MX60*%
X117343850Y-157220000D03*
D13*
X117343850Y-172460000D03*
D10*
X162263750Y-165475000D03*
D11*
X167343750Y-165475000D03*
D10*
X172423750Y-165475000D03*
D11*
X217343650Y-157220000D03*
D13*
X217343650Y-172460000D03*
D12*
X163533750Y-162935000D03*
X169883750Y-160395000D03*
%TD*%
D10*
%TO.C,MX28*%
X297995000Y-108325000D03*
D11*
X303075000Y-108325000D03*
D10*
X308155000Y-108325000D03*
D12*
X299265000Y-105785000D03*
X305615000Y-103245000D03*
%TD*%
D10*
%TO.C,MX25*%
X221795000Y-108325000D03*
D11*
X226875000Y-108325000D03*
D10*
X231955000Y-108325000D03*
D12*
X223065000Y-105785000D03*
X229415000Y-103245000D03*
%TD*%
D10*
%TO.C,MX54*%
X274182500Y-146425000D03*
D11*
X279262500Y-146425000D03*
D10*
X284342500Y-146425000D03*
D12*
X275452500Y-143885000D03*
X281802500Y-141345000D03*
%TD*%
D10*
%TO.C,MX46*%
X121782500Y-146425000D03*
D11*
X126862500Y-146425000D03*
D10*
X131942500Y-146425000D03*
D12*
X123052500Y-143885000D03*
X129402500Y-141345000D03*
%TD*%
D10*
%TO.C,MX15*%
X336095000Y-84512500D03*
D11*
X341175000Y-84512500D03*
D10*
X346255000Y-84512500D03*
D12*
X337365000Y-81972500D03*
X343715000Y-79432500D03*
%TD*%
D10*
%TO.C,MX59*%
X112257500Y-165475000D03*
D11*
X117337500Y-165475000D03*
D10*
X122417500Y-165475000D03*
D12*
X113527500Y-162935000D03*
X119877500Y-160395000D03*
%TD*%
D10*
%TO.C,MX63*%
X231320000Y-165475000D03*
D11*
X236400000Y-165475000D03*
D10*
X241480000Y-165475000D03*
D12*
X232590000Y-162935000D03*
X238940000Y-160395000D03*
%TD*%
D11*
%TO.C,MX60*%
X122100000Y-157220000D03*
D13*
X122100000Y-172460000D03*
D10*
X136070000Y-165475000D03*
D11*
X141150000Y-165475000D03*
D10*
X146230000Y-165475000D03*
D11*
X160200000Y-157220000D03*
D13*
X160200000Y-172460000D03*
D12*
X137340000Y-162935000D03*
X143690000Y-160395000D03*
%TD*%
D10*
%TO.C,MX11*%
X255132500Y-84512500D03*
D11*
X260212500Y-84512500D03*
D10*
X265292500Y-84512500D03*
D12*
X256402500Y-81972500D03*
X262752500Y-79432500D03*
%TD*%
D10*
%TO.C,MX22*%
X164645000Y-108325000D03*
D11*
X169725000Y-108325000D03*
D10*
X174805000Y-108325000D03*
D12*
X165915000Y-105785000D03*
X172265000Y-103245000D03*
%TD*%
D10*
%TO.C,MX29*%
X317045000Y-108325000D03*
D11*
X322125000Y-108325000D03*
D10*
X327205000Y-108325000D03*
D12*
X318315000Y-105785000D03*
X324665000Y-103245000D03*
%TD*%
D10*
%TO.C,MX14*%
X317045000Y-84512500D03*
D11*
X322125000Y-84512500D03*
D10*
X327205000Y-84512500D03*
D12*
X318315000Y-81972500D03*
X324665000Y-79432500D03*
%TD*%
D10*
%TO.C,MX30*%
X336095000Y-108325000D03*
D11*
X341175000Y-108325000D03*
D10*
X346255000Y-108325000D03*
D12*
X337365000Y-105785000D03*
X343715000Y-103245000D03*
%TD*%
D10*
%TO.C,MX36*%
X150357500Y-127375000D03*
D11*
X155437500Y-127375000D03*
D10*
X160517500Y-127375000D03*
D12*
X151627500Y-124835000D03*
X157977500Y-122295000D03*
%TD*%
D10*
%TO.C,MX16*%
X50345000Y-108325000D03*
D11*
X55425000Y-108325000D03*
D10*
X60505000Y-108325000D03*
D12*
X51615000Y-105785000D03*
X57965000Y-103245000D03*
%TD*%
D10*
%TO.C,MX9*%
X212270000Y-84512500D03*
D11*
X217350000Y-84512500D03*
D10*
X222430000Y-84512500D03*
D12*
X213540000Y-81972500D03*
X219890000Y-79432500D03*
%TD*%
D10*
%TO.C,MX68*%
X336095000Y-165475000D03*
D11*
X341175000Y-165475000D03*
D10*
X346255000Y-165475000D03*
D12*
X337365000Y-162935000D03*
X343715000Y-160395000D03*
%TD*%
D10*
%TO.C,MX66*%
X297995000Y-165475000D03*
D11*
X303075000Y-165475000D03*
D10*
X308155000Y-165475000D03*
D12*
X299265000Y-162935000D03*
X305615000Y-160395000D03*
%TD*%
D10*
%TO.C,MX62*%
X212270000Y-165475000D03*
D11*
X217350000Y-165475000D03*
D10*
X222430000Y-165475000D03*
D12*
X213540000Y-162935000D03*
X219890000Y-160395000D03*
%TD*%
D10*
%TO.C,MX31*%
X52726250Y-127375000D03*
D11*
X57806250Y-127375000D03*
D10*
X62886250Y-127375000D03*
D12*
X53996250Y-124835000D03*
X60346250Y-122295000D03*
%TD*%
D10*
%TO.C,MX26*%
X240845000Y-108325000D03*
D11*
X245925000Y-108325000D03*
D10*
X251005000Y-108325000D03*
D12*
X242115000Y-105785000D03*
X248465000Y-103245000D03*
%TD*%
D10*
%TO.C,MX23*%
X183695000Y-108325000D03*
D11*
X188775000Y-108325000D03*
D10*
X193855000Y-108325000D03*
D12*
X184965000Y-105785000D03*
X191315000Y-103245000D03*
%TD*%
D10*
%TO.C,MX55*%
X317045000Y-146425000D03*
D11*
X322125000Y-146425000D03*
D10*
X327205000Y-146425000D03*
D12*
X318315000Y-143885000D03*
X324665000Y-141345000D03*
%TD*%
D10*
%TO.C,MX33*%
X93207500Y-127375000D03*
D11*
X98287500Y-127375000D03*
D10*
X103367500Y-127375000D03*
D12*
X94477500Y-124835000D03*
X100827500Y-122295000D03*
%TD*%
D10*
%TO.C,MX38*%
X188457500Y-127375000D03*
D11*
X193537500Y-127375000D03*
D10*
X198617500Y-127375000D03*
D12*
X189727500Y-124835000D03*
X196077500Y-122295000D03*
%TD*%
D10*
%TO.C,MX37*%
X169407500Y-127375000D03*
D11*
X174487500Y-127375000D03*
D10*
X179567500Y-127375000D03*
D12*
X170677500Y-124835000D03*
X177027500Y-122295000D03*
%TD*%
D10*
%TO.C,MX52*%
X236082500Y-146425000D03*
D11*
X241162500Y-146425000D03*
D10*
X246242500Y-146425000D03*
D12*
X237352500Y-143885000D03*
X243702500Y-141345000D03*
%TD*%
D10*
%TO.C,MX34*%
X112257500Y-127375000D03*
D11*
X117337500Y-127375000D03*
D10*
X122417500Y-127375000D03*
D12*
X113527500Y-124835000D03*
X119877500Y-122295000D03*
%TD*%
D10*
%TO.C,MX51*%
X217032500Y-146425000D03*
D11*
X222112500Y-146425000D03*
D10*
X227192500Y-146425000D03*
D12*
X218302500Y-143885000D03*
X224652500Y-141345000D03*
%TD*%
D11*
%TO.C,MX60*%
X136387500Y-157220000D03*
D13*
X136387500Y-172460000D03*
D10*
X143213750Y-165475000D03*
D11*
X148293750Y-165475000D03*
D10*
X153373750Y-165475000D03*
D11*
X160200000Y-157220000D03*
D13*
X160200000Y-172460000D03*
D12*
X144483750Y-162935000D03*
X150833750Y-160395000D03*
%TD*%
D10*
%TO.C,MX4*%
X112257500Y-84512500D03*
D11*
X117337500Y-84512500D03*
D10*
X122417500Y-84512500D03*
D12*
X113527500Y-81972500D03*
X119877500Y-79432500D03*
%TD*%
D10*
%TO.C,MX50*%
X197982500Y-146425000D03*
D11*
X203062500Y-146425000D03*
D10*
X208142500Y-146425000D03*
D12*
X199252500Y-143885000D03*
X205602500Y-141345000D03*
%TD*%
D11*
%TO.C,MX60*%
X122100000Y-157220000D03*
D13*
X122100000Y-172460000D03*
D10*
X164645000Y-165475000D03*
D11*
X169725000Y-165475000D03*
D10*
X174805000Y-165475000D03*
D11*
X217350000Y-157220000D03*
D13*
X217350000Y-172460000D03*
D12*
X165915000Y-162935000D03*
X172265000Y-160395000D03*
%TD*%
D10*
%TO.C,MX42*%
X269420000Y-127375000D03*
D11*
X274500000Y-127375000D03*
D10*
X279580000Y-127375000D03*
D12*
X270690000Y-124835000D03*
X277040000Y-122295000D03*
%TD*%
D10*
%TO.C,MX43*%
X57488750Y-146425000D03*
D11*
X62568750Y-146425000D03*
D10*
X67648750Y-146425000D03*
D12*
X58758750Y-143885000D03*
X65108750Y-141345000D03*
%TD*%
D10*
%TO.C,MX53*%
X255132500Y-146425000D03*
D11*
X260212500Y-146425000D03*
D10*
X265292500Y-146425000D03*
D12*
X256402500Y-143885000D03*
X262752500Y-141345000D03*
%TD*%
D10*
%TO.C,MX8*%
X193220000Y-84512500D03*
D11*
X198300000Y-84512500D03*
D10*
X203380000Y-84512500D03*
D12*
X194490000Y-81972500D03*
X200840000Y-79432500D03*
%TD*%
D14*
%TO.C,R_Flash1*%
X86750000Y-124890000D03*
X86750000Y-125910000D03*
%TD*%
D15*
%TO.C,C_3V-Decoup3*%
X75212500Y-137125000D03*
X75212500Y-136165000D03*
%TD*%
D16*
%TO.C,C_3V-Decoup4*%
X68565000Y-143532500D03*
X67605000Y-143532500D03*
%TD*%
D17*
%TO.C,D14*%
X325225000Y-86162500D03*
X325225000Y-82862500D03*
%TD*%
%TO.C,D46*%
X129962500Y-148075000D03*
X129962500Y-144775000D03*
%TD*%
D14*
%TO.C,R_DATA2*%
X73012500Y-138005000D03*
X73012500Y-139025000D03*
%TD*%
D17*
%TO.C,D53*%
X263312500Y-148075000D03*
X263312500Y-144775000D03*
%TD*%
%TO.C,D23*%
X191875000Y-109975000D03*
X191875000Y-106675000D03*
%TD*%
D18*
%TO.C,C_3V-Decoup6*%
X79232500Y-143325000D03*
X80192500Y-143325000D03*
%TD*%
D19*
%TO.C,R_Crystal1*%
X74712500Y-155125000D03*
X74712500Y-154105000D03*
%TD*%
D17*
%TO.C,D16*%
X58525000Y-109975000D03*
X58525000Y-106675000D03*
%TD*%
%TO.C,D56*%
X60906250Y-167125000D03*
X60906250Y-163825000D03*
%TD*%
D20*
%TO.C,D70*%
X309424999Y-130124999D03*
X310824999Y-130124999D03*
X310824999Y-124624999D03*
X309424999Y-124624999D03*
%TD*%
D17*
%TO.C,D68*%
X344275000Y-167125000D03*
X344275000Y-163825000D03*
%TD*%
%TO.C,D67*%
X325225000Y-167125000D03*
X325225000Y-163825000D03*
%TD*%
%TO.C,D7*%
X182350000Y-86162500D03*
X182350000Y-82862500D03*
%TD*%
D15*
%TO.C,C_3V-Decoup2*%
X70712500Y-140705000D03*
X70712500Y-139745000D03*
%TD*%
D17*
%TO.C,D51*%
X225212500Y-148075000D03*
X225212500Y-144775000D03*
%TD*%
D21*
%TO.C,Y1*%
X74712499Y-156624999D03*
X76912499Y-156624999D03*
X76912499Y-158324999D03*
X74712499Y-158324999D03*
%TD*%
D17*
%TO.C,D41*%
X253787500Y-129025000D03*
X253787500Y-125725000D03*
%TD*%
%TO.C,D34*%
X120437500Y-129025000D03*
X120437500Y-125725000D03*
%TD*%
D16*
%TO.C,C_LD2*%
X63430000Y-116450000D03*
X62470000Y-116450000D03*
%TD*%
D17*
%TO.C,D32*%
X82337500Y-129025000D03*
X82337500Y-125725000D03*
%TD*%
%TO.C,D59*%
X120437500Y-167125000D03*
X120437500Y-163825000D03*
%TD*%
%TO.C,D8*%
X201400000Y-86162500D03*
X201400000Y-82862500D03*
%TD*%
D22*
%TO.C,C_Crystal1*%
X78712500Y-157145000D03*
X78712500Y-158105000D03*
%TD*%
D17*
%TO.C,D57*%
X82337500Y-167125000D03*
X82337500Y-163825000D03*
%TD*%
%TO.C,D50*%
X206162500Y-148075000D03*
X206162500Y-144775000D03*
%TD*%
D23*
%TO.C,U2*%
X85402500Y-130925000D03*
X86672500Y-130925000D03*
X87942500Y-130925000D03*
X89212500Y-130925000D03*
X89212500Y-138125000D03*
X87942500Y-138125000D03*
X86672500Y-138125000D03*
X85402500Y-138125000D03*
%TD*%
D17*
%TO.C,D2*%
X82337500Y-86162500D03*
X82337500Y-82862500D03*
%TD*%
%TO.C,D40*%
X234737500Y-129025000D03*
X234737500Y-125725000D03*
%TD*%
D22*
%TO.C,C_1V-Decoup3*%
X72312500Y-154125000D03*
X72312500Y-155085000D03*
%TD*%
D17*
%TO.C,D5*%
X139487500Y-86162500D03*
X139487500Y-82862500D03*
%TD*%
D15*
%TO.C,C_Crystal2*%
X72912500Y-158025000D03*
X72912500Y-157065000D03*
%TD*%
D17*
%TO.C,D42*%
X277600000Y-129025000D03*
X277600000Y-125725000D03*
%TD*%
%TO.C,D19*%
X115675000Y-109975000D03*
X115675000Y-106675000D03*
%TD*%
D24*
%TO.C,U1*%
X78012500Y-144225000D03*
X78012500Y-144625000D03*
X78012500Y-145025000D03*
X78012500Y-145425000D03*
X78012500Y-145825000D03*
X78012500Y-146225000D03*
X78012500Y-146625000D03*
X78012500Y-147025000D03*
X78012500Y-147425000D03*
X78012500Y-147825000D03*
X78012500Y-148225000D03*
X78012500Y-148625000D03*
X78012500Y-149025000D03*
X78012500Y-149425000D03*
D25*
X77175000Y-150262500D03*
X76775000Y-150262500D03*
X76375000Y-150262500D03*
X75975000Y-150262500D03*
X75575000Y-150262500D03*
X75175000Y-150262500D03*
X74775000Y-150262500D03*
X74375000Y-150262500D03*
X73975000Y-150262500D03*
X73575000Y-150262500D03*
X73175000Y-150262500D03*
X72775000Y-150262500D03*
X72375000Y-150262500D03*
X71975000Y-150262500D03*
D24*
X71137500Y-149425000D03*
X71137500Y-149025000D03*
X71137500Y-148625000D03*
X71137500Y-148225000D03*
X71137500Y-147825000D03*
X71137500Y-147425000D03*
X71137500Y-147025000D03*
X71137500Y-146625000D03*
X71137500Y-146225000D03*
X71137500Y-145825000D03*
X71137500Y-145425000D03*
X71137500Y-145025000D03*
X71137500Y-144625000D03*
X71137500Y-144225000D03*
D25*
X71975000Y-143387500D03*
X72375000Y-143387500D03*
X72775000Y-143387500D03*
X73175000Y-143387500D03*
X73575000Y-143387500D03*
X73975000Y-143387500D03*
X74375000Y-143387500D03*
X74775000Y-143387500D03*
X75175000Y-143387500D03*
X75575000Y-143387500D03*
X75975000Y-143387500D03*
X76375000Y-143387500D03*
X76775000Y-143387500D03*
X77175000Y-143387500D03*
D26*
X74575000Y-146825000D03*
%TD*%
D17*
%TO.C,D6*%
X163300000Y-86162500D03*
X163300000Y-82862500D03*
%TD*%
%TO.C,D44*%
X91862500Y-148075000D03*
X91862500Y-144775000D03*
%TD*%
%TO.C,D63*%
X239500000Y-167125000D03*
X239500000Y-163825000D03*
%TD*%
%TO.C,D33*%
X101387500Y-129025000D03*
X101387500Y-125725000D03*
%TD*%
D20*
%TO.C,D75*%
X339424999Y-130124999D03*
X340824999Y-130124999D03*
X340824999Y-124624999D03*
X339424999Y-124624999D03*
%TD*%
D17*
%TO.C,D24*%
X210925000Y-109975000D03*
X210925000Y-106675000D03*
%TD*%
D16*
%TO.C,C_3V-Decoup1*%
X63430000Y-117450000D03*
X62470000Y-117450000D03*
%TD*%
D17*
%TO.C,D52*%
X244262500Y-148075000D03*
X244262500Y-144775000D03*
%TD*%
%TO.C,D21*%
X153775000Y-109975000D03*
X153775000Y-106675000D03*
%TD*%
%TO.C,D15*%
X344275000Y-86162500D03*
X344275000Y-82862500D03*
%TD*%
%TO.C,D37*%
X177587500Y-129025000D03*
X177587500Y-125725000D03*
%TD*%
%TO.C,D61*%
X191875000Y-167125000D03*
X191875000Y-163825000D03*
%TD*%
D20*
%TO.C,D69*%
X303424999Y-130124999D03*
X304824999Y-130124999D03*
X304824999Y-124624999D03*
X303424999Y-124624999D03*
%TD*%
%TO.C,D74*%
X333424999Y-130124999D03*
X334824999Y-130124999D03*
X334824999Y-124624999D03*
X333424999Y-124624999D03*
%TD*%
D17*
%TO.C,D31*%
X60906250Y-129025000D03*
X60906250Y-125725000D03*
%TD*%
%TO.C,D60*%
X151393750Y-167125000D03*
X151393750Y-163825000D03*
%TD*%
%TO.C,D4*%
X120437500Y-86162500D03*
X120437500Y-82862500D03*
%TD*%
D15*
%TO.C,C_1V-Decoup2*%
X76612500Y-137925000D03*
X76612500Y-136965000D03*
%TD*%
D17*
%TO.C,D66*%
X306175000Y-167125000D03*
X306175000Y-163825000D03*
%TD*%
D27*
%TO.C,SW1*%
X88049999Y-122849999D03*
D28*
X86779999Y-122849999D03*
%TD*%
D17*
%TO.C,D49*%
X187112500Y-148075000D03*
X187112500Y-144775000D03*
%TD*%
%TO.C,D62*%
X220450000Y-167125000D03*
X220450000Y-163825000D03*
%TD*%
%TO.C,D36*%
X158537500Y-129025000D03*
X158537500Y-125725000D03*
%TD*%
%TO.C,D64*%
X258550000Y-167125000D03*
X258550000Y-163825000D03*
%TD*%
D20*
%TO.C,D72*%
X321424999Y-130124999D03*
X322824999Y-130124999D03*
X322824999Y-124624999D03*
X321424999Y-124624999D03*
%TD*%
D17*
%TO.C,D20*%
X134725000Y-109975000D03*
X134725000Y-106675000D03*
%TD*%
D16*
%TO.C,C_LD1*%
X64410000Y-111350000D03*
X63450000Y-111350000D03*
%TD*%
D17*
%TO.C,D39*%
X215687500Y-129025000D03*
X215687500Y-125725000D03*
%TD*%
D14*
%TO.C,R_DATA1*%
X74112500Y-138005000D03*
X74112500Y-139025000D03*
%TD*%
D17*
%TO.C,D10*%
X244262500Y-86162500D03*
X244262500Y-82862500D03*
%TD*%
D19*
%TO.C,R_RST1*%
X50362500Y-133485000D03*
X50362500Y-132465000D03*
%TD*%
D29*
%TO.C,J2*%
X47512499Y-131949999D03*
D30*
X47512499Y-134489999D03*
X47512499Y-137029999D03*
X47512499Y-139569999D03*
X47512499Y-142109999D03*
%TD*%
D17*
%TO.C,D47*%
X149012500Y-148075000D03*
X149012500Y-144775000D03*
%TD*%
D31*
%TO.C,U3*%
X65350000Y-114787500D03*
X63450000Y-114787500D03*
X64400000Y-112912500D03*
%TD*%
D17*
%TO.C,D48*%
X168062500Y-148075000D03*
X168062500Y-144775000D03*
%TD*%
D16*
%TO.C,C_3V-Decoup7*%
X68565000Y-141532500D03*
X67605000Y-141532500D03*
%TD*%
D17*
%TO.C,D13*%
X306175000Y-86162500D03*
X306175000Y-82862500D03*
%TD*%
D15*
%TO.C,C_1V-Decoup1*%
X71912500Y-139605000D03*
X71912500Y-138645000D03*
%TD*%
D17*
%TO.C,D35*%
X139487500Y-129025000D03*
X139487500Y-125725000D03*
%TD*%
%TO.C,D17*%
X77575000Y-109975000D03*
X77575000Y-106675000D03*
%TD*%
%TO.C,D3*%
X101387500Y-86162500D03*
X101387500Y-82862500D03*
%TD*%
D32*
%TO.C,C_3V-Decoup9*%
X82910589Y-154060589D03*
X83589411Y-154739411D03*
%TD*%
D17*
%TO.C,D18*%
X96625000Y-109975000D03*
X96625000Y-106675000D03*
%TD*%
D15*
%TO.C,C_Flash1*%
X83612500Y-138125000D03*
X83612500Y-137165000D03*
%TD*%
D17*
%TO.C,D22*%
X172825000Y-109975000D03*
X172825000Y-106675000D03*
%TD*%
%TO.C,D26*%
X249025000Y-109975000D03*
X249025000Y-106675000D03*
%TD*%
%TO.C,D30*%
X344275000Y-109975000D03*
X344275000Y-106675000D03*
%TD*%
D22*
%TO.C,C_3V-Decoup8*%
X73512500Y-154125000D03*
X73512500Y-155085000D03*
%TD*%
D17*
%TO.C,D1*%
X58525000Y-86162500D03*
X58525000Y-82862500D03*
%TD*%
D16*
%TO.C,C_3V-Decoup5*%
X68565000Y-142532500D03*
X67605000Y-142532500D03*
%TD*%
D17*
%TO.C,D54*%
X282362500Y-148075000D03*
X282362500Y-144775000D03*
%TD*%
%TO.C,D11*%
X263312500Y-86162500D03*
X263312500Y-82862500D03*
%TD*%
%TO.C,D12*%
X282362500Y-86162500D03*
X282362500Y-82862500D03*
%TD*%
%TO.C,D9*%
X220450000Y-86162500D03*
X220450000Y-82862500D03*
%TD*%
%TO.C,D27*%
X275218750Y-109975000D03*
X275218750Y-106675000D03*
%TD*%
%TO.C,D65*%
X279981250Y-167125000D03*
X279981250Y-163825000D03*
%TD*%
%TO.C,D43*%
X65668750Y-148075000D03*
X65668750Y-144775000D03*
%TD*%
D20*
%TO.C,D73*%
X327424999Y-130124999D03*
X328824999Y-130124999D03*
X328824999Y-124624999D03*
X327424999Y-124624999D03*
%TD*%
D17*
%TO.C,D38*%
X196637500Y-129025000D03*
X196637500Y-125725000D03*
%TD*%
%TO.C,D58*%
X108387500Y-167125000D03*
X108387500Y-163825000D03*
%TD*%
%TO.C,D45*%
X110912500Y-148075000D03*
X110912500Y-144775000D03*
%TD*%
%TO.C,D55*%
X325225000Y-148075000D03*
X325225000Y-144775000D03*
%TD*%
D33*
%TO.C,U4*%
X296262500Y-129350000D03*
X296262500Y-128400000D03*
X296262500Y-127450000D03*
X298537500Y-127450000D03*
X298537500Y-129350000D03*
%TD*%
D17*
%TO.C,D29*%
X325225000Y-109975000D03*
X325225000Y-106675000D03*
%TD*%
%TO.C,D25*%
X229975000Y-109975000D03*
X229975000Y-106675000D03*
%TD*%
D34*
%TO.C,J1*%
X69912500Y-116625000D03*
X69912500Y-117625000D03*
X69912500Y-118625000D03*
X69912500Y-119625000D03*
D35*
X73787500Y-115325000D03*
X73787500Y-120925000D03*
%TD*%
D17*
%TO.C,D28*%
X306175000Y-109975000D03*
X306175000Y-106675000D03*
%TD*%
D20*
%TO.C,D71*%
X315424999Y-130124999D03*
X316824999Y-130124999D03*
X316824999Y-124624999D03*
X315424999Y-124624999D03*
%TD*%
M02*
