%TF.GenerationSoftware,KiCad,Pcbnew,(7.0.0-0)*%
%TF.CreationDate,2023-07-19T14:43:01-04:00*%
%TF.ProjectId,meadowstumble,6d656164-6f77-4737-9475-6d626c652e6b,rev?*%
%TF.SameCoordinates,Original*%
%TF.FileFunction,Legend,Bot*%
%TF.FilePolarity,Positive*%
%FSLAX46Y46*%
G04 Gerber Fmt 4.6, Leading zero omitted, Abs format (unit mm)*
G04 Created by KiCad (PCBNEW (7.0.0-0)) date 2023-07-19 14:43:01*
%MOMM*%
%LPD*%
G01*
G04 APERTURE LIST*
G04 Aperture macros list*
%AMRoundRect*
0 Rectangle with rounded corners*
0 $1 Rounding radius*
0 $2 $3 $4 $5 $6 $7 $8 $9 X,Y pos of 4 corners*
0 Add a 4 corners polygon primitive as box body*
4,1,4,$2,$3,$4,$5,$6,$7,$8,$9,$2,$3,0*
0 Add four circle primitives for the rounded corners*
1,1,$1+$1,$2,$3*
1,1,$1+$1,$4,$5*
1,1,$1+$1,$6,$7*
1,1,$1+$1,$8,$9*
0 Add four rect primitives between the rounded corners*
20,1,$1+$1,$2,$3,$4,$5,0*
20,1,$1+$1,$4,$5,$6,$7,0*
20,1,$1+$1,$6,$7,$8,$9,0*
20,1,$1+$1,$8,$9,$2,$3,0*%
G04 Aperture macros list end*
%ADD10C,0.300000*%
%ADD11C,0.150000*%
%ADD12C,0.120000*%
%ADD13C,1.750000*%
%ADD14C,3.987800*%
%ADD15C,2.250000*%
%ADD16C,3.048000*%
%ADD17RoundRect,0.135000X-0.185000X0.135000X-0.185000X-0.135000X0.185000X-0.135000X0.185000X0.135000X0*%
%ADD18RoundRect,0.140000X0.170000X-0.140000X0.170000X0.140000X-0.170000X0.140000X-0.170000X-0.140000X0*%
%ADD19RoundRect,0.140000X0.140000X0.170000X-0.140000X0.170000X-0.140000X-0.170000X0.140000X-0.170000X0*%
%ADD20RoundRect,0.225000X0.375000X-0.225000X0.375000X0.225000X-0.375000X0.225000X-0.375000X-0.225000X0*%
%ADD21RoundRect,0.140000X-0.140000X-0.170000X0.140000X-0.170000X0.140000X0.170000X-0.140000X0.170000X0*%
%ADD22RoundRect,0.135000X0.185000X-0.135000X0.185000X0.135000X-0.185000X0.135000X-0.185000X-0.135000X0*%
%ADD23R,1.000000X1.700000*%
%ADD24R,1.400000X1.200000*%
%ADD25RoundRect,0.140000X-0.170000X0.140000X-0.170000X-0.140000X0.170000X-0.140000X0.170000X0.140000X0*%
%ADD26RoundRect,0.150000X-0.150000X0.650000X-0.150000X-0.650000X0.150000X-0.650000X0.150000X0.650000X0*%
%ADD27RoundRect,0.050000X0.387500X0.050000X-0.387500X0.050000X-0.387500X-0.050000X0.387500X-0.050000X0*%
%ADD28RoundRect,0.050000X0.050000X0.387500X-0.050000X0.387500X-0.050000X-0.387500X0.050000X-0.387500X0*%
%ADD29RoundRect,0.144000X1.456000X1.456000X-1.456000X1.456000X-1.456000X-1.456000X1.456000X-1.456000X0*%
%ADD30R,1.000000X1.000000*%
%ADD31O,1.000000X1.000000*%
%ADD32R,1.700000X1.700000*%
%ADD33O,1.700000X1.700000*%
%ADD34RoundRect,0.150000X0.150000X-0.587500X0.150000X0.587500X-0.150000X0.587500X-0.150000X-0.587500X0*%
%ADD35RoundRect,0.140000X-0.219203X-0.021213X-0.021213X-0.219203X0.219203X0.021213X0.021213X0.219203X0*%
%ADD36RoundRect,0.150000X-0.512500X-0.150000X0.512500X-0.150000X0.512500X0.150000X-0.512500X0.150000X0*%
%ADD37RoundRect,0.150000X-0.625000X0.150000X-0.625000X-0.150000X0.625000X-0.150000X0.625000X0.150000X0*%
%ADD38RoundRect,0.250000X-0.650000X0.350000X-0.650000X-0.350000X0.650000X-0.350000X0.650000X0.350000X0*%
G04 APERTURE END LIST*
D10*
X89335714Y-121023571D02*
X89835714Y-120309285D01*
X90192857Y-121023571D02*
X90192857Y-119523571D01*
X90192857Y-119523571D02*
X89621428Y-119523571D01*
X89621428Y-119523571D02*
X89478571Y-119595000D01*
X89478571Y-119595000D02*
X89407142Y-119666428D01*
X89407142Y-119666428D02*
X89335714Y-119809285D01*
X89335714Y-119809285D02*
X89335714Y-120023571D01*
X89335714Y-120023571D02*
X89407142Y-120166428D01*
X89407142Y-120166428D02*
X89478571Y-120237857D01*
X89478571Y-120237857D02*
X89621428Y-120309285D01*
X89621428Y-120309285D02*
X90192857Y-120309285D01*
X88121428Y-120952142D02*
X88264285Y-121023571D01*
X88264285Y-121023571D02*
X88550000Y-121023571D01*
X88550000Y-121023571D02*
X88692857Y-120952142D01*
X88692857Y-120952142D02*
X88764285Y-120809285D01*
X88764285Y-120809285D02*
X88764285Y-120237857D01*
X88764285Y-120237857D02*
X88692857Y-120095000D01*
X88692857Y-120095000D02*
X88550000Y-120023571D01*
X88550000Y-120023571D02*
X88264285Y-120023571D01*
X88264285Y-120023571D02*
X88121428Y-120095000D01*
X88121428Y-120095000D02*
X88050000Y-120237857D01*
X88050000Y-120237857D02*
X88050000Y-120380714D01*
X88050000Y-120380714D02*
X88764285Y-120523571D01*
X87478571Y-120952142D02*
X87335714Y-121023571D01*
X87335714Y-121023571D02*
X87050000Y-121023571D01*
X87050000Y-121023571D02*
X86907143Y-120952142D01*
X86907143Y-120952142D02*
X86835714Y-120809285D01*
X86835714Y-120809285D02*
X86835714Y-120737857D01*
X86835714Y-120737857D02*
X86907143Y-120595000D01*
X86907143Y-120595000D02*
X87050000Y-120523571D01*
X87050000Y-120523571D02*
X87264286Y-120523571D01*
X87264286Y-120523571D02*
X87407143Y-120452142D01*
X87407143Y-120452142D02*
X87478571Y-120309285D01*
X87478571Y-120309285D02*
X87478571Y-120237857D01*
X87478571Y-120237857D02*
X87407143Y-120095000D01*
X87407143Y-120095000D02*
X87264286Y-120023571D01*
X87264286Y-120023571D02*
X87050000Y-120023571D01*
X87050000Y-120023571D02*
X86907143Y-120095000D01*
X85621428Y-120952142D02*
X85764285Y-121023571D01*
X85764285Y-121023571D02*
X86050000Y-121023571D01*
X86050000Y-121023571D02*
X86192857Y-120952142D01*
X86192857Y-120952142D02*
X86264285Y-120809285D01*
X86264285Y-120809285D02*
X86264285Y-120237857D01*
X86264285Y-120237857D02*
X86192857Y-120095000D01*
X86192857Y-120095000D02*
X86050000Y-120023571D01*
X86050000Y-120023571D02*
X85764285Y-120023571D01*
X85764285Y-120023571D02*
X85621428Y-120095000D01*
X85621428Y-120095000D02*
X85550000Y-120237857D01*
X85550000Y-120237857D02*
X85550000Y-120380714D01*
X85550000Y-120380714D02*
X86264285Y-120523571D01*
X85121428Y-120023571D02*
X84550000Y-120023571D01*
X84907143Y-119523571D02*
X84907143Y-120809285D01*
X84907143Y-120809285D02*
X84835714Y-120952142D01*
X84835714Y-120952142D02*
X84692857Y-121023571D01*
X84692857Y-121023571D02*
X84550000Y-121023571D01*
D11*
%TO.C,D70*%
X321692380Y-126360714D02*
X320692380Y-126360714D01*
X320692380Y-126360714D02*
X320692380Y-126598809D01*
X320692380Y-126598809D02*
X320740000Y-126741666D01*
X320740000Y-126741666D02*
X320835238Y-126836904D01*
X320835238Y-126836904D02*
X320930476Y-126884523D01*
X320930476Y-126884523D02*
X321120952Y-126932142D01*
X321120952Y-126932142D02*
X321263809Y-126932142D01*
X321263809Y-126932142D02*
X321454285Y-126884523D01*
X321454285Y-126884523D02*
X321549523Y-126836904D01*
X321549523Y-126836904D02*
X321644761Y-126741666D01*
X321644761Y-126741666D02*
X321692380Y-126598809D01*
X321692380Y-126598809D02*
X321692380Y-126360714D01*
X320692380Y-127265476D02*
X320692380Y-127932142D01*
X320692380Y-127932142D02*
X321692380Y-127503571D01*
X320692380Y-128503571D02*
X320692380Y-128598809D01*
X320692380Y-128598809D02*
X320740000Y-128694047D01*
X320740000Y-128694047D02*
X320787619Y-128741666D01*
X320787619Y-128741666D02*
X320882857Y-128789285D01*
X320882857Y-128789285D02*
X321073333Y-128836904D01*
X321073333Y-128836904D02*
X321311428Y-128836904D01*
X321311428Y-128836904D02*
X321501904Y-128789285D01*
X321501904Y-128789285D02*
X321597142Y-128741666D01*
X321597142Y-128741666D02*
X321644761Y-128694047D01*
X321644761Y-128694047D02*
X321692380Y-128598809D01*
X321692380Y-128598809D02*
X321692380Y-128503571D01*
X321692380Y-128503571D02*
X321644761Y-128408333D01*
X321644761Y-128408333D02*
X321597142Y-128360714D01*
X321597142Y-128360714D02*
X321501904Y-128313095D01*
X321501904Y-128313095D02*
X321311428Y-128265476D01*
X321311428Y-128265476D02*
X321073333Y-128265476D01*
X321073333Y-128265476D02*
X320882857Y-128313095D01*
X320882857Y-128313095D02*
X320787619Y-128360714D01*
X320787619Y-128360714D02*
X320740000Y-128408333D01*
X320740000Y-128408333D02*
X320692380Y-128503571D01*
%TO.C,D75*%
X351692380Y-126360714D02*
X350692380Y-126360714D01*
X350692380Y-126360714D02*
X350692380Y-126598809D01*
X350692380Y-126598809D02*
X350740000Y-126741666D01*
X350740000Y-126741666D02*
X350835238Y-126836904D01*
X350835238Y-126836904D02*
X350930476Y-126884523D01*
X350930476Y-126884523D02*
X351120952Y-126932142D01*
X351120952Y-126932142D02*
X351263809Y-126932142D01*
X351263809Y-126932142D02*
X351454285Y-126884523D01*
X351454285Y-126884523D02*
X351549523Y-126836904D01*
X351549523Y-126836904D02*
X351644761Y-126741666D01*
X351644761Y-126741666D02*
X351692380Y-126598809D01*
X351692380Y-126598809D02*
X351692380Y-126360714D01*
X350692380Y-127265476D02*
X350692380Y-127932142D01*
X350692380Y-127932142D02*
X351692380Y-127503571D01*
X350692380Y-128789285D02*
X350692380Y-128313095D01*
X350692380Y-128313095D02*
X351168571Y-128265476D01*
X351168571Y-128265476D02*
X351120952Y-128313095D01*
X351120952Y-128313095D02*
X351073333Y-128408333D01*
X351073333Y-128408333D02*
X351073333Y-128646428D01*
X351073333Y-128646428D02*
X351120952Y-128741666D01*
X351120952Y-128741666D02*
X351168571Y-128789285D01*
X351168571Y-128789285D02*
X351263809Y-128836904D01*
X351263809Y-128836904D02*
X351501904Y-128836904D01*
X351501904Y-128836904D02*
X351597142Y-128789285D01*
X351597142Y-128789285D02*
X351644761Y-128741666D01*
X351644761Y-128741666D02*
X351692380Y-128646428D01*
X351692380Y-128646428D02*
X351692380Y-128408333D01*
X351692380Y-128408333D02*
X351644761Y-128313095D01*
X351644761Y-128313095D02*
X351597142Y-128265476D01*
%TO.C,D69*%
X315692380Y-126360714D02*
X314692380Y-126360714D01*
X314692380Y-126360714D02*
X314692380Y-126598809D01*
X314692380Y-126598809D02*
X314740000Y-126741666D01*
X314740000Y-126741666D02*
X314835238Y-126836904D01*
X314835238Y-126836904D02*
X314930476Y-126884523D01*
X314930476Y-126884523D02*
X315120952Y-126932142D01*
X315120952Y-126932142D02*
X315263809Y-126932142D01*
X315263809Y-126932142D02*
X315454285Y-126884523D01*
X315454285Y-126884523D02*
X315549523Y-126836904D01*
X315549523Y-126836904D02*
X315644761Y-126741666D01*
X315644761Y-126741666D02*
X315692380Y-126598809D01*
X315692380Y-126598809D02*
X315692380Y-126360714D01*
X314692380Y-127789285D02*
X314692380Y-127598809D01*
X314692380Y-127598809D02*
X314740000Y-127503571D01*
X314740000Y-127503571D02*
X314787619Y-127455952D01*
X314787619Y-127455952D02*
X314930476Y-127360714D01*
X314930476Y-127360714D02*
X315120952Y-127313095D01*
X315120952Y-127313095D02*
X315501904Y-127313095D01*
X315501904Y-127313095D02*
X315597142Y-127360714D01*
X315597142Y-127360714D02*
X315644761Y-127408333D01*
X315644761Y-127408333D02*
X315692380Y-127503571D01*
X315692380Y-127503571D02*
X315692380Y-127694047D01*
X315692380Y-127694047D02*
X315644761Y-127789285D01*
X315644761Y-127789285D02*
X315597142Y-127836904D01*
X315597142Y-127836904D02*
X315501904Y-127884523D01*
X315501904Y-127884523D02*
X315263809Y-127884523D01*
X315263809Y-127884523D02*
X315168571Y-127836904D01*
X315168571Y-127836904D02*
X315120952Y-127789285D01*
X315120952Y-127789285D02*
X315073333Y-127694047D01*
X315073333Y-127694047D02*
X315073333Y-127503571D01*
X315073333Y-127503571D02*
X315120952Y-127408333D01*
X315120952Y-127408333D02*
X315168571Y-127360714D01*
X315168571Y-127360714D02*
X315263809Y-127313095D01*
X315692380Y-128360714D02*
X315692380Y-128551190D01*
X315692380Y-128551190D02*
X315644761Y-128646428D01*
X315644761Y-128646428D02*
X315597142Y-128694047D01*
X315597142Y-128694047D02*
X315454285Y-128789285D01*
X315454285Y-128789285D02*
X315263809Y-128836904D01*
X315263809Y-128836904D02*
X314882857Y-128836904D01*
X314882857Y-128836904D02*
X314787619Y-128789285D01*
X314787619Y-128789285D02*
X314740000Y-128741666D01*
X314740000Y-128741666D02*
X314692380Y-128646428D01*
X314692380Y-128646428D02*
X314692380Y-128455952D01*
X314692380Y-128455952D02*
X314740000Y-128360714D01*
X314740000Y-128360714D02*
X314787619Y-128313095D01*
X314787619Y-128313095D02*
X314882857Y-128265476D01*
X314882857Y-128265476D02*
X315120952Y-128265476D01*
X315120952Y-128265476D02*
X315216190Y-128313095D01*
X315216190Y-128313095D02*
X315263809Y-128360714D01*
X315263809Y-128360714D02*
X315311428Y-128455952D01*
X315311428Y-128455952D02*
X315311428Y-128646428D01*
X315311428Y-128646428D02*
X315263809Y-128741666D01*
X315263809Y-128741666D02*
X315216190Y-128789285D01*
X315216190Y-128789285D02*
X315120952Y-128836904D01*
%TO.C,D74*%
X345692380Y-126360714D02*
X344692380Y-126360714D01*
X344692380Y-126360714D02*
X344692380Y-126598809D01*
X344692380Y-126598809D02*
X344740000Y-126741666D01*
X344740000Y-126741666D02*
X344835238Y-126836904D01*
X344835238Y-126836904D02*
X344930476Y-126884523D01*
X344930476Y-126884523D02*
X345120952Y-126932142D01*
X345120952Y-126932142D02*
X345263809Y-126932142D01*
X345263809Y-126932142D02*
X345454285Y-126884523D01*
X345454285Y-126884523D02*
X345549523Y-126836904D01*
X345549523Y-126836904D02*
X345644761Y-126741666D01*
X345644761Y-126741666D02*
X345692380Y-126598809D01*
X345692380Y-126598809D02*
X345692380Y-126360714D01*
X344692380Y-127265476D02*
X344692380Y-127932142D01*
X344692380Y-127932142D02*
X345692380Y-127503571D01*
X345025714Y-128741666D02*
X345692380Y-128741666D01*
X344644761Y-128503571D02*
X345359047Y-128265476D01*
X345359047Y-128265476D02*
X345359047Y-128884523D01*
%TO.C,D72*%
X333692380Y-126360714D02*
X332692380Y-126360714D01*
X332692380Y-126360714D02*
X332692380Y-126598809D01*
X332692380Y-126598809D02*
X332740000Y-126741666D01*
X332740000Y-126741666D02*
X332835238Y-126836904D01*
X332835238Y-126836904D02*
X332930476Y-126884523D01*
X332930476Y-126884523D02*
X333120952Y-126932142D01*
X333120952Y-126932142D02*
X333263809Y-126932142D01*
X333263809Y-126932142D02*
X333454285Y-126884523D01*
X333454285Y-126884523D02*
X333549523Y-126836904D01*
X333549523Y-126836904D02*
X333644761Y-126741666D01*
X333644761Y-126741666D02*
X333692380Y-126598809D01*
X333692380Y-126598809D02*
X333692380Y-126360714D01*
X332692380Y-127265476D02*
X332692380Y-127932142D01*
X332692380Y-127932142D02*
X333692380Y-127503571D01*
X332787619Y-128265476D02*
X332740000Y-128313095D01*
X332740000Y-128313095D02*
X332692380Y-128408333D01*
X332692380Y-128408333D02*
X332692380Y-128646428D01*
X332692380Y-128646428D02*
X332740000Y-128741666D01*
X332740000Y-128741666D02*
X332787619Y-128789285D01*
X332787619Y-128789285D02*
X332882857Y-128836904D01*
X332882857Y-128836904D02*
X332978095Y-128836904D01*
X332978095Y-128836904D02*
X333120952Y-128789285D01*
X333120952Y-128789285D02*
X333692380Y-128217857D01*
X333692380Y-128217857D02*
X333692380Y-128836904D01*
%TO.C,D73*%
X339692380Y-126360714D02*
X338692380Y-126360714D01*
X338692380Y-126360714D02*
X338692380Y-126598809D01*
X338692380Y-126598809D02*
X338740000Y-126741666D01*
X338740000Y-126741666D02*
X338835238Y-126836904D01*
X338835238Y-126836904D02*
X338930476Y-126884523D01*
X338930476Y-126884523D02*
X339120952Y-126932142D01*
X339120952Y-126932142D02*
X339263809Y-126932142D01*
X339263809Y-126932142D02*
X339454285Y-126884523D01*
X339454285Y-126884523D02*
X339549523Y-126836904D01*
X339549523Y-126836904D02*
X339644761Y-126741666D01*
X339644761Y-126741666D02*
X339692380Y-126598809D01*
X339692380Y-126598809D02*
X339692380Y-126360714D01*
X338692380Y-127265476D02*
X338692380Y-127932142D01*
X338692380Y-127932142D02*
X339692380Y-127503571D01*
X338692380Y-128217857D02*
X338692380Y-128836904D01*
X338692380Y-128836904D02*
X339073333Y-128503571D01*
X339073333Y-128503571D02*
X339073333Y-128646428D01*
X339073333Y-128646428D02*
X339120952Y-128741666D01*
X339120952Y-128741666D02*
X339168571Y-128789285D01*
X339168571Y-128789285D02*
X339263809Y-128836904D01*
X339263809Y-128836904D02*
X339501904Y-128836904D01*
X339501904Y-128836904D02*
X339597142Y-128789285D01*
X339597142Y-128789285D02*
X339644761Y-128741666D01*
X339644761Y-128741666D02*
X339692380Y-128646428D01*
X339692380Y-128646428D02*
X339692380Y-128360714D01*
X339692380Y-128360714D02*
X339644761Y-128265476D01*
X339644761Y-128265476D02*
X339597142Y-128217857D01*
%TO.C,D71*%
X327692380Y-126360714D02*
X326692380Y-126360714D01*
X326692380Y-126360714D02*
X326692380Y-126598809D01*
X326692380Y-126598809D02*
X326740000Y-126741666D01*
X326740000Y-126741666D02*
X326835238Y-126836904D01*
X326835238Y-126836904D02*
X326930476Y-126884523D01*
X326930476Y-126884523D02*
X327120952Y-126932142D01*
X327120952Y-126932142D02*
X327263809Y-126932142D01*
X327263809Y-126932142D02*
X327454285Y-126884523D01*
X327454285Y-126884523D02*
X327549523Y-126836904D01*
X327549523Y-126836904D02*
X327644761Y-126741666D01*
X327644761Y-126741666D02*
X327692380Y-126598809D01*
X327692380Y-126598809D02*
X327692380Y-126360714D01*
X326692380Y-127265476D02*
X326692380Y-127932142D01*
X326692380Y-127932142D02*
X327692380Y-127503571D01*
X327692380Y-128836904D02*
X327692380Y-128265476D01*
X327692380Y-128551190D02*
X326692380Y-128551190D01*
X326692380Y-128551190D02*
X326835238Y-128455952D01*
X326835238Y-128455952D02*
X326930476Y-128360714D01*
X326930476Y-128360714D02*
X326978095Y-128265476D01*
D12*
%TO.C,R_Flash1*%
X87130000Y-125246359D02*
X87130000Y-125553641D01*
X86370000Y-125246359D02*
X86370000Y-125553641D01*
%TO.C,C_3V-Decoup3*%
X74852500Y-136752836D02*
X74852500Y-136537164D01*
X75572500Y-136752836D02*
X75572500Y-136537164D01*
%TO.C,C_3V-Decoup4*%
X68192836Y-143892500D02*
X67977164Y-143892500D01*
X68192836Y-143172500D02*
X67977164Y-143172500D01*
%TO.C,D14*%
X324225000Y-86872500D02*
X324225000Y-82862500D01*
X326225000Y-86872500D02*
X324225000Y-86872500D01*
X326225000Y-86872500D02*
X326225000Y-82862500D01*
%TO.C,D46*%
X128962500Y-148785000D02*
X128962500Y-144775000D01*
X130962500Y-148785000D02*
X128962500Y-148785000D01*
X130962500Y-148785000D02*
X130962500Y-144775000D01*
%TO.C,R_DATA2*%
X73392500Y-138361359D02*
X73392500Y-138668641D01*
X72632500Y-138361359D02*
X72632500Y-138668641D01*
%TO.C,D53*%
X262312500Y-148785000D02*
X262312500Y-144775000D01*
X264312500Y-148785000D02*
X262312500Y-148785000D01*
X264312500Y-148785000D02*
X264312500Y-144775000D01*
%TO.C,D23*%
X190875000Y-110685000D02*
X190875000Y-106675000D01*
X192875000Y-110685000D02*
X190875000Y-110685000D01*
X192875000Y-110685000D02*
X192875000Y-106675000D01*
%TO.C,C_3V-Decoup6*%
X79604664Y-142965000D02*
X79820336Y-142965000D01*
X79604664Y-143685000D02*
X79820336Y-143685000D01*
%TO.C,R_Crystal1*%
X74332500Y-154768641D02*
X74332500Y-154461359D01*
X75092500Y-154768641D02*
X75092500Y-154461359D01*
%TO.C,D16*%
X57525000Y-110685000D02*
X57525000Y-106675000D01*
X59525000Y-110685000D02*
X57525000Y-110685000D01*
X59525000Y-110685000D02*
X59525000Y-106675000D01*
%TO.C,D56*%
X59906250Y-167835000D02*
X59906250Y-163825000D01*
X61906250Y-167835000D02*
X59906250Y-167835000D01*
X61906250Y-167835000D02*
X61906250Y-163825000D01*
%TO.C,D70*%
X311975000Y-123475000D02*
X311975000Y-131275000D01*
X310375000Y-123475000D02*
X311975000Y-123475000D01*
X308275000Y-131275000D02*
X308275000Y-123475000D01*
%TO.C,D68*%
X343275000Y-167835000D02*
X343275000Y-163825000D01*
X345275000Y-167835000D02*
X343275000Y-167835000D01*
X345275000Y-167835000D02*
X345275000Y-163825000D01*
%TO.C,D67*%
X324225000Y-167835000D02*
X324225000Y-163825000D01*
X326225000Y-167835000D02*
X324225000Y-167835000D01*
X326225000Y-167835000D02*
X326225000Y-163825000D01*
%TO.C,D7*%
X181350000Y-86872500D02*
X181350000Y-82862500D01*
X183350000Y-86872500D02*
X181350000Y-86872500D01*
X183350000Y-86872500D02*
X183350000Y-82862500D01*
%TO.C,C_3V-Decoup2*%
X70352500Y-140332836D02*
X70352500Y-140117164D01*
X71072500Y-140332836D02*
X71072500Y-140117164D01*
%TO.C,D51*%
X224212500Y-148785000D02*
X224212500Y-144775000D01*
X226212500Y-148785000D02*
X224212500Y-148785000D01*
X226212500Y-148785000D02*
X226212500Y-144775000D01*
%TO.C,Y1*%
X73812500Y-155825000D02*
X77812500Y-155825000D01*
X73812500Y-159125000D02*
X73812500Y-155825000D01*
%TO.C,D41*%
X252787500Y-129735000D02*
X252787500Y-125725000D01*
X254787500Y-129735000D02*
X252787500Y-129735000D01*
X254787500Y-129735000D02*
X254787500Y-125725000D01*
%TO.C,D34*%
X119437500Y-129735000D02*
X119437500Y-125725000D01*
X121437500Y-129735000D02*
X119437500Y-129735000D01*
X121437500Y-129735000D02*
X121437500Y-125725000D01*
%TO.C,C_LD2*%
X63057836Y-116810000D02*
X62842164Y-116810000D01*
X63057836Y-116090000D02*
X62842164Y-116090000D01*
%TO.C,D32*%
X81337500Y-129735000D02*
X81337500Y-125725000D01*
X83337500Y-129735000D02*
X81337500Y-129735000D01*
X83337500Y-129735000D02*
X83337500Y-125725000D01*
%TO.C,D59*%
X119437500Y-167835000D02*
X119437500Y-163825000D01*
X121437500Y-167835000D02*
X119437500Y-167835000D01*
X121437500Y-167835000D02*
X121437500Y-163825000D01*
%TO.C,D8*%
X200400000Y-86872500D02*
X200400000Y-82862500D01*
X202400000Y-86872500D02*
X200400000Y-86872500D01*
X202400000Y-86872500D02*
X202400000Y-82862500D01*
%TO.C,C_Crystal1*%
X79072500Y-157517164D02*
X79072500Y-157732836D01*
X78352500Y-157517164D02*
X78352500Y-157732836D01*
%TO.C,D57*%
X81337500Y-167835000D02*
X81337500Y-163825000D01*
X83337500Y-167835000D02*
X81337500Y-167835000D01*
X83337500Y-167835000D02*
X83337500Y-163825000D01*
%TO.C,D50*%
X205162500Y-148785000D02*
X205162500Y-144775000D01*
X207162500Y-148785000D02*
X205162500Y-148785000D01*
X207162500Y-148785000D02*
X207162500Y-144775000D01*
%TO.C,U2*%
X90032500Y-131800000D02*
X89772500Y-131800000D01*
X84842500Y-131800000D02*
X84842500Y-130125000D01*
X84582500Y-131800000D02*
X84842500Y-131800000D01*
X90032500Y-134525000D02*
X90032500Y-131800000D01*
X90032500Y-134525000D02*
X90032500Y-137250000D01*
X84582500Y-134525000D02*
X84582500Y-131800000D01*
X84582500Y-134525000D02*
X84582500Y-137250000D01*
X90032500Y-137250000D02*
X89772500Y-137250000D01*
X84582500Y-137250000D02*
X84842500Y-137250000D01*
%TO.C,D2*%
X81337500Y-86872500D02*
X81337500Y-82862500D01*
X83337500Y-86872500D02*
X81337500Y-86872500D01*
X83337500Y-86872500D02*
X83337500Y-82862500D01*
%TO.C,D40*%
X233737500Y-129735000D02*
X233737500Y-125725000D01*
X235737500Y-129735000D02*
X233737500Y-129735000D01*
X235737500Y-129735000D02*
X235737500Y-125725000D01*
%TO.C,C_1V-Decoup3*%
X72672500Y-154497164D02*
X72672500Y-154712836D01*
X71952500Y-154497164D02*
X71952500Y-154712836D01*
%TO.C,D5*%
X138487500Y-86872500D02*
X138487500Y-82862500D01*
X140487500Y-86872500D02*
X138487500Y-86872500D01*
X140487500Y-86872500D02*
X140487500Y-82862500D01*
%TO.C,C_Crystal2*%
X72552500Y-157652836D02*
X72552500Y-157437164D01*
X73272500Y-157652836D02*
X73272500Y-157437164D01*
%TO.C,D42*%
X276600000Y-129735000D02*
X276600000Y-125725000D01*
X278600000Y-129735000D02*
X276600000Y-129735000D01*
X278600000Y-129735000D02*
X278600000Y-125725000D01*
%TO.C,D19*%
X114675000Y-110685000D02*
X114675000Y-106675000D01*
X116675000Y-110685000D02*
X114675000Y-110685000D01*
X116675000Y-110685000D02*
X116675000Y-106675000D01*
%TO.C,U1*%
X78185000Y-150435000D02*
X78185000Y-149785000D01*
X77535000Y-150435000D02*
X78185000Y-150435000D01*
X77535000Y-143215000D02*
X78185000Y-143215000D01*
X71615000Y-150435000D02*
X70965000Y-150435000D01*
X71615000Y-143215000D02*
X70965000Y-143215000D01*
X70965000Y-150435000D02*
X70965000Y-149785000D01*
X70965000Y-143215000D02*
X70965000Y-143865000D01*
%TO.C,D6*%
X162300000Y-86872500D02*
X162300000Y-82862500D01*
X164300000Y-86872500D02*
X162300000Y-86872500D01*
X164300000Y-86872500D02*
X164300000Y-82862500D01*
%TO.C,D44*%
X90862500Y-148785000D02*
X90862500Y-144775000D01*
X92862500Y-148785000D02*
X90862500Y-148785000D01*
X92862500Y-148785000D02*
X92862500Y-144775000D01*
%TO.C,D63*%
X238500000Y-167835000D02*
X238500000Y-163825000D01*
X240500000Y-167835000D02*
X238500000Y-167835000D01*
X240500000Y-167835000D02*
X240500000Y-163825000D01*
%TO.C,D33*%
X100387500Y-129735000D02*
X100387500Y-125725000D01*
X102387500Y-129735000D02*
X100387500Y-129735000D01*
X102387500Y-129735000D02*
X102387500Y-125725000D01*
%TO.C,D75*%
X341975000Y-123475000D02*
X341975000Y-131275000D01*
X340375000Y-123475000D02*
X341975000Y-123475000D01*
X338275000Y-131275000D02*
X338275000Y-123475000D01*
%TO.C,D24*%
X209925000Y-110685000D02*
X209925000Y-106675000D01*
X211925000Y-110685000D02*
X209925000Y-110685000D01*
X211925000Y-110685000D02*
X211925000Y-106675000D01*
%TO.C,C_3V-Decoup1*%
X63057836Y-117810000D02*
X62842164Y-117810000D01*
X63057836Y-117090000D02*
X62842164Y-117090000D01*
%TO.C,D52*%
X243262500Y-148785000D02*
X243262500Y-144775000D01*
X245262500Y-148785000D02*
X243262500Y-148785000D01*
X245262500Y-148785000D02*
X245262500Y-144775000D01*
%TO.C,D21*%
X152775000Y-110685000D02*
X152775000Y-106675000D01*
X154775000Y-110685000D02*
X152775000Y-110685000D01*
X154775000Y-110685000D02*
X154775000Y-106675000D01*
%TO.C,D15*%
X343275000Y-86872500D02*
X343275000Y-82862500D01*
X345275000Y-86872500D02*
X343275000Y-86872500D01*
X345275000Y-86872500D02*
X345275000Y-82862500D01*
%TO.C,D37*%
X176587500Y-129735000D02*
X176587500Y-125725000D01*
X178587500Y-129735000D02*
X176587500Y-129735000D01*
X178587500Y-129735000D02*
X178587500Y-125725000D01*
%TO.C,D61*%
X190875000Y-167835000D02*
X190875000Y-163825000D01*
X192875000Y-167835000D02*
X190875000Y-167835000D01*
X192875000Y-167835000D02*
X192875000Y-163825000D01*
%TO.C,D69*%
X305975000Y-123475000D02*
X305975000Y-131275000D01*
X304375000Y-123475000D02*
X305975000Y-123475000D01*
X302275000Y-131275000D02*
X302275000Y-123475000D01*
%TO.C,D74*%
X335975000Y-123475000D02*
X335975000Y-131275000D01*
X334375000Y-123475000D02*
X335975000Y-123475000D01*
X332275000Y-131275000D02*
X332275000Y-123475000D01*
%TO.C,D31*%
X59906250Y-129735000D02*
X59906250Y-125725000D01*
X61906250Y-129735000D02*
X59906250Y-129735000D01*
X61906250Y-129735000D02*
X61906250Y-125725000D01*
%TO.C,D60*%
X150393750Y-167835000D02*
X150393750Y-163825000D01*
X152393750Y-167835000D02*
X150393750Y-167835000D01*
X152393750Y-167835000D02*
X152393750Y-163825000D01*
%TO.C,D4*%
X119437500Y-86872500D02*
X119437500Y-82862500D01*
X121437500Y-86872500D02*
X119437500Y-86872500D01*
X121437500Y-86872500D02*
X121437500Y-82862500D01*
%TO.C,C_1V-Decoup2*%
X76252500Y-137552836D02*
X76252500Y-137337164D01*
X76972500Y-137552836D02*
X76972500Y-137337164D01*
%TO.C,D66*%
X305175000Y-167835000D02*
X305175000Y-163825000D01*
X307175000Y-167835000D02*
X305175000Y-167835000D01*
X307175000Y-167835000D02*
X307175000Y-163825000D01*
%TO.C,SW1*%
X86085000Y-123960000D02*
X86085000Y-123157530D01*
X87290000Y-123960000D02*
X86085000Y-123960000D01*
X87290000Y-123960000D02*
X87290000Y-123413471D01*
X88050000Y-123960000D02*
X88810000Y-123960000D01*
X88810000Y-123960000D02*
X88810000Y-122850000D01*
X86085000Y-122542470D02*
X86085000Y-121740000D01*
X87290000Y-122286529D02*
X87290000Y-121740000D01*
X87290000Y-121740000D02*
X86085000Y-121740000D01*
%TO.C,D49*%
X186112500Y-148785000D02*
X186112500Y-144775000D01*
X188112500Y-148785000D02*
X186112500Y-148785000D01*
X188112500Y-148785000D02*
X188112500Y-144775000D01*
%TO.C,D62*%
X219450000Y-167835000D02*
X219450000Y-163825000D01*
X221450000Y-167835000D02*
X219450000Y-167835000D01*
X221450000Y-167835000D02*
X221450000Y-163825000D01*
%TO.C,D36*%
X157537500Y-129735000D02*
X157537500Y-125725000D01*
X159537500Y-129735000D02*
X157537500Y-129735000D01*
X159537500Y-129735000D02*
X159537500Y-125725000D01*
%TO.C,D64*%
X257550000Y-167835000D02*
X257550000Y-163825000D01*
X259550000Y-167835000D02*
X257550000Y-167835000D01*
X259550000Y-167835000D02*
X259550000Y-163825000D01*
%TO.C,D72*%
X323975000Y-123475000D02*
X323975000Y-131275000D01*
X322375000Y-123475000D02*
X323975000Y-123475000D01*
X320275000Y-131275000D02*
X320275000Y-123475000D01*
%TO.C,D20*%
X133725000Y-110685000D02*
X133725000Y-106675000D01*
X135725000Y-110685000D02*
X133725000Y-110685000D01*
X135725000Y-110685000D02*
X135725000Y-106675000D01*
%TO.C,C_LD1*%
X64037836Y-111710000D02*
X63822164Y-111710000D01*
X64037836Y-110990000D02*
X63822164Y-110990000D01*
%TO.C,D39*%
X214687500Y-129735000D02*
X214687500Y-125725000D01*
X216687500Y-129735000D02*
X214687500Y-129735000D01*
X216687500Y-129735000D02*
X216687500Y-125725000D01*
%TO.C,R_DATA1*%
X74492500Y-138361359D02*
X74492500Y-138668641D01*
X73732500Y-138361359D02*
X73732500Y-138668641D01*
%TO.C,D10*%
X243262500Y-86872500D02*
X243262500Y-82862500D01*
X245262500Y-86872500D02*
X243262500Y-86872500D01*
X245262500Y-86872500D02*
X245262500Y-82862500D01*
%TO.C,R_RST1*%
X49982500Y-133128641D02*
X49982500Y-132821359D01*
X50742500Y-133128641D02*
X50742500Y-132821359D01*
%TO.C,J2*%
X48842500Y-143440000D02*
X46182500Y-143440000D01*
X48842500Y-133220000D02*
X48842500Y-143440000D01*
X48842500Y-133220000D02*
X46182500Y-133220000D01*
X48842500Y-131950000D02*
X48842500Y-130620000D01*
X48842500Y-130620000D02*
X47512500Y-130620000D01*
X46182500Y-133220000D02*
X46182500Y-143440000D01*
%TO.C,D47*%
X148012500Y-148785000D02*
X148012500Y-144775000D01*
X150012500Y-148785000D02*
X148012500Y-148785000D01*
X150012500Y-148785000D02*
X150012500Y-144775000D01*
%TO.C,U3*%
X62840000Y-113850000D02*
X62840000Y-114500000D01*
X62840000Y-113850000D02*
X62840000Y-113200000D01*
X65960000Y-113850000D02*
X65960000Y-115525000D01*
X65960000Y-113850000D02*
X65960000Y-113200000D01*
%TO.C,D48*%
X167062500Y-148785000D02*
X167062500Y-144775000D01*
X169062500Y-148785000D02*
X167062500Y-148785000D01*
X169062500Y-148785000D02*
X169062500Y-144775000D01*
%TO.C,C_3V-Decoup7*%
X68192836Y-141892500D02*
X67977164Y-141892500D01*
X68192836Y-141172500D02*
X67977164Y-141172500D01*
%TO.C,D13*%
X305175000Y-86872500D02*
X305175000Y-82862500D01*
X307175000Y-86872500D02*
X305175000Y-86872500D01*
X307175000Y-86872500D02*
X307175000Y-82862500D01*
%TO.C,C_1V-Decoup1*%
X71552500Y-139232836D02*
X71552500Y-139017164D01*
X72272500Y-139232836D02*
X72272500Y-139017164D01*
%TO.C,D35*%
X138487500Y-129735000D02*
X138487500Y-125725000D01*
X140487500Y-129735000D02*
X138487500Y-129735000D01*
X140487500Y-129735000D02*
X140487500Y-125725000D01*
%TO.C,D17*%
X76575000Y-110685000D02*
X76575000Y-106675000D01*
X78575000Y-110685000D02*
X76575000Y-110685000D01*
X78575000Y-110685000D02*
X78575000Y-106675000D01*
%TO.C,D3*%
X100387500Y-86872500D02*
X100387500Y-82862500D01*
X102387500Y-86872500D02*
X100387500Y-86872500D01*
X102387500Y-86872500D02*
X102387500Y-82862500D01*
%TO.C,C_3V-Decoup9*%
X83428307Y-154069190D02*
X83580810Y-154221693D01*
X82919190Y-154578307D02*
X83071693Y-154730810D01*
%TO.C,D18*%
X95625000Y-110685000D02*
X95625000Y-106675000D01*
X97625000Y-110685000D02*
X95625000Y-110685000D01*
X97625000Y-110685000D02*
X97625000Y-106675000D01*
%TO.C,C_Flash1*%
X83252500Y-137752836D02*
X83252500Y-137537164D01*
X83972500Y-137752836D02*
X83972500Y-137537164D01*
%TO.C,D22*%
X171825000Y-110685000D02*
X171825000Y-106675000D01*
X173825000Y-110685000D02*
X171825000Y-110685000D01*
X173825000Y-110685000D02*
X173825000Y-106675000D01*
%TO.C,D26*%
X248025000Y-110685000D02*
X248025000Y-106675000D01*
X250025000Y-110685000D02*
X248025000Y-110685000D01*
X250025000Y-110685000D02*
X250025000Y-106675000D01*
%TO.C,D30*%
X343275000Y-110685000D02*
X343275000Y-106675000D01*
X345275000Y-110685000D02*
X343275000Y-110685000D01*
X345275000Y-110685000D02*
X345275000Y-106675000D01*
%TO.C,C_3V-Decoup8*%
X73872500Y-154497164D02*
X73872500Y-154712836D01*
X73152500Y-154497164D02*
X73152500Y-154712836D01*
%TO.C,D1*%
X57525000Y-86872500D02*
X57525000Y-82862500D01*
X59525000Y-86872500D02*
X57525000Y-86872500D01*
X59525000Y-86872500D02*
X59525000Y-82862500D01*
%TO.C,C_3V-Decoup5*%
X68192836Y-142892500D02*
X67977164Y-142892500D01*
X68192836Y-142172500D02*
X67977164Y-142172500D01*
%TO.C,D54*%
X281362500Y-148785000D02*
X281362500Y-144775000D01*
X283362500Y-148785000D02*
X281362500Y-148785000D01*
X283362500Y-148785000D02*
X283362500Y-144775000D01*
%TO.C,D11*%
X262312500Y-86872500D02*
X262312500Y-82862500D01*
X264312500Y-86872500D02*
X262312500Y-86872500D01*
X264312500Y-86872500D02*
X264312500Y-82862500D01*
%TO.C,D12*%
X281362500Y-86872500D02*
X281362500Y-82862500D01*
X283362500Y-86872500D02*
X281362500Y-86872500D01*
X283362500Y-86872500D02*
X283362500Y-82862500D01*
%TO.C,D9*%
X219450000Y-86872500D02*
X219450000Y-82862500D01*
X221450000Y-86872500D02*
X219450000Y-86872500D01*
X221450000Y-86872500D02*
X221450000Y-82862500D01*
%TO.C,D27*%
X274218750Y-110685000D02*
X274218750Y-106675000D01*
X276218750Y-110685000D02*
X274218750Y-110685000D01*
X276218750Y-110685000D02*
X276218750Y-106675000D01*
%TO.C,D65*%
X278981250Y-167835000D02*
X278981250Y-163825000D01*
X280981250Y-167835000D02*
X278981250Y-167835000D01*
X280981250Y-167835000D02*
X280981250Y-163825000D01*
%TO.C,D43*%
X64668750Y-148785000D02*
X64668750Y-144775000D01*
X66668750Y-148785000D02*
X64668750Y-148785000D01*
X66668750Y-148785000D02*
X66668750Y-144775000D01*
%TO.C,D73*%
X329975000Y-123475000D02*
X329975000Y-131275000D01*
X328375000Y-123475000D02*
X329975000Y-123475000D01*
X326275000Y-131275000D02*
X326275000Y-123475000D01*
%TO.C,D38*%
X195637500Y-129735000D02*
X195637500Y-125725000D01*
X197637500Y-129735000D02*
X195637500Y-129735000D01*
X197637500Y-129735000D02*
X197637500Y-125725000D01*
%TO.C,D58*%
X107387500Y-167835000D02*
X107387500Y-163825000D01*
X109387500Y-167835000D02*
X107387500Y-167835000D01*
X109387500Y-167835000D02*
X109387500Y-163825000D01*
%TO.C,D45*%
X109912500Y-148785000D02*
X109912500Y-144775000D01*
X111912500Y-148785000D02*
X109912500Y-148785000D01*
X111912500Y-148785000D02*
X111912500Y-144775000D01*
%TO.C,D55*%
X324225000Y-148785000D02*
X324225000Y-144775000D01*
X326225000Y-148785000D02*
X324225000Y-148785000D01*
X326225000Y-148785000D02*
X326225000Y-144775000D01*
%TO.C,U4*%
X297400000Y-126840000D02*
X296600000Y-126840000D01*
X297400000Y-126840000D02*
X298200000Y-126840000D01*
X297400000Y-129960000D02*
X295600000Y-129960000D01*
X297400000Y-129960000D02*
X298200000Y-129960000D01*
%TO.C,D29*%
X324225000Y-110685000D02*
X324225000Y-106675000D01*
X326225000Y-110685000D02*
X324225000Y-110685000D01*
X326225000Y-110685000D02*
X326225000Y-106675000D01*
%TO.C,D25*%
X228975000Y-110685000D02*
X228975000Y-106675000D01*
X230975000Y-110685000D02*
X228975000Y-110685000D01*
X230975000Y-110685000D02*
X230975000Y-106675000D01*
%TO.C,J1*%
X72627500Y-115015000D02*
X70127500Y-115015000D01*
X70127500Y-115015000D02*
X70127500Y-116065000D01*
X70127500Y-116065000D02*
X69137500Y-116065000D01*
X74597500Y-116185000D02*
X74597500Y-120065000D01*
X72627500Y-121235000D02*
X70127500Y-121235000D01*
X70127500Y-121235000D02*
X70127500Y-120185000D01*
%TO.C,D28*%
X305175000Y-110685000D02*
X305175000Y-106675000D01*
X307175000Y-110685000D02*
X305175000Y-110685000D01*
X307175000Y-110685000D02*
X307175000Y-106675000D01*
%TO.C,D71*%
X317975000Y-123475000D02*
X317975000Y-131275000D01*
X316375000Y-123475000D02*
X317975000Y-123475000D01*
X314275000Y-131275000D02*
X314275000Y-123475000D01*
%TD*%
%LPC*%
D13*
%TO.C,MX10*%
X236082500Y-84512500D03*
D14*
X241162500Y-84512500D03*
D13*
X246242500Y-84512500D03*
D15*
X237352500Y-81972500D03*
X243702500Y-79432500D03*
%TD*%
D13*
%TO.C,MX6*%
X155120000Y-84512500D03*
D14*
X160200000Y-84512500D03*
D13*
X165280000Y-84512500D03*
D15*
X156390000Y-81972500D03*
X162740000Y-79432500D03*
%TD*%
D13*
%TO.C,MX32*%
X74157500Y-127375000D03*
D14*
X79237500Y-127375000D03*
D13*
X84317500Y-127375000D03*
D15*
X75427500Y-124835000D03*
X81777500Y-122295000D03*
%TD*%
D13*
%TO.C,MX24*%
X202745000Y-108325000D03*
D14*
X207825000Y-108325000D03*
D13*
X212905000Y-108325000D03*
D15*
X204015000Y-105785000D03*
X210365000Y-103245000D03*
%TD*%
D13*
%TO.C,MX49*%
X178932500Y-146425000D03*
D14*
X184012500Y-146425000D03*
D13*
X189092500Y-146425000D03*
D15*
X180202500Y-143885000D03*
X186552500Y-141345000D03*
%TD*%
D13*
%TO.C,MX65*%
X271801250Y-165475000D03*
D14*
X276881250Y-165475000D03*
D13*
X281961250Y-165475000D03*
D15*
X273071250Y-162935000D03*
X279421250Y-160395000D03*
%TD*%
D13*
%TO.C,MX19*%
X107495000Y-108325000D03*
D14*
X112575000Y-108325000D03*
D13*
X117655000Y-108325000D03*
D15*
X108765000Y-105785000D03*
X115115000Y-103245000D03*
%TD*%
D13*
%TO.C,MX17*%
X69395000Y-108325000D03*
D14*
X74475000Y-108325000D03*
D13*
X79555000Y-108325000D03*
D15*
X70665000Y-105785000D03*
X77015000Y-103245000D03*
%TD*%
D13*
%TO.C,MX21*%
X145595000Y-108325000D03*
D14*
X150675000Y-108325000D03*
D13*
X155755000Y-108325000D03*
D15*
X146865000Y-105785000D03*
X153215000Y-103245000D03*
%TD*%
D13*
%TO.C,MX44*%
X83682500Y-146425000D03*
D14*
X88762500Y-146425000D03*
D13*
X93842500Y-146425000D03*
D15*
X84952500Y-143885000D03*
X91302500Y-141345000D03*
%TD*%
D13*
%TO.C,MX5*%
X131307500Y-84512500D03*
D14*
X136387500Y-84512500D03*
D13*
X141467500Y-84512500D03*
D15*
X132577500Y-81972500D03*
X138927500Y-79432500D03*
%TD*%
D13*
%TO.C,MX47*%
X140832500Y-146425000D03*
D14*
X145912500Y-146425000D03*
D13*
X150992500Y-146425000D03*
D15*
X142102500Y-143885000D03*
X148452500Y-141345000D03*
%TD*%
D13*
%TO.C,MX56*%
X52726250Y-165475000D03*
D14*
X57806250Y-165475000D03*
D13*
X62886250Y-165475000D03*
D15*
X53996250Y-162935000D03*
X60346250Y-160395000D03*
%TD*%
D13*
%TO.C,MX45*%
X102732500Y-146425000D03*
D14*
X107812500Y-146425000D03*
D13*
X112892500Y-146425000D03*
D15*
X104002500Y-143885000D03*
X110352500Y-141345000D03*
%TD*%
D13*
%TO.C,MX64*%
X250370000Y-165475000D03*
D14*
X255450000Y-165475000D03*
D13*
X260530000Y-165475000D03*
D15*
X251640000Y-162935000D03*
X257990000Y-160395000D03*
%TD*%
D13*
%TO.C,MX41*%
X245607500Y-127375000D03*
D14*
X250687500Y-127375000D03*
D13*
X255767500Y-127375000D03*
D15*
X246877500Y-124835000D03*
X253227500Y-122295000D03*
%TD*%
D13*
%TO.C,MX13*%
X297995000Y-84512500D03*
D14*
X303075000Y-84512500D03*
D13*
X308155000Y-84512500D03*
D15*
X299265000Y-81972500D03*
X305615000Y-79432500D03*
%TD*%
D13*
%TO.C,MX57*%
X74157500Y-165475000D03*
D14*
X79237500Y-165475000D03*
D13*
X84317500Y-165475000D03*
D15*
X75427500Y-162935000D03*
X81777500Y-160395000D03*
%TD*%
D14*
%TO.C,MX61*%
X176868750Y-157220000D03*
D16*
X176868750Y-172460000D03*
D13*
X183695000Y-165475000D03*
D14*
X188775000Y-165475000D03*
D13*
X193855000Y-165475000D03*
D14*
X200681250Y-157220000D03*
D16*
X200681250Y-172460000D03*
D15*
X184965000Y-162935000D03*
X191315000Y-160395000D03*
%TD*%
D13*
%TO.C,MX67*%
X317045000Y-165475000D03*
D14*
X322125000Y-165475000D03*
D13*
X327205000Y-165475000D03*
D15*
X318315000Y-162935000D03*
X324665000Y-160395000D03*
%TD*%
D13*
%TO.C,MX27*%
X267038750Y-108325000D03*
D14*
X272118750Y-108325000D03*
D13*
X277198750Y-108325000D03*
D15*
X268308750Y-105785000D03*
X274658750Y-103245000D03*
%TD*%
D13*
%TO.C,MX39*%
X207507500Y-127375000D03*
D14*
X212587500Y-127375000D03*
D13*
X217667500Y-127375000D03*
D15*
X208777500Y-124835000D03*
X215127500Y-122295000D03*
%TD*%
D13*
%TO.C,MX1*%
X50345000Y-84512500D03*
D14*
X55425000Y-84512500D03*
D13*
X60505000Y-84512500D03*
D15*
X51615000Y-81972500D03*
X57965000Y-79432500D03*
%TD*%
D13*
%TO.C,MX20*%
X126545000Y-108325000D03*
D14*
X131625000Y-108325000D03*
D13*
X136705000Y-108325000D03*
D15*
X127815000Y-105785000D03*
X134165000Y-103245000D03*
%TD*%
D13*
%TO.C,MX12*%
X274182500Y-84512500D03*
D14*
X279262500Y-84512500D03*
D13*
X284342500Y-84512500D03*
D15*
X275452500Y-81972500D03*
X281802500Y-79432500D03*
%TD*%
D14*
%TO.C,MX61*%
X179250000Y-157220000D03*
D16*
X179250000Y-172460000D03*
D13*
X193220000Y-165475000D03*
D14*
X198300000Y-165475000D03*
D13*
X203380000Y-165475000D03*
D14*
X217350000Y-157220000D03*
D16*
X217350000Y-172460000D03*
D15*
X194490000Y-162935000D03*
X200840000Y-160395000D03*
%TD*%
D13*
%TO.C,MX7*%
X174170000Y-84512500D03*
D14*
X179250000Y-84512500D03*
D13*
X184330000Y-84512500D03*
D15*
X175440000Y-81972500D03*
X181790000Y-79432500D03*
%TD*%
D13*
%TO.C,MX2*%
X74157500Y-84512500D03*
D14*
X79237500Y-84512500D03*
D13*
X84317500Y-84512500D03*
D15*
X75427500Y-81972500D03*
X81777500Y-79432500D03*
%TD*%
D13*
%TO.C,MX48*%
X159882500Y-146425000D03*
D14*
X164962500Y-146425000D03*
D13*
X170042500Y-146425000D03*
D15*
X161152500Y-143885000D03*
X167502500Y-141345000D03*
%TD*%
D13*
%TO.C,MX3*%
X93207500Y-84512500D03*
D14*
X98287500Y-84512500D03*
D13*
X103367500Y-84512500D03*
D15*
X94477500Y-81972500D03*
X100827500Y-79432500D03*
%TD*%
D13*
%TO.C,MX58*%
X95588750Y-165475000D03*
D14*
X100668750Y-165475000D03*
D13*
X105748750Y-165475000D03*
D15*
X96858750Y-162935000D03*
X103208750Y-160395000D03*
%TD*%
D13*
%TO.C,MX18*%
X88445000Y-108325000D03*
D14*
X93525000Y-108325000D03*
D13*
X98605000Y-108325000D03*
D15*
X89715000Y-105785000D03*
X96065000Y-103245000D03*
%TD*%
D13*
%TO.C,MX58*%
X93207500Y-165475000D03*
D14*
X98287500Y-165475000D03*
D13*
X103367500Y-165475000D03*
D15*
X94477500Y-162935000D03*
X100827500Y-160395000D03*
%TD*%
D13*
%TO.C,MX40*%
X226557500Y-127375000D03*
D14*
X231637500Y-127375000D03*
D13*
X236717500Y-127375000D03*
D15*
X227827500Y-124835000D03*
X234177500Y-122295000D03*
%TD*%
D13*
%TO.C,MX35*%
X131307500Y-127375000D03*
D14*
X136387500Y-127375000D03*
D13*
X141467500Y-127375000D03*
D15*
X132577500Y-124835000D03*
X138927500Y-122295000D03*
%TD*%
D14*
%TO.C,MX60*%
X117343850Y-157220000D03*
D16*
X117343850Y-172460000D03*
D13*
X162263750Y-165475000D03*
D14*
X167343750Y-165475000D03*
D13*
X172423750Y-165475000D03*
D14*
X217343650Y-157220000D03*
D16*
X217343650Y-172460000D03*
D15*
X163533750Y-162935000D03*
X169883750Y-160395000D03*
%TD*%
D13*
%TO.C,MX28*%
X297995000Y-108325000D03*
D14*
X303075000Y-108325000D03*
D13*
X308155000Y-108325000D03*
D15*
X299265000Y-105785000D03*
X305615000Y-103245000D03*
%TD*%
D13*
%TO.C,MX25*%
X221795000Y-108325000D03*
D14*
X226875000Y-108325000D03*
D13*
X231955000Y-108325000D03*
D15*
X223065000Y-105785000D03*
X229415000Y-103245000D03*
%TD*%
D13*
%TO.C,MX54*%
X274182500Y-146425000D03*
D14*
X279262500Y-146425000D03*
D13*
X284342500Y-146425000D03*
D15*
X275452500Y-143885000D03*
X281802500Y-141345000D03*
%TD*%
D13*
%TO.C,MX46*%
X121782500Y-146425000D03*
D14*
X126862500Y-146425000D03*
D13*
X131942500Y-146425000D03*
D15*
X123052500Y-143885000D03*
X129402500Y-141345000D03*
%TD*%
D13*
%TO.C,MX15*%
X336095000Y-84512500D03*
D14*
X341175000Y-84512500D03*
D13*
X346255000Y-84512500D03*
D15*
X337365000Y-81972500D03*
X343715000Y-79432500D03*
%TD*%
D13*
%TO.C,MX59*%
X112257500Y-165475000D03*
D14*
X117337500Y-165475000D03*
D13*
X122417500Y-165475000D03*
D15*
X113527500Y-162935000D03*
X119877500Y-160395000D03*
%TD*%
D13*
%TO.C,MX63*%
X231320000Y-165475000D03*
D14*
X236400000Y-165475000D03*
D13*
X241480000Y-165475000D03*
D15*
X232590000Y-162935000D03*
X238940000Y-160395000D03*
%TD*%
D14*
%TO.C,MX60*%
X122100000Y-157220000D03*
D16*
X122100000Y-172460000D03*
D13*
X136070000Y-165475000D03*
D14*
X141150000Y-165475000D03*
D13*
X146230000Y-165475000D03*
D14*
X160200000Y-157220000D03*
D16*
X160200000Y-172460000D03*
D15*
X137340000Y-162935000D03*
X143690000Y-160395000D03*
%TD*%
D13*
%TO.C,MX11*%
X255132500Y-84512500D03*
D14*
X260212500Y-84512500D03*
D13*
X265292500Y-84512500D03*
D15*
X256402500Y-81972500D03*
X262752500Y-79432500D03*
%TD*%
D13*
%TO.C,MX22*%
X164645000Y-108325000D03*
D14*
X169725000Y-108325000D03*
D13*
X174805000Y-108325000D03*
D15*
X165915000Y-105785000D03*
X172265000Y-103245000D03*
%TD*%
D13*
%TO.C,MX29*%
X317045000Y-108325000D03*
D14*
X322125000Y-108325000D03*
D13*
X327205000Y-108325000D03*
D15*
X318315000Y-105785000D03*
X324665000Y-103245000D03*
%TD*%
D13*
%TO.C,MX14*%
X317045000Y-84512500D03*
D14*
X322125000Y-84512500D03*
D13*
X327205000Y-84512500D03*
D15*
X318315000Y-81972500D03*
X324665000Y-79432500D03*
%TD*%
D13*
%TO.C,MX30*%
X336095000Y-108325000D03*
D14*
X341175000Y-108325000D03*
D13*
X346255000Y-108325000D03*
D15*
X337365000Y-105785000D03*
X343715000Y-103245000D03*
%TD*%
D13*
%TO.C,MX36*%
X150357500Y-127375000D03*
D14*
X155437500Y-127375000D03*
D13*
X160517500Y-127375000D03*
D15*
X151627500Y-124835000D03*
X157977500Y-122295000D03*
%TD*%
D13*
%TO.C,MX16*%
X50345000Y-108325000D03*
D14*
X55425000Y-108325000D03*
D13*
X60505000Y-108325000D03*
D15*
X51615000Y-105785000D03*
X57965000Y-103245000D03*
%TD*%
D13*
%TO.C,MX9*%
X212270000Y-84512500D03*
D14*
X217350000Y-84512500D03*
D13*
X222430000Y-84512500D03*
D15*
X213540000Y-81972500D03*
X219890000Y-79432500D03*
%TD*%
D13*
%TO.C,MX68*%
X336095000Y-165475000D03*
D14*
X341175000Y-165475000D03*
D13*
X346255000Y-165475000D03*
D15*
X337365000Y-162935000D03*
X343715000Y-160395000D03*
%TD*%
D13*
%TO.C,MX66*%
X297995000Y-165475000D03*
D14*
X303075000Y-165475000D03*
D13*
X308155000Y-165475000D03*
D15*
X299265000Y-162935000D03*
X305615000Y-160395000D03*
%TD*%
D13*
%TO.C,MX62*%
X212270000Y-165475000D03*
D14*
X217350000Y-165475000D03*
D13*
X222430000Y-165475000D03*
D15*
X213540000Y-162935000D03*
X219890000Y-160395000D03*
%TD*%
D13*
%TO.C,MX31*%
X52726250Y-127375000D03*
D14*
X57806250Y-127375000D03*
D13*
X62886250Y-127375000D03*
D15*
X53996250Y-124835000D03*
X60346250Y-122295000D03*
%TD*%
D13*
%TO.C,MX26*%
X240845000Y-108325000D03*
D14*
X245925000Y-108325000D03*
D13*
X251005000Y-108325000D03*
D15*
X242115000Y-105785000D03*
X248465000Y-103245000D03*
%TD*%
D13*
%TO.C,MX23*%
X183695000Y-108325000D03*
D14*
X188775000Y-108325000D03*
D13*
X193855000Y-108325000D03*
D15*
X184965000Y-105785000D03*
X191315000Y-103245000D03*
%TD*%
D13*
%TO.C,MX55*%
X317045000Y-146425000D03*
D14*
X322125000Y-146425000D03*
D13*
X327205000Y-146425000D03*
D15*
X318315000Y-143885000D03*
X324665000Y-141345000D03*
%TD*%
D13*
%TO.C,MX33*%
X93207500Y-127375000D03*
D14*
X98287500Y-127375000D03*
D13*
X103367500Y-127375000D03*
D15*
X94477500Y-124835000D03*
X100827500Y-122295000D03*
%TD*%
D13*
%TO.C,MX38*%
X188457500Y-127375000D03*
D14*
X193537500Y-127375000D03*
D13*
X198617500Y-127375000D03*
D15*
X189727500Y-124835000D03*
X196077500Y-122295000D03*
%TD*%
D13*
%TO.C,MX37*%
X169407500Y-127375000D03*
D14*
X174487500Y-127375000D03*
D13*
X179567500Y-127375000D03*
D15*
X170677500Y-124835000D03*
X177027500Y-122295000D03*
%TD*%
D13*
%TO.C,MX52*%
X236082500Y-146425000D03*
D14*
X241162500Y-146425000D03*
D13*
X246242500Y-146425000D03*
D15*
X237352500Y-143885000D03*
X243702500Y-141345000D03*
%TD*%
D13*
%TO.C,MX34*%
X112257500Y-127375000D03*
D14*
X117337500Y-127375000D03*
D13*
X122417500Y-127375000D03*
D15*
X113527500Y-124835000D03*
X119877500Y-122295000D03*
%TD*%
D13*
%TO.C,MX51*%
X217032500Y-146425000D03*
D14*
X222112500Y-146425000D03*
D13*
X227192500Y-146425000D03*
D15*
X218302500Y-143885000D03*
X224652500Y-141345000D03*
%TD*%
D14*
%TO.C,MX60*%
X136387500Y-157220000D03*
D16*
X136387500Y-172460000D03*
D13*
X143213750Y-165475000D03*
D14*
X148293750Y-165475000D03*
D13*
X153373750Y-165475000D03*
D14*
X160200000Y-157220000D03*
D16*
X160200000Y-172460000D03*
D15*
X144483750Y-162935000D03*
X150833750Y-160395000D03*
%TD*%
D13*
%TO.C,MX4*%
X112257500Y-84512500D03*
D14*
X117337500Y-84512500D03*
D13*
X122417500Y-84512500D03*
D15*
X113527500Y-81972500D03*
X119877500Y-79432500D03*
%TD*%
D13*
%TO.C,MX50*%
X197982500Y-146425000D03*
D14*
X203062500Y-146425000D03*
D13*
X208142500Y-146425000D03*
D15*
X199252500Y-143885000D03*
X205602500Y-141345000D03*
%TD*%
D14*
%TO.C,MX60*%
X122100000Y-157220000D03*
D16*
X122100000Y-172460000D03*
D13*
X164645000Y-165475000D03*
D14*
X169725000Y-165475000D03*
D13*
X174805000Y-165475000D03*
D14*
X217350000Y-157220000D03*
D16*
X217350000Y-172460000D03*
D15*
X165915000Y-162935000D03*
X172265000Y-160395000D03*
%TD*%
D13*
%TO.C,MX42*%
X269420000Y-127375000D03*
D14*
X274500000Y-127375000D03*
D13*
X279580000Y-127375000D03*
D15*
X270690000Y-124835000D03*
X277040000Y-122295000D03*
%TD*%
D13*
%TO.C,MX43*%
X57488750Y-146425000D03*
D14*
X62568750Y-146425000D03*
D13*
X67648750Y-146425000D03*
D15*
X58758750Y-143885000D03*
X65108750Y-141345000D03*
%TD*%
D13*
%TO.C,MX53*%
X255132500Y-146425000D03*
D14*
X260212500Y-146425000D03*
D13*
X265292500Y-146425000D03*
D15*
X256402500Y-143885000D03*
X262752500Y-141345000D03*
%TD*%
D13*
%TO.C,MX8*%
X193220000Y-84512500D03*
D14*
X198300000Y-84512500D03*
D13*
X203380000Y-84512500D03*
D15*
X194490000Y-81972500D03*
X200840000Y-79432500D03*
%TD*%
D17*
%TO.C,R_Flash1*%
X86750000Y-124890000D03*
X86750000Y-125910000D03*
%TD*%
D18*
%TO.C,C_3V-Decoup3*%
X75212500Y-137125000D03*
X75212500Y-136165000D03*
%TD*%
D19*
%TO.C,C_3V-Decoup4*%
X68565000Y-143532500D03*
X67605000Y-143532500D03*
%TD*%
D20*
%TO.C,D14*%
X325225000Y-86162500D03*
X325225000Y-82862500D03*
%TD*%
%TO.C,D46*%
X129962500Y-148075000D03*
X129962500Y-144775000D03*
%TD*%
D17*
%TO.C,R_DATA2*%
X73012500Y-138005000D03*
X73012500Y-139025000D03*
%TD*%
D20*
%TO.C,D53*%
X263312500Y-148075000D03*
X263312500Y-144775000D03*
%TD*%
%TO.C,D23*%
X191875000Y-109975000D03*
X191875000Y-106675000D03*
%TD*%
D21*
%TO.C,C_3V-Decoup6*%
X79232500Y-143325000D03*
X80192500Y-143325000D03*
%TD*%
D22*
%TO.C,R_Crystal1*%
X74712500Y-155125000D03*
X74712500Y-154105000D03*
%TD*%
D20*
%TO.C,D16*%
X58525000Y-109975000D03*
X58525000Y-106675000D03*
%TD*%
%TO.C,D56*%
X60906250Y-167125000D03*
X60906250Y-163825000D03*
%TD*%
D23*
%TO.C,D70*%
X309424999Y-130124999D03*
X310824999Y-130124999D03*
X310824999Y-124624999D03*
X309424999Y-124624999D03*
%TD*%
D20*
%TO.C,D68*%
X344275000Y-167125000D03*
X344275000Y-163825000D03*
%TD*%
%TO.C,D67*%
X325225000Y-167125000D03*
X325225000Y-163825000D03*
%TD*%
%TO.C,D7*%
X182350000Y-86162500D03*
X182350000Y-82862500D03*
%TD*%
D18*
%TO.C,C_3V-Decoup2*%
X70712500Y-140705000D03*
X70712500Y-139745000D03*
%TD*%
D20*
%TO.C,D51*%
X225212500Y-148075000D03*
X225212500Y-144775000D03*
%TD*%
D24*
%TO.C,Y1*%
X74712499Y-156624999D03*
X76912499Y-156624999D03*
X76912499Y-158324999D03*
X74712499Y-158324999D03*
%TD*%
D20*
%TO.C,D41*%
X253787500Y-129025000D03*
X253787500Y-125725000D03*
%TD*%
%TO.C,D34*%
X120437500Y-129025000D03*
X120437500Y-125725000D03*
%TD*%
D19*
%TO.C,C_LD2*%
X63430000Y-116450000D03*
X62470000Y-116450000D03*
%TD*%
D20*
%TO.C,D32*%
X82337500Y-129025000D03*
X82337500Y-125725000D03*
%TD*%
%TO.C,D59*%
X120437500Y-167125000D03*
X120437500Y-163825000D03*
%TD*%
%TO.C,D8*%
X201400000Y-86162500D03*
X201400000Y-82862500D03*
%TD*%
D25*
%TO.C,C_Crystal1*%
X78712500Y-157145000D03*
X78712500Y-158105000D03*
%TD*%
D20*
%TO.C,D57*%
X82337500Y-167125000D03*
X82337500Y-163825000D03*
%TD*%
%TO.C,D50*%
X206162500Y-148075000D03*
X206162500Y-144775000D03*
%TD*%
D26*
%TO.C,U2*%
X85402500Y-130925000D03*
X86672500Y-130925000D03*
X87942500Y-130925000D03*
X89212500Y-130925000D03*
X89212500Y-138125000D03*
X87942500Y-138125000D03*
X86672500Y-138125000D03*
X85402500Y-138125000D03*
%TD*%
D20*
%TO.C,D2*%
X82337500Y-86162500D03*
X82337500Y-82862500D03*
%TD*%
%TO.C,D40*%
X234737500Y-129025000D03*
X234737500Y-125725000D03*
%TD*%
D25*
%TO.C,C_1V-Decoup3*%
X72312500Y-154125000D03*
X72312500Y-155085000D03*
%TD*%
D20*
%TO.C,D5*%
X139487500Y-86162500D03*
X139487500Y-82862500D03*
%TD*%
D18*
%TO.C,C_Crystal2*%
X72912500Y-158025000D03*
X72912500Y-157065000D03*
%TD*%
D20*
%TO.C,D42*%
X277600000Y-129025000D03*
X277600000Y-125725000D03*
%TD*%
%TO.C,D19*%
X115675000Y-109975000D03*
X115675000Y-106675000D03*
%TD*%
D27*
%TO.C,U1*%
X78012500Y-144225000D03*
X78012500Y-144625000D03*
X78012500Y-145025000D03*
X78012500Y-145425000D03*
X78012500Y-145825000D03*
X78012500Y-146225000D03*
X78012500Y-146625000D03*
X78012500Y-147025000D03*
X78012500Y-147425000D03*
X78012500Y-147825000D03*
X78012500Y-148225000D03*
X78012500Y-148625000D03*
X78012500Y-149025000D03*
X78012500Y-149425000D03*
D28*
X77175000Y-150262500D03*
X76775000Y-150262500D03*
X76375000Y-150262500D03*
X75975000Y-150262500D03*
X75575000Y-150262500D03*
X75175000Y-150262500D03*
X74775000Y-150262500D03*
X74375000Y-150262500D03*
X73975000Y-150262500D03*
X73575000Y-150262500D03*
X73175000Y-150262500D03*
X72775000Y-150262500D03*
X72375000Y-150262500D03*
X71975000Y-150262500D03*
D27*
X71137500Y-149425000D03*
X71137500Y-149025000D03*
X71137500Y-148625000D03*
X71137500Y-148225000D03*
X71137500Y-147825000D03*
X71137500Y-147425000D03*
X71137500Y-147025000D03*
X71137500Y-146625000D03*
X71137500Y-146225000D03*
X71137500Y-145825000D03*
X71137500Y-145425000D03*
X71137500Y-145025000D03*
X71137500Y-144625000D03*
X71137500Y-144225000D03*
D28*
X71975000Y-143387500D03*
X72375000Y-143387500D03*
X72775000Y-143387500D03*
X73175000Y-143387500D03*
X73575000Y-143387500D03*
X73975000Y-143387500D03*
X74375000Y-143387500D03*
X74775000Y-143387500D03*
X75175000Y-143387500D03*
X75575000Y-143387500D03*
X75975000Y-143387500D03*
X76375000Y-143387500D03*
X76775000Y-143387500D03*
X77175000Y-143387500D03*
D29*
X74575000Y-146825000D03*
%TD*%
D20*
%TO.C,D6*%
X163300000Y-86162500D03*
X163300000Y-82862500D03*
%TD*%
%TO.C,D44*%
X91862500Y-148075000D03*
X91862500Y-144775000D03*
%TD*%
%TO.C,D63*%
X239500000Y-167125000D03*
X239500000Y-163825000D03*
%TD*%
%TO.C,D33*%
X101387500Y-129025000D03*
X101387500Y-125725000D03*
%TD*%
D23*
%TO.C,D75*%
X339424999Y-130124999D03*
X340824999Y-130124999D03*
X340824999Y-124624999D03*
X339424999Y-124624999D03*
%TD*%
D20*
%TO.C,D24*%
X210925000Y-109975000D03*
X210925000Y-106675000D03*
%TD*%
D19*
%TO.C,C_3V-Decoup1*%
X63430000Y-117450000D03*
X62470000Y-117450000D03*
%TD*%
D20*
%TO.C,D52*%
X244262500Y-148075000D03*
X244262500Y-144775000D03*
%TD*%
%TO.C,D21*%
X153775000Y-109975000D03*
X153775000Y-106675000D03*
%TD*%
%TO.C,D15*%
X344275000Y-86162500D03*
X344275000Y-82862500D03*
%TD*%
%TO.C,D37*%
X177587500Y-129025000D03*
X177587500Y-125725000D03*
%TD*%
%TO.C,D61*%
X191875000Y-167125000D03*
X191875000Y-163825000D03*
%TD*%
D23*
%TO.C,D69*%
X303424999Y-130124999D03*
X304824999Y-130124999D03*
X304824999Y-124624999D03*
X303424999Y-124624999D03*
%TD*%
%TO.C,D74*%
X333424999Y-130124999D03*
X334824999Y-130124999D03*
X334824999Y-124624999D03*
X333424999Y-124624999D03*
%TD*%
D20*
%TO.C,D31*%
X60906250Y-129025000D03*
X60906250Y-125725000D03*
%TD*%
%TO.C,D60*%
X151393750Y-167125000D03*
X151393750Y-163825000D03*
%TD*%
%TO.C,D4*%
X120437500Y-86162500D03*
X120437500Y-82862500D03*
%TD*%
D18*
%TO.C,C_1V-Decoup2*%
X76612500Y-137925000D03*
X76612500Y-136965000D03*
%TD*%
D20*
%TO.C,D66*%
X306175000Y-167125000D03*
X306175000Y-163825000D03*
%TD*%
D30*
%TO.C,SW1*%
X88049999Y-122849999D03*
D31*
X86779999Y-122849999D03*
%TD*%
D20*
%TO.C,D49*%
X187112500Y-148075000D03*
X187112500Y-144775000D03*
%TD*%
%TO.C,D62*%
X220450000Y-167125000D03*
X220450000Y-163825000D03*
%TD*%
%TO.C,D36*%
X158537500Y-129025000D03*
X158537500Y-125725000D03*
%TD*%
%TO.C,D64*%
X258550000Y-167125000D03*
X258550000Y-163825000D03*
%TD*%
D23*
%TO.C,D72*%
X321424999Y-130124999D03*
X322824999Y-130124999D03*
X322824999Y-124624999D03*
X321424999Y-124624999D03*
%TD*%
D20*
%TO.C,D20*%
X134725000Y-109975000D03*
X134725000Y-106675000D03*
%TD*%
D19*
%TO.C,C_LD1*%
X64410000Y-111350000D03*
X63450000Y-111350000D03*
%TD*%
D20*
%TO.C,D39*%
X215687500Y-129025000D03*
X215687500Y-125725000D03*
%TD*%
D17*
%TO.C,R_DATA1*%
X74112500Y-138005000D03*
X74112500Y-139025000D03*
%TD*%
D20*
%TO.C,D10*%
X244262500Y-86162500D03*
X244262500Y-82862500D03*
%TD*%
D22*
%TO.C,R_RST1*%
X50362500Y-133485000D03*
X50362500Y-132465000D03*
%TD*%
D32*
%TO.C,J2*%
X47512499Y-131949999D03*
D33*
X47512499Y-134489999D03*
X47512499Y-137029999D03*
X47512499Y-139569999D03*
X47512499Y-142109999D03*
%TD*%
D20*
%TO.C,D47*%
X149012500Y-148075000D03*
X149012500Y-144775000D03*
%TD*%
D34*
%TO.C,U3*%
X65350000Y-114787500D03*
X63450000Y-114787500D03*
X64400000Y-112912500D03*
%TD*%
D20*
%TO.C,D48*%
X168062500Y-148075000D03*
X168062500Y-144775000D03*
%TD*%
D19*
%TO.C,C_3V-Decoup7*%
X68565000Y-141532500D03*
X67605000Y-141532500D03*
%TD*%
D20*
%TO.C,D13*%
X306175000Y-86162500D03*
X306175000Y-82862500D03*
%TD*%
D18*
%TO.C,C_1V-Decoup1*%
X71912500Y-139605000D03*
X71912500Y-138645000D03*
%TD*%
D20*
%TO.C,D35*%
X139487500Y-129025000D03*
X139487500Y-125725000D03*
%TD*%
%TO.C,D17*%
X77575000Y-109975000D03*
X77575000Y-106675000D03*
%TD*%
%TO.C,D3*%
X101387500Y-86162500D03*
X101387500Y-82862500D03*
%TD*%
D35*
%TO.C,C_3V-Decoup9*%
X82910589Y-154060589D03*
X83589411Y-154739411D03*
%TD*%
D20*
%TO.C,D18*%
X96625000Y-109975000D03*
X96625000Y-106675000D03*
%TD*%
D18*
%TO.C,C_Flash1*%
X83612500Y-138125000D03*
X83612500Y-137165000D03*
%TD*%
D20*
%TO.C,D22*%
X172825000Y-109975000D03*
X172825000Y-106675000D03*
%TD*%
%TO.C,D26*%
X249025000Y-109975000D03*
X249025000Y-106675000D03*
%TD*%
%TO.C,D30*%
X344275000Y-109975000D03*
X344275000Y-106675000D03*
%TD*%
D25*
%TO.C,C_3V-Decoup8*%
X73512500Y-154125000D03*
X73512500Y-155085000D03*
%TD*%
D20*
%TO.C,D1*%
X58525000Y-86162500D03*
X58525000Y-82862500D03*
%TD*%
D19*
%TO.C,C_3V-Decoup5*%
X68565000Y-142532500D03*
X67605000Y-142532500D03*
%TD*%
D20*
%TO.C,D54*%
X282362500Y-148075000D03*
X282362500Y-144775000D03*
%TD*%
%TO.C,D11*%
X263312500Y-86162500D03*
X263312500Y-82862500D03*
%TD*%
%TO.C,D12*%
X282362500Y-86162500D03*
X282362500Y-82862500D03*
%TD*%
%TO.C,D9*%
X220450000Y-86162500D03*
X220450000Y-82862500D03*
%TD*%
%TO.C,D27*%
X275218750Y-109975000D03*
X275218750Y-106675000D03*
%TD*%
%TO.C,D65*%
X279981250Y-167125000D03*
X279981250Y-163825000D03*
%TD*%
%TO.C,D43*%
X65668750Y-148075000D03*
X65668750Y-144775000D03*
%TD*%
D23*
%TO.C,D73*%
X327424999Y-130124999D03*
X328824999Y-130124999D03*
X328824999Y-124624999D03*
X327424999Y-124624999D03*
%TD*%
D20*
%TO.C,D38*%
X196637500Y-129025000D03*
X196637500Y-125725000D03*
%TD*%
%TO.C,D58*%
X108387500Y-167125000D03*
X108387500Y-163825000D03*
%TD*%
%TO.C,D45*%
X110912500Y-148075000D03*
X110912500Y-144775000D03*
%TD*%
%TO.C,D55*%
X325225000Y-148075000D03*
X325225000Y-144775000D03*
%TD*%
D36*
%TO.C,U4*%
X296262500Y-129350000D03*
X296262500Y-128400000D03*
X296262500Y-127450000D03*
X298537500Y-127450000D03*
X298537500Y-129350000D03*
%TD*%
D20*
%TO.C,D29*%
X325225000Y-109975000D03*
X325225000Y-106675000D03*
%TD*%
%TO.C,D25*%
X229975000Y-109975000D03*
X229975000Y-106675000D03*
%TD*%
D37*
%TO.C,J1*%
X69912500Y-116625000D03*
X69912500Y-117625000D03*
X69912500Y-118625000D03*
X69912500Y-119625000D03*
D38*
X73787500Y-115325000D03*
X73787500Y-120925000D03*
%TD*%
D20*
%TO.C,D28*%
X306175000Y-109975000D03*
X306175000Y-106675000D03*
%TD*%
D23*
%TO.C,D71*%
X315424999Y-130124999D03*
X316824999Y-130124999D03*
X316824999Y-124624999D03*
X315424999Y-124624999D03*
%TD*%
M02*
