M48
; DRILL file {KiCad (7.0.0-0)} date Wednesday, July 19, 2023 at 14:43:01
; FORMAT={-:-/ absolute / inch / decimal}
; #@! TF.CreationDate,2023-07-19T14:43:01-04:00
; #@! TF.GenerationSoftware,Kicad,Pcbnew,(7.0.0-0)
; #@! TF.FileFunction,NonPlated,1,2,NPTH
FMAT,2
INCH
; #@! TA.AperFunction,NonPlated,NPTH,ComponentDrill
T1C0.0689
; #@! TA.AperFunction,NonPlated,NPTH,ComponentDrill
T2C0.1200
; #@! TA.AperFunction,NonPlated,NPTH,ComponentDrill
T3C0.1570
%
G90
G05
T1
X1.9821Y-3.3273
X1.9821Y-4.2648
X2.0758Y-5.0148
X2.0758Y-6.5148
X2.2633Y-5.7648
X2.3821Y-3.3273
X2.3821Y-4.2648
X2.4758Y-5.0148
X2.4758Y-6.5148
X2.6633Y-5.7648
X2.7321Y-4.2648
X2.9196Y-3.3273
X2.9196Y-5.0148
X2.9196Y-6.5148
X3.1321Y-4.2648
X3.2946Y-5.7648
X3.3196Y-3.3273
X3.3196Y-5.0148
X3.3196Y-6.5148
X3.4821Y-4.2648
X3.6696Y-3.3273
X3.6696Y-5.0148
X3.6696Y-6.5148
X3.6946Y-5.7648
X3.7633Y-6.5148
X3.8821Y-4.2648
X4.0446Y-5.7648
X4.0696Y-3.3273
X4.0696Y-5.0148
X4.0696Y-6.5148
X4.1633Y-6.5148
X4.2321Y-4.2648
X4.4196Y-3.3273
X4.4196Y-5.0148
X4.4196Y-6.5148
X4.4446Y-5.7648
X4.6321Y-4.2648
X4.7946Y-5.7648
X4.8196Y-3.3273
X4.8196Y-5.0148
X4.8196Y-6.5148
X4.9821Y-4.2648
X5.1696Y-3.3273
X5.1696Y-5.0148
X5.1946Y-5.7648
X5.3571Y-6.5148
X5.3821Y-4.2648
X5.5446Y-5.7648
X5.5696Y-3.3273
X5.5696Y-5.0148
X5.6383Y-6.5148
X5.7321Y-4.2648
X5.7571Y-6.5148
X5.9196Y-5.0148
X5.9446Y-5.7648
X6.0383Y-6.5148
X6.1071Y-3.3273
X6.1321Y-4.2648
X6.2946Y-5.7648
X6.3196Y-5.0148
X6.3883Y-6.5148
X6.4821Y-4.2648
X6.4821Y-6.5148
X6.5071Y-3.3273
X6.6696Y-5.0148
X6.6946Y-5.7648
X6.7883Y-6.5148
X6.8571Y-3.3273
X6.8821Y-4.2648
X6.8821Y-6.5148
X7.0446Y-5.7648
X7.0696Y-5.0148
X7.2321Y-4.2648
X7.2321Y-6.5148
X7.2571Y-3.3273
X7.4196Y-5.0148
X7.4446Y-5.7648
X7.6071Y-3.3273
X7.6071Y-6.5148
X7.6321Y-4.2648
X7.6321Y-6.5148
X7.7946Y-5.7648
X7.8196Y-5.0148
X7.9821Y-4.2648
X8.0071Y-3.3273
X8.0071Y-6.5148
X8.1696Y-5.0148
X8.1946Y-5.7648
X8.3571Y-3.3273
X8.3571Y-6.5148
X8.3821Y-4.2648
X8.5446Y-5.7648
X8.5696Y-5.0148
X8.7321Y-4.2648
X8.7571Y-3.3273
X8.7571Y-6.5148
X8.9196Y-5.0148
X8.9446Y-5.7648
X9.1071Y-6.5148
X9.1321Y-4.2648
X9.2946Y-3.3273
X9.2946Y-5.7648
X9.3196Y-5.0148
X9.4821Y-4.2648
X9.5071Y-6.5148
X9.6696Y-5.0148
X9.6946Y-3.3273
X9.6946Y-5.7648
X9.8571Y-6.5148
X9.8821Y-4.2648
X10.0446Y-3.3273
X10.0446Y-5.7648
X10.0696Y-5.0148
X10.2571Y-6.5148
X10.4446Y-3.3273
X10.4446Y-5.7648
X10.5133Y-4.2648
X10.6071Y-5.0148
X10.7008Y-6.5148
X10.7946Y-3.3273
X10.7946Y-5.7648
X10.9133Y-4.2648
X11.0071Y-5.0148
X11.1008Y-6.5148
X11.1946Y-3.3273
X11.1946Y-5.7648
X11.7321Y-3.3273
X11.7321Y-4.2648
X11.7321Y-6.5148
X12.1321Y-3.3273
X12.1321Y-4.2648
X12.1321Y-6.5148
X12.4821Y-3.3273
X12.4821Y-4.2648
X12.4821Y-5.7648
X12.4821Y-6.5148
X12.8821Y-3.3273
X12.8821Y-4.2648
X12.8821Y-5.7648
X12.8821Y-6.5148
X13.2321Y-3.3273
X13.2321Y-4.2648
X13.2321Y-6.5148
X13.6321Y-3.3273
X13.6321Y-4.2648
X13.6321Y-6.5148
T2
X4.6198Y-6.7898
X4.8071Y-6.7898
X4.8071Y-6.7898
X5.3696Y-6.7898
X6.3071Y-6.7898
X6.3071Y-6.7898
X6.9633Y-6.7898
X7.0571Y-6.7898
X7.9008Y-6.7898
X8.5568Y-6.7898
X8.5571Y-6.7898
X8.5571Y-6.7898
T3
X2.1821Y-3.3273
X2.1821Y-4.2648
X2.2758Y-5.0148
X2.2758Y-6.5148
X2.4633Y-5.7648
X2.9321Y-4.2648
X3.1196Y-3.3273
X3.1196Y-5.0148
X3.1196Y-6.5148
X3.4946Y-5.7648
X3.6821Y-4.2648
X3.8696Y-3.3273
X3.8696Y-5.0148
X3.8696Y-6.5148
X3.9633Y-6.5148
X4.2446Y-5.7648
X4.4321Y-4.2648
X4.6196Y-3.3273
X4.6196Y-5.0148
X4.6196Y-6.5148
X4.6198Y-6.1898
X4.8071Y-6.1898
X4.8071Y-6.1898
X4.9946Y-5.7648
X5.1821Y-4.2648
X5.3696Y-3.3273
X5.3696Y-5.0148
X5.3696Y-6.1898
X5.5571Y-6.5148
X5.7446Y-5.7648
X5.8383Y-6.5148
X5.9321Y-4.2648
X6.1196Y-5.0148
X6.3071Y-3.3273
X6.3071Y-6.1898
X6.3071Y-6.1898
X6.4946Y-5.7648
X6.5883Y-6.5148
X6.6821Y-4.2648
X6.6821Y-6.5148
X6.8696Y-5.0148
X6.9633Y-6.1898
X7.0571Y-3.3273
X7.0571Y-6.1898
X7.2446Y-5.7648
X7.4321Y-4.2648
X7.4321Y-6.5148
X7.6196Y-5.0148
X7.8071Y-3.3273
X7.8071Y-6.5148
X7.9008Y-6.1898
X7.9946Y-5.7648
X8.1821Y-4.2648
X8.3696Y-5.0148
X8.5568Y-6.1898
X8.5571Y-3.3273
X8.5571Y-6.1898
X8.5571Y-6.1898
X8.5571Y-6.5148
X8.7446Y-5.7648
X8.9321Y-4.2648
X9.1196Y-5.0148
X9.3071Y-6.5148
X9.4946Y-3.3273
X9.4946Y-5.7648
X9.6821Y-4.2648
X9.8696Y-5.0148
X10.0571Y-6.5148
X10.2446Y-3.3273
X10.2446Y-5.7648
X10.7133Y-4.2648
X10.8071Y-5.0148
X10.9008Y-6.5148
X10.9946Y-3.3273
X10.9946Y-5.7648
X11.9321Y-3.3273
X11.9321Y-4.2648
X11.9321Y-6.5148
X12.6821Y-3.3273
X12.6821Y-4.2648
X12.6821Y-5.7648
X12.6821Y-6.5148
X13.4321Y-3.3273
X13.4321Y-4.2648
X13.4321Y-6.5148
T0
M30
