%TF.GenerationSoftware,KiCad,Pcbnew,(7.0.0-0)*%
%TF.CreationDate,2023-07-19T14:43:01-04:00*%
%TF.ProjectId,meadowstumble,6d656164-6f77-4737-9475-6d626c652e6b,rev?*%
%TF.SameCoordinates,Original*%
%TF.FileFunction,Other,Comment*%
%FSLAX46Y46*%
G04 Gerber Fmt 4.6, Leading zero omitted, Abs format (unit mm)*
G04 Created by KiCad (PCBNEW (7.0.0-0)) date 2023-07-19 14:43:01*
%MOMM*%
%LPD*%
G01*
G04 APERTURE LIST*
%ADD10C,0.150000*%
G04 APERTURE END LIST*
D10*
%TO.C,D14*%
X327592380Y-85726785D02*
X326592380Y-85726785D01*
X326592380Y-85726785D02*
X326592380Y-85488690D01*
X326592380Y-85488690D02*
X326640000Y-85345833D01*
X326640000Y-85345833D02*
X326735238Y-85250595D01*
X326735238Y-85250595D02*
X326830476Y-85202976D01*
X326830476Y-85202976D02*
X327020952Y-85155357D01*
X327020952Y-85155357D02*
X327163809Y-85155357D01*
X327163809Y-85155357D02*
X327354285Y-85202976D01*
X327354285Y-85202976D02*
X327449523Y-85250595D01*
X327449523Y-85250595D02*
X327544761Y-85345833D01*
X327544761Y-85345833D02*
X327592380Y-85488690D01*
X327592380Y-85488690D02*
X327592380Y-85726785D01*
X327592380Y-84202976D02*
X327592380Y-84774404D01*
X327592380Y-84488690D02*
X326592380Y-84488690D01*
X326592380Y-84488690D02*
X326735238Y-84583928D01*
X326735238Y-84583928D02*
X326830476Y-84679166D01*
X326830476Y-84679166D02*
X326878095Y-84774404D01*
X326925714Y-83345833D02*
X327592380Y-83345833D01*
X326544761Y-83583928D02*
X327259047Y-83822023D01*
X327259047Y-83822023D02*
X327259047Y-83202976D01*
%TO.C,D46*%
X132329880Y-147639285D02*
X131329880Y-147639285D01*
X131329880Y-147639285D02*
X131329880Y-147401190D01*
X131329880Y-147401190D02*
X131377500Y-147258333D01*
X131377500Y-147258333D02*
X131472738Y-147163095D01*
X131472738Y-147163095D02*
X131567976Y-147115476D01*
X131567976Y-147115476D02*
X131758452Y-147067857D01*
X131758452Y-147067857D02*
X131901309Y-147067857D01*
X131901309Y-147067857D02*
X132091785Y-147115476D01*
X132091785Y-147115476D02*
X132187023Y-147163095D01*
X132187023Y-147163095D02*
X132282261Y-147258333D01*
X132282261Y-147258333D02*
X132329880Y-147401190D01*
X132329880Y-147401190D02*
X132329880Y-147639285D01*
X131663214Y-146210714D02*
X132329880Y-146210714D01*
X131282261Y-146448809D02*
X131996547Y-146686904D01*
X131996547Y-146686904D02*
X131996547Y-146067857D01*
X131329880Y-145258333D02*
X131329880Y-145448809D01*
X131329880Y-145448809D02*
X131377500Y-145544047D01*
X131377500Y-145544047D02*
X131425119Y-145591666D01*
X131425119Y-145591666D02*
X131567976Y-145686904D01*
X131567976Y-145686904D02*
X131758452Y-145734523D01*
X131758452Y-145734523D02*
X132139404Y-145734523D01*
X132139404Y-145734523D02*
X132234642Y-145686904D01*
X132234642Y-145686904D02*
X132282261Y-145639285D01*
X132282261Y-145639285D02*
X132329880Y-145544047D01*
X132329880Y-145544047D02*
X132329880Y-145353571D01*
X132329880Y-145353571D02*
X132282261Y-145258333D01*
X132282261Y-145258333D02*
X132234642Y-145210714D01*
X132234642Y-145210714D02*
X132139404Y-145163095D01*
X132139404Y-145163095D02*
X131901309Y-145163095D01*
X131901309Y-145163095D02*
X131806071Y-145210714D01*
X131806071Y-145210714D02*
X131758452Y-145258333D01*
X131758452Y-145258333D02*
X131710833Y-145353571D01*
X131710833Y-145353571D02*
X131710833Y-145544047D01*
X131710833Y-145544047D02*
X131758452Y-145639285D01*
X131758452Y-145639285D02*
X131806071Y-145686904D01*
X131806071Y-145686904D02*
X131901309Y-145734523D01*
%TO.C,D53*%
X265679880Y-147639285D02*
X264679880Y-147639285D01*
X264679880Y-147639285D02*
X264679880Y-147401190D01*
X264679880Y-147401190D02*
X264727500Y-147258333D01*
X264727500Y-147258333D02*
X264822738Y-147163095D01*
X264822738Y-147163095D02*
X264917976Y-147115476D01*
X264917976Y-147115476D02*
X265108452Y-147067857D01*
X265108452Y-147067857D02*
X265251309Y-147067857D01*
X265251309Y-147067857D02*
X265441785Y-147115476D01*
X265441785Y-147115476D02*
X265537023Y-147163095D01*
X265537023Y-147163095D02*
X265632261Y-147258333D01*
X265632261Y-147258333D02*
X265679880Y-147401190D01*
X265679880Y-147401190D02*
X265679880Y-147639285D01*
X264679880Y-146163095D02*
X264679880Y-146639285D01*
X264679880Y-146639285D02*
X265156071Y-146686904D01*
X265156071Y-146686904D02*
X265108452Y-146639285D01*
X265108452Y-146639285D02*
X265060833Y-146544047D01*
X265060833Y-146544047D02*
X265060833Y-146305952D01*
X265060833Y-146305952D02*
X265108452Y-146210714D01*
X265108452Y-146210714D02*
X265156071Y-146163095D01*
X265156071Y-146163095D02*
X265251309Y-146115476D01*
X265251309Y-146115476D02*
X265489404Y-146115476D01*
X265489404Y-146115476D02*
X265584642Y-146163095D01*
X265584642Y-146163095D02*
X265632261Y-146210714D01*
X265632261Y-146210714D02*
X265679880Y-146305952D01*
X265679880Y-146305952D02*
X265679880Y-146544047D01*
X265679880Y-146544047D02*
X265632261Y-146639285D01*
X265632261Y-146639285D02*
X265584642Y-146686904D01*
X264679880Y-145782142D02*
X264679880Y-145163095D01*
X264679880Y-145163095D02*
X265060833Y-145496428D01*
X265060833Y-145496428D02*
X265060833Y-145353571D01*
X265060833Y-145353571D02*
X265108452Y-145258333D01*
X265108452Y-145258333D02*
X265156071Y-145210714D01*
X265156071Y-145210714D02*
X265251309Y-145163095D01*
X265251309Y-145163095D02*
X265489404Y-145163095D01*
X265489404Y-145163095D02*
X265584642Y-145210714D01*
X265584642Y-145210714D02*
X265632261Y-145258333D01*
X265632261Y-145258333D02*
X265679880Y-145353571D01*
X265679880Y-145353571D02*
X265679880Y-145639285D01*
X265679880Y-145639285D02*
X265632261Y-145734523D01*
X265632261Y-145734523D02*
X265584642Y-145782142D01*
%TO.C,D23*%
X194242380Y-109539285D02*
X193242380Y-109539285D01*
X193242380Y-109539285D02*
X193242380Y-109301190D01*
X193242380Y-109301190D02*
X193290000Y-109158333D01*
X193290000Y-109158333D02*
X193385238Y-109063095D01*
X193385238Y-109063095D02*
X193480476Y-109015476D01*
X193480476Y-109015476D02*
X193670952Y-108967857D01*
X193670952Y-108967857D02*
X193813809Y-108967857D01*
X193813809Y-108967857D02*
X194004285Y-109015476D01*
X194004285Y-109015476D02*
X194099523Y-109063095D01*
X194099523Y-109063095D02*
X194194761Y-109158333D01*
X194194761Y-109158333D02*
X194242380Y-109301190D01*
X194242380Y-109301190D02*
X194242380Y-109539285D01*
X193337619Y-108586904D02*
X193290000Y-108539285D01*
X193290000Y-108539285D02*
X193242380Y-108444047D01*
X193242380Y-108444047D02*
X193242380Y-108205952D01*
X193242380Y-108205952D02*
X193290000Y-108110714D01*
X193290000Y-108110714D02*
X193337619Y-108063095D01*
X193337619Y-108063095D02*
X193432857Y-108015476D01*
X193432857Y-108015476D02*
X193528095Y-108015476D01*
X193528095Y-108015476D02*
X193670952Y-108063095D01*
X193670952Y-108063095D02*
X194242380Y-108634523D01*
X194242380Y-108634523D02*
X194242380Y-108015476D01*
X193242380Y-107682142D02*
X193242380Y-107063095D01*
X193242380Y-107063095D02*
X193623333Y-107396428D01*
X193623333Y-107396428D02*
X193623333Y-107253571D01*
X193623333Y-107253571D02*
X193670952Y-107158333D01*
X193670952Y-107158333D02*
X193718571Y-107110714D01*
X193718571Y-107110714D02*
X193813809Y-107063095D01*
X193813809Y-107063095D02*
X194051904Y-107063095D01*
X194051904Y-107063095D02*
X194147142Y-107110714D01*
X194147142Y-107110714D02*
X194194761Y-107158333D01*
X194194761Y-107158333D02*
X194242380Y-107253571D01*
X194242380Y-107253571D02*
X194242380Y-107539285D01*
X194242380Y-107539285D02*
X194194761Y-107634523D01*
X194194761Y-107634523D02*
X194147142Y-107682142D01*
%TO.C,D16*%
X60892380Y-109539285D02*
X59892380Y-109539285D01*
X59892380Y-109539285D02*
X59892380Y-109301190D01*
X59892380Y-109301190D02*
X59940000Y-109158333D01*
X59940000Y-109158333D02*
X60035238Y-109063095D01*
X60035238Y-109063095D02*
X60130476Y-109015476D01*
X60130476Y-109015476D02*
X60320952Y-108967857D01*
X60320952Y-108967857D02*
X60463809Y-108967857D01*
X60463809Y-108967857D02*
X60654285Y-109015476D01*
X60654285Y-109015476D02*
X60749523Y-109063095D01*
X60749523Y-109063095D02*
X60844761Y-109158333D01*
X60844761Y-109158333D02*
X60892380Y-109301190D01*
X60892380Y-109301190D02*
X60892380Y-109539285D01*
X60892380Y-108015476D02*
X60892380Y-108586904D01*
X60892380Y-108301190D02*
X59892380Y-108301190D01*
X59892380Y-108301190D02*
X60035238Y-108396428D01*
X60035238Y-108396428D02*
X60130476Y-108491666D01*
X60130476Y-108491666D02*
X60178095Y-108586904D01*
X59892380Y-107158333D02*
X59892380Y-107348809D01*
X59892380Y-107348809D02*
X59940000Y-107444047D01*
X59940000Y-107444047D02*
X59987619Y-107491666D01*
X59987619Y-107491666D02*
X60130476Y-107586904D01*
X60130476Y-107586904D02*
X60320952Y-107634523D01*
X60320952Y-107634523D02*
X60701904Y-107634523D01*
X60701904Y-107634523D02*
X60797142Y-107586904D01*
X60797142Y-107586904D02*
X60844761Y-107539285D01*
X60844761Y-107539285D02*
X60892380Y-107444047D01*
X60892380Y-107444047D02*
X60892380Y-107253571D01*
X60892380Y-107253571D02*
X60844761Y-107158333D01*
X60844761Y-107158333D02*
X60797142Y-107110714D01*
X60797142Y-107110714D02*
X60701904Y-107063095D01*
X60701904Y-107063095D02*
X60463809Y-107063095D01*
X60463809Y-107063095D02*
X60368571Y-107110714D01*
X60368571Y-107110714D02*
X60320952Y-107158333D01*
X60320952Y-107158333D02*
X60273333Y-107253571D01*
X60273333Y-107253571D02*
X60273333Y-107444047D01*
X60273333Y-107444047D02*
X60320952Y-107539285D01*
X60320952Y-107539285D02*
X60368571Y-107586904D01*
X60368571Y-107586904D02*
X60463809Y-107634523D01*
%TO.C,D56*%
X63273630Y-166689285D02*
X62273630Y-166689285D01*
X62273630Y-166689285D02*
X62273630Y-166451190D01*
X62273630Y-166451190D02*
X62321250Y-166308333D01*
X62321250Y-166308333D02*
X62416488Y-166213095D01*
X62416488Y-166213095D02*
X62511726Y-166165476D01*
X62511726Y-166165476D02*
X62702202Y-166117857D01*
X62702202Y-166117857D02*
X62845059Y-166117857D01*
X62845059Y-166117857D02*
X63035535Y-166165476D01*
X63035535Y-166165476D02*
X63130773Y-166213095D01*
X63130773Y-166213095D02*
X63226011Y-166308333D01*
X63226011Y-166308333D02*
X63273630Y-166451190D01*
X63273630Y-166451190D02*
X63273630Y-166689285D01*
X62273630Y-165213095D02*
X62273630Y-165689285D01*
X62273630Y-165689285D02*
X62749821Y-165736904D01*
X62749821Y-165736904D02*
X62702202Y-165689285D01*
X62702202Y-165689285D02*
X62654583Y-165594047D01*
X62654583Y-165594047D02*
X62654583Y-165355952D01*
X62654583Y-165355952D02*
X62702202Y-165260714D01*
X62702202Y-165260714D02*
X62749821Y-165213095D01*
X62749821Y-165213095D02*
X62845059Y-165165476D01*
X62845059Y-165165476D02*
X63083154Y-165165476D01*
X63083154Y-165165476D02*
X63178392Y-165213095D01*
X63178392Y-165213095D02*
X63226011Y-165260714D01*
X63226011Y-165260714D02*
X63273630Y-165355952D01*
X63273630Y-165355952D02*
X63273630Y-165594047D01*
X63273630Y-165594047D02*
X63226011Y-165689285D01*
X63226011Y-165689285D02*
X63178392Y-165736904D01*
X62273630Y-164308333D02*
X62273630Y-164498809D01*
X62273630Y-164498809D02*
X62321250Y-164594047D01*
X62321250Y-164594047D02*
X62368869Y-164641666D01*
X62368869Y-164641666D02*
X62511726Y-164736904D01*
X62511726Y-164736904D02*
X62702202Y-164784523D01*
X62702202Y-164784523D02*
X63083154Y-164784523D01*
X63083154Y-164784523D02*
X63178392Y-164736904D01*
X63178392Y-164736904D02*
X63226011Y-164689285D01*
X63226011Y-164689285D02*
X63273630Y-164594047D01*
X63273630Y-164594047D02*
X63273630Y-164403571D01*
X63273630Y-164403571D02*
X63226011Y-164308333D01*
X63226011Y-164308333D02*
X63178392Y-164260714D01*
X63178392Y-164260714D02*
X63083154Y-164213095D01*
X63083154Y-164213095D02*
X62845059Y-164213095D01*
X62845059Y-164213095D02*
X62749821Y-164260714D01*
X62749821Y-164260714D02*
X62702202Y-164308333D01*
X62702202Y-164308333D02*
X62654583Y-164403571D01*
X62654583Y-164403571D02*
X62654583Y-164594047D01*
X62654583Y-164594047D02*
X62702202Y-164689285D01*
X62702202Y-164689285D02*
X62749821Y-164736904D01*
X62749821Y-164736904D02*
X62845059Y-164784523D01*
%TO.C,D68*%
X346642380Y-166689285D02*
X345642380Y-166689285D01*
X345642380Y-166689285D02*
X345642380Y-166451190D01*
X345642380Y-166451190D02*
X345690000Y-166308333D01*
X345690000Y-166308333D02*
X345785238Y-166213095D01*
X345785238Y-166213095D02*
X345880476Y-166165476D01*
X345880476Y-166165476D02*
X346070952Y-166117857D01*
X346070952Y-166117857D02*
X346213809Y-166117857D01*
X346213809Y-166117857D02*
X346404285Y-166165476D01*
X346404285Y-166165476D02*
X346499523Y-166213095D01*
X346499523Y-166213095D02*
X346594761Y-166308333D01*
X346594761Y-166308333D02*
X346642380Y-166451190D01*
X346642380Y-166451190D02*
X346642380Y-166689285D01*
X345642380Y-165260714D02*
X345642380Y-165451190D01*
X345642380Y-165451190D02*
X345690000Y-165546428D01*
X345690000Y-165546428D02*
X345737619Y-165594047D01*
X345737619Y-165594047D02*
X345880476Y-165689285D01*
X345880476Y-165689285D02*
X346070952Y-165736904D01*
X346070952Y-165736904D02*
X346451904Y-165736904D01*
X346451904Y-165736904D02*
X346547142Y-165689285D01*
X346547142Y-165689285D02*
X346594761Y-165641666D01*
X346594761Y-165641666D02*
X346642380Y-165546428D01*
X346642380Y-165546428D02*
X346642380Y-165355952D01*
X346642380Y-165355952D02*
X346594761Y-165260714D01*
X346594761Y-165260714D02*
X346547142Y-165213095D01*
X346547142Y-165213095D02*
X346451904Y-165165476D01*
X346451904Y-165165476D02*
X346213809Y-165165476D01*
X346213809Y-165165476D02*
X346118571Y-165213095D01*
X346118571Y-165213095D02*
X346070952Y-165260714D01*
X346070952Y-165260714D02*
X346023333Y-165355952D01*
X346023333Y-165355952D02*
X346023333Y-165546428D01*
X346023333Y-165546428D02*
X346070952Y-165641666D01*
X346070952Y-165641666D02*
X346118571Y-165689285D01*
X346118571Y-165689285D02*
X346213809Y-165736904D01*
X346070952Y-164594047D02*
X346023333Y-164689285D01*
X346023333Y-164689285D02*
X345975714Y-164736904D01*
X345975714Y-164736904D02*
X345880476Y-164784523D01*
X345880476Y-164784523D02*
X345832857Y-164784523D01*
X345832857Y-164784523D02*
X345737619Y-164736904D01*
X345737619Y-164736904D02*
X345690000Y-164689285D01*
X345690000Y-164689285D02*
X345642380Y-164594047D01*
X345642380Y-164594047D02*
X345642380Y-164403571D01*
X345642380Y-164403571D02*
X345690000Y-164308333D01*
X345690000Y-164308333D02*
X345737619Y-164260714D01*
X345737619Y-164260714D02*
X345832857Y-164213095D01*
X345832857Y-164213095D02*
X345880476Y-164213095D01*
X345880476Y-164213095D02*
X345975714Y-164260714D01*
X345975714Y-164260714D02*
X346023333Y-164308333D01*
X346023333Y-164308333D02*
X346070952Y-164403571D01*
X346070952Y-164403571D02*
X346070952Y-164594047D01*
X346070952Y-164594047D02*
X346118571Y-164689285D01*
X346118571Y-164689285D02*
X346166190Y-164736904D01*
X346166190Y-164736904D02*
X346261428Y-164784523D01*
X346261428Y-164784523D02*
X346451904Y-164784523D01*
X346451904Y-164784523D02*
X346547142Y-164736904D01*
X346547142Y-164736904D02*
X346594761Y-164689285D01*
X346594761Y-164689285D02*
X346642380Y-164594047D01*
X346642380Y-164594047D02*
X346642380Y-164403571D01*
X346642380Y-164403571D02*
X346594761Y-164308333D01*
X346594761Y-164308333D02*
X346547142Y-164260714D01*
X346547142Y-164260714D02*
X346451904Y-164213095D01*
X346451904Y-164213095D02*
X346261428Y-164213095D01*
X346261428Y-164213095D02*
X346166190Y-164260714D01*
X346166190Y-164260714D02*
X346118571Y-164308333D01*
X346118571Y-164308333D02*
X346070952Y-164403571D01*
%TO.C,D67*%
X327592380Y-166689285D02*
X326592380Y-166689285D01*
X326592380Y-166689285D02*
X326592380Y-166451190D01*
X326592380Y-166451190D02*
X326640000Y-166308333D01*
X326640000Y-166308333D02*
X326735238Y-166213095D01*
X326735238Y-166213095D02*
X326830476Y-166165476D01*
X326830476Y-166165476D02*
X327020952Y-166117857D01*
X327020952Y-166117857D02*
X327163809Y-166117857D01*
X327163809Y-166117857D02*
X327354285Y-166165476D01*
X327354285Y-166165476D02*
X327449523Y-166213095D01*
X327449523Y-166213095D02*
X327544761Y-166308333D01*
X327544761Y-166308333D02*
X327592380Y-166451190D01*
X327592380Y-166451190D02*
X327592380Y-166689285D01*
X326592380Y-165260714D02*
X326592380Y-165451190D01*
X326592380Y-165451190D02*
X326640000Y-165546428D01*
X326640000Y-165546428D02*
X326687619Y-165594047D01*
X326687619Y-165594047D02*
X326830476Y-165689285D01*
X326830476Y-165689285D02*
X327020952Y-165736904D01*
X327020952Y-165736904D02*
X327401904Y-165736904D01*
X327401904Y-165736904D02*
X327497142Y-165689285D01*
X327497142Y-165689285D02*
X327544761Y-165641666D01*
X327544761Y-165641666D02*
X327592380Y-165546428D01*
X327592380Y-165546428D02*
X327592380Y-165355952D01*
X327592380Y-165355952D02*
X327544761Y-165260714D01*
X327544761Y-165260714D02*
X327497142Y-165213095D01*
X327497142Y-165213095D02*
X327401904Y-165165476D01*
X327401904Y-165165476D02*
X327163809Y-165165476D01*
X327163809Y-165165476D02*
X327068571Y-165213095D01*
X327068571Y-165213095D02*
X327020952Y-165260714D01*
X327020952Y-165260714D02*
X326973333Y-165355952D01*
X326973333Y-165355952D02*
X326973333Y-165546428D01*
X326973333Y-165546428D02*
X327020952Y-165641666D01*
X327020952Y-165641666D02*
X327068571Y-165689285D01*
X327068571Y-165689285D02*
X327163809Y-165736904D01*
X326592380Y-164832142D02*
X326592380Y-164165476D01*
X326592380Y-164165476D02*
X327592380Y-164594047D01*
%TO.C,D7*%
X184717380Y-85250594D02*
X183717380Y-85250594D01*
X183717380Y-85250594D02*
X183717380Y-85012499D01*
X183717380Y-85012499D02*
X183765000Y-84869642D01*
X183765000Y-84869642D02*
X183860238Y-84774404D01*
X183860238Y-84774404D02*
X183955476Y-84726785D01*
X183955476Y-84726785D02*
X184145952Y-84679166D01*
X184145952Y-84679166D02*
X184288809Y-84679166D01*
X184288809Y-84679166D02*
X184479285Y-84726785D01*
X184479285Y-84726785D02*
X184574523Y-84774404D01*
X184574523Y-84774404D02*
X184669761Y-84869642D01*
X184669761Y-84869642D02*
X184717380Y-85012499D01*
X184717380Y-85012499D02*
X184717380Y-85250594D01*
X183717380Y-84345832D02*
X183717380Y-83679166D01*
X183717380Y-83679166D02*
X184717380Y-84107737D01*
%TO.C,D51*%
X227579880Y-147639285D02*
X226579880Y-147639285D01*
X226579880Y-147639285D02*
X226579880Y-147401190D01*
X226579880Y-147401190D02*
X226627500Y-147258333D01*
X226627500Y-147258333D02*
X226722738Y-147163095D01*
X226722738Y-147163095D02*
X226817976Y-147115476D01*
X226817976Y-147115476D02*
X227008452Y-147067857D01*
X227008452Y-147067857D02*
X227151309Y-147067857D01*
X227151309Y-147067857D02*
X227341785Y-147115476D01*
X227341785Y-147115476D02*
X227437023Y-147163095D01*
X227437023Y-147163095D02*
X227532261Y-147258333D01*
X227532261Y-147258333D02*
X227579880Y-147401190D01*
X227579880Y-147401190D02*
X227579880Y-147639285D01*
X226579880Y-146163095D02*
X226579880Y-146639285D01*
X226579880Y-146639285D02*
X227056071Y-146686904D01*
X227056071Y-146686904D02*
X227008452Y-146639285D01*
X227008452Y-146639285D02*
X226960833Y-146544047D01*
X226960833Y-146544047D02*
X226960833Y-146305952D01*
X226960833Y-146305952D02*
X227008452Y-146210714D01*
X227008452Y-146210714D02*
X227056071Y-146163095D01*
X227056071Y-146163095D02*
X227151309Y-146115476D01*
X227151309Y-146115476D02*
X227389404Y-146115476D01*
X227389404Y-146115476D02*
X227484642Y-146163095D01*
X227484642Y-146163095D02*
X227532261Y-146210714D01*
X227532261Y-146210714D02*
X227579880Y-146305952D01*
X227579880Y-146305952D02*
X227579880Y-146544047D01*
X227579880Y-146544047D02*
X227532261Y-146639285D01*
X227532261Y-146639285D02*
X227484642Y-146686904D01*
X227579880Y-145163095D02*
X227579880Y-145734523D01*
X227579880Y-145448809D02*
X226579880Y-145448809D01*
X226579880Y-145448809D02*
X226722738Y-145544047D01*
X226722738Y-145544047D02*
X226817976Y-145639285D01*
X226817976Y-145639285D02*
X226865595Y-145734523D01*
%TO.C,D41*%
X256154880Y-128589285D02*
X255154880Y-128589285D01*
X255154880Y-128589285D02*
X255154880Y-128351190D01*
X255154880Y-128351190D02*
X255202500Y-128208333D01*
X255202500Y-128208333D02*
X255297738Y-128113095D01*
X255297738Y-128113095D02*
X255392976Y-128065476D01*
X255392976Y-128065476D02*
X255583452Y-128017857D01*
X255583452Y-128017857D02*
X255726309Y-128017857D01*
X255726309Y-128017857D02*
X255916785Y-128065476D01*
X255916785Y-128065476D02*
X256012023Y-128113095D01*
X256012023Y-128113095D02*
X256107261Y-128208333D01*
X256107261Y-128208333D02*
X256154880Y-128351190D01*
X256154880Y-128351190D02*
X256154880Y-128589285D01*
X255488214Y-127160714D02*
X256154880Y-127160714D01*
X255107261Y-127398809D02*
X255821547Y-127636904D01*
X255821547Y-127636904D02*
X255821547Y-127017857D01*
X256154880Y-126113095D02*
X256154880Y-126684523D01*
X256154880Y-126398809D02*
X255154880Y-126398809D01*
X255154880Y-126398809D02*
X255297738Y-126494047D01*
X255297738Y-126494047D02*
X255392976Y-126589285D01*
X255392976Y-126589285D02*
X255440595Y-126684523D01*
%TO.C,D34*%
X122804880Y-128589285D02*
X121804880Y-128589285D01*
X121804880Y-128589285D02*
X121804880Y-128351190D01*
X121804880Y-128351190D02*
X121852500Y-128208333D01*
X121852500Y-128208333D02*
X121947738Y-128113095D01*
X121947738Y-128113095D02*
X122042976Y-128065476D01*
X122042976Y-128065476D02*
X122233452Y-128017857D01*
X122233452Y-128017857D02*
X122376309Y-128017857D01*
X122376309Y-128017857D02*
X122566785Y-128065476D01*
X122566785Y-128065476D02*
X122662023Y-128113095D01*
X122662023Y-128113095D02*
X122757261Y-128208333D01*
X122757261Y-128208333D02*
X122804880Y-128351190D01*
X122804880Y-128351190D02*
X122804880Y-128589285D01*
X121804880Y-127684523D02*
X121804880Y-127065476D01*
X121804880Y-127065476D02*
X122185833Y-127398809D01*
X122185833Y-127398809D02*
X122185833Y-127255952D01*
X122185833Y-127255952D02*
X122233452Y-127160714D01*
X122233452Y-127160714D02*
X122281071Y-127113095D01*
X122281071Y-127113095D02*
X122376309Y-127065476D01*
X122376309Y-127065476D02*
X122614404Y-127065476D01*
X122614404Y-127065476D02*
X122709642Y-127113095D01*
X122709642Y-127113095D02*
X122757261Y-127160714D01*
X122757261Y-127160714D02*
X122804880Y-127255952D01*
X122804880Y-127255952D02*
X122804880Y-127541666D01*
X122804880Y-127541666D02*
X122757261Y-127636904D01*
X122757261Y-127636904D02*
X122709642Y-127684523D01*
X122138214Y-126208333D02*
X122804880Y-126208333D01*
X121757261Y-126446428D02*
X122471547Y-126684523D01*
X122471547Y-126684523D02*
X122471547Y-126065476D01*
%TO.C,D32*%
X84704880Y-128589285D02*
X83704880Y-128589285D01*
X83704880Y-128589285D02*
X83704880Y-128351190D01*
X83704880Y-128351190D02*
X83752500Y-128208333D01*
X83752500Y-128208333D02*
X83847738Y-128113095D01*
X83847738Y-128113095D02*
X83942976Y-128065476D01*
X83942976Y-128065476D02*
X84133452Y-128017857D01*
X84133452Y-128017857D02*
X84276309Y-128017857D01*
X84276309Y-128017857D02*
X84466785Y-128065476D01*
X84466785Y-128065476D02*
X84562023Y-128113095D01*
X84562023Y-128113095D02*
X84657261Y-128208333D01*
X84657261Y-128208333D02*
X84704880Y-128351190D01*
X84704880Y-128351190D02*
X84704880Y-128589285D01*
X83704880Y-127684523D02*
X83704880Y-127065476D01*
X83704880Y-127065476D02*
X84085833Y-127398809D01*
X84085833Y-127398809D02*
X84085833Y-127255952D01*
X84085833Y-127255952D02*
X84133452Y-127160714D01*
X84133452Y-127160714D02*
X84181071Y-127113095D01*
X84181071Y-127113095D02*
X84276309Y-127065476D01*
X84276309Y-127065476D02*
X84514404Y-127065476D01*
X84514404Y-127065476D02*
X84609642Y-127113095D01*
X84609642Y-127113095D02*
X84657261Y-127160714D01*
X84657261Y-127160714D02*
X84704880Y-127255952D01*
X84704880Y-127255952D02*
X84704880Y-127541666D01*
X84704880Y-127541666D02*
X84657261Y-127636904D01*
X84657261Y-127636904D02*
X84609642Y-127684523D01*
X83800119Y-126684523D02*
X83752500Y-126636904D01*
X83752500Y-126636904D02*
X83704880Y-126541666D01*
X83704880Y-126541666D02*
X83704880Y-126303571D01*
X83704880Y-126303571D02*
X83752500Y-126208333D01*
X83752500Y-126208333D02*
X83800119Y-126160714D01*
X83800119Y-126160714D02*
X83895357Y-126113095D01*
X83895357Y-126113095D02*
X83990595Y-126113095D01*
X83990595Y-126113095D02*
X84133452Y-126160714D01*
X84133452Y-126160714D02*
X84704880Y-126732142D01*
X84704880Y-126732142D02*
X84704880Y-126113095D01*
%TO.C,D59*%
X122804880Y-166689285D02*
X121804880Y-166689285D01*
X121804880Y-166689285D02*
X121804880Y-166451190D01*
X121804880Y-166451190D02*
X121852500Y-166308333D01*
X121852500Y-166308333D02*
X121947738Y-166213095D01*
X121947738Y-166213095D02*
X122042976Y-166165476D01*
X122042976Y-166165476D02*
X122233452Y-166117857D01*
X122233452Y-166117857D02*
X122376309Y-166117857D01*
X122376309Y-166117857D02*
X122566785Y-166165476D01*
X122566785Y-166165476D02*
X122662023Y-166213095D01*
X122662023Y-166213095D02*
X122757261Y-166308333D01*
X122757261Y-166308333D02*
X122804880Y-166451190D01*
X122804880Y-166451190D02*
X122804880Y-166689285D01*
X121804880Y-165213095D02*
X121804880Y-165689285D01*
X121804880Y-165689285D02*
X122281071Y-165736904D01*
X122281071Y-165736904D02*
X122233452Y-165689285D01*
X122233452Y-165689285D02*
X122185833Y-165594047D01*
X122185833Y-165594047D02*
X122185833Y-165355952D01*
X122185833Y-165355952D02*
X122233452Y-165260714D01*
X122233452Y-165260714D02*
X122281071Y-165213095D01*
X122281071Y-165213095D02*
X122376309Y-165165476D01*
X122376309Y-165165476D02*
X122614404Y-165165476D01*
X122614404Y-165165476D02*
X122709642Y-165213095D01*
X122709642Y-165213095D02*
X122757261Y-165260714D01*
X122757261Y-165260714D02*
X122804880Y-165355952D01*
X122804880Y-165355952D02*
X122804880Y-165594047D01*
X122804880Y-165594047D02*
X122757261Y-165689285D01*
X122757261Y-165689285D02*
X122709642Y-165736904D01*
X122804880Y-164689285D02*
X122804880Y-164498809D01*
X122804880Y-164498809D02*
X122757261Y-164403571D01*
X122757261Y-164403571D02*
X122709642Y-164355952D01*
X122709642Y-164355952D02*
X122566785Y-164260714D01*
X122566785Y-164260714D02*
X122376309Y-164213095D01*
X122376309Y-164213095D02*
X121995357Y-164213095D01*
X121995357Y-164213095D02*
X121900119Y-164260714D01*
X121900119Y-164260714D02*
X121852500Y-164308333D01*
X121852500Y-164308333D02*
X121804880Y-164403571D01*
X121804880Y-164403571D02*
X121804880Y-164594047D01*
X121804880Y-164594047D02*
X121852500Y-164689285D01*
X121852500Y-164689285D02*
X121900119Y-164736904D01*
X121900119Y-164736904D02*
X121995357Y-164784523D01*
X121995357Y-164784523D02*
X122233452Y-164784523D01*
X122233452Y-164784523D02*
X122328690Y-164736904D01*
X122328690Y-164736904D02*
X122376309Y-164689285D01*
X122376309Y-164689285D02*
X122423928Y-164594047D01*
X122423928Y-164594047D02*
X122423928Y-164403571D01*
X122423928Y-164403571D02*
X122376309Y-164308333D01*
X122376309Y-164308333D02*
X122328690Y-164260714D01*
X122328690Y-164260714D02*
X122233452Y-164213095D01*
%TO.C,D8*%
X203767380Y-85250594D02*
X202767380Y-85250594D01*
X202767380Y-85250594D02*
X202767380Y-85012499D01*
X202767380Y-85012499D02*
X202815000Y-84869642D01*
X202815000Y-84869642D02*
X202910238Y-84774404D01*
X202910238Y-84774404D02*
X203005476Y-84726785D01*
X203005476Y-84726785D02*
X203195952Y-84679166D01*
X203195952Y-84679166D02*
X203338809Y-84679166D01*
X203338809Y-84679166D02*
X203529285Y-84726785D01*
X203529285Y-84726785D02*
X203624523Y-84774404D01*
X203624523Y-84774404D02*
X203719761Y-84869642D01*
X203719761Y-84869642D02*
X203767380Y-85012499D01*
X203767380Y-85012499D02*
X203767380Y-85250594D01*
X203195952Y-84107737D02*
X203148333Y-84202975D01*
X203148333Y-84202975D02*
X203100714Y-84250594D01*
X203100714Y-84250594D02*
X203005476Y-84298213D01*
X203005476Y-84298213D02*
X202957857Y-84298213D01*
X202957857Y-84298213D02*
X202862619Y-84250594D01*
X202862619Y-84250594D02*
X202815000Y-84202975D01*
X202815000Y-84202975D02*
X202767380Y-84107737D01*
X202767380Y-84107737D02*
X202767380Y-83917261D01*
X202767380Y-83917261D02*
X202815000Y-83822023D01*
X202815000Y-83822023D02*
X202862619Y-83774404D01*
X202862619Y-83774404D02*
X202957857Y-83726785D01*
X202957857Y-83726785D02*
X203005476Y-83726785D01*
X203005476Y-83726785D02*
X203100714Y-83774404D01*
X203100714Y-83774404D02*
X203148333Y-83822023D01*
X203148333Y-83822023D02*
X203195952Y-83917261D01*
X203195952Y-83917261D02*
X203195952Y-84107737D01*
X203195952Y-84107737D02*
X203243571Y-84202975D01*
X203243571Y-84202975D02*
X203291190Y-84250594D01*
X203291190Y-84250594D02*
X203386428Y-84298213D01*
X203386428Y-84298213D02*
X203576904Y-84298213D01*
X203576904Y-84298213D02*
X203672142Y-84250594D01*
X203672142Y-84250594D02*
X203719761Y-84202975D01*
X203719761Y-84202975D02*
X203767380Y-84107737D01*
X203767380Y-84107737D02*
X203767380Y-83917261D01*
X203767380Y-83917261D02*
X203719761Y-83822023D01*
X203719761Y-83822023D02*
X203672142Y-83774404D01*
X203672142Y-83774404D02*
X203576904Y-83726785D01*
X203576904Y-83726785D02*
X203386428Y-83726785D01*
X203386428Y-83726785D02*
X203291190Y-83774404D01*
X203291190Y-83774404D02*
X203243571Y-83822023D01*
X203243571Y-83822023D02*
X203195952Y-83917261D01*
%TO.C,D57*%
X84704880Y-166689285D02*
X83704880Y-166689285D01*
X83704880Y-166689285D02*
X83704880Y-166451190D01*
X83704880Y-166451190D02*
X83752500Y-166308333D01*
X83752500Y-166308333D02*
X83847738Y-166213095D01*
X83847738Y-166213095D02*
X83942976Y-166165476D01*
X83942976Y-166165476D02*
X84133452Y-166117857D01*
X84133452Y-166117857D02*
X84276309Y-166117857D01*
X84276309Y-166117857D02*
X84466785Y-166165476D01*
X84466785Y-166165476D02*
X84562023Y-166213095D01*
X84562023Y-166213095D02*
X84657261Y-166308333D01*
X84657261Y-166308333D02*
X84704880Y-166451190D01*
X84704880Y-166451190D02*
X84704880Y-166689285D01*
X83704880Y-165213095D02*
X83704880Y-165689285D01*
X83704880Y-165689285D02*
X84181071Y-165736904D01*
X84181071Y-165736904D02*
X84133452Y-165689285D01*
X84133452Y-165689285D02*
X84085833Y-165594047D01*
X84085833Y-165594047D02*
X84085833Y-165355952D01*
X84085833Y-165355952D02*
X84133452Y-165260714D01*
X84133452Y-165260714D02*
X84181071Y-165213095D01*
X84181071Y-165213095D02*
X84276309Y-165165476D01*
X84276309Y-165165476D02*
X84514404Y-165165476D01*
X84514404Y-165165476D02*
X84609642Y-165213095D01*
X84609642Y-165213095D02*
X84657261Y-165260714D01*
X84657261Y-165260714D02*
X84704880Y-165355952D01*
X84704880Y-165355952D02*
X84704880Y-165594047D01*
X84704880Y-165594047D02*
X84657261Y-165689285D01*
X84657261Y-165689285D02*
X84609642Y-165736904D01*
X83704880Y-164832142D02*
X83704880Y-164165476D01*
X83704880Y-164165476D02*
X84704880Y-164594047D01*
%TO.C,D50*%
X208529880Y-147639285D02*
X207529880Y-147639285D01*
X207529880Y-147639285D02*
X207529880Y-147401190D01*
X207529880Y-147401190D02*
X207577500Y-147258333D01*
X207577500Y-147258333D02*
X207672738Y-147163095D01*
X207672738Y-147163095D02*
X207767976Y-147115476D01*
X207767976Y-147115476D02*
X207958452Y-147067857D01*
X207958452Y-147067857D02*
X208101309Y-147067857D01*
X208101309Y-147067857D02*
X208291785Y-147115476D01*
X208291785Y-147115476D02*
X208387023Y-147163095D01*
X208387023Y-147163095D02*
X208482261Y-147258333D01*
X208482261Y-147258333D02*
X208529880Y-147401190D01*
X208529880Y-147401190D02*
X208529880Y-147639285D01*
X207529880Y-146163095D02*
X207529880Y-146639285D01*
X207529880Y-146639285D02*
X208006071Y-146686904D01*
X208006071Y-146686904D02*
X207958452Y-146639285D01*
X207958452Y-146639285D02*
X207910833Y-146544047D01*
X207910833Y-146544047D02*
X207910833Y-146305952D01*
X207910833Y-146305952D02*
X207958452Y-146210714D01*
X207958452Y-146210714D02*
X208006071Y-146163095D01*
X208006071Y-146163095D02*
X208101309Y-146115476D01*
X208101309Y-146115476D02*
X208339404Y-146115476D01*
X208339404Y-146115476D02*
X208434642Y-146163095D01*
X208434642Y-146163095D02*
X208482261Y-146210714D01*
X208482261Y-146210714D02*
X208529880Y-146305952D01*
X208529880Y-146305952D02*
X208529880Y-146544047D01*
X208529880Y-146544047D02*
X208482261Y-146639285D01*
X208482261Y-146639285D02*
X208434642Y-146686904D01*
X207529880Y-145496428D02*
X207529880Y-145401190D01*
X207529880Y-145401190D02*
X207577500Y-145305952D01*
X207577500Y-145305952D02*
X207625119Y-145258333D01*
X207625119Y-145258333D02*
X207720357Y-145210714D01*
X207720357Y-145210714D02*
X207910833Y-145163095D01*
X207910833Y-145163095D02*
X208148928Y-145163095D01*
X208148928Y-145163095D02*
X208339404Y-145210714D01*
X208339404Y-145210714D02*
X208434642Y-145258333D01*
X208434642Y-145258333D02*
X208482261Y-145305952D01*
X208482261Y-145305952D02*
X208529880Y-145401190D01*
X208529880Y-145401190D02*
X208529880Y-145496428D01*
X208529880Y-145496428D02*
X208482261Y-145591666D01*
X208482261Y-145591666D02*
X208434642Y-145639285D01*
X208434642Y-145639285D02*
X208339404Y-145686904D01*
X208339404Y-145686904D02*
X208148928Y-145734523D01*
X208148928Y-145734523D02*
X207910833Y-145734523D01*
X207910833Y-145734523D02*
X207720357Y-145686904D01*
X207720357Y-145686904D02*
X207625119Y-145639285D01*
X207625119Y-145639285D02*
X207577500Y-145591666D01*
X207577500Y-145591666D02*
X207529880Y-145496428D01*
%TO.C,D2*%
X84704880Y-85250594D02*
X83704880Y-85250594D01*
X83704880Y-85250594D02*
X83704880Y-85012499D01*
X83704880Y-85012499D02*
X83752500Y-84869642D01*
X83752500Y-84869642D02*
X83847738Y-84774404D01*
X83847738Y-84774404D02*
X83942976Y-84726785D01*
X83942976Y-84726785D02*
X84133452Y-84679166D01*
X84133452Y-84679166D02*
X84276309Y-84679166D01*
X84276309Y-84679166D02*
X84466785Y-84726785D01*
X84466785Y-84726785D02*
X84562023Y-84774404D01*
X84562023Y-84774404D02*
X84657261Y-84869642D01*
X84657261Y-84869642D02*
X84704880Y-85012499D01*
X84704880Y-85012499D02*
X84704880Y-85250594D01*
X83800119Y-84298213D02*
X83752500Y-84250594D01*
X83752500Y-84250594D02*
X83704880Y-84155356D01*
X83704880Y-84155356D02*
X83704880Y-83917261D01*
X83704880Y-83917261D02*
X83752500Y-83822023D01*
X83752500Y-83822023D02*
X83800119Y-83774404D01*
X83800119Y-83774404D02*
X83895357Y-83726785D01*
X83895357Y-83726785D02*
X83990595Y-83726785D01*
X83990595Y-83726785D02*
X84133452Y-83774404D01*
X84133452Y-83774404D02*
X84704880Y-84345832D01*
X84704880Y-84345832D02*
X84704880Y-83726785D01*
%TO.C,D40*%
X237104880Y-128589285D02*
X236104880Y-128589285D01*
X236104880Y-128589285D02*
X236104880Y-128351190D01*
X236104880Y-128351190D02*
X236152500Y-128208333D01*
X236152500Y-128208333D02*
X236247738Y-128113095D01*
X236247738Y-128113095D02*
X236342976Y-128065476D01*
X236342976Y-128065476D02*
X236533452Y-128017857D01*
X236533452Y-128017857D02*
X236676309Y-128017857D01*
X236676309Y-128017857D02*
X236866785Y-128065476D01*
X236866785Y-128065476D02*
X236962023Y-128113095D01*
X236962023Y-128113095D02*
X237057261Y-128208333D01*
X237057261Y-128208333D02*
X237104880Y-128351190D01*
X237104880Y-128351190D02*
X237104880Y-128589285D01*
X236438214Y-127160714D02*
X237104880Y-127160714D01*
X236057261Y-127398809D02*
X236771547Y-127636904D01*
X236771547Y-127636904D02*
X236771547Y-127017857D01*
X236104880Y-126446428D02*
X236104880Y-126351190D01*
X236104880Y-126351190D02*
X236152500Y-126255952D01*
X236152500Y-126255952D02*
X236200119Y-126208333D01*
X236200119Y-126208333D02*
X236295357Y-126160714D01*
X236295357Y-126160714D02*
X236485833Y-126113095D01*
X236485833Y-126113095D02*
X236723928Y-126113095D01*
X236723928Y-126113095D02*
X236914404Y-126160714D01*
X236914404Y-126160714D02*
X237009642Y-126208333D01*
X237009642Y-126208333D02*
X237057261Y-126255952D01*
X237057261Y-126255952D02*
X237104880Y-126351190D01*
X237104880Y-126351190D02*
X237104880Y-126446428D01*
X237104880Y-126446428D02*
X237057261Y-126541666D01*
X237057261Y-126541666D02*
X237009642Y-126589285D01*
X237009642Y-126589285D02*
X236914404Y-126636904D01*
X236914404Y-126636904D02*
X236723928Y-126684523D01*
X236723928Y-126684523D02*
X236485833Y-126684523D01*
X236485833Y-126684523D02*
X236295357Y-126636904D01*
X236295357Y-126636904D02*
X236200119Y-126589285D01*
X236200119Y-126589285D02*
X236152500Y-126541666D01*
X236152500Y-126541666D02*
X236104880Y-126446428D01*
%TO.C,D5*%
X141854880Y-85250594D02*
X140854880Y-85250594D01*
X140854880Y-85250594D02*
X140854880Y-85012499D01*
X140854880Y-85012499D02*
X140902500Y-84869642D01*
X140902500Y-84869642D02*
X140997738Y-84774404D01*
X140997738Y-84774404D02*
X141092976Y-84726785D01*
X141092976Y-84726785D02*
X141283452Y-84679166D01*
X141283452Y-84679166D02*
X141426309Y-84679166D01*
X141426309Y-84679166D02*
X141616785Y-84726785D01*
X141616785Y-84726785D02*
X141712023Y-84774404D01*
X141712023Y-84774404D02*
X141807261Y-84869642D01*
X141807261Y-84869642D02*
X141854880Y-85012499D01*
X141854880Y-85012499D02*
X141854880Y-85250594D01*
X140854880Y-83774404D02*
X140854880Y-84250594D01*
X140854880Y-84250594D02*
X141331071Y-84298213D01*
X141331071Y-84298213D02*
X141283452Y-84250594D01*
X141283452Y-84250594D02*
X141235833Y-84155356D01*
X141235833Y-84155356D02*
X141235833Y-83917261D01*
X141235833Y-83917261D02*
X141283452Y-83822023D01*
X141283452Y-83822023D02*
X141331071Y-83774404D01*
X141331071Y-83774404D02*
X141426309Y-83726785D01*
X141426309Y-83726785D02*
X141664404Y-83726785D01*
X141664404Y-83726785D02*
X141759642Y-83774404D01*
X141759642Y-83774404D02*
X141807261Y-83822023D01*
X141807261Y-83822023D02*
X141854880Y-83917261D01*
X141854880Y-83917261D02*
X141854880Y-84155356D01*
X141854880Y-84155356D02*
X141807261Y-84250594D01*
X141807261Y-84250594D02*
X141759642Y-84298213D01*
%TO.C,D42*%
X279967380Y-128589285D02*
X278967380Y-128589285D01*
X278967380Y-128589285D02*
X278967380Y-128351190D01*
X278967380Y-128351190D02*
X279015000Y-128208333D01*
X279015000Y-128208333D02*
X279110238Y-128113095D01*
X279110238Y-128113095D02*
X279205476Y-128065476D01*
X279205476Y-128065476D02*
X279395952Y-128017857D01*
X279395952Y-128017857D02*
X279538809Y-128017857D01*
X279538809Y-128017857D02*
X279729285Y-128065476D01*
X279729285Y-128065476D02*
X279824523Y-128113095D01*
X279824523Y-128113095D02*
X279919761Y-128208333D01*
X279919761Y-128208333D02*
X279967380Y-128351190D01*
X279967380Y-128351190D02*
X279967380Y-128589285D01*
X279300714Y-127160714D02*
X279967380Y-127160714D01*
X278919761Y-127398809D02*
X279634047Y-127636904D01*
X279634047Y-127636904D02*
X279634047Y-127017857D01*
X279062619Y-126684523D02*
X279015000Y-126636904D01*
X279015000Y-126636904D02*
X278967380Y-126541666D01*
X278967380Y-126541666D02*
X278967380Y-126303571D01*
X278967380Y-126303571D02*
X279015000Y-126208333D01*
X279015000Y-126208333D02*
X279062619Y-126160714D01*
X279062619Y-126160714D02*
X279157857Y-126113095D01*
X279157857Y-126113095D02*
X279253095Y-126113095D01*
X279253095Y-126113095D02*
X279395952Y-126160714D01*
X279395952Y-126160714D02*
X279967380Y-126732142D01*
X279967380Y-126732142D02*
X279967380Y-126113095D01*
%TO.C,D19*%
X118042380Y-109539285D02*
X117042380Y-109539285D01*
X117042380Y-109539285D02*
X117042380Y-109301190D01*
X117042380Y-109301190D02*
X117090000Y-109158333D01*
X117090000Y-109158333D02*
X117185238Y-109063095D01*
X117185238Y-109063095D02*
X117280476Y-109015476D01*
X117280476Y-109015476D02*
X117470952Y-108967857D01*
X117470952Y-108967857D02*
X117613809Y-108967857D01*
X117613809Y-108967857D02*
X117804285Y-109015476D01*
X117804285Y-109015476D02*
X117899523Y-109063095D01*
X117899523Y-109063095D02*
X117994761Y-109158333D01*
X117994761Y-109158333D02*
X118042380Y-109301190D01*
X118042380Y-109301190D02*
X118042380Y-109539285D01*
X118042380Y-108015476D02*
X118042380Y-108586904D01*
X118042380Y-108301190D02*
X117042380Y-108301190D01*
X117042380Y-108301190D02*
X117185238Y-108396428D01*
X117185238Y-108396428D02*
X117280476Y-108491666D01*
X117280476Y-108491666D02*
X117328095Y-108586904D01*
X118042380Y-107539285D02*
X118042380Y-107348809D01*
X118042380Y-107348809D02*
X117994761Y-107253571D01*
X117994761Y-107253571D02*
X117947142Y-107205952D01*
X117947142Y-107205952D02*
X117804285Y-107110714D01*
X117804285Y-107110714D02*
X117613809Y-107063095D01*
X117613809Y-107063095D02*
X117232857Y-107063095D01*
X117232857Y-107063095D02*
X117137619Y-107110714D01*
X117137619Y-107110714D02*
X117090000Y-107158333D01*
X117090000Y-107158333D02*
X117042380Y-107253571D01*
X117042380Y-107253571D02*
X117042380Y-107444047D01*
X117042380Y-107444047D02*
X117090000Y-107539285D01*
X117090000Y-107539285D02*
X117137619Y-107586904D01*
X117137619Y-107586904D02*
X117232857Y-107634523D01*
X117232857Y-107634523D02*
X117470952Y-107634523D01*
X117470952Y-107634523D02*
X117566190Y-107586904D01*
X117566190Y-107586904D02*
X117613809Y-107539285D01*
X117613809Y-107539285D02*
X117661428Y-107444047D01*
X117661428Y-107444047D02*
X117661428Y-107253571D01*
X117661428Y-107253571D02*
X117613809Y-107158333D01*
X117613809Y-107158333D02*
X117566190Y-107110714D01*
X117566190Y-107110714D02*
X117470952Y-107063095D01*
%TO.C,D6*%
X165667380Y-85250594D02*
X164667380Y-85250594D01*
X164667380Y-85250594D02*
X164667380Y-85012499D01*
X164667380Y-85012499D02*
X164715000Y-84869642D01*
X164715000Y-84869642D02*
X164810238Y-84774404D01*
X164810238Y-84774404D02*
X164905476Y-84726785D01*
X164905476Y-84726785D02*
X165095952Y-84679166D01*
X165095952Y-84679166D02*
X165238809Y-84679166D01*
X165238809Y-84679166D02*
X165429285Y-84726785D01*
X165429285Y-84726785D02*
X165524523Y-84774404D01*
X165524523Y-84774404D02*
X165619761Y-84869642D01*
X165619761Y-84869642D02*
X165667380Y-85012499D01*
X165667380Y-85012499D02*
X165667380Y-85250594D01*
X164667380Y-83822023D02*
X164667380Y-84012499D01*
X164667380Y-84012499D02*
X164715000Y-84107737D01*
X164715000Y-84107737D02*
X164762619Y-84155356D01*
X164762619Y-84155356D02*
X164905476Y-84250594D01*
X164905476Y-84250594D02*
X165095952Y-84298213D01*
X165095952Y-84298213D02*
X165476904Y-84298213D01*
X165476904Y-84298213D02*
X165572142Y-84250594D01*
X165572142Y-84250594D02*
X165619761Y-84202975D01*
X165619761Y-84202975D02*
X165667380Y-84107737D01*
X165667380Y-84107737D02*
X165667380Y-83917261D01*
X165667380Y-83917261D02*
X165619761Y-83822023D01*
X165619761Y-83822023D02*
X165572142Y-83774404D01*
X165572142Y-83774404D02*
X165476904Y-83726785D01*
X165476904Y-83726785D02*
X165238809Y-83726785D01*
X165238809Y-83726785D02*
X165143571Y-83774404D01*
X165143571Y-83774404D02*
X165095952Y-83822023D01*
X165095952Y-83822023D02*
X165048333Y-83917261D01*
X165048333Y-83917261D02*
X165048333Y-84107737D01*
X165048333Y-84107737D02*
X165095952Y-84202975D01*
X165095952Y-84202975D02*
X165143571Y-84250594D01*
X165143571Y-84250594D02*
X165238809Y-84298213D01*
%TO.C,D44*%
X94229880Y-147639285D02*
X93229880Y-147639285D01*
X93229880Y-147639285D02*
X93229880Y-147401190D01*
X93229880Y-147401190D02*
X93277500Y-147258333D01*
X93277500Y-147258333D02*
X93372738Y-147163095D01*
X93372738Y-147163095D02*
X93467976Y-147115476D01*
X93467976Y-147115476D02*
X93658452Y-147067857D01*
X93658452Y-147067857D02*
X93801309Y-147067857D01*
X93801309Y-147067857D02*
X93991785Y-147115476D01*
X93991785Y-147115476D02*
X94087023Y-147163095D01*
X94087023Y-147163095D02*
X94182261Y-147258333D01*
X94182261Y-147258333D02*
X94229880Y-147401190D01*
X94229880Y-147401190D02*
X94229880Y-147639285D01*
X93563214Y-146210714D02*
X94229880Y-146210714D01*
X93182261Y-146448809D02*
X93896547Y-146686904D01*
X93896547Y-146686904D02*
X93896547Y-146067857D01*
X93563214Y-145258333D02*
X94229880Y-145258333D01*
X93182261Y-145496428D02*
X93896547Y-145734523D01*
X93896547Y-145734523D02*
X93896547Y-145115476D01*
%TO.C,D63*%
X241867380Y-166689285D02*
X240867380Y-166689285D01*
X240867380Y-166689285D02*
X240867380Y-166451190D01*
X240867380Y-166451190D02*
X240915000Y-166308333D01*
X240915000Y-166308333D02*
X241010238Y-166213095D01*
X241010238Y-166213095D02*
X241105476Y-166165476D01*
X241105476Y-166165476D02*
X241295952Y-166117857D01*
X241295952Y-166117857D02*
X241438809Y-166117857D01*
X241438809Y-166117857D02*
X241629285Y-166165476D01*
X241629285Y-166165476D02*
X241724523Y-166213095D01*
X241724523Y-166213095D02*
X241819761Y-166308333D01*
X241819761Y-166308333D02*
X241867380Y-166451190D01*
X241867380Y-166451190D02*
X241867380Y-166689285D01*
X240867380Y-165260714D02*
X240867380Y-165451190D01*
X240867380Y-165451190D02*
X240915000Y-165546428D01*
X240915000Y-165546428D02*
X240962619Y-165594047D01*
X240962619Y-165594047D02*
X241105476Y-165689285D01*
X241105476Y-165689285D02*
X241295952Y-165736904D01*
X241295952Y-165736904D02*
X241676904Y-165736904D01*
X241676904Y-165736904D02*
X241772142Y-165689285D01*
X241772142Y-165689285D02*
X241819761Y-165641666D01*
X241819761Y-165641666D02*
X241867380Y-165546428D01*
X241867380Y-165546428D02*
X241867380Y-165355952D01*
X241867380Y-165355952D02*
X241819761Y-165260714D01*
X241819761Y-165260714D02*
X241772142Y-165213095D01*
X241772142Y-165213095D02*
X241676904Y-165165476D01*
X241676904Y-165165476D02*
X241438809Y-165165476D01*
X241438809Y-165165476D02*
X241343571Y-165213095D01*
X241343571Y-165213095D02*
X241295952Y-165260714D01*
X241295952Y-165260714D02*
X241248333Y-165355952D01*
X241248333Y-165355952D02*
X241248333Y-165546428D01*
X241248333Y-165546428D02*
X241295952Y-165641666D01*
X241295952Y-165641666D02*
X241343571Y-165689285D01*
X241343571Y-165689285D02*
X241438809Y-165736904D01*
X240867380Y-164832142D02*
X240867380Y-164213095D01*
X240867380Y-164213095D02*
X241248333Y-164546428D01*
X241248333Y-164546428D02*
X241248333Y-164403571D01*
X241248333Y-164403571D02*
X241295952Y-164308333D01*
X241295952Y-164308333D02*
X241343571Y-164260714D01*
X241343571Y-164260714D02*
X241438809Y-164213095D01*
X241438809Y-164213095D02*
X241676904Y-164213095D01*
X241676904Y-164213095D02*
X241772142Y-164260714D01*
X241772142Y-164260714D02*
X241819761Y-164308333D01*
X241819761Y-164308333D02*
X241867380Y-164403571D01*
X241867380Y-164403571D02*
X241867380Y-164689285D01*
X241867380Y-164689285D02*
X241819761Y-164784523D01*
X241819761Y-164784523D02*
X241772142Y-164832142D01*
%TO.C,D33*%
X103754880Y-128589285D02*
X102754880Y-128589285D01*
X102754880Y-128589285D02*
X102754880Y-128351190D01*
X102754880Y-128351190D02*
X102802500Y-128208333D01*
X102802500Y-128208333D02*
X102897738Y-128113095D01*
X102897738Y-128113095D02*
X102992976Y-128065476D01*
X102992976Y-128065476D02*
X103183452Y-128017857D01*
X103183452Y-128017857D02*
X103326309Y-128017857D01*
X103326309Y-128017857D02*
X103516785Y-128065476D01*
X103516785Y-128065476D02*
X103612023Y-128113095D01*
X103612023Y-128113095D02*
X103707261Y-128208333D01*
X103707261Y-128208333D02*
X103754880Y-128351190D01*
X103754880Y-128351190D02*
X103754880Y-128589285D01*
X102754880Y-127684523D02*
X102754880Y-127065476D01*
X102754880Y-127065476D02*
X103135833Y-127398809D01*
X103135833Y-127398809D02*
X103135833Y-127255952D01*
X103135833Y-127255952D02*
X103183452Y-127160714D01*
X103183452Y-127160714D02*
X103231071Y-127113095D01*
X103231071Y-127113095D02*
X103326309Y-127065476D01*
X103326309Y-127065476D02*
X103564404Y-127065476D01*
X103564404Y-127065476D02*
X103659642Y-127113095D01*
X103659642Y-127113095D02*
X103707261Y-127160714D01*
X103707261Y-127160714D02*
X103754880Y-127255952D01*
X103754880Y-127255952D02*
X103754880Y-127541666D01*
X103754880Y-127541666D02*
X103707261Y-127636904D01*
X103707261Y-127636904D02*
X103659642Y-127684523D01*
X102754880Y-126732142D02*
X102754880Y-126113095D01*
X102754880Y-126113095D02*
X103135833Y-126446428D01*
X103135833Y-126446428D02*
X103135833Y-126303571D01*
X103135833Y-126303571D02*
X103183452Y-126208333D01*
X103183452Y-126208333D02*
X103231071Y-126160714D01*
X103231071Y-126160714D02*
X103326309Y-126113095D01*
X103326309Y-126113095D02*
X103564404Y-126113095D01*
X103564404Y-126113095D02*
X103659642Y-126160714D01*
X103659642Y-126160714D02*
X103707261Y-126208333D01*
X103707261Y-126208333D02*
X103754880Y-126303571D01*
X103754880Y-126303571D02*
X103754880Y-126589285D01*
X103754880Y-126589285D02*
X103707261Y-126684523D01*
X103707261Y-126684523D02*
X103659642Y-126732142D01*
%TO.C,D24*%
X213292380Y-109539285D02*
X212292380Y-109539285D01*
X212292380Y-109539285D02*
X212292380Y-109301190D01*
X212292380Y-109301190D02*
X212340000Y-109158333D01*
X212340000Y-109158333D02*
X212435238Y-109063095D01*
X212435238Y-109063095D02*
X212530476Y-109015476D01*
X212530476Y-109015476D02*
X212720952Y-108967857D01*
X212720952Y-108967857D02*
X212863809Y-108967857D01*
X212863809Y-108967857D02*
X213054285Y-109015476D01*
X213054285Y-109015476D02*
X213149523Y-109063095D01*
X213149523Y-109063095D02*
X213244761Y-109158333D01*
X213244761Y-109158333D02*
X213292380Y-109301190D01*
X213292380Y-109301190D02*
X213292380Y-109539285D01*
X212387619Y-108586904D02*
X212340000Y-108539285D01*
X212340000Y-108539285D02*
X212292380Y-108444047D01*
X212292380Y-108444047D02*
X212292380Y-108205952D01*
X212292380Y-108205952D02*
X212340000Y-108110714D01*
X212340000Y-108110714D02*
X212387619Y-108063095D01*
X212387619Y-108063095D02*
X212482857Y-108015476D01*
X212482857Y-108015476D02*
X212578095Y-108015476D01*
X212578095Y-108015476D02*
X212720952Y-108063095D01*
X212720952Y-108063095D02*
X213292380Y-108634523D01*
X213292380Y-108634523D02*
X213292380Y-108015476D01*
X212625714Y-107158333D02*
X213292380Y-107158333D01*
X212244761Y-107396428D02*
X212959047Y-107634523D01*
X212959047Y-107634523D02*
X212959047Y-107015476D01*
%TO.C,D52*%
X246629880Y-147639285D02*
X245629880Y-147639285D01*
X245629880Y-147639285D02*
X245629880Y-147401190D01*
X245629880Y-147401190D02*
X245677500Y-147258333D01*
X245677500Y-147258333D02*
X245772738Y-147163095D01*
X245772738Y-147163095D02*
X245867976Y-147115476D01*
X245867976Y-147115476D02*
X246058452Y-147067857D01*
X246058452Y-147067857D02*
X246201309Y-147067857D01*
X246201309Y-147067857D02*
X246391785Y-147115476D01*
X246391785Y-147115476D02*
X246487023Y-147163095D01*
X246487023Y-147163095D02*
X246582261Y-147258333D01*
X246582261Y-147258333D02*
X246629880Y-147401190D01*
X246629880Y-147401190D02*
X246629880Y-147639285D01*
X245629880Y-146163095D02*
X245629880Y-146639285D01*
X245629880Y-146639285D02*
X246106071Y-146686904D01*
X246106071Y-146686904D02*
X246058452Y-146639285D01*
X246058452Y-146639285D02*
X246010833Y-146544047D01*
X246010833Y-146544047D02*
X246010833Y-146305952D01*
X246010833Y-146305952D02*
X246058452Y-146210714D01*
X246058452Y-146210714D02*
X246106071Y-146163095D01*
X246106071Y-146163095D02*
X246201309Y-146115476D01*
X246201309Y-146115476D02*
X246439404Y-146115476D01*
X246439404Y-146115476D02*
X246534642Y-146163095D01*
X246534642Y-146163095D02*
X246582261Y-146210714D01*
X246582261Y-146210714D02*
X246629880Y-146305952D01*
X246629880Y-146305952D02*
X246629880Y-146544047D01*
X246629880Y-146544047D02*
X246582261Y-146639285D01*
X246582261Y-146639285D02*
X246534642Y-146686904D01*
X245725119Y-145734523D02*
X245677500Y-145686904D01*
X245677500Y-145686904D02*
X245629880Y-145591666D01*
X245629880Y-145591666D02*
X245629880Y-145353571D01*
X245629880Y-145353571D02*
X245677500Y-145258333D01*
X245677500Y-145258333D02*
X245725119Y-145210714D01*
X245725119Y-145210714D02*
X245820357Y-145163095D01*
X245820357Y-145163095D02*
X245915595Y-145163095D01*
X245915595Y-145163095D02*
X246058452Y-145210714D01*
X246058452Y-145210714D02*
X246629880Y-145782142D01*
X246629880Y-145782142D02*
X246629880Y-145163095D01*
%TO.C,D21*%
X156142380Y-109539285D02*
X155142380Y-109539285D01*
X155142380Y-109539285D02*
X155142380Y-109301190D01*
X155142380Y-109301190D02*
X155190000Y-109158333D01*
X155190000Y-109158333D02*
X155285238Y-109063095D01*
X155285238Y-109063095D02*
X155380476Y-109015476D01*
X155380476Y-109015476D02*
X155570952Y-108967857D01*
X155570952Y-108967857D02*
X155713809Y-108967857D01*
X155713809Y-108967857D02*
X155904285Y-109015476D01*
X155904285Y-109015476D02*
X155999523Y-109063095D01*
X155999523Y-109063095D02*
X156094761Y-109158333D01*
X156094761Y-109158333D02*
X156142380Y-109301190D01*
X156142380Y-109301190D02*
X156142380Y-109539285D01*
X155237619Y-108586904D02*
X155190000Y-108539285D01*
X155190000Y-108539285D02*
X155142380Y-108444047D01*
X155142380Y-108444047D02*
X155142380Y-108205952D01*
X155142380Y-108205952D02*
X155190000Y-108110714D01*
X155190000Y-108110714D02*
X155237619Y-108063095D01*
X155237619Y-108063095D02*
X155332857Y-108015476D01*
X155332857Y-108015476D02*
X155428095Y-108015476D01*
X155428095Y-108015476D02*
X155570952Y-108063095D01*
X155570952Y-108063095D02*
X156142380Y-108634523D01*
X156142380Y-108634523D02*
X156142380Y-108015476D01*
X156142380Y-107063095D02*
X156142380Y-107634523D01*
X156142380Y-107348809D02*
X155142380Y-107348809D01*
X155142380Y-107348809D02*
X155285238Y-107444047D01*
X155285238Y-107444047D02*
X155380476Y-107539285D01*
X155380476Y-107539285D02*
X155428095Y-107634523D01*
%TO.C,D15*%
X346642380Y-85726785D02*
X345642380Y-85726785D01*
X345642380Y-85726785D02*
X345642380Y-85488690D01*
X345642380Y-85488690D02*
X345690000Y-85345833D01*
X345690000Y-85345833D02*
X345785238Y-85250595D01*
X345785238Y-85250595D02*
X345880476Y-85202976D01*
X345880476Y-85202976D02*
X346070952Y-85155357D01*
X346070952Y-85155357D02*
X346213809Y-85155357D01*
X346213809Y-85155357D02*
X346404285Y-85202976D01*
X346404285Y-85202976D02*
X346499523Y-85250595D01*
X346499523Y-85250595D02*
X346594761Y-85345833D01*
X346594761Y-85345833D02*
X346642380Y-85488690D01*
X346642380Y-85488690D02*
X346642380Y-85726785D01*
X346642380Y-84202976D02*
X346642380Y-84774404D01*
X346642380Y-84488690D02*
X345642380Y-84488690D01*
X345642380Y-84488690D02*
X345785238Y-84583928D01*
X345785238Y-84583928D02*
X345880476Y-84679166D01*
X345880476Y-84679166D02*
X345928095Y-84774404D01*
X345642380Y-83298214D02*
X345642380Y-83774404D01*
X345642380Y-83774404D02*
X346118571Y-83822023D01*
X346118571Y-83822023D02*
X346070952Y-83774404D01*
X346070952Y-83774404D02*
X346023333Y-83679166D01*
X346023333Y-83679166D02*
X346023333Y-83441071D01*
X346023333Y-83441071D02*
X346070952Y-83345833D01*
X346070952Y-83345833D02*
X346118571Y-83298214D01*
X346118571Y-83298214D02*
X346213809Y-83250595D01*
X346213809Y-83250595D02*
X346451904Y-83250595D01*
X346451904Y-83250595D02*
X346547142Y-83298214D01*
X346547142Y-83298214D02*
X346594761Y-83345833D01*
X346594761Y-83345833D02*
X346642380Y-83441071D01*
X346642380Y-83441071D02*
X346642380Y-83679166D01*
X346642380Y-83679166D02*
X346594761Y-83774404D01*
X346594761Y-83774404D02*
X346547142Y-83822023D01*
%TO.C,D37*%
X179954880Y-128589285D02*
X178954880Y-128589285D01*
X178954880Y-128589285D02*
X178954880Y-128351190D01*
X178954880Y-128351190D02*
X179002500Y-128208333D01*
X179002500Y-128208333D02*
X179097738Y-128113095D01*
X179097738Y-128113095D02*
X179192976Y-128065476D01*
X179192976Y-128065476D02*
X179383452Y-128017857D01*
X179383452Y-128017857D02*
X179526309Y-128017857D01*
X179526309Y-128017857D02*
X179716785Y-128065476D01*
X179716785Y-128065476D02*
X179812023Y-128113095D01*
X179812023Y-128113095D02*
X179907261Y-128208333D01*
X179907261Y-128208333D02*
X179954880Y-128351190D01*
X179954880Y-128351190D02*
X179954880Y-128589285D01*
X178954880Y-127684523D02*
X178954880Y-127065476D01*
X178954880Y-127065476D02*
X179335833Y-127398809D01*
X179335833Y-127398809D02*
X179335833Y-127255952D01*
X179335833Y-127255952D02*
X179383452Y-127160714D01*
X179383452Y-127160714D02*
X179431071Y-127113095D01*
X179431071Y-127113095D02*
X179526309Y-127065476D01*
X179526309Y-127065476D02*
X179764404Y-127065476D01*
X179764404Y-127065476D02*
X179859642Y-127113095D01*
X179859642Y-127113095D02*
X179907261Y-127160714D01*
X179907261Y-127160714D02*
X179954880Y-127255952D01*
X179954880Y-127255952D02*
X179954880Y-127541666D01*
X179954880Y-127541666D02*
X179907261Y-127636904D01*
X179907261Y-127636904D02*
X179859642Y-127684523D01*
X178954880Y-126732142D02*
X178954880Y-126065476D01*
X178954880Y-126065476D02*
X179954880Y-126494047D01*
%TO.C,D61*%
X194242380Y-166689285D02*
X193242380Y-166689285D01*
X193242380Y-166689285D02*
X193242380Y-166451190D01*
X193242380Y-166451190D02*
X193290000Y-166308333D01*
X193290000Y-166308333D02*
X193385238Y-166213095D01*
X193385238Y-166213095D02*
X193480476Y-166165476D01*
X193480476Y-166165476D02*
X193670952Y-166117857D01*
X193670952Y-166117857D02*
X193813809Y-166117857D01*
X193813809Y-166117857D02*
X194004285Y-166165476D01*
X194004285Y-166165476D02*
X194099523Y-166213095D01*
X194099523Y-166213095D02*
X194194761Y-166308333D01*
X194194761Y-166308333D02*
X194242380Y-166451190D01*
X194242380Y-166451190D02*
X194242380Y-166689285D01*
X193242380Y-165260714D02*
X193242380Y-165451190D01*
X193242380Y-165451190D02*
X193290000Y-165546428D01*
X193290000Y-165546428D02*
X193337619Y-165594047D01*
X193337619Y-165594047D02*
X193480476Y-165689285D01*
X193480476Y-165689285D02*
X193670952Y-165736904D01*
X193670952Y-165736904D02*
X194051904Y-165736904D01*
X194051904Y-165736904D02*
X194147142Y-165689285D01*
X194147142Y-165689285D02*
X194194761Y-165641666D01*
X194194761Y-165641666D02*
X194242380Y-165546428D01*
X194242380Y-165546428D02*
X194242380Y-165355952D01*
X194242380Y-165355952D02*
X194194761Y-165260714D01*
X194194761Y-165260714D02*
X194147142Y-165213095D01*
X194147142Y-165213095D02*
X194051904Y-165165476D01*
X194051904Y-165165476D02*
X193813809Y-165165476D01*
X193813809Y-165165476D02*
X193718571Y-165213095D01*
X193718571Y-165213095D02*
X193670952Y-165260714D01*
X193670952Y-165260714D02*
X193623333Y-165355952D01*
X193623333Y-165355952D02*
X193623333Y-165546428D01*
X193623333Y-165546428D02*
X193670952Y-165641666D01*
X193670952Y-165641666D02*
X193718571Y-165689285D01*
X193718571Y-165689285D02*
X193813809Y-165736904D01*
X194242380Y-164213095D02*
X194242380Y-164784523D01*
X194242380Y-164498809D02*
X193242380Y-164498809D01*
X193242380Y-164498809D02*
X193385238Y-164594047D01*
X193385238Y-164594047D02*
X193480476Y-164689285D01*
X193480476Y-164689285D02*
X193528095Y-164784523D01*
%TO.C,D31*%
X63273630Y-128589285D02*
X62273630Y-128589285D01*
X62273630Y-128589285D02*
X62273630Y-128351190D01*
X62273630Y-128351190D02*
X62321250Y-128208333D01*
X62321250Y-128208333D02*
X62416488Y-128113095D01*
X62416488Y-128113095D02*
X62511726Y-128065476D01*
X62511726Y-128065476D02*
X62702202Y-128017857D01*
X62702202Y-128017857D02*
X62845059Y-128017857D01*
X62845059Y-128017857D02*
X63035535Y-128065476D01*
X63035535Y-128065476D02*
X63130773Y-128113095D01*
X63130773Y-128113095D02*
X63226011Y-128208333D01*
X63226011Y-128208333D02*
X63273630Y-128351190D01*
X63273630Y-128351190D02*
X63273630Y-128589285D01*
X62273630Y-127684523D02*
X62273630Y-127065476D01*
X62273630Y-127065476D02*
X62654583Y-127398809D01*
X62654583Y-127398809D02*
X62654583Y-127255952D01*
X62654583Y-127255952D02*
X62702202Y-127160714D01*
X62702202Y-127160714D02*
X62749821Y-127113095D01*
X62749821Y-127113095D02*
X62845059Y-127065476D01*
X62845059Y-127065476D02*
X63083154Y-127065476D01*
X63083154Y-127065476D02*
X63178392Y-127113095D01*
X63178392Y-127113095D02*
X63226011Y-127160714D01*
X63226011Y-127160714D02*
X63273630Y-127255952D01*
X63273630Y-127255952D02*
X63273630Y-127541666D01*
X63273630Y-127541666D02*
X63226011Y-127636904D01*
X63226011Y-127636904D02*
X63178392Y-127684523D01*
X63273630Y-126113095D02*
X63273630Y-126684523D01*
X63273630Y-126398809D02*
X62273630Y-126398809D01*
X62273630Y-126398809D02*
X62416488Y-126494047D01*
X62416488Y-126494047D02*
X62511726Y-126589285D01*
X62511726Y-126589285D02*
X62559345Y-126684523D01*
%TO.C,D60*%
X153761130Y-166689285D02*
X152761130Y-166689285D01*
X152761130Y-166689285D02*
X152761130Y-166451190D01*
X152761130Y-166451190D02*
X152808750Y-166308333D01*
X152808750Y-166308333D02*
X152903988Y-166213095D01*
X152903988Y-166213095D02*
X152999226Y-166165476D01*
X152999226Y-166165476D02*
X153189702Y-166117857D01*
X153189702Y-166117857D02*
X153332559Y-166117857D01*
X153332559Y-166117857D02*
X153523035Y-166165476D01*
X153523035Y-166165476D02*
X153618273Y-166213095D01*
X153618273Y-166213095D02*
X153713511Y-166308333D01*
X153713511Y-166308333D02*
X153761130Y-166451190D01*
X153761130Y-166451190D02*
X153761130Y-166689285D01*
X152761130Y-165260714D02*
X152761130Y-165451190D01*
X152761130Y-165451190D02*
X152808750Y-165546428D01*
X152808750Y-165546428D02*
X152856369Y-165594047D01*
X152856369Y-165594047D02*
X152999226Y-165689285D01*
X152999226Y-165689285D02*
X153189702Y-165736904D01*
X153189702Y-165736904D02*
X153570654Y-165736904D01*
X153570654Y-165736904D02*
X153665892Y-165689285D01*
X153665892Y-165689285D02*
X153713511Y-165641666D01*
X153713511Y-165641666D02*
X153761130Y-165546428D01*
X153761130Y-165546428D02*
X153761130Y-165355952D01*
X153761130Y-165355952D02*
X153713511Y-165260714D01*
X153713511Y-165260714D02*
X153665892Y-165213095D01*
X153665892Y-165213095D02*
X153570654Y-165165476D01*
X153570654Y-165165476D02*
X153332559Y-165165476D01*
X153332559Y-165165476D02*
X153237321Y-165213095D01*
X153237321Y-165213095D02*
X153189702Y-165260714D01*
X153189702Y-165260714D02*
X153142083Y-165355952D01*
X153142083Y-165355952D02*
X153142083Y-165546428D01*
X153142083Y-165546428D02*
X153189702Y-165641666D01*
X153189702Y-165641666D02*
X153237321Y-165689285D01*
X153237321Y-165689285D02*
X153332559Y-165736904D01*
X152761130Y-164546428D02*
X152761130Y-164451190D01*
X152761130Y-164451190D02*
X152808750Y-164355952D01*
X152808750Y-164355952D02*
X152856369Y-164308333D01*
X152856369Y-164308333D02*
X152951607Y-164260714D01*
X152951607Y-164260714D02*
X153142083Y-164213095D01*
X153142083Y-164213095D02*
X153380178Y-164213095D01*
X153380178Y-164213095D02*
X153570654Y-164260714D01*
X153570654Y-164260714D02*
X153665892Y-164308333D01*
X153665892Y-164308333D02*
X153713511Y-164355952D01*
X153713511Y-164355952D02*
X153761130Y-164451190D01*
X153761130Y-164451190D02*
X153761130Y-164546428D01*
X153761130Y-164546428D02*
X153713511Y-164641666D01*
X153713511Y-164641666D02*
X153665892Y-164689285D01*
X153665892Y-164689285D02*
X153570654Y-164736904D01*
X153570654Y-164736904D02*
X153380178Y-164784523D01*
X153380178Y-164784523D02*
X153142083Y-164784523D01*
X153142083Y-164784523D02*
X152951607Y-164736904D01*
X152951607Y-164736904D02*
X152856369Y-164689285D01*
X152856369Y-164689285D02*
X152808750Y-164641666D01*
X152808750Y-164641666D02*
X152761130Y-164546428D01*
%TO.C,D4*%
X122804880Y-85250594D02*
X121804880Y-85250594D01*
X121804880Y-85250594D02*
X121804880Y-85012499D01*
X121804880Y-85012499D02*
X121852500Y-84869642D01*
X121852500Y-84869642D02*
X121947738Y-84774404D01*
X121947738Y-84774404D02*
X122042976Y-84726785D01*
X122042976Y-84726785D02*
X122233452Y-84679166D01*
X122233452Y-84679166D02*
X122376309Y-84679166D01*
X122376309Y-84679166D02*
X122566785Y-84726785D01*
X122566785Y-84726785D02*
X122662023Y-84774404D01*
X122662023Y-84774404D02*
X122757261Y-84869642D01*
X122757261Y-84869642D02*
X122804880Y-85012499D01*
X122804880Y-85012499D02*
X122804880Y-85250594D01*
X122138214Y-83822023D02*
X122804880Y-83822023D01*
X121757261Y-84060118D02*
X122471547Y-84298213D01*
X122471547Y-84298213D02*
X122471547Y-83679166D01*
%TO.C,D66*%
X308542380Y-166689285D02*
X307542380Y-166689285D01*
X307542380Y-166689285D02*
X307542380Y-166451190D01*
X307542380Y-166451190D02*
X307590000Y-166308333D01*
X307590000Y-166308333D02*
X307685238Y-166213095D01*
X307685238Y-166213095D02*
X307780476Y-166165476D01*
X307780476Y-166165476D02*
X307970952Y-166117857D01*
X307970952Y-166117857D02*
X308113809Y-166117857D01*
X308113809Y-166117857D02*
X308304285Y-166165476D01*
X308304285Y-166165476D02*
X308399523Y-166213095D01*
X308399523Y-166213095D02*
X308494761Y-166308333D01*
X308494761Y-166308333D02*
X308542380Y-166451190D01*
X308542380Y-166451190D02*
X308542380Y-166689285D01*
X307542380Y-165260714D02*
X307542380Y-165451190D01*
X307542380Y-165451190D02*
X307590000Y-165546428D01*
X307590000Y-165546428D02*
X307637619Y-165594047D01*
X307637619Y-165594047D02*
X307780476Y-165689285D01*
X307780476Y-165689285D02*
X307970952Y-165736904D01*
X307970952Y-165736904D02*
X308351904Y-165736904D01*
X308351904Y-165736904D02*
X308447142Y-165689285D01*
X308447142Y-165689285D02*
X308494761Y-165641666D01*
X308494761Y-165641666D02*
X308542380Y-165546428D01*
X308542380Y-165546428D02*
X308542380Y-165355952D01*
X308542380Y-165355952D02*
X308494761Y-165260714D01*
X308494761Y-165260714D02*
X308447142Y-165213095D01*
X308447142Y-165213095D02*
X308351904Y-165165476D01*
X308351904Y-165165476D02*
X308113809Y-165165476D01*
X308113809Y-165165476D02*
X308018571Y-165213095D01*
X308018571Y-165213095D02*
X307970952Y-165260714D01*
X307970952Y-165260714D02*
X307923333Y-165355952D01*
X307923333Y-165355952D02*
X307923333Y-165546428D01*
X307923333Y-165546428D02*
X307970952Y-165641666D01*
X307970952Y-165641666D02*
X308018571Y-165689285D01*
X308018571Y-165689285D02*
X308113809Y-165736904D01*
X307542380Y-164308333D02*
X307542380Y-164498809D01*
X307542380Y-164498809D02*
X307590000Y-164594047D01*
X307590000Y-164594047D02*
X307637619Y-164641666D01*
X307637619Y-164641666D02*
X307780476Y-164736904D01*
X307780476Y-164736904D02*
X307970952Y-164784523D01*
X307970952Y-164784523D02*
X308351904Y-164784523D01*
X308351904Y-164784523D02*
X308447142Y-164736904D01*
X308447142Y-164736904D02*
X308494761Y-164689285D01*
X308494761Y-164689285D02*
X308542380Y-164594047D01*
X308542380Y-164594047D02*
X308542380Y-164403571D01*
X308542380Y-164403571D02*
X308494761Y-164308333D01*
X308494761Y-164308333D02*
X308447142Y-164260714D01*
X308447142Y-164260714D02*
X308351904Y-164213095D01*
X308351904Y-164213095D02*
X308113809Y-164213095D01*
X308113809Y-164213095D02*
X308018571Y-164260714D01*
X308018571Y-164260714D02*
X307970952Y-164308333D01*
X307970952Y-164308333D02*
X307923333Y-164403571D01*
X307923333Y-164403571D02*
X307923333Y-164594047D01*
X307923333Y-164594047D02*
X307970952Y-164689285D01*
X307970952Y-164689285D02*
X308018571Y-164736904D01*
X308018571Y-164736904D02*
X308113809Y-164784523D01*
%TO.C,D49*%
X189479880Y-147639285D02*
X188479880Y-147639285D01*
X188479880Y-147639285D02*
X188479880Y-147401190D01*
X188479880Y-147401190D02*
X188527500Y-147258333D01*
X188527500Y-147258333D02*
X188622738Y-147163095D01*
X188622738Y-147163095D02*
X188717976Y-147115476D01*
X188717976Y-147115476D02*
X188908452Y-147067857D01*
X188908452Y-147067857D02*
X189051309Y-147067857D01*
X189051309Y-147067857D02*
X189241785Y-147115476D01*
X189241785Y-147115476D02*
X189337023Y-147163095D01*
X189337023Y-147163095D02*
X189432261Y-147258333D01*
X189432261Y-147258333D02*
X189479880Y-147401190D01*
X189479880Y-147401190D02*
X189479880Y-147639285D01*
X188813214Y-146210714D02*
X189479880Y-146210714D01*
X188432261Y-146448809D02*
X189146547Y-146686904D01*
X189146547Y-146686904D02*
X189146547Y-146067857D01*
X189479880Y-145639285D02*
X189479880Y-145448809D01*
X189479880Y-145448809D02*
X189432261Y-145353571D01*
X189432261Y-145353571D02*
X189384642Y-145305952D01*
X189384642Y-145305952D02*
X189241785Y-145210714D01*
X189241785Y-145210714D02*
X189051309Y-145163095D01*
X189051309Y-145163095D02*
X188670357Y-145163095D01*
X188670357Y-145163095D02*
X188575119Y-145210714D01*
X188575119Y-145210714D02*
X188527500Y-145258333D01*
X188527500Y-145258333D02*
X188479880Y-145353571D01*
X188479880Y-145353571D02*
X188479880Y-145544047D01*
X188479880Y-145544047D02*
X188527500Y-145639285D01*
X188527500Y-145639285D02*
X188575119Y-145686904D01*
X188575119Y-145686904D02*
X188670357Y-145734523D01*
X188670357Y-145734523D02*
X188908452Y-145734523D01*
X188908452Y-145734523D02*
X189003690Y-145686904D01*
X189003690Y-145686904D02*
X189051309Y-145639285D01*
X189051309Y-145639285D02*
X189098928Y-145544047D01*
X189098928Y-145544047D02*
X189098928Y-145353571D01*
X189098928Y-145353571D02*
X189051309Y-145258333D01*
X189051309Y-145258333D02*
X189003690Y-145210714D01*
X189003690Y-145210714D02*
X188908452Y-145163095D01*
%TO.C,D62*%
X222817380Y-166689285D02*
X221817380Y-166689285D01*
X221817380Y-166689285D02*
X221817380Y-166451190D01*
X221817380Y-166451190D02*
X221865000Y-166308333D01*
X221865000Y-166308333D02*
X221960238Y-166213095D01*
X221960238Y-166213095D02*
X222055476Y-166165476D01*
X222055476Y-166165476D02*
X222245952Y-166117857D01*
X222245952Y-166117857D02*
X222388809Y-166117857D01*
X222388809Y-166117857D02*
X222579285Y-166165476D01*
X222579285Y-166165476D02*
X222674523Y-166213095D01*
X222674523Y-166213095D02*
X222769761Y-166308333D01*
X222769761Y-166308333D02*
X222817380Y-166451190D01*
X222817380Y-166451190D02*
X222817380Y-166689285D01*
X221817380Y-165260714D02*
X221817380Y-165451190D01*
X221817380Y-165451190D02*
X221865000Y-165546428D01*
X221865000Y-165546428D02*
X221912619Y-165594047D01*
X221912619Y-165594047D02*
X222055476Y-165689285D01*
X222055476Y-165689285D02*
X222245952Y-165736904D01*
X222245952Y-165736904D02*
X222626904Y-165736904D01*
X222626904Y-165736904D02*
X222722142Y-165689285D01*
X222722142Y-165689285D02*
X222769761Y-165641666D01*
X222769761Y-165641666D02*
X222817380Y-165546428D01*
X222817380Y-165546428D02*
X222817380Y-165355952D01*
X222817380Y-165355952D02*
X222769761Y-165260714D01*
X222769761Y-165260714D02*
X222722142Y-165213095D01*
X222722142Y-165213095D02*
X222626904Y-165165476D01*
X222626904Y-165165476D02*
X222388809Y-165165476D01*
X222388809Y-165165476D02*
X222293571Y-165213095D01*
X222293571Y-165213095D02*
X222245952Y-165260714D01*
X222245952Y-165260714D02*
X222198333Y-165355952D01*
X222198333Y-165355952D02*
X222198333Y-165546428D01*
X222198333Y-165546428D02*
X222245952Y-165641666D01*
X222245952Y-165641666D02*
X222293571Y-165689285D01*
X222293571Y-165689285D02*
X222388809Y-165736904D01*
X221912619Y-164784523D02*
X221865000Y-164736904D01*
X221865000Y-164736904D02*
X221817380Y-164641666D01*
X221817380Y-164641666D02*
X221817380Y-164403571D01*
X221817380Y-164403571D02*
X221865000Y-164308333D01*
X221865000Y-164308333D02*
X221912619Y-164260714D01*
X221912619Y-164260714D02*
X222007857Y-164213095D01*
X222007857Y-164213095D02*
X222103095Y-164213095D01*
X222103095Y-164213095D02*
X222245952Y-164260714D01*
X222245952Y-164260714D02*
X222817380Y-164832142D01*
X222817380Y-164832142D02*
X222817380Y-164213095D01*
%TO.C,D36*%
X160904880Y-128589285D02*
X159904880Y-128589285D01*
X159904880Y-128589285D02*
X159904880Y-128351190D01*
X159904880Y-128351190D02*
X159952500Y-128208333D01*
X159952500Y-128208333D02*
X160047738Y-128113095D01*
X160047738Y-128113095D02*
X160142976Y-128065476D01*
X160142976Y-128065476D02*
X160333452Y-128017857D01*
X160333452Y-128017857D02*
X160476309Y-128017857D01*
X160476309Y-128017857D02*
X160666785Y-128065476D01*
X160666785Y-128065476D02*
X160762023Y-128113095D01*
X160762023Y-128113095D02*
X160857261Y-128208333D01*
X160857261Y-128208333D02*
X160904880Y-128351190D01*
X160904880Y-128351190D02*
X160904880Y-128589285D01*
X159904880Y-127684523D02*
X159904880Y-127065476D01*
X159904880Y-127065476D02*
X160285833Y-127398809D01*
X160285833Y-127398809D02*
X160285833Y-127255952D01*
X160285833Y-127255952D02*
X160333452Y-127160714D01*
X160333452Y-127160714D02*
X160381071Y-127113095D01*
X160381071Y-127113095D02*
X160476309Y-127065476D01*
X160476309Y-127065476D02*
X160714404Y-127065476D01*
X160714404Y-127065476D02*
X160809642Y-127113095D01*
X160809642Y-127113095D02*
X160857261Y-127160714D01*
X160857261Y-127160714D02*
X160904880Y-127255952D01*
X160904880Y-127255952D02*
X160904880Y-127541666D01*
X160904880Y-127541666D02*
X160857261Y-127636904D01*
X160857261Y-127636904D02*
X160809642Y-127684523D01*
X159904880Y-126208333D02*
X159904880Y-126398809D01*
X159904880Y-126398809D02*
X159952500Y-126494047D01*
X159952500Y-126494047D02*
X160000119Y-126541666D01*
X160000119Y-126541666D02*
X160142976Y-126636904D01*
X160142976Y-126636904D02*
X160333452Y-126684523D01*
X160333452Y-126684523D02*
X160714404Y-126684523D01*
X160714404Y-126684523D02*
X160809642Y-126636904D01*
X160809642Y-126636904D02*
X160857261Y-126589285D01*
X160857261Y-126589285D02*
X160904880Y-126494047D01*
X160904880Y-126494047D02*
X160904880Y-126303571D01*
X160904880Y-126303571D02*
X160857261Y-126208333D01*
X160857261Y-126208333D02*
X160809642Y-126160714D01*
X160809642Y-126160714D02*
X160714404Y-126113095D01*
X160714404Y-126113095D02*
X160476309Y-126113095D01*
X160476309Y-126113095D02*
X160381071Y-126160714D01*
X160381071Y-126160714D02*
X160333452Y-126208333D01*
X160333452Y-126208333D02*
X160285833Y-126303571D01*
X160285833Y-126303571D02*
X160285833Y-126494047D01*
X160285833Y-126494047D02*
X160333452Y-126589285D01*
X160333452Y-126589285D02*
X160381071Y-126636904D01*
X160381071Y-126636904D02*
X160476309Y-126684523D01*
%TO.C,D64*%
X260917380Y-166689285D02*
X259917380Y-166689285D01*
X259917380Y-166689285D02*
X259917380Y-166451190D01*
X259917380Y-166451190D02*
X259965000Y-166308333D01*
X259965000Y-166308333D02*
X260060238Y-166213095D01*
X260060238Y-166213095D02*
X260155476Y-166165476D01*
X260155476Y-166165476D02*
X260345952Y-166117857D01*
X260345952Y-166117857D02*
X260488809Y-166117857D01*
X260488809Y-166117857D02*
X260679285Y-166165476D01*
X260679285Y-166165476D02*
X260774523Y-166213095D01*
X260774523Y-166213095D02*
X260869761Y-166308333D01*
X260869761Y-166308333D02*
X260917380Y-166451190D01*
X260917380Y-166451190D02*
X260917380Y-166689285D01*
X259917380Y-165260714D02*
X259917380Y-165451190D01*
X259917380Y-165451190D02*
X259965000Y-165546428D01*
X259965000Y-165546428D02*
X260012619Y-165594047D01*
X260012619Y-165594047D02*
X260155476Y-165689285D01*
X260155476Y-165689285D02*
X260345952Y-165736904D01*
X260345952Y-165736904D02*
X260726904Y-165736904D01*
X260726904Y-165736904D02*
X260822142Y-165689285D01*
X260822142Y-165689285D02*
X260869761Y-165641666D01*
X260869761Y-165641666D02*
X260917380Y-165546428D01*
X260917380Y-165546428D02*
X260917380Y-165355952D01*
X260917380Y-165355952D02*
X260869761Y-165260714D01*
X260869761Y-165260714D02*
X260822142Y-165213095D01*
X260822142Y-165213095D02*
X260726904Y-165165476D01*
X260726904Y-165165476D02*
X260488809Y-165165476D01*
X260488809Y-165165476D02*
X260393571Y-165213095D01*
X260393571Y-165213095D02*
X260345952Y-165260714D01*
X260345952Y-165260714D02*
X260298333Y-165355952D01*
X260298333Y-165355952D02*
X260298333Y-165546428D01*
X260298333Y-165546428D02*
X260345952Y-165641666D01*
X260345952Y-165641666D02*
X260393571Y-165689285D01*
X260393571Y-165689285D02*
X260488809Y-165736904D01*
X260250714Y-164308333D02*
X260917380Y-164308333D01*
X259869761Y-164546428D02*
X260584047Y-164784523D01*
X260584047Y-164784523D02*
X260584047Y-164165476D01*
%TO.C,D20*%
X137092380Y-109539285D02*
X136092380Y-109539285D01*
X136092380Y-109539285D02*
X136092380Y-109301190D01*
X136092380Y-109301190D02*
X136140000Y-109158333D01*
X136140000Y-109158333D02*
X136235238Y-109063095D01*
X136235238Y-109063095D02*
X136330476Y-109015476D01*
X136330476Y-109015476D02*
X136520952Y-108967857D01*
X136520952Y-108967857D02*
X136663809Y-108967857D01*
X136663809Y-108967857D02*
X136854285Y-109015476D01*
X136854285Y-109015476D02*
X136949523Y-109063095D01*
X136949523Y-109063095D02*
X137044761Y-109158333D01*
X137044761Y-109158333D02*
X137092380Y-109301190D01*
X137092380Y-109301190D02*
X137092380Y-109539285D01*
X136187619Y-108586904D02*
X136140000Y-108539285D01*
X136140000Y-108539285D02*
X136092380Y-108444047D01*
X136092380Y-108444047D02*
X136092380Y-108205952D01*
X136092380Y-108205952D02*
X136140000Y-108110714D01*
X136140000Y-108110714D02*
X136187619Y-108063095D01*
X136187619Y-108063095D02*
X136282857Y-108015476D01*
X136282857Y-108015476D02*
X136378095Y-108015476D01*
X136378095Y-108015476D02*
X136520952Y-108063095D01*
X136520952Y-108063095D02*
X137092380Y-108634523D01*
X137092380Y-108634523D02*
X137092380Y-108015476D01*
X136092380Y-107396428D02*
X136092380Y-107301190D01*
X136092380Y-107301190D02*
X136140000Y-107205952D01*
X136140000Y-107205952D02*
X136187619Y-107158333D01*
X136187619Y-107158333D02*
X136282857Y-107110714D01*
X136282857Y-107110714D02*
X136473333Y-107063095D01*
X136473333Y-107063095D02*
X136711428Y-107063095D01*
X136711428Y-107063095D02*
X136901904Y-107110714D01*
X136901904Y-107110714D02*
X136997142Y-107158333D01*
X136997142Y-107158333D02*
X137044761Y-107205952D01*
X137044761Y-107205952D02*
X137092380Y-107301190D01*
X137092380Y-107301190D02*
X137092380Y-107396428D01*
X137092380Y-107396428D02*
X137044761Y-107491666D01*
X137044761Y-107491666D02*
X136997142Y-107539285D01*
X136997142Y-107539285D02*
X136901904Y-107586904D01*
X136901904Y-107586904D02*
X136711428Y-107634523D01*
X136711428Y-107634523D02*
X136473333Y-107634523D01*
X136473333Y-107634523D02*
X136282857Y-107586904D01*
X136282857Y-107586904D02*
X136187619Y-107539285D01*
X136187619Y-107539285D02*
X136140000Y-107491666D01*
X136140000Y-107491666D02*
X136092380Y-107396428D01*
%TO.C,D39*%
X218054880Y-128589285D02*
X217054880Y-128589285D01*
X217054880Y-128589285D02*
X217054880Y-128351190D01*
X217054880Y-128351190D02*
X217102500Y-128208333D01*
X217102500Y-128208333D02*
X217197738Y-128113095D01*
X217197738Y-128113095D02*
X217292976Y-128065476D01*
X217292976Y-128065476D02*
X217483452Y-128017857D01*
X217483452Y-128017857D02*
X217626309Y-128017857D01*
X217626309Y-128017857D02*
X217816785Y-128065476D01*
X217816785Y-128065476D02*
X217912023Y-128113095D01*
X217912023Y-128113095D02*
X218007261Y-128208333D01*
X218007261Y-128208333D02*
X218054880Y-128351190D01*
X218054880Y-128351190D02*
X218054880Y-128589285D01*
X217054880Y-127684523D02*
X217054880Y-127065476D01*
X217054880Y-127065476D02*
X217435833Y-127398809D01*
X217435833Y-127398809D02*
X217435833Y-127255952D01*
X217435833Y-127255952D02*
X217483452Y-127160714D01*
X217483452Y-127160714D02*
X217531071Y-127113095D01*
X217531071Y-127113095D02*
X217626309Y-127065476D01*
X217626309Y-127065476D02*
X217864404Y-127065476D01*
X217864404Y-127065476D02*
X217959642Y-127113095D01*
X217959642Y-127113095D02*
X218007261Y-127160714D01*
X218007261Y-127160714D02*
X218054880Y-127255952D01*
X218054880Y-127255952D02*
X218054880Y-127541666D01*
X218054880Y-127541666D02*
X218007261Y-127636904D01*
X218007261Y-127636904D02*
X217959642Y-127684523D01*
X218054880Y-126589285D02*
X218054880Y-126398809D01*
X218054880Y-126398809D02*
X218007261Y-126303571D01*
X218007261Y-126303571D02*
X217959642Y-126255952D01*
X217959642Y-126255952D02*
X217816785Y-126160714D01*
X217816785Y-126160714D02*
X217626309Y-126113095D01*
X217626309Y-126113095D02*
X217245357Y-126113095D01*
X217245357Y-126113095D02*
X217150119Y-126160714D01*
X217150119Y-126160714D02*
X217102500Y-126208333D01*
X217102500Y-126208333D02*
X217054880Y-126303571D01*
X217054880Y-126303571D02*
X217054880Y-126494047D01*
X217054880Y-126494047D02*
X217102500Y-126589285D01*
X217102500Y-126589285D02*
X217150119Y-126636904D01*
X217150119Y-126636904D02*
X217245357Y-126684523D01*
X217245357Y-126684523D02*
X217483452Y-126684523D01*
X217483452Y-126684523D02*
X217578690Y-126636904D01*
X217578690Y-126636904D02*
X217626309Y-126589285D01*
X217626309Y-126589285D02*
X217673928Y-126494047D01*
X217673928Y-126494047D02*
X217673928Y-126303571D01*
X217673928Y-126303571D02*
X217626309Y-126208333D01*
X217626309Y-126208333D02*
X217578690Y-126160714D01*
X217578690Y-126160714D02*
X217483452Y-126113095D01*
%TO.C,D10*%
X246629880Y-85726785D02*
X245629880Y-85726785D01*
X245629880Y-85726785D02*
X245629880Y-85488690D01*
X245629880Y-85488690D02*
X245677500Y-85345833D01*
X245677500Y-85345833D02*
X245772738Y-85250595D01*
X245772738Y-85250595D02*
X245867976Y-85202976D01*
X245867976Y-85202976D02*
X246058452Y-85155357D01*
X246058452Y-85155357D02*
X246201309Y-85155357D01*
X246201309Y-85155357D02*
X246391785Y-85202976D01*
X246391785Y-85202976D02*
X246487023Y-85250595D01*
X246487023Y-85250595D02*
X246582261Y-85345833D01*
X246582261Y-85345833D02*
X246629880Y-85488690D01*
X246629880Y-85488690D02*
X246629880Y-85726785D01*
X246629880Y-84202976D02*
X246629880Y-84774404D01*
X246629880Y-84488690D02*
X245629880Y-84488690D01*
X245629880Y-84488690D02*
X245772738Y-84583928D01*
X245772738Y-84583928D02*
X245867976Y-84679166D01*
X245867976Y-84679166D02*
X245915595Y-84774404D01*
X245629880Y-83583928D02*
X245629880Y-83488690D01*
X245629880Y-83488690D02*
X245677500Y-83393452D01*
X245677500Y-83393452D02*
X245725119Y-83345833D01*
X245725119Y-83345833D02*
X245820357Y-83298214D01*
X245820357Y-83298214D02*
X246010833Y-83250595D01*
X246010833Y-83250595D02*
X246248928Y-83250595D01*
X246248928Y-83250595D02*
X246439404Y-83298214D01*
X246439404Y-83298214D02*
X246534642Y-83345833D01*
X246534642Y-83345833D02*
X246582261Y-83393452D01*
X246582261Y-83393452D02*
X246629880Y-83488690D01*
X246629880Y-83488690D02*
X246629880Y-83583928D01*
X246629880Y-83583928D02*
X246582261Y-83679166D01*
X246582261Y-83679166D02*
X246534642Y-83726785D01*
X246534642Y-83726785D02*
X246439404Y-83774404D01*
X246439404Y-83774404D02*
X246248928Y-83822023D01*
X246248928Y-83822023D02*
X246010833Y-83822023D01*
X246010833Y-83822023D02*
X245820357Y-83774404D01*
X245820357Y-83774404D02*
X245725119Y-83726785D01*
X245725119Y-83726785D02*
X245677500Y-83679166D01*
X245677500Y-83679166D02*
X245629880Y-83583928D01*
%TO.C,D47*%
X151379880Y-147639285D02*
X150379880Y-147639285D01*
X150379880Y-147639285D02*
X150379880Y-147401190D01*
X150379880Y-147401190D02*
X150427500Y-147258333D01*
X150427500Y-147258333D02*
X150522738Y-147163095D01*
X150522738Y-147163095D02*
X150617976Y-147115476D01*
X150617976Y-147115476D02*
X150808452Y-147067857D01*
X150808452Y-147067857D02*
X150951309Y-147067857D01*
X150951309Y-147067857D02*
X151141785Y-147115476D01*
X151141785Y-147115476D02*
X151237023Y-147163095D01*
X151237023Y-147163095D02*
X151332261Y-147258333D01*
X151332261Y-147258333D02*
X151379880Y-147401190D01*
X151379880Y-147401190D02*
X151379880Y-147639285D01*
X150713214Y-146210714D02*
X151379880Y-146210714D01*
X150332261Y-146448809D02*
X151046547Y-146686904D01*
X151046547Y-146686904D02*
X151046547Y-146067857D01*
X150379880Y-145782142D02*
X150379880Y-145115476D01*
X150379880Y-145115476D02*
X151379880Y-145544047D01*
%TO.C,D48*%
X170429880Y-147639285D02*
X169429880Y-147639285D01*
X169429880Y-147639285D02*
X169429880Y-147401190D01*
X169429880Y-147401190D02*
X169477500Y-147258333D01*
X169477500Y-147258333D02*
X169572738Y-147163095D01*
X169572738Y-147163095D02*
X169667976Y-147115476D01*
X169667976Y-147115476D02*
X169858452Y-147067857D01*
X169858452Y-147067857D02*
X170001309Y-147067857D01*
X170001309Y-147067857D02*
X170191785Y-147115476D01*
X170191785Y-147115476D02*
X170287023Y-147163095D01*
X170287023Y-147163095D02*
X170382261Y-147258333D01*
X170382261Y-147258333D02*
X170429880Y-147401190D01*
X170429880Y-147401190D02*
X170429880Y-147639285D01*
X169763214Y-146210714D02*
X170429880Y-146210714D01*
X169382261Y-146448809D02*
X170096547Y-146686904D01*
X170096547Y-146686904D02*
X170096547Y-146067857D01*
X169858452Y-145544047D02*
X169810833Y-145639285D01*
X169810833Y-145639285D02*
X169763214Y-145686904D01*
X169763214Y-145686904D02*
X169667976Y-145734523D01*
X169667976Y-145734523D02*
X169620357Y-145734523D01*
X169620357Y-145734523D02*
X169525119Y-145686904D01*
X169525119Y-145686904D02*
X169477500Y-145639285D01*
X169477500Y-145639285D02*
X169429880Y-145544047D01*
X169429880Y-145544047D02*
X169429880Y-145353571D01*
X169429880Y-145353571D02*
X169477500Y-145258333D01*
X169477500Y-145258333D02*
X169525119Y-145210714D01*
X169525119Y-145210714D02*
X169620357Y-145163095D01*
X169620357Y-145163095D02*
X169667976Y-145163095D01*
X169667976Y-145163095D02*
X169763214Y-145210714D01*
X169763214Y-145210714D02*
X169810833Y-145258333D01*
X169810833Y-145258333D02*
X169858452Y-145353571D01*
X169858452Y-145353571D02*
X169858452Y-145544047D01*
X169858452Y-145544047D02*
X169906071Y-145639285D01*
X169906071Y-145639285D02*
X169953690Y-145686904D01*
X169953690Y-145686904D02*
X170048928Y-145734523D01*
X170048928Y-145734523D02*
X170239404Y-145734523D01*
X170239404Y-145734523D02*
X170334642Y-145686904D01*
X170334642Y-145686904D02*
X170382261Y-145639285D01*
X170382261Y-145639285D02*
X170429880Y-145544047D01*
X170429880Y-145544047D02*
X170429880Y-145353571D01*
X170429880Y-145353571D02*
X170382261Y-145258333D01*
X170382261Y-145258333D02*
X170334642Y-145210714D01*
X170334642Y-145210714D02*
X170239404Y-145163095D01*
X170239404Y-145163095D02*
X170048928Y-145163095D01*
X170048928Y-145163095D02*
X169953690Y-145210714D01*
X169953690Y-145210714D02*
X169906071Y-145258333D01*
X169906071Y-145258333D02*
X169858452Y-145353571D01*
%TO.C,D13*%
X308542380Y-85726785D02*
X307542380Y-85726785D01*
X307542380Y-85726785D02*
X307542380Y-85488690D01*
X307542380Y-85488690D02*
X307590000Y-85345833D01*
X307590000Y-85345833D02*
X307685238Y-85250595D01*
X307685238Y-85250595D02*
X307780476Y-85202976D01*
X307780476Y-85202976D02*
X307970952Y-85155357D01*
X307970952Y-85155357D02*
X308113809Y-85155357D01*
X308113809Y-85155357D02*
X308304285Y-85202976D01*
X308304285Y-85202976D02*
X308399523Y-85250595D01*
X308399523Y-85250595D02*
X308494761Y-85345833D01*
X308494761Y-85345833D02*
X308542380Y-85488690D01*
X308542380Y-85488690D02*
X308542380Y-85726785D01*
X308542380Y-84202976D02*
X308542380Y-84774404D01*
X308542380Y-84488690D02*
X307542380Y-84488690D01*
X307542380Y-84488690D02*
X307685238Y-84583928D01*
X307685238Y-84583928D02*
X307780476Y-84679166D01*
X307780476Y-84679166D02*
X307828095Y-84774404D01*
X307542380Y-83869642D02*
X307542380Y-83250595D01*
X307542380Y-83250595D02*
X307923333Y-83583928D01*
X307923333Y-83583928D02*
X307923333Y-83441071D01*
X307923333Y-83441071D02*
X307970952Y-83345833D01*
X307970952Y-83345833D02*
X308018571Y-83298214D01*
X308018571Y-83298214D02*
X308113809Y-83250595D01*
X308113809Y-83250595D02*
X308351904Y-83250595D01*
X308351904Y-83250595D02*
X308447142Y-83298214D01*
X308447142Y-83298214D02*
X308494761Y-83345833D01*
X308494761Y-83345833D02*
X308542380Y-83441071D01*
X308542380Y-83441071D02*
X308542380Y-83726785D01*
X308542380Y-83726785D02*
X308494761Y-83822023D01*
X308494761Y-83822023D02*
X308447142Y-83869642D01*
%TO.C,D35*%
X141854880Y-128589285D02*
X140854880Y-128589285D01*
X140854880Y-128589285D02*
X140854880Y-128351190D01*
X140854880Y-128351190D02*
X140902500Y-128208333D01*
X140902500Y-128208333D02*
X140997738Y-128113095D01*
X140997738Y-128113095D02*
X141092976Y-128065476D01*
X141092976Y-128065476D02*
X141283452Y-128017857D01*
X141283452Y-128017857D02*
X141426309Y-128017857D01*
X141426309Y-128017857D02*
X141616785Y-128065476D01*
X141616785Y-128065476D02*
X141712023Y-128113095D01*
X141712023Y-128113095D02*
X141807261Y-128208333D01*
X141807261Y-128208333D02*
X141854880Y-128351190D01*
X141854880Y-128351190D02*
X141854880Y-128589285D01*
X140854880Y-127684523D02*
X140854880Y-127065476D01*
X140854880Y-127065476D02*
X141235833Y-127398809D01*
X141235833Y-127398809D02*
X141235833Y-127255952D01*
X141235833Y-127255952D02*
X141283452Y-127160714D01*
X141283452Y-127160714D02*
X141331071Y-127113095D01*
X141331071Y-127113095D02*
X141426309Y-127065476D01*
X141426309Y-127065476D02*
X141664404Y-127065476D01*
X141664404Y-127065476D02*
X141759642Y-127113095D01*
X141759642Y-127113095D02*
X141807261Y-127160714D01*
X141807261Y-127160714D02*
X141854880Y-127255952D01*
X141854880Y-127255952D02*
X141854880Y-127541666D01*
X141854880Y-127541666D02*
X141807261Y-127636904D01*
X141807261Y-127636904D02*
X141759642Y-127684523D01*
X140854880Y-126160714D02*
X140854880Y-126636904D01*
X140854880Y-126636904D02*
X141331071Y-126684523D01*
X141331071Y-126684523D02*
X141283452Y-126636904D01*
X141283452Y-126636904D02*
X141235833Y-126541666D01*
X141235833Y-126541666D02*
X141235833Y-126303571D01*
X141235833Y-126303571D02*
X141283452Y-126208333D01*
X141283452Y-126208333D02*
X141331071Y-126160714D01*
X141331071Y-126160714D02*
X141426309Y-126113095D01*
X141426309Y-126113095D02*
X141664404Y-126113095D01*
X141664404Y-126113095D02*
X141759642Y-126160714D01*
X141759642Y-126160714D02*
X141807261Y-126208333D01*
X141807261Y-126208333D02*
X141854880Y-126303571D01*
X141854880Y-126303571D02*
X141854880Y-126541666D01*
X141854880Y-126541666D02*
X141807261Y-126636904D01*
X141807261Y-126636904D02*
X141759642Y-126684523D01*
%TO.C,D17*%
X79942380Y-109539285D02*
X78942380Y-109539285D01*
X78942380Y-109539285D02*
X78942380Y-109301190D01*
X78942380Y-109301190D02*
X78990000Y-109158333D01*
X78990000Y-109158333D02*
X79085238Y-109063095D01*
X79085238Y-109063095D02*
X79180476Y-109015476D01*
X79180476Y-109015476D02*
X79370952Y-108967857D01*
X79370952Y-108967857D02*
X79513809Y-108967857D01*
X79513809Y-108967857D02*
X79704285Y-109015476D01*
X79704285Y-109015476D02*
X79799523Y-109063095D01*
X79799523Y-109063095D02*
X79894761Y-109158333D01*
X79894761Y-109158333D02*
X79942380Y-109301190D01*
X79942380Y-109301190D02*
X79942380Y-109539285D01*
X79942380Y-108015476D02*
X79942380Y-108586904D01*
X79942380Y-108301190D02*
X78942380Y-108301190D01*
X78942380Y-108301190D02*
X79085238Y-108396428D01*
X79085238Y-108396428D02*
X79180476Y-108491666D01*
X79180476Y-108491666D02*
X79228095Y-108586904D01*
X78942380Y-107682142D02*
X78942380Y-107015476D01*
X78942380Y-107015476D02*
X79942380Y-107444047D01*
%TO.C,D3*%
X103754880Y-85250594D02*
X102754880Y-85250594D01*
X102754880Y-85250594D02*
X102754880Y-85012499D01*
X102754880Y-85012499D02*
X102802500Y-84869642D01*
X102802500Y-84869642D02*
X102897738Y-84774404D01*
X102897738Y-84774404D02*
X102992976Y-84726785D01*
X102992976Y-84726785D02*
X103183452Y-84679166D01*
X103183452Y-84679166D02*
X103326309Y-84679166D01*
X103326309Y-84679166D02*
X103516785Y-84726785D01*
X103516785Y-84726785D02*
X103612023Y-84774404D01*
X103612023Y-84774404D02*
X103707261Y-84869642D01*
X103707261Y-84869642D02*
X103754880Y-85012499D01*
X103754880Y-85012499D02*
X103754880Y-85250594D01*
X102754880Y-84345832D02*
X102754880Y-83726785D01*
X102754880Y-83726785D02*
X103135833Y-84060118D01*
X103135833Y-84060118D02*
X103135833Y-83917261D01*
X103135833Y-83917261D02*
X103183452Y-83822023D01*
X103183452Y-83822023D02*
X103231071Y-83774404D01*
X103231071Y-83774404D02*
X103326309Y-83726785D01*
X103326309Y-83726785D02*
X103564404Y-83726785D01*
X103564404Y-83726785D02*
X103659642Y-83774404D01*
X103659642Y-83774404D02*
X103707261Y-83822023D01*
X103707261Y-83822023D02*
X103754880Y-83917261D01*
X103754880Y-83917261D02*
X103754880Y-84202975D01*
X103754880Y-84202975D02*
X103707261Y-84298213D01*
X103707261Y-84298213D02*
X103659642Y-84345832D01*
%TO.C,D18*%
X98992380Y-109539285D02*
X97992380Y-109539285D01*
X97992380Y-109539285D02*
X97992380Y-109301190D01*
X97992380Y-109301190D02*
X98040000Y-109158333D01*
X98040000Y-109158333D02*
X98135238Y-109063095D01*
X98135238Y-109063095D02*
X98230476Y-109015476D01*
X98230476Y-109015476D02*
X98420952Y-108967857D01*
X98420952Y-108967857D02*
X98563809Y-108967857D01*
X98563809Y-108967857D02*
X98754285Y-109015476D01*
X98754285Y-109015476D02*
X98849523Y-109063095D01*
X98849523Y-109063095D02*
X98944761Y-109158333D01*
X98944761Y-109158333D02*
X98992380Y-109301190D01*
X98992380Y-109301190D02*
X98992380Y-109539285D01*
X98992380Y-108015476D02*
X98992380Y-108586904D01*
X98992380Y-108301190D02*
X97992380Y-108301190D01*
X97992380Y-108301190D02*
X98135238Y-108396428D01*
X98135238Y-108396428D02*
X98230476Y-108491666D01*
X98230476Y-108491666D02*
X98278095Y-108586904D01*
X98420952Y-107444047D02*
X98373333Y-107539285D01*
X98373333Y-107539285D02*
X98325714Y-107586904D01*
X98325714Y-107586904D02*
X98230476Y-107634523D01*
X98230476Y-107634523D02*
X98182857Y-107634523D01*
X98182857Y-107634523D02*
X98087619Y-107586904D01*
X98087619Y-107586904D02*
X98040000Y-107539285D01*
X98040000Y-107539285D02*
X97992380Y-107444047D01*
X97992380Y-107444047D02*
X97992380Y-107253571D01*
X97992380Y-107253571D02*
X98040000Y-107158333D01*
X98040000Y-107158333D02*
X98087619Y-107110714D01*
X98087619Y-107110714D02*
X98182857Y-107063095D01*
X98182857Y-107063095D02*
X98230476Y-107063095D01*
X98230476Y-107063095D02*
X98325714Y-107110714D01*
X98325714Y-107110714D02*
X98373333Y-107158333D01*
X98373333Y-107158333D02*
X98420952Y-107253571D01*
X98420952Y-107253571D02*
X98420952Y-107444047D01*
X98420952Y-107444047D02*
X98468571Y-107539285D01*
X98468571Y-107539285D02*
X98516190Y-107586904D01*
X98516190Y-107586904D02*
X98611428Y-107634523D01*
X98611428Y-107634523D02*
X98801904Y-107634523D01*
X98801904Y-107634523D02*
X98897142Y-107586904D01*
X98897142Y-107586904D02*
X98944761Y-107539285D01*
X98944761Y-107539285D02*
X98992380Y-107444047D01*
X98992380Y-107444047D02*
X98992380Y-107253571D01*
X98992380Y-107253571D02*
X98944761Y-107158333D01*
X98944761Y-107158333D02*
X98897142Y-107110714D01*
X98897142Y-107110714D02*
X98801904Y-107063095D01*
X98801904Y-107063095D02*
X98611428Y-107063095D01*
X98611428Y-107063095D02*
X98516190Y-107110714D01*
X98516190Y-107110714D02*
X98468571Y-107158333D01*
X98468571Y-107158333D02*
X98420952Y-107253571D01*
%TO.C,D22*%
X175192380Y-109539285D02*
X174192380Y-109539285D01*
X174192380Y-109539285D02*
X174192380Y-109301190D01*
X174192380Y-109301190D02*
X174240000Y-109158333D01*
X174240000Y-109158333D02*
X174335238Y-109063095D01*
X174335238Y-109063095D02*
X174430476Y-109015476D01*
X174430476Y-109015476D02*
X174620952Y-108967857D01*
X174620952Y-108967857D02*
X174763809Y-108967857D01*
X174763809Y-108967857D02*
X174954285Y-109015476D01*
X174954285Y-109015476D02*
X175049523Y-109063095D01*
X175049523Y-109063095D02*
X175144761Y-109158333D01*
X175144761Y-109158333D02*
X175192380Y-109301190D01*
X175192380Y-109301190D02*
X175192380Y-109539285D01*
X174287619Y-108586904D02*
X174240000Y-108539285D01*
X174240000Y-108539285D02*
X174192380Y-108444047D01*
X174192380Y-108444047D02*
X174192380Y-108205952D01*
X174192380Y-108205952D02*
X174240000Y-108110714D01*
X174240000Y-108110714D02*
X174287619Y-108063095D01*
X174287619Y-108063095D02*
X174382857Y-108015476D01*
X174382857Y-108015476D02*
X174478095Y-108015476D01*
X174478095Y-108015476D02*
X174620952Y-108063095D01*
X174620952Y-108063095D02*
X175192380Y-108634523D01*
X175192380Y-108634523D02*
X175192380Y-108015476D01*
X174287619Y-107634523D02*
X174240000Y-107586904D01*
X174240000Y-107586904D02*
X174192380Y-107491666D01*
X174192380Y-107491666D02*
X174192380Y-107253571D01*
X174192380Y-107253571D02*
X174240000Y-107158333D01*
X174240000Y-107158333D02*
X174287619Y-107110714D01*
X174287619Y-107110714D02*
X174382857Y-107063095D01*
X174382857Y-107063095D02*
X174478095Y-107063095D01*
X174478095Y-107063095D02*
X174620952Y-107110714D01*
X174620952Y-107110714D02*
X175192380Y-107682142D01*
X175192380Y-107682142D02*
X175192380Y-107063095D01*
%TO.C,D26*%
X251392380Y-109539285D02*
X250392380Y-109539285D01*
X250392380Y-109539285D02*
X250392380Y-109301190D01*
X250392380Y-109301190D02*
X250440000Y-109158333D01*
X250440000Y-109158333D02*
X250535238Y-109063095D01*
X250535238Y-109063095D02*
X250630476Y-109015476D01*
X250630476Y-109015476D02*
X250820952Y-108967857D01*
X250820952Y-108967857D02*
X250963809Y-108967857D01*
X250963809Y-108967857D02*
X251154285Y-109015476D01*
X251154285Y-109015476D02*
X251249523Y-109063095D01*
X251249523Y-109063095D02*
X251344761Y-109158333D01*
X251344761Y-109158333D02*
X251392380Y-109301190D01*
X251392380Y-109301190D02*
X251392380Y-109539285D01*
X250487619Y-108586904D02*
X250440000Y-108539285D01*
X250440000Y-108539285D02*
X250392380Y-108444047D01*
X250392380Y-108444047D02*
X250392380Y-108205952D01*
X250392380Y-108205952D02*
X250440000Y-108110714D01*
X250440000Y-108110714D02*
X250487619Y-108063095D01*
X250487619Y-108063095D02*
X250582857Y-108015476D01*
X250582857Y-108015476D02*
X250678095Y-108015476D01*
X250678095Y-108015476D02*
X250820952Y-108063095D01*
X250820952Y-108063095D02*
X251392380Y-108634523D01*
X251392380Y-108634523D02*
X251392380Y-108015476D01*
X250392380Y-107158333D02*
X250392380Y-107348809D01*
X250392380Y-107348809D02*
X250440000Y-107444047D01*
X250440000Y-107444047D02*
X250487619Y-107491666D01*
X250487619Y-107491666D02*
X250630476Y-107586904D01*
X250630476Y-107586904D02*
X250820952Y-107634523D01*
X250820952Y-107634523D02*
X251201904Y-107634523D01*
X251201904Y-107634523D02*
X251297142Y-107586904D01*
X251297142Y-107586904D02*
X251344761Y-107539285D01*
X251344761Y-107539285D02*
X251392380Y-107444047D01*
X251392380Y-107444047D02*
X251392380Y-107253571D01*
X251392380Y-107253571D02*
X251344761Y-107158333D01*
X251344761Y-107158333D02*
X251297142Y-107110714D01*
X251297142Y-107110714D02*
X251201904Y-107063095D01*
X251201904Y-107063095D02*
X250963809Y-107063095D01*
X250963809Y-107063095D02*
X250868571Y-107110714D01*
X250868571Y-107110714D02*
X250820952Y-107158333D01*
X250820952Y-107158333D02*
X250773333Y-107253571D01*
X250773333Y-107253571D02*
X250773333Y-107444047D01*
X250773333Y-107444047D02*
X250820952Y-107539285D01*
X250820952Y-107539285D02*
X250868571Y-107586904D01*
X250868571Y-107586904D02*
X250963809Y-107634523D01*
%TO.C,D30*%
X346642380Y-109539285D02*
X345642380Y-109539285D01*
X345642380Y-109539285D02*
X345642380Y-109301190D01*
X345642380Y-109301190D02*
X345690000Y-109158333D01*
X345690000Y-109158333D02*
X345785238Y-109063095D01*
X345785238Y-109063095D02*
X345880476Y-109015476D01*
X345880476Y-109015476D02*
X346070952Y-108967857D01*
X346070952Y-108967857D02*
X346213809Y-108967857D01*
X346213809Y-108967857D02*
X346404285Y-109015476D01*
X346404285Y-109015476D02*
X346499523Y-109063095D01*
X346499523Y-109063095D02*
X346594761Y-109158333D01*
X346594761Y-109158333D02*
X346642380Y-109301190D01*
X346642380Y-109301190D02*
X346642380Y-109539285D01*
X345642380Y-108634523D02*
X345642380Y-108015476D01*
X345642380Y-108015476D02*
X346023333Y-108348809D01*
X346023333Y-108348809D02*
X346023333Y-108205952D01*
X346023333Y-108205952D02*
X346070952Y-108110714D01*
X346070952Y-108110714D02*
X346118571Y-108063095D01*
X346118571Y-108063095D02*
X346213809Y-108015476D01*
X346213809Y-108015476D02*
X346451904Y-108015476D01*
X346451904Y-108015476D02*
X346547142Y-108063095D01*
X346547142Y-108063095D02*
X346594761Y-108110714D01*
X346594761Y-108110714D02*
X346642380Y-108205952D01*
X346642380Y-108205952D02*
X346642380Y-108491666D01*
X346642380Y-108491666D02*
X346594761Y-108586904D01*
X346594761Y-108586904D02*
X346547142Y-108634523D01*
X345642380Y-107396428D02*
X345642380Y-107301190D01*
X345642380Y-107301190D02*
X345690000Y-107205952D01*
X345690000Y-107205952D02*
X345737619Y-107158333D01*
X345737619Y-107158333D02*
X345832857Y-107110714D01*
X345832857Y-107110714D02*
X346023333Y-107063095D01*
X346023333Y-107063095D02*
X346261428Y-107063095D01*
X346261428Y-107063095D02*
X346451904Y-107110714D01*
X346451904Y-107110714D02*
X346547142Y-107158333D01*
X346547142Y-107158333D02*
X346594761Y-107205952D01*
X346594761Y-107205952D02*
X346642380Y-107301190D01*
X346642380Y-107301190D02*
X346642380Y-107396428D01*
X346642380Y-107396428D02*
X346594761Y-107491666D01*
X346594761Y-107491666D02*
X346547142Y-107539285D01*
X346547142Y-107539285D02*
X346451904Y-107586904D01*
X346451904Y-107586904D02*
X346261428Y-107634523D01*
X346261428Y-107634523D02*
X346023333Y-107634523D01*
X346023333Y-107634523D02*
X345832857Y-107586904D01*
X345832857Y-107586904D02*
X345737619Y-107539285D01*
X345737619Y-107539285D02*
X345690000Y-107491666D01*
X345690000Y-107491666D02*
X345642380Y-107396428D01*
%TO.C,D1*%
X60892380Y-85250594D02*
X59892380Y-85250594D01*
X59892380Y-85250594D02*
X59892380Y-85012499D01*
X59892380Y-85012499D02*
X59940000Y-84869642D01*
X59940000Y-84869642D02*
X60035238Y-84774404D01*
X60035238Y-84774404D02*
X60130476Y-84726785D01*
X60130476Y-84726785D02*
X60320952Y-84679166D01*
X60320952Y-84679166D02*
X60463809Y-84679166D01*
X60463809Y-84679166D02*
X60654285Y-84726785D01*
X60654285Y-84726785D02*
X60749523Y-84774404D01*
X60749523Y-84774404D02*
X60844761Y-84869642D01*
X60844761Y-84869642D02*
X60892380Y-85012499D01*
X60892380Y-85012499D02*
X60892380Y-85250594D01*
X60892380Y-83726785D02*
X60892380Y-84298213D01*
X60892380Y-84012499D02*
X59892380Y-84012499D01*
X59892380Y-84012499D02*
X60035238Y-84107737D01*
X60035238Y-84107737D02*
X60130476Y-84202975D01*
X60130476Y-84202975D02*
X60178095Y-84298213D01*
%TO.C,D54*%
X284729880Y-147639285D02*
X283729880Y-147639285D01*
X283729880Y-147639285D02*
X283729880Y-147401190D01*
X283729880Y-147401190D02*
X283777500Y-147258333D01*
X283777500Y-147258333D02*
X283872738Y-147163095D01*
X283872738Y-147163095D02*
X283967976Y-147115476D01*
X283967976Y-147115476D02*
X284158452Y-147067857D01*
X284158452Y-147067857D02*
X284301309Y-147067857D01*
X284301309Y-147067857D02*
X284491785Y-147115476D01*
X284491785Y-147115476D02*
X284587023Y-147163095D01*
X284587023Y-147163095D02*
X284682261Y-147258333D01*
X284682261Y-147258333D02*
X284729880Y-147401190D01*
X284729880Y-147401190D02*
X284729880Y-147639285D01*
X283729880Y-146163095D02*
X283729880Y-146639285D01*
X283729880Y-146639285D02*
X284206071Y-146686904D01*
X284206071Y-146686904D02*
X284158452Y-146639285D01*
X284158452Y-146639285D02*
X284110833Y-146544047D01*
X284110833Y-146544047D02*
X284110833Y-146305952D01*
X284110833Y-146305952D02*
X284158452Y-146210714D01*
X284158452Y-146210714D02*
X284206071Y-146163095D01*
X284206071Y-146163095D02*
X284301309Y-146115476D01*
X284301309Y-146115476D02*
X284539404Y-146115476D01*
X284539404Y-146115476D02*
X284634642Y-146163095D01*
X284634642Y-146163095D02*
X284682261Y-146210714D01*
X284682261Y-146210714D02*
X284729880Y-146305952D01*
X284729880Y-146305952D02*
X284729880Y-146544047D01*
X284729880Y-146544047D02*
X284682261Y-146639285D01*
X284682261Y-146639285D02*
X284634642Y-146686904D01*
X284063214Y-145258333D02*
X284729880Y-145258333D01*
X283682261Y-145496428D02*
X284396547Y-145734523D01*
X284396547Y-145734523D02*
X284396547Y-145115476D01*
%TO.C,D11*%
X265679880Y-85726785D02*
X264679880Y-85726785D01*
X264679880Y-85726785D02*
X264679880Y-85488690D01*
X264679880Y-85488690D02*
X264727500Y-85345833D01*
X264727500Y-85345833D02*
X264822738Y-85250595D01*
X264822738Y-85250595D02*
X264917976Y-85202976D01*
X264917976Y-85202976D02*
X265108452Y-85155357D01*
X265108452Y-85155357D02*
X265251309Y-85155357D01*
X265251309Y-85155357D02*
X265441785Y-85202976D01*
X265441785Y-85202976D02*
X265537023Y-85250595D01*
X265537023Y-85250595D02*
X265632261Y-85345833D01*
X265632261Y-85345833D02*
X265679880Y-85488690D01*
X265679880Y-85488690D02*
X265679880Y-85726785D01*
X265679880Y-84202976D02*
X265679880Y-84774404D01*
X265679880Y-84488690D02*
X264679880Y-84488690D01*
X264679880Y-84488690D02*
X264822738Y-84583928D01*
X264822738Y-84583928D02*
X264917976Y-84679166D01*
X264917976Y-84679166D02*
X264965595Y-84774404D01*
X265679880Y-83250595D02*
X265679880Y-83822023D01*
X265679880Y-83536309D02*
X264679880Y-83536309D01*
X264679880Y-83536309D02*
X264822738Y-83631547D01*
X264822738Y-83631547D02*
X264917976Y-83726785D01*
X264917976Y-83726785D02*
X264965595Y-83822023D01*
%TO.C,D12*%
X284729880Y-85726785D02*
X283729880Y-85726785D01*
X283729880Y-85726785D02*
X283729880Y-85488690D01*
X283729880Y-85488690D02*
X283777500Y-85345833D01*
X283777500Y-85345833D02*
X283872738Y-85250595D01*
X283872738Y-85250595D02*
X283967976Y-85202976D01*
X283967976Y-85202976D02*
X284158452Y-85155357D01*
X284158452Y-85155357D02*
X284301309Y-85155357D01*
X284301309Y-85155357D02*
X284491785Y-85202976D01*
X284491785Y-85202976D02*
X284587023Y-85250595D01*
X284587023Y-85250595D02*
X284682261Y-85345833D01*
X284682261Y-85345833D02*
X284729880Y-85488690D01*
X284729880Y-85488690D02*
X284729880Y-85726785D01*
X284729880Y-84202976D02*
X284729880Y-84774404D01*
X284729880Y-84488690D02*
X283729880Y-84488690D01*
X283729880Y-84488690D02*
X283872738Y-84583928D01*
X283872738Y-84583928D02*
X283967976Y-84679166D01*
X283967976Y-84679166D02*
X284015595Y-84774404D01*
X283825119Y-83822023D02*
X283777500Y-83774404D01*
X283777500Y-83774404D02*
X283729880Y-83679166D01*
X283729880Y-83679166D02*
X283729880Y-83441071D01*
X283729880Y-83441071D02*
X283777500Y-83345833D01*
X283777500Y-83345833D02*
X283825119Y-83298214D01*
X283825119Y-83298214D02*
X283920357Y-83250595D01*
X283920357Y-83250595D02*
X284015595Y-83250595D01*
X284015595Y-83250595D02*
X284158452Y-83298214D01*
X284158452Y-83298214D02*
X284729880Y-83869642D01*
X284729880Y-83869642D02*
X284729880Y-83250595D01*
%TO.C,D9*%
X222817380Y-85250594D02*
X221817380Y-85250594D01*
X221817380Y-85250594D02*
X221817380Y-85012499D01*
X221817380Y-85012499D02*
X221865000Y-84869642D01*
X221865000Y-84869642D02*
X221960238Y-84774404D01*
X221960238Y-84774404D02*
X222055476Y-84726785D01*
X222055476Y-84726785D02*
X222245952Y-84679166D01*
X222245952Y-84679166D02*
X222388809Y-84679166D01*
X222388809Y-84679166D02*
X222579285Y-84726785D01*
X222579285Y-84726785D02*
X222674523Y-84774404D01*
X222674523Y-84774404D02*
X222769761Y-84869642D01*
X222769761Y-84869642D02*
X222817380Y-85012499D01*
X222817380Y-85012499D02*
X222817380Y-85250594D01*
X222817380Y-84202975D02*
X222817380Y-84012499D01*
X222817380Y-84012499D02*
X222769761Y-83917261D01*
X222769761Y-83917261D02*
X222722142Y-83869642D01*
X222722142Y-83869642D02*
X222579285Y-83774404D01*
X222579285Y-83774404D02*
X222388809Y-83726785D01*
X222388809Y-83726785D02*
X222007857Y-83726785D01*
X222007857Y-83726785D02*
X221912619Y-83774404D01*
X221912619Y-83774404D02*
X221865000Y-83822023D01*
X221865000Y-83822023D02*
X221817380Y-83917261D01*
X221817380Y-83917261D02*
X221817380Y-84107737D01*
X221817380Y-84107737D02*
X221865000Y-84202975D01*
X221865000Y-84202975D02*
X221912619Y-84250594D01*
X221912619Y-84250594D02*
X222007857Y-84298213D01*
X222007857Y-84298213D02*
X222245952Y-84298213D01*
X222245952Y-84298213D02*
X222341190Y-84250594D01*
X222341190Y-84250594D02*
X222388809Y-84202975D01*
X222388809Y-84202975D02*
X222436428Y-84107737D01*
X222436428Y-84107737D02*
X222436428Y-83917261D01*
X222436428Y-83917261D02*
X222388809Y-83822023D01*
X222388809Y-83822023D02*
X222341190Y-83774404D01*
X222341190Y-83774404D02*
X222245952Y-83726785D01*
%TO.C,D27*%
X277586130Y-109539285D02*
X276586130Y-109539285D01*
X276586130Y-109539285D02*
X276586130Y-109301190D01*
X276586130Y-109301190D02*
X276633750Y-109158333D01*
X276633750Y-109158333D02*
X276728988Y-109063095D01*
X276728988Y-109063095D02*
X276824226Y-109015476D01*
X276824226Y-109015476D02*
X277014702Y-108967857D01*
X277014702Y-108967857D02*
X277157559Y-108967857D01*
X277157559Y-108967857D02*
X277348035Y-109015476D01*
X277348035Y-109015476D02*
X277443273Y-109063095D01*
X277443273Y-109063095D02*
X277538511Y-109158333D01*
X277538511Y-109158333D02*
X277586130Y-109301190D01*
X277586130Y-109301190D02*
X277586130Y-109539285D01*
X276681369Y-108586904D02*
X276633750Y-108539285D01*
X276633750Y-108539285D02*
X276586130Y-108444047D01*
X276586130Y-108444047D02*
X276586130Y-108205952D01*
X276586130Y-108205952D02*
X276633750Y-108110714D01*
X276633750Y-108110714D02*
X276681369Y-108063095D01*
X276681369Y-108063095D02*
X276776607Y-108015476D01*
X276776607Y-108015476D02*
X276871845Y-108015476D01*
X276871845Y-108015476D02*
X277014702Y-108063095D01*
X277014702Y-108063095D02*
X277586130Y-108634523D01*
X277586130Y-108634523D02*
X277586130Y-108015476D01*
X276586130Y-107682142D02*
X276586130Y-107015476D01*
X276586130Y-107015476D02*
X277586130Y-107444047D01*
%TO.C,D65*%
X282348630Y-166689285D02*
X281348630Y-166689285D01*
X281348630Y-166689285D02*
X281348630Y-166451190D01*
X281348630Y-166451190D02*
X281396250Y-166308333D01*
X281396250Y-166308333D02*
X281491488Y-166213095D01*
X281491488Y-166213095D02*
X281586726Y-166165476D01*
X281586726Y-166165476D02*
X281777202Y-166117857D01*
X281777202Y-166117857D02*
X281920059Y-166117857D01*
X281920059Y-166117857D02*
X282110535Y-166165476D01*
X282110535Y-166165476D02*
X282205773Y-166213095D01*
X282205773Y-166213095D02*
X282301011Y-166308333D01*
X282301011Y-166308333D02*
X282348630Y-166451190D01*
X282348630Y-166451190D02*
X282348630Y-166689285D01*
X281348630Y-165260714D02*
X281348630Y-165451190D01*
X281348630Y-165451190D02*
X281396250Y-165546428D01*
X281396250Y-165546428D02*
X281443869Y-165594047D01*
X281443869Y-165594047D02*
X281586726Y-165689285D01*
X281586726Y-165689285D02*
X281777202Y-165736904D01*
X281777202Y-165736904D02*
X282158154Y-165736904D01*
X282158154Y-165736904D02*
X282253392Y-165689285D01*
X282253392Y-165689285D02*
X282301011Y-165641666D01*
X282301011Y-165641666D02*
X282348630Y-165546428D01*
X282348630Y-165546428D02*
X282348630Y-165355952D01*
X282348630Y-165355952D02*
X282301011Y-165260714D01*
X282301011Y-165260714D02*
X282253392Y-165213095D01*
X282253392Y-165213095D02*
X282158154Y-165165476D01*
X282158154Y-165165476D02*
X281920059Y-165165476D01*
X281920059Y-165165476D02*
X281824821Y-165213095D01*
X281824821Y-165213095D02*
X281777202Y-165260714D01*
X281777202Y-165260714D02*
X281729583Y-165355952D01*
X281729583Y-165355952D02*
X281729583Y-165546428D01*
X281729583Y-165546428D02*
X281777202Y-165641666D01*
X281777202Y-165641666D02*
X281824821Y-165689285D01*
X281824821Y-165689285D02*
X281920059Y-165736904D01*
X281348630Y-164260714D02*
X281348630Y-164736904D01*
X281348630Y-164736904D02*
X281824821Y-164784523D01*
X281824821Y-164784523D02*
X281777202Y-164736904D01*
X281777202Y-164736904D02*
X281729583Y-164641666D01*
X281729583Y-164641666D02*
X281729583Y-164403571D01*
X281729583Y-164403571D02*
X281777202Y-164308333D01*
X281777202Y-164308333D02*
X281824821Y-164260714D01*
X281824821Y-164260714D02*
X281920059Y-164213095D01*
X281920059Y-164213095D02*
X282158154Y-164213095D01*
X282158154Y-164213095D02*
X282253392Y-164260714D01*
X282253392Y-164260714D02*
X282301011Y-164308333D01*
X282301011Y-164308333D02*
X282348630Y-164403571D01*
X282348630Y-164403571D02*
X282348630Y-164641666D01*
X282348630Y-164641666D02*
X282301011Y-164736904D01*
X282301011Y-164736904D02*
X282253392Y-164784523D01*
%TO.C,D43*%
X68036130Y-147639285D02*
X67036130Y-147639285D01*
X67036130Y-147639285D02*
X67036130Y-147401190D01*
X67036130Y-147401190D02*
X67083750Y-147258333D01*
X67083750Y-147258333D02*
X67178988Y-147163095D01*
X67178988Y-147163095D02*
X67274226Y-147115476D01*
X67274226Y-147115476D02*
X67464702Y-147067857D01*
X67464702Y-147067857D02*
X67607559Y-147067857D01*
X67607559Y-147067857D02*
X67798035Y-147115476D01*
X67798035Y-147115476D02*
X67893273Y-147163095D01*
X67893273Y-147163095D02*
X67988511Y-147258333D01*
X67988511Y-147258333D02*
X68036130Y-147401190D01*
X68036130Y-147401190D02*
X68036130Y-147639285D01*
X67369464Y-146210714D02*
X68036130Y-146210714D01*
X66988511Y-146448809D02*
X67702797Y-146686904D01*
X67702797Y-146686904D02*
X67702797Y-146067857D01*
X67036130Y-145782142D02*
X67036130Y-145163095D01*
X67036130Y-145163095D02*
X67417083Y-145496428D01*
X67417083Y-145496428D02*
X67417083Y-145353571D01*
X67417083Y-145353571D02*
X67464702Y-145258333D01*
X67464702Y-145258333D02*
X67512321Y-145210714D01*
X67512321Y-145210714D02*
X67607559Y-145163095D01*
X67607559Y-145163095D02*
X67845654Y-145163095D01*
X67845654Y-145163095D02*
X67940892Y-145210714D01*
X67940892Y-145210714D02*
X67988511Y-145258333D01*
X67988511Y-145258333D02*
X68036130Y-145353571D01*
X68036130Y-145353571D02*
X68036130Y-145639285D01*
X68036130Y-145639285D02*
X67988511Y-145734523D01*
X67988511Y-145734523D02*
X67940892Y-145782142D01*
%TO.C,D38*%
X199004880Y-128589285D02*
X198004880Y-128589285D01*
X198004880Y-128589285D02*
X198004880Y-128351190D01*
X198004880Y-128351190D02*
X198052500Y-128208333D01*
X198052500Y-128208333D02*
X198147738Y-128113095D01*
X198147738Y-128113095D02*
X198242976Y-128065476D01*
X198242976Y-128065476D02*
X198433452Y-128017857D01*
X198433452Y-128017857D02*
X198576309Y-128017857D01*
X198576309Y-128017857D02*
X198766785Y-128065476D01*
X198766785Y-128065476D02*
X198862023Y-128113095D01*
X198862023Y-128113095D02*
X198957261Y-128208333D01*
X198957261Y-128208333D02*
X199004880Y-128351190D01*
X199004880Y-128351190D02*
X199004880Y-128589285D01*
X198004880Y-127684523D02*
X198004880Y-127065476D01*
X198004880Y-127065476D02*
X198385833Y-127398809D01*
X198385833Y-127398809D02*
X198385833Y-127255952D01*
X198385833Y-127255952D02*
X198433452Y-127160714D01*
X198433452Y-127160714D02*
X198481071Y-127113095D01*
X198481071Y-127113095D02*
X198576309Y-127065476D01*
X198576309Y-127065476D02*
X198814404Y-127065476D01*
X198814404Y-127065476D02*
X198909642Y-127113095D01*
X198909642Y-127113095D02*
X198957261Y-127160714D01*
X198957261Y-127160714D02*
X199004880Y-127255952D01*
X199004880Y-127255952D02*
X199004880Y-127541666D01*
X199004880Y-127541666D02*
X198957261Y-127636904D01*
X198957261Y-127636904D02*
X198909642Y-127684523D01*
X198433452Y-126494047D02*
X198385833Y-126589285D01*
X198385833Y-126589285D02*
X198338214Y-126636904D01*
X198338214Y-126636904D02*
X198242976Y-126684523D01*
X198242976Y-126684523D02*
X198195357Y-126684523D01*
X198195357Y-126684523D02*
X198100119Y-126636904D01*
X198100119Y-126636904D02*
X198052500Y-126589285D01*
X198052500Y-126589285D02*
X198004880Y-126494047D01*
X198004880Y-126494047D02*
X198004880Y-126303571D01*
X198004880Y-126303571D02*
X198052500Y-126208333D01*
X198052500Y-126208333D02*
X198100119Y-126160714D01*
X198100119Y-126160714D02*
X198195357Y-126113095D01*
X198195357Y-126113095D02*
X198242976Y-126113095D01*
X198242976Y-126113095D02*
X198338214Y-126160714D01*
X198338214Y-126160714D02*
X198385833Y-126208333D01*
X198385833Y-126208333D02*
X198433452Y-126303571D01*
X198433452Y-126303571D02*
X198433452Y-126494047D01*
X198433452Y-126494047D02*
X198481071Y-126589285D01*
X198481071Y-126589285D02*
X198528690Y-126636904D01*
X198528690Y-126636904D02*
X198623928Y-126684523D01*
X198623928Y-126684523D02*
X198814404Y-126684523D01*
X198814404Y-126684523D02*
X198909642Y-126636904D01*
X198909642Y-126636904D02*
X198957261Y-126589285D01*
X198957261Y-126589285D02*
X199004880Y-126494047D01*
X199004880Y-126494047D02*
X199004880Y-126303571D01*
X199004880Y-126303571D02*
X198957261Y-126208333D01*
X198957261Y-126208333D02*
X198909642Y-126160714D01*
X198909642Y-126160714D02*
X198814404Y-126113095D01*
X198814404Y-126113095D02*
X198623928Y-126113095D01*
X198623928Y-126113095D02*
X198528690Y-126160714D01*
X198528690Y-126160714D02*
X198481071Y-126208333D01*
X198481071Y-126208333D02*
X198433452Y-126303571D01*
%TO.C,D58*%
X110754880Y-166689285D02*
X109754880Y-166689285D01*
X109754880Y-166689285D02*
X109754880Y-166451190D01*
X109754880Y-166451190D02*
X109802500Y-166308333D01*
X109802500Y-166308333D02*
X109897738Y-166213095D01*
X109897738Y-166213095D02*
X109992976Y-166165476D01*
X109992976Y-166165476D02*
X110183452Y-166117857D01*
X110183452Y-166117857D02*
X110326309Y-166117857D01*
X110326309Y-166117857D02*
X110516785Y-166165476D01*
X110516785Y-166165476D02*
X110612023Y-166213095D01*
X110612023Y-166213095D02*
X110707261Y-166308333D01*
X110707261Y-166308333D02*
X110754880Y-166451190D01*
X110754880Y-166451190D02*
X110754880Y-166689285D01*
X109754880Y-165213095D02*
X109754880Y-165689285D01*
X109754880Y-165689285D02*
X110231071Y-165736904D01*
X110231071Y-165736904D02*
X110183452Y-165689285D01*
X110183452Y-165689285D02*
X110135833Y-165594047D01*
X110135833Y-165594047D02*
X110135833Y-165355952D01*
X110135833Y-165355952D02*
X110183452Y-165260714D01*
X110183452Y-165260714D02*
X110231071Y-165213095D01*
X110231071Y-165213095D02*
X110326309Y-165165476D01*
X110326309Y-165165476D02*
X110564404Y-165165476D01*
X110564404Y-165165476D02*
X110659642Y-165213095D01*
X110659642Y-165213095D02*
X110707261Y-165260714D01*
X110707261Y-165260714D02*
X110754880Y-165355952D01*
X110754880Y-165355952D02*
X110754880Y-165594047D01*
X110754880Y-165594047D02*
X110707261Y-165689285D01*
X110707261Y-165689285D02*
X110659642Y-165736904D01*
X110183452Y-164594047D02*
X110135833Y-164689285D01*
X110135833Y-164689285D02*
X110088214Y-164736904D01*
X110088214Y-164736904D02*
X109992976Y-164784523D01*
X109992976Y-164784523D02*
X109945357Y-164784523D01*
X109945357Y-164784523D02*
X109850119Y-164736904D01*
X109850119Y-164736904D02*
X109802500Y-164689285D01*
X109802500Y-164689285D02*
X109754880Y-164594047D01*
X109754880Y-164594047D02*
X109754880Y-164403571D01*
X109754880Y-164403571D02*
X109802500Y-164308333D01*
X109802500Y-164308333D02*
X109850119Y-164260714D01*
X109850119Y-164260714D02*
X109945357Y-164213095D01*
X109945357Y-164213095D02*
X109992976Y-164213095D01*
X109992976Y-164213095D02*
X110088214Y-164260714D01*
X110088214Y-164260714D02*
X110135833Y-164308333D01*
X110135833Y-164308333D02*
X110183452Y-164403571D01*
X110183452Y-164403571D02*
X110183452Y-164594047D01*
X110183452Y-164594047D02*
X110231071Y-164689285D01*
X110231071Y-164689285D02*
X110278690Y-164736904D01*
X110278690Y-164736904D02*
X110373928Y-164784523D01*
X110373928Y-164784523D02*
X110564404Y-164784523D01*
X110564404Y-164784523D02*
X110659642Y-164736904D01*
X110659642Y-164736904D02*
X110707261Y-164689285D01*
X110707261Y-164689285D02*
X110754880Y-164594047D01*
X110754880Y-164594047D02*
X110754880Y-164403571D01*
X110754880Y-164403571D02*
X110707261Y-164308333D01*
X110707261Y-164308333D02*
X110659642Y-164260714D01*
X110659642Y-164260714D02*
X110564404Y-164213095D01*
X110564404Y-164213095D02*
X110373928Y-164213095D01*
X110373928Y-164213095D02*
X110278690Y-164260714D01*
X110278690Y-164260714D02*
X110231071Y-164308333D01*
X110231071Y-164308333D02*
X110183452Y-164403571D01*
%TO.C,D45*%
X113279880Y-147639285D02*
X112279880Y-147639285D01*
X112279880Y-147639285D02*
X112279880Y-147401190D01*
X112279880Y-147401190D02*
X112327500Y-147258333D01*
X112327500Y-147258333D02*
X112422738Y-147163095D01*
X112422738Y-147163095D02*
X112517976Y-147115476D01*
X112517976Y-147115476D02*
X112708452Y-147067857D01*
X112708452Y-147067857D02*
X112851309Y-147067857D01*
X112851309Y-147067857D02*
X113041785Y-147115476D01*
X113041785Y-147115476D02*
X113137023Y-147163095D01*
X113137023Y-147163095D02*
X113232261Y-147258333D01*
X113232261Y-147258333D02*
X113279880Y-147401190D01*
X113279880Y-147401190D02*
X113279880Y-147639285D01*
X112613214Y-146210714D02*
X113279880Y-146210714D01*
X112232261Y-146448809D02*
X112946547Y-146686904D01*
X112946547Y-146686904D02*
X112946547Y-146067857D01*
X112279880Y-145210714D02*
X112279880Y-145686904D01*
X112279880Y-145686904D02*
X112756071Y-145734523D01*
X112756071Y-145734523D02*
X112708452Y-145686904D01*
X112708452Y-145686904D02*
X112660833Y-145591666D01*
X112660833Y-145591666D02*
X112660833Y-145353571D01*
X112660833Y-145353571D02*
X112708452Y-145258333D01*
X112708452Y-145258333D02*
X112756071Y-145210714D01*
X112756071Y-145210714D02*
X112851309Y-145163095D01*
X112851309Y-145163095D02*
X113089404Y-145163095D01*
X113089404Y-145163095D02*
X113184642Y-145210714D01*
X113184642Y-145210714D02*
X113232261Y-145258333D01*
X113232261Y-145258333D02*
X113279880Y-145353571D01*
X113279880Y-145353571D02*
X113279880Y-145591666D01*
X113279880Y-145591666D02*
X113232261Y-145686904D01*
X113232261Y-145686904D02*
X113184642Y-145734523D01*
%TO.C,D55*%
X327592380Y-147639285D02*
X326592380Y-147639285D01*
X326592380Y-147639285D02*
X326592380Y-147401190D01*
X326592380Y-147401190D02*
X326640000Y-147258333D01*
X326640000Y-147258333D02*
X326735238Y-147163095D01*
X326735238Y-147163095D02*
X326830476Y-147115476D01*
X326830476Y-147115476D02*
X327020952Y-147067857D01*
X327020952Y-147067857D02*
X327163809Y-147067857D01*
X327163809Y-147067857D02*
X327354285Y-147115476D01*
X327354285Y-147115476D02*
X327449523Y-147163095D01*
X327449523Y-147163095D02*
X327544761Y-147258333D01*
X327544761Y-147258333D02*
X327592380Y-147401190D01*
X327592380Y-147401190D02*
X327592380Y-147639285D01*
X326592380Y-146163095D02*
X326592380Y-146639285D01*
X326592380Y-146639285D02*
X327068571Y-146686904D01*
X327068571Y-146686904D02*
X327020952Y-146639285D01*
X327020952Y-146639285D02*
X326973333Y-146544047D01*
X326973333Y-146544047D02*
X326973333Y-146305952D01*
X326973333Y-146305952D02*
X327020952Y-146210714D01*
X327020952Y-146210714D02*
X327068571Y-146163095D01*
X327068571Y-146163095D02*
X327163809Y-146115476D01*
X327163809Y-146115476D02*
X327401904Y-146115476D01*
X327401904Y-146115476D02*
X327497142Y-146163095D01*
X327497142Y-146163095D02*
X327544761Y-146210714D01*
X327544761Y-146210714D02*
X327592380Y-146305952D01*
X327592380Y-146305952D02*
X327592380Y-146544047D01*
X327592380Y-146544047D02*
X327544761Y-146639285D01*
X327544761Y-146639285D02*
X327497142Y-146686904D01*
X326592380Y-145210714D02*
X326592380Y-145686904D01*
X326592380Y-145686904D02*
X327068571Y-145734523D01*
X327068571Y-145734523D02*
X327020952Y-145686904D01*
X327020952Y-145686904D02*
X326973333Y-145591666D01*
X326973333Y-145591666D02*
X326973333Y-145353571D01*
X326973333Y-145353571D02*
X327020952Y-145258333D01*
X327020952Y-145258333D02*
X327068571Y-145210714D01*
X327068571Y-145210714D02*
X327163809Y-145163095D01*
X327163809Y-145163095D02*
X327401904Y-145163095D01*
X327401904Y-145163095D02*
X327497142Y-145210714D01*
X327497142Y-145210714D02*
X327544761Y-145258333D01*
X327544761Y-145258333D02*
X327592380Y-145353571D01*
X327592380Y-145353571D02*
X327592380Y-145591666D01*
X327592380Y-145591666D02*
X327544761Y-145686904D01*
X327544761Y-145686904D02*
X327497142Y-145734523D01*
%TO.C,D29*%
X327592380Y-109539285D02*
X326592380Y-109539285D01*
X326592380Y-109539285D02*
X326592380Y-109301190D01*
X326592380Y-109301190D02*
X326640000Y-109158333D01*
X326640000Y-109158333D02*
X326735238Y-109063095D01*
X326735238Y-109063095D02*
X326830476Y-109015476D01*
X326830476Y-109015476D02*
X327020952Y-108967857D01*
X327020952Y-108967857D02*
X327163809Y-108967857D01*
X327163809Y-108967857D02*
X327354285Y-109015476D01*
X327354285Y-109015476D02*
X327449523Y-109063095D01*
X327449523Y-109063095D02*
X327544761Y-109158333D01*
X327544761Y-109158333D02*
X327592380Y-109301190D01*
X327592380Y-109301190D02*
X327592380Y-109539285D01*
X326687619Y-108586904D02*
X326640000Y-108539285D01*
X326640000Y-108539285D02*
X326592380Y-108444047D01*
X326592380Y-108444047D02*
X326592380Y-108205952D01*
X326592380Y-108205952D02*
X326640000Y-108110714D01*
X326640000Y-108110714D02*
X326687619Y-108063095D01*
X326687619Y-108063095D02*
X326782857Y-108015476D01*
X326782857Y-108015476D02*
X326878095Y-108015476D01*
X326878095Y-108015476D02*
X327020952Y-108063095D01*
X327020952Y-108063095D02*
X327592380Y-108634523D01*
X327592380Y-108634523D02*
X327592380Y-108015476D01*
X327592380Y-107539285D02*
X327592380Y-107348809D01*
X327592380Y-107348809D02*
X327544761Y-107253571D01*
X327544761Y-107253571D02*
X327497142Y-107205952D01*
X327497142Y-107205952D02*
X327354285Y-107110714D01*
X327354285Y-107110714D02*
X327163809Y-107063095D01*
X327163809Y-107063095D02*
X326782857Y-107063095D01*
X326782857Y-107063095D02*
X326687619Y-107110714D01*
X326687619Y-107110714D02*
X326640000Y-107158333D01*
X326640000Y-107158333D02*
X326592380Y-107253571D01*
X326592380Y-107253571D02*
X326592380Y-107444047D01*
X326592380Y-107444047D02*
X326640000Y-107539285D01*
X326640000Y-107539285D02*
X326687619Y-107586904D01*
X326687619Y-107586904D02*
X326782857Y-107634523D01*
X326782857Y-107634523D02*
X327020952Y-107634523D01*
X327020952Y-107634523D02*
X327116190Y-107586904D01*
X327116190Y-107586904D02*
X327163809Y-107539285D01*
X327163809Y-107539285D02*
X327211428Y-107444047D01*
X327211428Y-107444047D02*
X327211428Y-107253571D01*
X327211428Y-107253571D02*
X327163809Y-107158333D01*
X327163809Y-107158333D02*
X327116190Y-107110714D01*
X327116190Y-107110714D02*
X327020952Y-107063095D01*
%TO.C,D25*%
X232342380Y-109539285D02*
X231342380Y-109539285D01*
X231342380Y-109539285D02*
X231342380Y-109301190D01*
X231342380Y-109301190D02*
X231390000Y-109158333D01*
X231390000Y-109158333D02*
X231485238Y-109063095D01*
X231485238Y-109063095D02*
X231580476Y-109015476D01*
X231580476Y-109015476D02*
X231770952Y-108967857D01*
X231770952Y-108967857D02*
X231913809Y-108967857D01*
X231913809Y-108967857D02*
X232104285Y-109015476D01*
X232104285Y-109015476D02*
X232199523Y-109063095D01*
X232199523Y-109063095D02*
X232294761Y-109158333D01*
X232294761Y-109158333D02*
X232342380Y-109301190D01*
X232342380Y-109301190D02*
X232342380Y-109539285D01*
X231437619Y-108586904D02*
X231390000Y-108539285D01*
X231390000Y-108539285D02*
X231342380Y-108444047D01*
X231342380Y-108444047D02*
X231342380Y-108205952D01*
X231342380Y-108205952D02*
X231390000Y-108110714D01*
X231390000Y-108110714D02*
X231437619Y-108063095D01*
X231437619Y-108063095D02*
X231532857Y-108015476D01*
X231532857Y-108015476D02*
X231628095Y-108015476D01*
X231628095Y-108015476D02*
X231770952Y-108063095D01*
X231770952Y-108063095D02*
X232342380Y-108634523D01*
X232342380Y-108634523D02*
X232342380Y-108015476D01*
X231342380Y-107110714D02*
X231342380Y-107586904D01*
X231342380Y-107586904D02*
X231818571Y-107634523D01*
X231818571Y-107634523D02*
X231770952Y-107586904D01*
X231770952Y-107586904D02*
X231723333Y-107491666D01*
X231723333Y-107491666D02*
X231723333Y-107253571D01*
X231723333Y-107253571D02*
X231770952Y-107158333D01*
X231770952Y-107158333D02*
X231818571Y-107110714D01*
X231818571Y-107110714D02*
X231913809Y-107063095D01*
X231913809Y-107063095D02*
X232151904Y-107063095D01*
X232151904Y-107063095D02*
X232247142Y-107110714D01*
X232247142Y-107110714D02*
X232294761Y-107158333D01*
X232294761Y-107158333D02*
X232342380Y-107253571D01*
X232342380Y-107253571D02*
X232342380Y-107491666D01*
X232342380Y-107491666D02*
X232294761Y-107586904D01*
X232294761Y-107586904D02*
X232247142Y-107634523D01*
%TO.C,D28*%
X308542380Y-109539285D02*
X307542380Y-109539285D01*
X307542380Y-109539285D02*
X307542380Y-109301190D01*
X307542380Y-109301190D02*
X307590000Y-109158333D01*
X307590000Y-109158333D02*
X307685238Y-109063095D01*
X307685238Y-109063095D02*
X307780476Y-109015476D01*
X307780476Y-109015476D02*
X307970952Y-108967857D01*
X307970952Y-108967857D02*
X308113809Y-108967857D01*
X308113809Y-108967857D02*
X308304285Y-109015476D01*
X308304285Y-109015476D02*
X308399523Y-109063095D01*
X308399523Y-109063095D02*
X308494761Y-109158333D01*
X308494761Y-109158333D02*
X308542380Y-109301190D01*
X308542380Y-109301190D02*
X308542380Y-109539285D01*
X307637619Y-108586904D02*
X307590000Y-108539285D01*
X307590000Y-108539285D02*
X307542380Y-108444047D01*
X307542380Y-108444047D02*
X307542380Y-108205952D01*
X307542380Y-108205952D02*
X307590000Y-108110714D01*
X307590000Y-108110714D02*
X307637619Y-108063095D01*
X307637619Y-108063095D02*
X307732857Y-108015476D01*
X307732857Y-108015476D02*
X307828095Y-108015476D01*
X307828095Y-108015476D02*
X307970952Y-108063095D01*
X307970952Y-108063095D02*
X308542380Y-108634523D01*
X308542380Y-108634523D02*
X308542380Y-108015476D01*
X307970952Y-107444047D02*
X307923333Y-107539285D01*
X307923333Y-107539285D02*
X307875714Y-107586904D01*
X307875714Y-107586904D02*
X307780476Y-107634523D01*
X307780476Y-107634523D02*
X307732857Y-107634523D01*
X307732857Y-107634523D02*
X307637619Y-107586904D01*
X307637619Y-107586904D02*
X307590000Y-107539285D01*
X307590000Y-107539285D02*
X307542380Y-107444047D01*
X307542380Y-107444047D02*
X307542380Y-107253571D01*
X307542380Y-107253571D02*
X307590000Y-107158333D01*
X307590000Y-107158333D02*
X307637619Y-107110714D01*
X307637619Y-107110714D02*
X307732857Y-107063095D01*
X307732857Y-107063095D02*
X307780476Y-107063095D01*
X307780476Y-107063095D02*
X307875714Y-107110714D01*
X307875714Y-107110714D02*
X307923333Y-107158333D01*
X307923333Y-107158333D02*
X307970952Y-107253571D01*
X307970952Y-107253571D02*
X307970952Y-107444047D01*
X307970952Y-107444047D02*
X308018571Y-107539285D01*
X308018571Y-107539285D02*
X308066190Y-107586904D01*
X308066190Y-107586904D02*
X308161428Y-107634523D01*
X308161428Y-107634523D02*
X308351904Y-107634523D01*
X308351904Y-107634523D02*
X308447142Y-107586904D01*
X308447142Y-107586904D02*
X308494761Y-107539285D01*
X308494761Y-107539285D02*
X308542380Y-107444047D01*
X308542380Y-107444047D02*
X308542380Y-107253571D01*
X308542380Y-107253571D02*
X308494761Y-107158333D01*
X308494761Y-107158333D02*
X308447142Y-107110714D01*
X308447142Y-107110714D02*
X308351904Y-107063095D01*
X308351904Y-107063095D02*
X308161428Y-107063095D01*
X308161428Y-107063095D02*
X308066190Y-107110714D01*
X308066190Y-107110714D02*
X308018571Y-107158333D01*
X308018571Y-107158333D02*
X307970952Y-107253571D01*
%TD*%
M02*
