%TF.GenerationSoftware,KiCad,Pcbnew,(7.0.0-0)*%
%TF.CreationDate,2023-07-19T11:54:47-04:00*%
%TF.ProjectId,meadowstumble,6d656164-6f77-4737-9475-6d626c652e6b,rev?*%
%TF.SameCoordinates,Original*%
%TF.FileFunction,Legend,Bot*%
%TF.FilePolarity,Positive*%
%FSLAX46Y46*%
G04 Gerber Fmt 4.6, Leading zero omitted, Abs format (unit mm)*
G04 Created by KiCad (PCBNEW (7.0.0-0)) date 2023-07-19 11:54:47*
%MOMM*%
%LPD*%
G01*
G04 APERTURE LIST*
G04 Aperture macros list*
%AMRoundRect*
0 Rectangle with rounded corners*
0 $1 Rounding radius*
0 $2 $3 $4 $5 $6 $7 $8 $9 X,Y pos of 4 corners*
0 Add a 4 corners polygon primitive as box body*
4,1,4,$2,$3,$4,$5,$6,$7,$8,$9,$2,$3,0*
0 Add four circle primitives for the rounded corners*
1,1,$1+$1,$2,$3*
1,1,$1+$1,$4,$5*
1,1,$1+$1,$6,$7*
1,1,$1+$1,$8,$9*
0 Add four rect primitives between the rounded corners*
20,1,$1+$1,$2,$3,$4,$5,0*
20,1,$1+$1,$4,$5,$6,$7,0*
20,1,$1+$1,$6,$7,$8,$9,0*
20,1,$1+$1,$8,$9,$2,$3,0*%
G04 Aperture macros list end*
%ADD10C,0.300000*%
%ADD11C,0.150000*%
%ADD12C,0.120000*%
%ADD13C,3.987800*%
%ADD14C,3.048000*%
%ADD15C,1.750000*%
%ADD16C,2.250000*%
%ADD17RoundRect,0.135000X-0.185000X0.135000X-0.185000X-0.135000X0.185000X-0.135000X0.185000X0.135000X0*%
%ADD18RoundRect,0.140000X0.170000X-0.140000X0.170000X0.140000X-0.170000X0.140000X-0.170000X-0.140000X0*%
%ADD19RoundRect,0.140000X0.140000X0.170000X-0.140000X0.170000X-0.140000X-0.170000X0.140000X-0.170000X0*%
%ADD20RoundRect,0.225000X0.375000X-0.225000X0.375000X0.225000X-0.375000X0.225000X-0.375000X-0.225000X0*%
%ADD21RoundRect,0.140000X-0.140000X-0.170000X0.140000X-0.170000X0.140000X0.170000X-0.140000X0.170000X0*%
%ADD22RoundRect,0.135000X0.185000X-0.135000X0.185000X0.135000X-0.185000X0.135000X-0.185000X-0.135000X0*%
%ADD23R,1.400000X1.200000*%
%ADD24RoundRect,0.140000X-0.170000X0.140000X-0.170000X-0.140000X0.170000X-0.140000X0.170000X0.140000X0*%
%ADD25RoundRect,0.150000X-0.150000X0.650000X-0.150000X-0.650000X0.150000X-0.650000X0.150000X0.650000X0*%
%ADD26RoundRect,0.050000X0.387500X0.050000X-0.387500X0.050000X-0.387500X-0.050000X0.387500X-0.050000X0*%
%ADD27RoundRect,0.050000X0.050000X0.387500X-0.050000X0.387500X-0.050000X-0.387500X0.050000X-0.387500X0*%
%ADD28RoundRect,0.144000X1.456000X1.456000X-1.456000X1.456000X-1.456000X-1.456000X1.456000X-1.456000X0*%
%ADD29R,1.000000X1.000000*%
%ADD30O,1.000000X1.000000*%
%ADD31R,1.700000X1.700000*%
%ADD32O,1.700000X1.700000*%
%ADD33RoundRect,0.150000X0.150000X-0.587500X0.150000X0.587500X-0.150000X0.587500X-0.150000X-0.587500X0*%
%ADD34RoundRect,0.140000X-0.219203X-0.021213X-0.021213X-0.219203X0.219203X0.021213X0.021213X0.219203X0*%
%ADD35RoundRect,0.150000X-0.625000X0.150000X-0.625000X-0.150000X0.625000X-0.150000X0.625000X0.150000X0*%
%ADD36RoundRect,0.250000X-0.650000X0.350000X-0.650000X-0.350000X0.650000X-0.350000X0.650000X0.350000X0*%
G04 APERTURE END LIST*
D10*
X89335714Y-121023571D02*
X89835714Y-120309285D01*
X90192857Y-121023571D02*
X90192857Y-119523571D01*
X90192857Y-119523571D02*
X89621428Y-119523571D01*
X89621428Y-119523571D02*
X89478571Y-119595000D01*
X89478571Y-119595000D02*
X89407142Y-119666428D01*
X89407142Y-119666428D02*
X89335714Y-119809285D01*
X89335714Y-119809285D02*
X89335714Y-120023571D01*
X89335714Y-120023571D02*
X89407142Y-120166428D01*
X89407142Y-120166428D02*
X89478571Y-120237857D01*
X89478571Y-120237857D02*
X89621428Y-120309285D01*
X89621428Y-120309285D02*
X90192857Y-120309285D01*
X88121428Y-120952142D02*
X88264285Y-121023571D01*
X88264285Y-121023571D02*
X88550000Y-121023571D01*
X88550000Y-121023571D02*
X88692857Y-120952142D01*
X88692857Y-120952142D02*
X88764285Y-120809285D01*
X88764285Y-120809285D02*
X88764285Y-120237857D01*
X88764285Y-120237857D02*
X88692857Y-120095000D01*
X88692857Y-120095000D02*
X88550000Y-120023571D01*
X88550000Y-120023571D02*
X88264285Y-120023571D01*
X88264285Y-120023571D02*
X88121428Y-120095000D01*
X88121428Y-120095000D02*
X88050000Y-120237857D01*
X88050000Y-120237857D02*
X88050000Y-120380714D01*
X88050000Y-120380714D02*
X88764285Y-120523571D01*
X87478571Y-120952142D02*
X87335714Y-121023571D01*
X87335714Y-121023571D02*
X87050000Y-121023571D01*
X87050000Y-121023571D02*
X86907143Y-120952142D01*
X86907143Y-120952142D02*
X86835714Y-120809285D01*
X86835714Y-120809285D02*
X86835714Y-120737857D01*
X86835714Y-120737857D02*
X86907143Y-120595000D01*
X86907143Y-120595000D02*
X87050000Y-120523571D01*
X87050000Y-120523571D02*
X87264286Y-120523571D01*
X87264286Y-120523571D02*
X87407143Y-120452142D01*
X87407143Y-120452142D02*
X87478571Y-120309285D01*
X87478571Y-120309285D02*
X87478571Y-120237857D01*
X87478571Y-120237857D02*
X87407143Y-120095000D01*
X87407143Y-120095000D02*
X87264286Y-120023571D01*
X87264286Y-120023571D02*
X87050000Y-120023571D01*
X87050000Y-120023571D02*
X86907143Y-120095000D01*
X85621428Y-120952142D02*
X85764285Y-121023571D01*
X85764285Y-121023571D02*
X86050000Y-121023571D01*
X86050000Y-121023571D02*
X86192857Y-120952142D01*
X86192857Y-120952142D02*
X86264285Y-120809285D01*
X86264285Y-120809285D02*
X86264285Y-120237857D01*
X86264285Y-120237857D02*
X86192857Y-120095000D01*
X86192857Y-120095000D02*
X86050000Y-120023571D01*
X86050000Y-120023571D02*
X85764285Y-120023571D01*
X85764285Y-120023571D02*
X85621428Y-120095000D01*
X85621428Y-120095000D02*
X85550000Y-120237857D01*
X85550000Y-120237857D02*
X85550000Y-120380714D01*
X85550000Y-120380714D02*
X86264285Y-120523571D01*
X85121428Y-120023571D02*
X84550000Y-120023571D01*
X84907143Y-119523571D02*
X84907143Y-120809285D01*
X84907143Y-120809285D02*
X84835714Y-120952142D01*
X84835714Y-120952142D02*
X84692857Y-121023571D01*
X84692857Y-121023571D02*
X84550000Y-121023571D01*
D11*
%TO.C,D14*%
X327592380Y-83298214D02*
X326592380Y-83298214D01*
X326592380Y-83298214D02*
X326592380Y-83536309D01*
X326592380Y-83536309D02*
X326640000Y-83679166D01*
X326640000Y-83679166D02*
X326735238Y-83774404D01*
X326735238Y-83774404D02*
X326830476Y-83822023D01*
X326830476Y-83822023D02*
X327020952Y-83869642D01*
X327020952Y-83869642D02*
X327163809Y-83869642D01*
X327163809Y-83869642D02*
X327354285Y-83822023D01*
X327354285Y-83822023D02*
X327449523Y-83774404D01*
X327449523Y-83774404D02*
X327544761Y-83679166D01*
X327544761Y-83679166D02*
X327592380Y-83536309D01*
X327592380Y-83536309D02*
X327592380Y-83298214D01*
X327592380Y-84822023D02*
X327592380Y-84250595D01*
X327592380Y-84536309D02*
X326592380Y-84536309D01*
X326592380Y-84536309D02*
X326735238Y-84441071D01*
X326735238Y-84441071D02*
X326830476Y-84345833D01*
X326830476Y-84345833D02*
X326878095Y-84250595D01*
X326925714Y-85679166D02*
X327592380Y-85679166D01*
X326544761Y-85441071D02*
X327259047Y-85202976D01*
X327259047Y-85202976D02*
X327259047Y-85822023D01*
%TO.C,D46*%
X132329880Y-145210714D02*
X131329880Y-145210714D01*
X131329880Y-145210714D02*
X131329880Y-145448809D01*
X131329880Y-145448809D02*
X131377500Y-145591666D01*
X131377500Y-145591666D02*
X131472738Y-145686904D01*
X131472738Y-145686904D02*
X131567976Y-145734523D01*
X131567976Y-145734523D02*
X131758452Y-145782142D01*
X131758452Y-145782142D02*
X131901309Y-145782142D01*
X131901309Y-145782142D02*
X132091785Y-145734523D01*
X132091785Y-145734523D02*
X132187023Y-145686904D01*
X132187023Y-145686904D02*
X132282261Y-145591666D01*
X132282261Y-145591666D02*
X132329880Y-145448809D01*
X132329880Y-145448809D02*
X132329880Y-145210714D01*
X131663214Y-146639285D02*
X132329880Y-146639285D01*
X131282261Y-146401190D02*
X131996547Y-146163095D01*
X131996547Y-146163095D02*
X131996547Y-146782142D01*
X131329880Y-147591666D02*
X131329880Y-147401190D01*
X131329880Y-147401190D02*
X131377500Y-147305952D01*
X131377500Y-147305952D02*
X131425119Y-147258333D01*
X131425119Y-147258333D02*
X131567976Y-147163095D01*
X131567976Y-147163095D02*
X131758452Y-147115476D01*
X131758452Y-147115476D02*
X132139404Y-147115476D01*
X132139404Y-147115476D02*
X132234642Y-147163095D01*
X132234642Y-147163095D02*
X132282261Y-147210714D01*
X132282261Y-147210714D02*
X132329880Y-147305952D01*
X132329880Y-147305952D02*
X132329880Y-147496428D01*
X132329880Y-147496428D02*
X132282261Y-147591666D01*
X132282261Y-147591666D02*
X132234642Y-147639285D01*
X132234642Y-147639285D02*
X132139404Y-147686904D01*
X132139404Y-147686904D02*
X131901309Y-147686904D01*
X131901309Y-147686904D02*
X131806071Y-147639285D01*
X131806071Y-147639285D02*
X131758452Y-147591666D01*
X131758452Y-147591666D02*
X131710833Y-147496428D01*
X131710833Y-147496428D02*
X131710833Y-147305952D01*
X131710833Y-147305952D02*
X131758452Y-147210714D01*
X131758452Y-147210714D02*
X131806071Y-147163095D01*
X131806071Y-147163095D02*
X131901309Y-147115476D01*
%TO.C,D53*%
X265679880Y-145210714D02*
X264679880Y-145210714D01*
X264679880Y-145210714D02*
X264679880Y-145448809D01*
X264679880Y-145448809D02*
X264727500Y-145591666D01*
X264727500Y-145591666D02*
X264822738Y-145686904D01*
X264822738Y-145686904D02*
X264917976Y-145734523D01*
X264917976Y-145734523D02*
X265108452Y-145782142D01*
X265108452Y-145782142D02*
X265251309Y-145782142D01*
X265251309Y-145782142D02*
X265441785Y-145734523D01*
X265441785Y-145734523D02*
X265537023Y-145686904D01*
X265537023Y-145686904D02*
X265632261Y-145591666D01*
X265632261Y-145591666D02*
X265679880Y-145448809D01*
X265679880Y-145448809D02*
X265679880Y-145210714D01*
X264679880Y-146686904D02*
X264679880Y-146210714D01*
X264679880Y-146210714D02*
X265156071Y-146163095D01*
X265156071Y-146163095D02*
X265108452Y-146210714D01*
X265108452Y-146210714D02*
X265060833Y-146305952D01*
X265060833Y-146305952D02*
X265060833Y-146544047D01*
X265060833Y-146544047D02*
X265108452Y-146639285D01*
X265108452Y-146639285D02*
X265156071Y-146686904D01*
X265156071Y-146686904D02*
X265251309Y-146734523D01*
X265251309Y-146734523D02*
X265489404Y-146734523D01*
X265489404Y-146734523D02*
X265584642Y-146686904D01*
X265584642Y-146686904D02*
X265632261Y-146639285D01*
X265632261Y-146639285D02*
X265679880Y-146544047D01*
X265679880Y-146544047D02*
X265679880Y-146305952D01*
X265679880Y-146305952D02*
X265632261Y-146210714D01*
X265632261Y-146210714D02*
X265584642Y-146163095D01*
X264679880Y-147067857D02*
X264679880Y-147686904D01*
X264679880Y-147686904D02*
X265060833Y-147353571D01*
X265060833Y-147353571D02*
X265060833Y-147496428D01*
X265060833Y-147496428D02*
X265108452Y-147591666D01*
X265108452Y-147591666D02*
X265156071Y-147639285D01*
X265156071Y-147639285D02*
X265251309Y-147686904D01*
X265251309Y-147686904D02*
X265489404Y-147686904D01*
X265489404Y-147686904D02*
X265584642Y-147639285D01*
X265584642Y-147639285D02*
X265632261Y-147591666D01*
X265632261Y-147591666D02*
X265679880Y-147496428D01*
X265679880Y-147496428D02*
X265679880Y-147210714D01*
X265679880Y-147210714D02*
X265632261Y-147115476D01*
X265632261Y-147115476D02*
X265584642Y-147067857D01*
%TO.C,D23*%
X194242380Y-107110714D02*
X193242380Y-107110714D01*
X193242380Y-107110714D02*
X193242380Y-107348809D01*
X193242380Y-107348809D02*
X193290000Y-107491666D01*
X193290000Y-107491666D02*
X193385238Y-107586904D01*
X193385238Y-107586904D02*
X193480476Y-107634523D01*
X193480476Y-107634523D02*
X193670952Y-107682142D01*
X193670952Y-107682142D02*
X193813809Y-107682142D01*
X193813809Y-107682142D02*
X194004285Y-107634523D01*
X194004285Y-107634523D02*
X194099523Y-107586904D01*
X194099523Y-107586904D02*
X194194761Y-107491666D01*
X194194761Y-107491666D02*
X194242380Y-107348809D01*
X194242380Y-107348809D02*
X194242380Y-107110714D01*
X193337619Y-108063095D02*
X193290000Y-108110714D01*
X193290000Y-108110714D02*
X193242380Y-108205952D01*
X193242380Y-108205952D02*
X193242380Y-108444047D01*
X193242380Y-108444047D02*
X193290000Y-108539285D01*
X193290000Y-108539285D02*
X193337619Y-108586904D01*
X193337619Y-108586904D02*
X193432857Y-108634523D01*
X193432857Y-108634523D02*
X193528095Y-108634523D01*
X193528095Y-108634523D02*
X193670952Y-108586904D01*
X193670952Y-108586904D02*
X194242380Y-108015476D01*
X194242380Y-108015476D02*
X194242380Y-108634523D01*
X193242380Y-108967857D02*
X193242380Y-109586904D01*
X193242380Y-109586904D02*
X193623333Y-109253571D01*
X193623333Y-109253571D02*
X193623333Y-109396428D01*
X193623333Y-109396428D02*
X193670952Y-109491666D01*
X193670952Y-109491666D02*
X193718571Y-109539285D01*
X193718571Y-109539285D02*
X193813809Y-109586904D01*
X193813809Y-109586904D02*
X194051904Y-109586904D01*
X194051904Y-109586904D02*
X194147142Y-109539285D01*
X194147142Y-109539285D02*
X194194761Y-109491666D01*
X194194761Y-109491666D02*
X194242380Y-109396428D01*
X194242380Y-109396428D02*
X194242380Y-109110714D01*
X194242380Y-109110714D02*
X194194761Y-109015476D01*
X194194761Y-109015476D02*
X194147142Y-108967857D01*
%TO.C,D56*%
X63273630Y-164260714D02*
X62273630Y-164260714D01*
X62273630Y-164260714D02*
X62273630Y-164498809D01*
X62273630Y-164498809D02*
X62321250Y-164641666D01*
X62321250Y-164641666D02*
X62416488Y-164736904D01*
X62416488Y-164736904D02*
X62511726Y-164784523D01*
X62511726Y-164784523D02*
X62702202Y-164832142D01*
X62702202Y-164832142D02*
X62845059Y-164832142D01*
X62845059Y-164832142D02*
X63035535Y-164784523D01*
X63035535Y-164784523D02*
X63130773Y-164736904D01*
X63130773Y-164736904D02*
X63226011Y-164641666D01*
X63226011Y-164641666D02*
X63273630Y-164498809D01*
X63273630Y-164498809D02*
X63273630Y-164260714D01*
X62273630Y-165736904D02*
X62273630Y-165260714D01*
X62273630Y-165260714D02*
X62749821Y-165213095D01*
X62749821Y-165213095D02*
X62702202Y-165260714D01*
X62702202Y-165260714D02*
X62654583Y-165355952D01*
X62654583Y-165355952D02*
X62654583Y-165594047D01*
X62654583Y-165594047D02*
X62702202Y-165689285D01*
X62702202Y-165689285D02*
X62749821Y-165736904D01*
X62749821Y-165736904D02*
X62845059Y-165784523D01*
X62845059Y-165784523D02*
X63083154Y-165784523D01*
X63083154Y-165784523D02*
X63178392Y-165736904D01*
X63178392Y-165736904D02*
X63226011Y-165689285D01*
X63226011Y-165689285D02*
X63273630Y-165594047D01*
X63273630Y-165594047D02*
X63273630Y-165355952D01*
X63273630Y-165355952D02*
X63226011Y-165260714D01*
X63226011Y-165260714D02*
X63178392Y-165213095D01*
X62273630Y-166641666D02*
X62273630Y-166451190D01*
X62273630Y-166451190D02*
X62321250Y-166355952D01*
X62321250Y-166355952D02*
X62368869Y-166308333D01*
X62368869Y-166308333D02*
X62511726Y-166213095D01*
X62511726Y-166213095D02*
X62702202Y-166165476D01*
X62702202Y-166165476D02*
X63083154Y-166165476D01*
X63083154Y-166165476D02*
X63178392Y-166213095D01*
X63178392Y-166213095D02*
X63226011Y-166260714D01*
X63226011Y-166260714D02*
X63273630Y-166355952D01*
X63273630Y-166355952D02*
X63273630Y-166546428D01*
X63273630Y-166546428D02*
X63226011Y-166641666D01*
X63226011Y-166641666D02*
X63178392Y-166689285D01*
X63178392Y-166689285D02*
X63083154Y-166736904D01*
X63083154Y-166736904D02*
X62845059Y-166736904D01*
X62845059Y-166736904D02*
X62749821Y-166689285D01*
X62749821Y-166689285D02*
X62702202Y-166641666D01*
X62702202Y-166641666D02*
X62654583Y-166546428D01*
X62654583Y-166546428D02*
X62654583Y-166355952D01*
X62654583Y-166355952D02*
X62702202Y-166260714D01*
X62702202Y-166260714D02*
X62749821Y-166213095D01*
X62749821Y-166213095D02*
X62845059Y-166165476D01*
%TO.C,D68*%
X346642380Y-164260714D02*
X345642380Y-164260714D01*
X345642380Y-164260714D02*
X345642380Y-164498809D01*
X345642380Y-164498809D02*
X345690000Y-164641666D01*
X345690000Y-164641666D02*
X345785238Y-164736904D01*
X345785238Y-164736904D02*
X345880476Y-164784523D01*
X345880476Y-164784523D02*
X346070952Y-164832142D01*
X346070952Y-164832142D02*
X346213809Y-164832142D01*
X346213809Y-164832142D02*
X346404285Y-164784523D01*
X346404285Y-164784523D02*
X346499523Y-164736904D01*
X346499523Y-164736904D02*
X346594761Y-164641666D01*
X346594761Y-164641666D02*
X346642380Y-164498809D01*
X346642380Y-164498809D02*
X346642380Y-164260714D01*
X345642380Y-165689285D02*
X345642380Y-165498809D01*
X345642380Y-165498809D02*
X345690000Y-165403571D01*
X345690000Y-165403571D02*
X345737619Y-165355952D01*
X345737619Y-165355952D02*
X345880476Y-165260714D01*
X345880476Y-165260714D02*
X346070952Y-165213095D01*
X346070952Y-165213095D02*
X346451904Y-165213095D01*
X346451904Y-165213095D02*
X346547142Y-165260714D01*
X346547142Y-165260714D02*
X346594761Y-165308333D01*
X346594761Y-165308333D02*
X346642380Y-165403571D01*
X346642380Y-165403571D02*
X346642380Y-165594047D01*
X346642380Y-165594047D02*
X346594761Y-165689285D01*
X346594761Y-165689285D02*
X346547142Y-165736904D01*
X346547142Y-165736904D02*
X346451904Y-165784523D01*
X346451904Y-165784523D02*
X346213809Y-165784523D01*
X346213809Y-165784523D02*
X346118571Y-165736904D01*
X346118571Y-165736904D02*
X346070952Y-165689285D01*
X346070952Y-165689285D02*
X346023333Y-165594047D01*
X346023333Y-165594047D02*
X346023333Y-165403571D01*
X346023333Y-165403571D02*
X346070952Y-165308333D01*
X346070952Y-165308333D02*
X346118571Y-165260714D01*
X346118571Y-165260714D02*
X346213809Y-165213095D01*
X346070952Y-166355952D02*
X346023333Y-166260714D01*
X346023333Y-166260714D02*
X345975714Y-166213095D01*
X345975714Y-166213095D02*
X345880476Y-166165476D01*
X345880476Y-166165476D02*
X345832857Y-166165476D01*
X345832857Y-166165476D02*
X345737619Y-166213095D01*
X345737619Y-166213095D02*
X345690000Y-166260714D01*
X345690000Y-166260714D02*
X345642380Y-166355952D01*
X345642380Y-166355952D02*
X345642380Y-166546428D01*
X345642380Y-166546428D02*
X345690000Y-166641666D01*
X345690000Y-166641666D02*
X345737619Y-166689285D01*
X345737619Y-166689285D02*
X345832857Y-166736904D01*
X345832857Y-166736904D02*
X345880476Y-166736904D01*
X345880476Y-166736904D02*
X345975714Y-166689285D01*
X345975714Y-166689285D02*
X346023333Y-166641666D01*
X346023333Y-166641666D02*
X346070952Y-166546428D01*
X346070952Y-166546428D02*
X346070952Y-166355952D01*
X346070952Y-166355952D02*
X346118571Y-166260714D01*
X346118571Y-166260714D02*
X346166190Y-166213095D01*
X346166190Y-166213095D02*
X346261428Y-166165476D01*
X346261428Y-166165476D02*
X346451904Y-166165476D01*
X346451904Y-166165476D02*
X346547142Y-166213095D01*
X346547142Y-166213095D02*
X346594761Y-166260714D01*
X346594761Y-166260714D02*
X346642380Y-166355952D01*
X346642380Y-166355952D02*
X346642380Y-166546428D01*
X346642380Y-166546428D02*
X346594761Y-166641666D01*
X346594761Y-166641666D02*
X346547142Y-166689285D01*
X346547142Y-166689285D02*
X346451904Y-166736904D01*
X346451904Y-166736904D02*
X346261428Y-166736904D01*
X346261428Y-166736904D02*
X346166190Y-166689285D01*
X346166190Y-166689285D02*
X346118571Y-166641666D01*
X346118571Y-166641666D02*
X346070952Y-166546428D01*
%TO.C,D67*%
X327592380Y-164260714D02*
X326592380Y-164260714D01*
X326592380Y-164260714D02*
X326592380Y-164498809D01*
X326592380Y-164498809D02*
X326640000Y-164641666D01*
X326640000Y-164641666D02*
X326735238Y-164736904D01*
X326735238Y-164736904D02*
X326830476Y-164784523D01*
X326830476Y-164784523D02*
X327020952Y-164832142D01*
X327020952Y-164832142D02*
X327163809Y-164832142D01*
X327163809Y-164832142D02*
X327354285Y-164784523D01*
X327354285Y-164784523D02*
X327449523Y-164736904D01*
X327449523Y-164736904D02*
X327544761Y-164641666D01*
X327544761Y-164641666D02*
X327592380Y-164498809D01*
X327592380Y-164498809D02*
X327592380Y-164260714D01*
X326592380Y-165689285D02*
X326592380Y-165498809D01*
X326592380Y-165498809D02*
X326640000Y-165403571D01*
X326640000Y-165403571D02*
X326687619Y-165355952D01*
X326687619Y-165355952D02*
X326830476Y-165260714D01*
X326830476Y-165260714D02*
X327020952Y-165213095D01*
X327020952Y-165213095D02*
X327401904Y-165213095D01*
X327401904Y-165213095D02*
X327497142Y-165260714D01*
X327497142Y-165260714D02*
X327544761Y-165308333D01*
X327544761Y-165308333D02*
X327592380Y-165403571D01*
X327592380Y-165403571D02*
X327592380Y-165594047D01*
X327592380Y-165594047D02*
X327544761Y-165689285D01*
X327544761Y-165689285D02*
X327497142Y-165736904D01*
X327497142Y-165736904D02*
X327401904Y-165784523D01*
X327401904Y-165784523D02*
X327163809Y-165784523D01*
X327163809Y-165784523D02*
X327068571Y-165736904D01*
X327068571Y-165736904D02*
X327020952Y-165689285D01*
X327020952Y-165689285D02*
X326973333Y-165594047D01*
X326973333Y-165594047D02*
X326973333Y-165403571D01*
X326973333Y-165403571D02*
X327020952Y-165308333D01*
X327020952Y-165308333D02*
X327068571Y-165260714D01*
X327068571Y-165260714D02*
X327163809Y-165213095D01*
X326592380Y-166117857D02*
X326592380Y-166784523D01*
X326592380Y-166784523D02*
X327592380Y-166355952D01*
%TO.C,D7*%
X184717380Y-83774405D02*
X183717380Y-83774405D01*
X183717380Y-83774405D02*
X183717380Y-84012500D01*
X183717380Y-84012500D02*
X183765000Y-84155357D01*
X183765000Y-84155357D02*
X183860238Y-84250595D01*
X183860238Y-84250595D02*
X183955476Y-84298214D01*
X183955476Y-84298214D02*
X184145952Y-84345833D01*
X184145952Y-84345833D02*
X184288809Y-84345833D01*
X184288809Y-84345833D02*
X184479285Y-84298214D01*
X184479285Y-84298214D02*
X184574523Y-84250595D01*
X184574523Y-84250595D02*
X184669761Y-84155357D01*
X184669761Y-84155357D02*
X184717380Y-84012500D01*
X184717380Y-84012500D02*
X184717380Y-83774405D01*
X183717380Y-84679167D02*
X183717380Y-85345833D01*
X183717380Y-85345833D02*
X184717380Y-84917262D01*
%TO.C,D51*%
X227579880Y-145210714D02*
X226579880Y-145210714D01*
X226579880Y-145210714D02*
X226579880Y-145448809D01*
X226579880Y-145448809D02*
X226627500Y-145591666D01*
X226627500Y-145591666D02*
X226722738Y-145686904D01*
X226722738Y-145686904D02*
X226817976Y-145734523D01*
X226817976Y-145734523D02*
X227008452Y-145782142D01*
X227008452Y-145782142D02*
X227151309Y-145782142D01*
X227151309Y-145782142D02*
X227341785Y-145734523D01*
X227341785Y-145734523D02*
X227437023Y-145686904D01*
X227437023Y-145686904D02*
X227532261Y-145591666D01*
X227532261Y-145591666D02*
X227579880Y-145448809D01*
X227579880Y-145448809D02*
X227579880Y-145210714D01*
X226579880Y-146686904D02*
X226579880Y-146210714D01*
X226579880Y-146210714D02*
X227056071Y-146163095D01*
X227056071Y-146163095D02*
X227008452Y-146210714D01*
X227008452Y-146210714D02*
X226960833Y-146305952D01*
X226960833Y-146305952D02*
X226960833Y-146544047D01*
X226960833Y-146544047D02*
X227008452Y-146639285D01*
X227008452Y-146639285D02*
X227056071Y-146686904D01*
X227056071Y-146686904D02*
X227151309Y-146734523D01*
X227151309Y-146734523D02*
X227389404Y-146734523D01*
X227389404Y-146734523D02*
X227484642Y-146686904D01*
X227484642Y-146686904D02*
X227532261Y-146639285D01*
X227532261Y-146639285D02*
X227579880Y-146544047D01*
X227579880Y-146544047D02*
X227579880Y-146305952D01*
X227579880Y-146305952D02*
X227532261Y-146210714D01*
X227532261Y-146210714D02*
X227484642Y-146163095D01*
X227579880Y-147686904D02*
X227579880Y-147115476D01*
X227579880Y-147401190D02*
X226579880Y-147401190D01*
X226579880Y-147401190D02*
X226722738Y-147305952D01*
X226722738Y-147305952D02*
X226817976Y-147210714D01*
X226817976Y-147210714D02*
X226865595Y-147115476D01*
%TO.C,D41*%
X256154880Y-126160714D02*
X255154880Y-126160714D01*
X255154880Y-126160714D02*
X255154880Y-126398809D01*
X255154880Y-126398809D02*
X255202500Y-126541666D01*
X255202500Y-126541666D02*
X255297738Y-126636904D01*
X255297738Y-126636904D02*
X255392976Y-126684523D01*
X255392976Y-126684523D02*
X255583452Y-126732142D01*
X255583452Y-126732142D02*
X255726309Y-126732142D01*
X255726309Y-126732142D02*
X255916785Y-126684523D01*
X255916785Y-126684523D02*
X256012023Y-126636904D01*
X256012023Y-126636904D02*
X256107261Y-126541666D01*
X256107261Y-126541666D02*
X256154880Y-126398809D01*
X256154880Y-126398809D02*
X256154880Y-126160714D01*
X255488214Y-127589285D02*
X256154880Y-127589285D01*
X255107261Y-127351190D02*
X255821547Y-127113095D01*
X255821547Y-127113095D02*
X255821547Y-127732142D01*
X256154880Y-128636904D02*
X256154880Y-128065476D01*
X256154880Y-128351190D02*
X255154880Y-128351190D01*
X255154880Y-128351190D02*
X255297738Y-128255952D01*
X255297738Y-128255952D02*
X255392976Y-128160714D01*
X255392976Y-128160714D02*
X255440595Y-128065476D01*
%TO.C,D34*%
X122804880Y-126160714D02*
X121804880Y-126160714D01*
X121804880Y-126160714D02*
X121804880Y-126398809D01*
X121804880Y-126398809D02*
X121852500Y-126541666D01*
X121852500Y-126541666D02*
X121947738Y-126636904D01*
X121947738Y-126636904D02*
X122042976Y-126684523D01*
X122042976Y-126684523D02*
X122233452Y-126732142D01*
X122233452Y-126732142D02*
X122376309Y-126732142D01*
X122376309Y-126732142D02*
X122566785Y-126684523D01*
X122566785Y-126684523D02*
X122662023Y-126636904D01*
X122662023Y-126636904D02*
X122757261Y-126541666D01*
X122757261Y-126541666D02*
X122804880Y-126398809D01*
X122804880Y-126398809D02*
X122804880Y-126160714D01*
X121804880Y-127065476D02*
X121804880Y-127684523D01*
X121804880Y-127684523D02*
X122185833Y-127351190D01*
X122185833Y-127351190D02*
X122185833Y-127494047D01*
X122185833Y-127494047D02*
X122233452Y-127589285D01*
X122233452Y-127589285D02*
X122281071Y-127636904D01*
X122281071Y-127636904D02*
X122376309Y-127684523D01*
X122376309Y-127684523D02*
X122614404Y-127684523D01*
X122614404Y-127684523D02*
X122709642Y-127636904D01*
X122709642Y-127636904D02*
X122757261Y-127589285D01*
X122757261Y-127589285D02*
X122804880Y-127494047D01*
X122804880Y-127494047D02*
X122804880Y-127208333D01*
X122804880Y-127208333D02*
X122757261Y-127113095D01*
X122757261Y-127113095D02*
X122709642Y-127065476D01*
X122138214Y-128541666D02*
X122804880Y-128541666D01*
X121757261Y-128303571D02*
X122471547Y-128065476D01*
X122471547Y-128065476D02*
X122471547Y-128684523D01*
%TO.C,D59*%
X122804880Y-164260714D02*
X121804880Y-164260714D01*
X121804880Y-164260714D02*
X121804880Y-164498809D01*
X121804880Y-164498809D02*
X121852500Y-164641666D01*
X121852500Y-164641666D02*
X121947738Y-164736904D01*
X121947738Y-164736904D02*
X122042976Y-164784523D01*
X122042976Y-164784523D02*
X122233452Y-164832142D01*
X122233452Y-164832142D02*
X122376309Y-164832142D01*
X122376309Y-164832142D02*
X122566785Y-164784523D01*
X122566785Y-164784523D02*
X122662023Y-164736904D01*
X122662023Y-164736904D02*
X122757261Y-164641666D01*
X122757261Y-164641666D02*
X122804880Y-164498809D01*
X122804880Y-164498809D02*
X122804880Y-164260714D01*
X121804880Y-165736904D02*
X121804880Y-165260714D01*
X121804880Y-165260714D02*
X122281071Y-165213095D01*
X122281071Y-165213095D02*
X122233452Y-165260714D01*
X122233452Y-165260714D02*
X122185833Y-165355952D01*
X122185833Y-165355952D02*
X122185833Y-165594047D01*
X122185833Y-165594047D02*
X122233452Y-165689285D01*
X122233452Y-165689285D02*
X122281071Y-165736904D01*
X122281071Y-165736904D02*
X122376309Y-165784523D01*
X122376309Y-165784523D02*
X122614404Y-165784523D01*
X122614404Y-165784523D02*
X122709642Y-165736904D01*
X122709642Y-165736904D02*
X122757261Y-165689285D01*
X122757261Y-165689285D02*
X122804880Y-165594047D01*
X122804880Y-165594047D02*
X122804880Y-165355952D01*
X122804880Y-165355952D02*
X122757261Y-165260714D01*
X122757261Y-165260714D02*
X122709642Y-165213095D01*
X122804880Y-166260714D02*
X122804880Y-166451190D01*
X122804880Y-166451190D02*
X122757261Y-166546428D01*
X122757261Y-166546428D02*
X122709642Y-166594047D01*
X122709642Y-166594047D02*
X122566785Y-166689285D01*
X122566785Y-166689285D02*
X122376309Y-166736904D01*
X122376309Y-166736904D02*
X121995357Y-166736904D01*
X121995357Y-166736904D02*
X121900119Y-166689285D01*
X121900119Y-166689285D02*
X121852500Y-166641666D01*
X121852500Y-166641666D02*
X121804880Y-166546428D01*
X121804880Y-166546428D02*
X121804880Y-166355952D01*
X121804880Y-166355952D02*
X121852500Y-166260714D01*
X121852500Y-166260714D02*
X121900119Y-166213095D01*
X121900119Y-166213095D02*
X121995357Y-166165476D01*
X121995357Y-166165476D02*
X122233452Y-166165476D01*
X122233452Y-166165476D02*
X122328690Y-166213095D01*
X122328690Y-166213095D02*
X122376309Y-166260714D01*
X122376309Y-166260714D02*
X122423928Y-166355952D01*
X122423928Y-166355952D02*
X122423928Y-166546428D01*
X122423928Y-166546428D02*
X122376309Y-166641666D01*
X122376309Y-166641666D02*
X122328690Y-166689285D01*
X122328690Y-166689285D02*
X122233452Y-166736904D01*
%TO.C,D8*%
X203767380Y-83774405D02*
X202767380Y-83774405D01*
X202767380Y-83774405D02*
X202767380Y-84012500D01*
X202767380Y-84012500D02*
X202815000Y-84155357D01*
X202815000Y-84155357D02*
X202910238Y-84250595D01*
X202910238Y-84250595D02*
X203005476Y-84298214D01*
X203005476Y-84298214D02*
X203195952Y-84345833D01*
X203195952Y-84345833D02*
X203338809Y-84345833D01*
X203338809Y-84345833D02*
X203529285Y-84298214D01*
X203529285Y-84298214D02*
X203624523Y-84250595D01*
X203624523Y-84250595D02*
X203719761Y-84155357D01*
X203719761Y-84155357D02*
X203767380Y-84012500D01*
X203767380Y-84012500D02*
X203767380Y-83774405D01*
X203195952Y-84917262D02*
X203148333Y-84822024D01*
X203148333Y-84822024D02*
X203100714Y-84774405D01*
X203100714Y-84774405D02*
X203005476Y-84726786D01*
X203005476Y-84726786D02*
X202957857Y-84726786D01*
X202957857Y-84726786D02*
X202862619Y-84774405D01*
X202862619Y-84774405D02*
X202815000Y-84822024D01*
X202815000Y-84822024D02*
X202767380Y-84917262D01*
X202767380Y-84917262D02*
X202767380Y-85107738D01*
X202767380Y-85107738D02*
X202815000Y-85202976D01*
X202815000Y-85202976D02*
X202862619Y-85250595D01*
X202862619Y-85250595D02*
X202957857Y-85298214D01*
X202957857Y-85298214D02*
X203005476Y-85298214D01*
X203005476Y-85298214D02*
X203100714Y-85250595D01*
X203100714Y-85250595D02*
X203148333Y-85202976D01*
X203148333Y-85202976D02*
X203195952Y-85107738D01*
X203195952Y-85107738D02*
X203195952Y-84917262D01*
X203195952Y-84917262D02*
X203243571Y-84822024D01*
X203243571Y-84822024D02*
X203291190Y-84774405D01*
X203291190Y-84774405D02*
X203386428Y-84726786D01*
X203386428Y-84726786D02*
X203576904Y-84726786D01*
X203576904Y-84726786D02*
X203672142Y-84774405D01*
X203672142Y-84774405D02*
X203719761Y-84822024D01*
X203719761Y-84822024D02*
X203767380Y-84917262D01*
X203767380Y-84917262D02*
X203767380Y-85107738D01*
X203767380Y-85107738D02*
X203719761Y-85202976D01*
X203719761Y-85202976D02*
X203672142Y-85250595D01*
X203672142Y-85250595D02*
X203576904Y-85298214D01*
X203576904Y-85298214D02*
X203386428Y-85298214D01*
X203386428Y-85298214D02*
X203291190Y-85250595D01*
X203291190Y-85250595D02*
X203243571Y-85202976D01*
X203243571Y-85202976D02*
X203195952Y-85107738D01*
%TO.C,D57*%
X84704880Y-164260714D02*
X83704880Y-164260714D01*
X83704880Y-164260714D02*
X83704880Y-164498809D01*
X83704880Y-164498809D02*
X83752500Y-164641666D01*
X83752500Y-164641666D02*
X83847738Y-164736904D01*
X83847738Y-164736904D02*
X83942976Y-164784523D01*
X83942976Y-164784523D02*
X84133452Y-164832142D01*
X84133452Y-164832142D02*
X84276309Y-164832142D01*
X84276309Y-164832142D02*
X84466785Y-164784523D01*
X84466785Y-164784523D02*
X84562023Y-164736904D01*
X84562023Y-164736904D02*
X84657261Y-164641666D01*
X84657261Y-164641666D02*
X84704880Y-164498809D01*
X84704880Y-164498809D02*
X84704880Y-164260714D01*
X83704880Y-165736904D02*
X83704880Y-165260714D01*
X83704880Y-165260714D02*
X84181071Y-165213095D01*
X84181071Y-165213095D02*
X84133452Y-165260714D01*
X84133452Y-165260714D02*
X84085833Y-165355952D01*
X84085833Y-165355952D02*
X84085833Y-165594047D01*
X84085833Y-165594047D02*
X84133452Y-165689285D01*
X84133452Y-165689285D02*
X84181071Y-165736904D01*
X84181071Y-165736904D02*
X84276309Y-165784523D01*
X84276309Y-165784523D02*
X84514404Y-165784523D01*
X84514404Y-165784523D02*
X84609642Y-165736904D01*
X84609642Y-165736904D02*
X84657261Y-165689285D01*
X84657261Y-165689285D02*
X84704880Y-165594047D01*
X84704880Y-165594047D02*
X84704880Y-165355952D01*
X84704880Y-165355952D02*
X84657261Y-165260714D01*
X84657261Y-165260714D02*
X84609642Y-165213095D01*
X83704880Y-166117857D02*
X83704880Y-166784523D01*
X83704880Y-166784523D02*
X84704880Y-166355952D01*
%TO.C,D50*%
X208529880Y-145210714D02*
X207529880Y-145210714D01*
X207529880Y-145210714D02*
X207529880Y-145448809D01*
X207529880Y-145448809D02*
X207577500Y-145591666D01*
X207577500Y-145591666D02*
X207672738Y-145686904D01*
X207672738Y-145686904D02*
X207767976Y-145734523D01*
X207767976Y-145734523D02*
X207958452Y-145782142D01*
X207958452Y-145782142D02*
X208101309Y-145782142D01*
X208101309Y-145782142D02*
X208291785Y-145734523D01*
X208291785Y-145734523D02*
X208387023Y-145686904D01*
X208387023Y-145686904D02*
X208482261Y-145591666D01*
X208482261Y-145591666D02*
X208529880Y-145448809D01*
X208529880Y-145448809D02*
X208529880Y-145210714D01*
X207529880Y-146686904D02*
X207529880Y-146210714D01*
X207529880Y-146210714D02*
X208006071Y-146163095D01*
X208006071Y-146163095D02*
X207958452Y-146210714D01*
X207958452Y-146210714D02*
X207910833Y-146305952D01*
X207910833Y-146305952D02*
X207910833Y-146544047D01*
X207910833Y-146544047D02*
X207958452Y-146639285D01*
X207958452Y-146639285D02*
X208006071Y-146686904D01*
X208006071Y-146686904D02*
X208101309Y-146734523D01*
X208101309Y-146734523D02*
X208339404Y-146734523D01*
X208339404Y-146734523D02*
X208434642Y-146686904D01*
X208434642Y-146686904D02*
X208482261Y-146639285D01*
X208482261Y-146639285D02*
X208529880Y-146544047D01*
X208529880Y-146544047D02*
X208529880Y-146305952D01*
X208529880Y-146305952D02*
X208482261Y-146210714D01*
X208482261Y-146210714D02*
X208434642Y-146163095D01*
X207529880Y-147353571D02*
X207529880Y-147448809D01*
X207529880Y-147448809D02*
X207577500Y-147544047D01*
X207577500Y-147544047D02*
X207625119Y-147591666D01*
X207625119Y-147591666D02*
X207720357Y-147639285D01*
X207720357Y-147639285D02*
X207910833Y-147686904D01*
X207910833Y-147686904D02*
X208148928Y-147686904D01*
X208148928Y-147686904D02*
X208339404Y-147639285D01*
X208339404Y-147639285D02*
X208434642Y-147591666D01*
X208434642Y-147591666D02*
X208482261Y-147544047D01*
X208482261Y-147544047D02*
X208529880Y-147448809D01*
X208529880Y-147448809D02*
X208529880Y-147353571D01*
X208529880Y-147353571D02*
X208482261Y-147258333D01*
X208482261Y-147258333D02*
X208434642Y-147210714D01*
X208434642Y-147210714D02*
X208339404Y-147163095D01*
X208339404Y-147163095D02*
X208148928Y-147115476D01*
X208148928Y-147115476D02*
X207910833Y-147115476D01*
X207910833Y-147115476D02*
X207720357Y-147163095D01*
X207720357Y-147163095D02*
X207625119Y-147210714D01*
X207625119Y-147210714D02*
X207577500Y-147258333D01*
X207577500Y-147258333D02*
X207529880Y-147353571D01*
%TO.C,D40*%
X237104880Y-126160714D02*
X236104880Y-126160714D01*
X236104880Y-126160714D02*
X236104880Y-126398809D01*
X236104880Y-126398809D02*
X236152500Y-126541666D01*
X236152500Y-126541666D02*
X236247738Y-126636904D01*
X236247738Y-126636904D02*
X236342976Y-126684523D01*
X236342976Y-126684523D02*
X236533452Y-126732142D01*
X236533452Y-126732142D02*
X236676309Y-126732142D01*
X236676309Y-126732142D02*
X236866785Y-126684523D01*
X236866785Y-126684523D02*
X236962023Y-126636904D01*
X236962023Y-126636904D02*
X237057261Y-126541666D01*
X237057261Y-126541666D02*
X237104880Y-126398809D01*
X237104880Y-126398809D02*
X237104880Y-126160714D01*
X236438214Y-127589285D02*
X237104880Y-127589285D01*
X236057261Y-127351190D02*
X236771547Y-127113095D01*
X236771547Y-127113095D02*
X236771547Y-127732142D01*
X236104880Y-128303571D02*
X236104880Y-128398809D01*
X236104880Y-128398809D02*
X236152500Y-128494047D01*
X236152500Y-128494047D02*
X236200119Y-128541666D01*
X236200119Y-128541666D02*
X236295357Y-128589285D01*
X236295357Y-128589285D02*
X236485833Y-128636904D01*
X236485833Y-128636904D02*
X236723928Y-128636904D01*
X236723928Y-128636904D02*
X236914404Y-128589285D01*
X236914404Y-128589285D02*
X237009642Y-128541666D01*
X237009642Y-128541666D02*
X237057261Y-128494047D01*
X237057261Y-128494047D02*
X237104880Y-128398809D01*
X237104880Y-128398809D02*
X237104880Y-128303571D01*
X237104880Y-128303571D02*
X237057261Y-128208333D01*
X237057261Y-128208333D02*
X237009642Y-128160714D01*
X237009642Y-128160714D02*
X236914404Y-128113095D01*
X236914404Y-128113095D02*
X236723928Y-128065476D01*
X236723928Y-128065476D02*
X236485833Y-128065476D01*
X236485833Y-128065476D02*
X236295357Y-128113095D01*
X236295357Y-128113095D02*
X236200119Y-128160714D01*
X236200119Y-128160714D02*
X236152500Y-128208333D01*
X236152500Y-128208333D02*
X236104880Y-128303571D01*
%TO.C,D5*%
X141854880Y-83774405D02*
X140854880Y-83774405D01*
X140854880Y-83774405D02*
X140854880Y-84012500D01*
X140854880Y-84012500D02*
X140902500Y-84155357D01*
X140902500Y-84155357D02*
X140997738Y-84250595D01*
X140997738Y-84250595D02*
X141092976Y-84298214D01*
X141092976Y-84298214D02*
X141283452Y-84345833D01*
X141283452Y-84345833D02*
X141426309Y-84345833D01*
X141426309Y-84345833D02*
X141616785Y-84298214D01*
X141616785Y-84298214D02*
X141712023Y-84250595D01*
X141712023Y-84250595D02*
X141807261Y-84155357D01*
X141807261Y-84155357D02*
X141854880Y-84012500D01*
X141854880Y-84012500D02*
X141854880Y-83774405D01*
X140854880Y-85250595D02*
X140854880Y-84774405D01*
X140854880Y-84774405D02*
X141331071Y-84726786D01*
X141331071Y-84726786D02*
X141283452Y-84774405D01*
X141283452Y-84774405D02*
X141235833Y-84869643D01*
X141235833Y-84869643D02*
X141235833Y-85107738D01*
X141235833Y-85107738D02*
X141283452Y-85202976D01*
X141283452Y-85202976D02*
X141331071Y-85250595D01*
X141331071Y-85250595D02*
X141426309Y-85298214D01*
X141426309Y-85298214D02*
X141664404Y-85298214D01*
X141664404Y-85298214D02*
X141759642Y-85250595D01*
X141759642Y-85250595D02*
X141807261Y-85202976D01*
X141807261Y-85202976D02*
X141854880Y-85107738D01*
X141854880Y-85107738D02*
X141854880Y-84869643D01*
X141854880Y-84869643D02*
X141807261Y-84774405D01*
X141807261Y-84774405D02*
X141759642Y-84726786D01*
%TO.C,D42*%
X279967380Y-126160714D02*
X278967380Y-126160714D01*
X278967380Y-126160714D02*
X278967380Y-126398809D01*
X278967380Y-126398809D02*
X279015000Y-126541666D01*
X279015000Y-126541666D02*
X279110238Y-126636904D01*
X279110238Y-126636904D02*
X279205476Y-126684523D01*
X279205476Y-126684523D02*
X279395952Y-126732142D01*
X279395952Y-126732142D02*
X279538809Y-126732142D01*
X279538809Y-126732142D02*
X279729285Y-126684523D01*
X279729285Y-126684523D02*
X279824523Y-126636904D01*
X279824523Y-126636904D02*
X279919761Y-126541666D01*
X279919761Y-126541666D02*
X279967380Y-126398809D01*
X279967380Y-126398809D02*
X279967380Y-126160714D01*
X279300714Y-127589285D02*
X279967380Y-127589285D01*
X278919761Y-127351190D02*
X279634047Y-127113095D01*
X279634047Y-127113095D02*
X279634047Y-127732142D01*
X279062619Y-128065476D02*
X279015000Y-128113095D01*
X279015000Y-128113095D02*
X278967380Y-128208333D01*
X278967380Y-128208333D02*
X278967380Y-128446428D01*
X278967380Y-128446428D02*
X279015000Y-128541666D01*
X279015000Y-128541666D02*
X279062619Y-128589285D01*
X279062619Y-128589285D02*
X279157857Y-128636904D01*
X279157857Y-128636904D02*
X279253095Y-128636904D01*
X279253095Y-128636904D02*
X279395952Y-128589285D01*
X279395952Y-128589285D02*
X279967380Y-128017857D01*
X279967380Y-128017857D02*
X279967380Y-128636904D01*
%TO.C,D19*%
X118042380Y-107110714D02*
X117042380Y-107110714D01*
X117042380Y-107110714D02*
X117042380Y-107348809D01*
X117042380Y-107348809D02*
X117090000Y-107491666D01*
X117090000Y-107491666D02*
X117185238Y-107586904D01*
X117185238Y-107586904D02*
X117280476Y-107634523D01*
X117280476Y-107634523D02*
X117470952Y-107682142D01*
X117470952Y-107682142D02*
X117613809Y-107682142D01*
X117613809Y-107682142D02*
X117804285Y-107634523D01*
X117804285Y-107634523D02*
X117899523Y-107586904D01*
X117899523Y-107586904D02*
X117994761Y-107491666D01*
X117994761Y-107491666D02*
X118042380Y-107348809D01*
X118042380Y-107348809D02*
X118042380Y-107110714D01*
X118042380Y-108634523D02*
X118042380Y-108063095D01*
X118042380Y-108348809D02*
X117042380Y-108348809D01*
X117042380Y-108348809D02*
X117185238Y-108253571D01*
X117185238Y-108253571D02*
X117280476Y-108158333D01*
X117280476Y-108158333D02*
X117328095Y-108063095D01*
X118042380Y-109110714D02*
X118042380Y-109301190D01*
X118042380Y-109301190D02*
X117994761Y-109396428D01*
X117994761Y-109396428D02*
X117947142Y-109444047D01*
X117947142Y-109444047D02*
X117804285Y-109539285D01*
X117804285Y-109539285D02*
X117613809Y-109586904D01*
X117613809Y-109586904D02*
X117232857Y-109586904D01*
X117232857Y-109586904D02*
X117137619Y-109539285D01*
X117137619Y-109539285D02*
X117090000Y-109491666D01*
X117090000Y-109491666D02*
X117042380Y-109396428D01*
X117042380Y-109396428D02*
X117042380Y-109205952D01*
X117042380Y-109205952D02*
X117090000Y-109110714D01*
X117090000Y-109110714D02*
X117137619Y-109063095D01*
X117137619Y-109063095D02*
X117232857Y-109015476D01*
X117232857Y-109015476D02*
X117470952Y-109015476D01*
X117470952Y-109015476D02*
X117566190Y-109063095D01*
X117566190Y-109063095D02*
X117613809Y-109110714D01*
X117613809Y-109110714D02*
X117661428Y-109205952D01*
X117661428Y-109205952D02*
X117661428Y-109396428D01*
X117661428Y-109396428D02*
X117613809Y-109491666D01*
X117613809Y-109491666D02*
X117566190Y-109539285D01*
X117566190Y-109539285D02*
X117470952Y-109586904D01*
%TO.C,D6*%
X165667380Y-83774405D02*
X164667380Y-83774405D01*
X164667380Y-83774405D02*
X164667380Y-84012500D01*
X164667380Y-84012500D02*
X164715000Y-84155357D01*
X164715000Y-84155357D02*
X164810238Y-84250595D01*
X164810238Y-84250595D02*
X164905476Y-84298214D01*
X164905476Y-84298214D02*
X165095952Y-84345833D01*
X165095952Y-84345833D02*
X165238809Y-84345833D01*
X165238809Y-84345833D02*
X165429285Y-84298214D01*
X165429285Y-84298214D02*
X165524523Y-84250595D01*
X165524523Y-84250595D02*
X165619761Y-84155357D01*
X165619761Y-84155357D02*
X165667380Y-84012500D01*
X165667380Y-84012500D02*
X165667380Y-83774405D01*
X164667380Y-85202976D02*
X164667380Y-85012500D01*
X164667380Y-85012500D02*
X164715000Y-84917262D01*
X164715000Y-84917262D02*
X164762619Y-84869643D01*
X164762619Y-84869643D02*
X164905476Y-84774405D01*
X164905476Y-84774405D02*
X165095952Y-84726786D01*
X165095952Y-84726786D02*
X165476904Y-84726786D01*
X165476904Y-84726786D02*
X165572142Y-84774405D01*
X165572142Y-84774405D02*
X165619761Y-84822024D01*
X165619761Y-84822024D02*
X165667380Y-84917262D01*
X165667380Y-84917262D02*
X165667380Y-85107738D01*
X165667380Y-85107738D02*
X165619761Y-85202976D01*
X165619761Y-85202976D02*
X165572142Y-85250595D01*
X165572142Y-85250595D02*
X165476904Y-85298214D01*
X165476904Y-85298214D02*
X165238809Y-85298214D01*
X165238809Y-85298214D02*
X165143571Y-85250595D01*
X165143571Y-85250595D02*
X165095952Y-85202976D01*
X165095952Y-85202976D02*
X165048333Y-85107738D01*
X165048333Y-85107738D02*
X165048333Y-84917262D01*
X165048333Y-84917262D02*
X165095952Y-84822024D01*
X165095952Y-84822024D02*
X165143571Y-84774405D01*
X165143571Y-84774405D02*
X165238809Y-84726786D01*
%TO.C,D44*%
X94229880Y-145210714D02*
X93229880Y-145210714D01*
X93229880Y-145210714D02*
X93229880Y-145448809D01*
X93229880Y-145448809D02*
X93277500Y-145591666D01*
X93277500Y-145591666D02*
X93372738Y-145686904D01*
X93372738Y-145686904D02*
X93467976Y-145734523D01*
X93467976Y-145734523D02*
X93658452Y-145782142D01*
X93658452Y-145782142D02*
X93801309Y-145782142D01*
X93801309Y-145782142D02*
X93991785Y-145734523D01*
X93991785Y-145734523D02*
X94087023Y-145686904D01*
X94087023Y-145686904D02*
X94182261Y-145591666D01*
X94182261Y-145591666D02*
X94229880Y-145448809D01*
X94229880Y-145448809D02*
X94229880Y-145210714D01*
X93563214Y-146639285D02*
X94229880Y-146639285D01*
X93182261Y-146401190D02*
X93896547Y-146163095D01*
X93896547Y-146163095D02*
X93896547Y-146782142D01*
X93563214Y-147591666D02*
X94229880Y-147591666D01*
X93182261Y-147353571D02*
X93896547Y-147115476D01*
X93896547Y-147115476D02*
X93896547Y-147734523D01*
%TO.C,D63*%
X241867380Y-164260714D02*
X240867380Y-164260714D01*
X240867380Y-164260714D02*
X240867380Y-164498809D01*
X240867380Y-164498809D02*
X240915000Y-164641666D01*
X240915000Y-164641666D02*
X241010238Y-164736904D01*
X241010238Y-164736904D02*
X241105476Y-164784523D01*
X241105476Y-164784523D02*
X241295952Y-164832142D01*
X241295952Y-164832142D02*
X241438809Y-164832142D01*
X241438809Y-164832142D02*
X241629285Y-164784523D01*
X241629285Y-164784523D02*
X241724523Y-164736904D01*
X241724523Y-164736904D02*
X241819761Y-164641666D01*
X241819761Y-164641666D02*
X241867380Y-164498809D01*
X241867380Y-164498809D02*
X241867380Y-164260714D01*
X240867380Y-165689285D02*
X240867380Y-165498809D01*
X240867380Y-165498809D02*
X240915000Y-165403571D01*
X240915000Y-165403571D02*
X240962619Y-165355952D01*
X240962619Y-165355952D02*
X241105476Y-165260714D01*
X241105476Y-165260714D02*
X241295952Y-165213095D01*
X241295952Y-165213095D02*
X241676904Y-165213095D01*
X241676904Y-165213095D02*
X241772142Y-165260714D01*
X241772142Y-165260714D02*
X241819761Y-165308333D01*
X241819761Y-165308333D02*
X241867380Y-165403571D01*
X241867380Y-165403571D02*
X241867380Y-165594047D01*
X241867380Y-165594047D02*
X241819761Y-165689285D01*
X241819761Y-165689285D02*
X241772142Y-165736904D01*
X241772142Y-165736904D02*
X241676904Y-165784523D01*
X241676904Y-165784523D02*
X241438809Y-165784523D01*
X241438809Y-165784523D02*
X241343571Y-165736904D01*
X241343571Y-165736904D02*
X241295952Y-165689285D01*
X241295952Y-165689285D02*
X241248333Y-165594047D01*
X241248333Y-165594047D02*
X241248333Y-165403571D01*
X241248333Y-165403571D02*
X241295952Y-165308333D01*
X241295952Y-165308333D02*
X241343571Y-165260714D01*
X241343571Y-165260714D02*
X241438809Y-165213095D01*
X240867380Y-166117857D02*
X240867380Y-166736904D01*
X240867380Y-166736904D02*
X241248333Y-166403571D01*
X241248333Y-166403571D02*
X241248333Y-166546428D01*
X241248333Y-166546428D02*
X241295952Y-166641666D01*
X241295952Y-166641666D02*
X241343571Y-166689285D01*
X241343571Y-166689285D02*
X241438809Y-166736904D01*
X241438809Y-166736904D02*
X241676904Y-166736904D01*
X241676904Y-166736904D02*
X241772142Y-166689285D01*
X241772142Y-166689285D02*
X241819761Y-166641666D01*
X241819761Y-166641666D02*
X241867380Y-166546428D01*
X241867380Y-166546428D02*
X241867380Y-166260714D01*
X241867380Y-166260714D02*
X241819761Y-166165476D01*
X241819761Y-166165476D02*
X241772142Y-166117857D01*
%TO.C,D24*%
X213292380Y-107110714D02*
X212292380Y-107110714D01*
X212292380Y-107110714D02*
X212292380Y-107348809D01*
X212292380Y-107348809D02*
X212340000Y-107491666D01*
X212340000Y-107491666D02*
X212435238Y-107586904D01*
X212435238Y-107586904D02*
X212530476Y-107634523D01*
X212530476Y-107634523D02*
X212720952Y-107682142D01*
X212720952Y-107682142D02*
X212863809Y-107682142D01*
X212863809Y-107682142D02*
X213054285Y-107634523D01*
X213054285Y-107634523D02*
X213149523Y-107586904D01*
X213149523Y-107586904D02*
X213244761Y-107491666D01*
X213244761Y-107491666D02*
X213292380Y-107348809D01*
X213292380Y-107348809D02*
X213292380Y-107110714D01*
X212387619Y-108063095D02*
X212340000Y-108110714D01*
X212340000Y-108110714D02*
X212292380Y-108205952D01*
X212292380Y-108205952D02*
X212292380Y-108444047D01*
X212292380Y-108444047D02*
X212340000Y-108539285D01*
X212340000Y-108539285D02*
X212387619Y-108586904D01*
X212387619Y-108586904D02*
X212482857Y-108634523D01*
X212482857Y-108634523D02*
X212578095Y-108634523D01*
X212578095Y-108634523D02*
X212720952Y-108586904D01*
X212720952Y-108586904D02*
X213292380Y-108015476D01*
X213292380Y-108015476D02*
X213292380Y-108634523D01*
X212625714Y-109491666D02*
X213292380Y-109491666D01*
X212244761Y-109253571D02*
X212959047Y-109015476D01*
X212959047Y-109015476D02*
X212959047Y-109634523D01*
%TO.C,D52*%
X246629880Y-145210714D02*
X245629880Y-145210714D01*
X245629880Y-145210714D02*
X245629880Y-145448809D01*
X245629880Y-145448809D02*
X245677500Y-145591666D01*
X245677500Y-145591666D02*
X245772738Y-145686904D01*
X245772738Y-145686904D02*
X245867976Y-145734523D01*
X245867976Y-145734523D02*
X246058452Y-145782142D01*
X246058452Y-145782142D02*
X246201309Y-145782142D01*
X246201309Y-145782142D02*
X246391785Y-145734523D01*
X246391785Y-145734523D02*
X246487023Y-145686904D01*
X246487023Y-145686904D02*
X246582261Y-145591666D01*
X246582261Y-145591666D02*
X246629880Y-145448809D01*
X246629880Y-145448809D02*
X246629880Y-145210714D01*
X245629880Y-146686904D02*
X245629880Y-146210714D01*
X245629880Y-146210714D02*
X246106071Y-146163095D01*
X246106071Y-146163095D02*
X246058452Y-146210714D01*
X246058452Y-146210714D02*
X246010833Y-146305952D01*
X246010833Y-146305952D02*
X246010833Y-146544047D01*
X246010833Y-146544047D02*
X246058452Y-146639285D01*
X246058452Y-146639285D02*
X246106071Y-146686904D01*
X246106071Y-146686904D02*
X246201309Y-146734523D01*
X246201309Y-146734523D02*
X246439404Y-146734523D01*
X246439404Y-146734523D02*
X246534642Y-146686904D01*
X246534642Y-146686904D02*
X246582261Y-146639285D01*
X246582261Y-146639285D02*
X246629880Y-146544047D01*
X246629880Y-146544047D02*
X246629880Y-146305952D01*
X246629880Y-146305952D02*
X246582261Y-146210714D01*
X246582261Y-146210714D02*
X246534642Y-146163095D01*
X245725119Y-147115476D02*
X245677500Y-147163095D01*
X245677500Y-147163095D02*
X245629880Y-147258333D01*
X245629880Y-147258333D02*
X245629880Y-147496428D01*
X245629880Y-147496428D02*
X245677500Y-147591666D01*
X245677500Y-147591666D02*
X245725119Y-147639285D01*
X245725119Y-147639285D02*
X245820357Y-147686904D01*
X245820357Y-147686904D02*
X245915595Y-147686904D01*
X245915595Y-147686904D02*
X246058452Y-147639285D01*
X246058452Y-147639285D02*
X246629880Y-147067857D01*
X246629880Y-147067857D02*
X246629880Y-147686904D01*
%TO.C,D21*%
X156142380Y-107110714D02*
X155142380Y-107110714D01*
X155142380Y-107110714D02*
X155142380Y-107348809D01*
X155142380Y-107348809D02*
X155190000Y-107491666D01*
X155190000Y-107491666D02*
X155285238Y-107586904D01*
X155285238Y-107586904D02*
X155380476Y-107634523D01*
X155380476Y-107634523D02*
X155570952Y-107682142D01*
X155570952Y-107682142D02*
X155713809Y-107682142D01*
X155713809Y-107682142D02*
X155904285Y-107634523D01*
X155904285Y-107634523D02*
X155999523Y-107586904D01*
X155999523Y-107586904D02*
X156094761Y-107491666D01*
X156094761Y-107491666D02*
X156142380Y-107348809D01*
X156142380Y-107348809D02*
X156142380Y-107110714D01*
X155237619Y-108063095D02*
X155190000Y-108110714D01*
X155190000Y-108110714D02*
X155142380Y-108205952D01*
X155142380Y-108205952D02*
X155142380Y-108444047D01*
X155142380Y-108444047D02*
X155190000Y-108539285D01*
X155190000Y-108539285D02*
X155237619Y-108586904D01*
X155237619Y-108586904D02*
X155332857Y-108634523D01*
X155332857Y-108634523D02*
X155428095Y-108634523D01*
X155428095Y-108634523D02*
X155570952Y-108586904D01*
X155570952Y-108586904D02*
X156142380Y-108015476D01*
X156142380Y-108015476D02*
X156142380Y-108634523D01*
X156142380Y-109586904D02*
X156142380Y-109015476D01*
X156142380Y-109301190D02*
X155142380Y-109301190D01*
X155142380Y-109301190D02*
X155285238Y-109205952D01*
X155285238Y-109205952D02*
X155380476Y-109110714D01*
X155380476Y-109110714D02*
X155428095Y-109015476D01*
%TO.C,D15*%
X346642380Y-83298214D02*
X345642380Y-83298214D01*
X345642380Y-83298214D02*
X345642380Y-83536309D01*
X345642380Y-83536309D02*
X345690000Y-83679166D01*
X345690000Y-83679166D02*
X345785238Y-83774404D01*
X345785238Y-83774404D02*
X345880476Y-83822023D01*
X345880476Y-83822023D02*
X346070952Y-83869642D01*
X346070952Y-83869642D02*
X346213809Y-83869642D01*
X346213809Y-83869642D02*
X346404285Y-83822023D01*
X346404285Y-83822023D02*
X346499523Y-83774404D01*
X346499523Y-83774404D02*
X346594761Y-83679166D01*
X346594761Y-83679166D02*
X346642380Y-83536309D01*
X346642380Y-83536309D02*
X346642380Y-83298214D01*
X346642380Y-84822023D02*
X346642380Y-84250595D01*
X346642380Y-84536309D02*
X345642380Y-84536309D01*
X345642380Y-84536309D02*
X345785238Y-84441071D01*
X345785238Y-84441071D02*
X345880476Y-84345833D01*
X345880476Y-84345833D02*
X345928095Y-84250595D01*
X345642380Y-85726785D02*
X345642380Y-85250595D01*
X345642380Y-85250595D02*
X346118571Y-85202976D01*
X346118571Y-85202976D02*
X346070952Y-85250595D01*
X346070952Y-85250595D02*
X346023333Y-85345833D01*
X346023333Y-85345833D02*
X346023333Y-85583928D01*
X346023333Y-85583928D02*
X346070952Y-85679166D01*
X346070952Y-85679166D02*
X346118571Y-85726785D01*
X346118571Y-85726785D02*
X346213809Y-85774404D01*
X346213809Y-85774404D02*
X346451904Y-85774404D01*
X346451904Y-85774404D02*
X346547142Y-85726785D01*
X346547142Y-85726785D02*
X346594761Y-85679166D01*
X346594761Y-85679166D02*
X346642380Y-85583928D01*
X346642380Y-85583928D02*
X346642380Y-85345833D01*
X346642380Y-85345833D02*
X346594761Y-85250595D01*
X346594761Y-85250595D02*
X346547142Y-85202976D01*
%TO.C,D37*%
X179954880Y-126160714D02*
X178954880Y-126160714D01*
X178954880Y-126160714D02*
X178954880Y-126398809D01*
X178954880Y-126398809D02*
X179002500Y-126541666D01*
X179002500Y-126541666D02*
X179097738Y-126636904D01*
X179097738Y-126636904D02*
X179192976Y-126684523D01*
X179192976Y-126684523D02*
X179383452Y-126732142D01*
X179383452Y-126732142D02*
X179526309Y-126732142D01*
X179526309Y-126732142D02*
X179716785Y-126684523D01*
X179716785Y-126684523D02*
X179812023Y-126636904D01*
X179812023Y-126636904D02*
X179907261Y-126541666D01*
X179907261Y-126541666D02*
X179954880Y-126398809D01*
X179954880Y-126398809D02*
X179954880Y-126160714D01*
X178954880Y-127065476D02*
X178954880Y-127684523D01*
X178954880Y-127684523D02*
X179335833Y-127351190D01*
X179335833Y-127351190D02*
X179335833Y-127494047D01*
X179335833Y-127494047D02*
X179383452Y-127589285D01*
X179383452Y-127589285D02*
X179431071Y-127636904D01*
X179431071Y-127636904D02*
X179526309Y-127684523D01*
X179526309Y-127684523D02*
X179764404Y-127684523D01*
X179764404Y-127684523D02*
X179859642Y-127636904D01*
X179859642Y-127636904D02*
X179907261Y-127589285D01*
X179907261Y-127589285D02*
X179954880Y-127494047D01*
X179954880Y-127494047D02*
X179954880Y-127208333D01*
X179954880Y-127208333D02*
X179907261Y-127113095D01*
X179907261Y-127113095D02*
X179859642Y-127065476D01*
X178954880Y-128017857D02*
X178954880Y-128684523D01*
X178954880Y-128684523D02*
X179954880Y-128255952D01*
%TO.C,D61*%
X194242380Y-164260714D02*
X193242380Y-164260714D01*
X193242380Y-164260714D02*
X193242380Y-164498809D01*
X193242380Y-164498809D02*
X193290000Y-164641666D01*
X193290000Y-164641666D02*
X193385238Y-164736904D01*
X193385238Y-164736904D02*
X193480476Y-164784523D01*
X193480476Y-164784523D02*
X193670952Y-164832142D01*
X193670952Y-164832142D02*
X193813809Y-164832142D01*
X193813809Y-164832142D02*
X194004285Y-164784523D01*
X194004285Y-164784523D02*
X194099523Y-164736904D01*
X194099523Y-164736904D02*
X194194761Y-164641666D01*
X194194761Y-164641666D02*
X194242380Y-164498809D01*
X194242380Y-164498809D02*
X194242380Y-164260714D01*
X193242380Y-165689285D02*
X193242380Y-165498809D01*
X193242380Y-165498809D02*
X193290000Y-165403571D01*
X193290000Y-165403571D02*
X193337619Y-165355952D01*
X193337619Y-165355952D02*
X193480476Y-165260714D01*
X193480476Y-165260714D02*
X193670952Y-165213095D01*
X193670952Y-165213095D02*
X194051904Y-165213095D01*
X194051904Y-165213095D02*
X194147142Y-165260714D01*
X194147142Y-165260714D02*
X194194761Y-165308333D01*
X194194761Y-165308333D02*
X194242380Y-165403571D01*
X194242380Y-165403571D02*
X194242380Y-165594047D01*
X194242380Y-165594047D02*
X194194761Y-165689285D01*
X194194761Y-165689285D02*
X194147142Y-165736904D01*
X194147142Y-165736904D02*
X194051904Y-165784523D01*
X194051904Y-165784523D02*
X193813809Y-165784523D01*
X193813809Y-165784523D02*
X193718571Y-165736904D01*
X193718571Y-165736904D02*
X193670952Y-165689285D01*
X193670952Y-165689285D02*
X193623333Y-165594047D01*
X193623333Y-165594047D02*
X193623333Y-165403571D01*
X193623333Y-165403571D02*
X193670952Y-165308333D01*
X193670952Y-165308333D02*
X193718571Y-165260714D01*
X193718571Y-165260714D02*
X193813809Y-165213095D01*
X194242380Y-166736904D02*
X194242380Y-166165476D01*
X194242380Y-166451190D02*
X193242380Y-166451190D01*
X193242380Y-166451190D02*
X193385238Y-166355952D01*
X193385238Y-166355952D02*
X193480476Y-166260714D01*
X193480476Y-166260714D02*
X193528095Y-166165476D01*
%TO.C,D60*%
X153761130Y-164260714D02*
X152761130Y-164260714D01*
X152761130Y-164260714D02*
X152761130Y-164498809D01*
X152761130Y-164498809D02*
X152808750Y-164641666D01*
X152808750Y-164641666D02*
X152903988Y-164736904D01*
X152903988Y-164736904D02*
X152999226Y-164784523D01*
X152999226Y-164784523D02*
X153189702Y-164832142D01*
X153189702Y-164832142D02*
X153332559Y-164832142D01*
X153332559Y-164832142D02*
X153523035Y-164784523D01*
X153523035Y-164784523D02*
X153618273Y-164736904D01*
X153618273Y-164736904D02*
X153713511Y-164641666D01*
X153713511Y-164641666D02*
X153761130Y-164498809D01*
X153761130Y-164498809D02*
X153761130Y-164260714D01*
X152761130Y-165689285D02*
X152761130Y-165498809D01*
X152761130Y-165498809D02*
X152808750Y-165403571D01*
X152808750Y-165403571D02*
X152856369Y-165355952D01*
X152856369Y-165355952D02*
X152999226Y-165260714D01*
X152999226Y-165260714D02*
X153189702Y-165213095D01*
X153189702Y-165213095D02*
X153570654Y-165213095D01*
X153570654Y-165213095D02*
X153665892Y-165260714D01*
X153665892Y-165260714D02*
X153713511Y-165308333D01*
X153713511Y-165308333D02*
X153761130Y-165403571D01*
X153761130Y-165403571D02*
X153761130Y-165594047D01*
X153761130Y-165594047D02*
X153713511Y-165689285D01*
X153713511Y-165689285D02*
X153665892Y-165736904D01*
X153665892Y-165736904D02*
X153570654Y-165784523D01*
X153570654Y-165784523D02*
X153332559Y-165784523D01*
X153332559Y-165784523D02*
X153237321Y-165736904D01*
X153237321Y-165736904D02*
X153189702Y-165689285D01*
X153189702Y-165689285D02*
X153142083Y-165594047D01*
X153142083Y-165594047D02*
X153142083Y-165403571D01*
X153142083Y-165403571D02*
X153189702Y-165308333D01*
X153189702Y-165308333D02*
X153237321Y-165260714D01*
X153237321Y-165260714D02*
X153332559Y-165213095D01*
X152761130Y-166403571D02*
X152761130Y-166498809D01*
X152761130Y-166498809D02*
X152808750Y-166594047D01*
X152808750Y-166594047D02*
X152856369Y-166641666D01*
X152856369Y-166641666D02*
X152951607Y-166689285D01*
X152951607Y-166689285D02*
X153142083Y-166736904D01*
X153142083Y-166736904D02*
X153380178Y-166736904D01*
X153380178Y-166736904D02*
X153570654Y-166689285D01*
X153570654Y-166689285D02*
X153665892Y-166641666D01*
X153665892Y-166641666D02*
X153713511Y-166594047D01*
X153713511Y-166594047D02*
X153761130Y-166498809D01*
X153761130Y-166498809D02*
X153761130Y-166403571D01*
X153761130Y-166403571D02*
X153713511Y-166308333D01*
X153713511Y-166308333D02*
X153665892Y-166260714D01*
X153665892Y-166260714D02*
X153570654Y-166213095D01*
X153570654Y-166213095D02*
X153380178Y-166165476D01*
X153380178Y-166165476D02*
X153142083Y-166165476D01*
X153142083Y-166165476D02*
X152951607Y-166213095D01*
X152951607Y-166213095D02*
X152856369Y-166260714D01*
X152856369Y-166260714D02*
X152808750Y-166308333D01*
X152808750Y-166308333D02*
X152761130Y-166403571D01*
%TO.C,D4*%
X122804880Y-83774405D02*
X121804880Y-83774405D01*
X121804880Y-83774405D02*
X121804880Y-84012500D01*
X121804880Y-84012500D02*
X121852500Y-84155357D01*
X121852500Y-84155357D02*
X121947738Y-84250595D01*
X121947738Y-84250595D02*
X122042976Y-84298214D01*
X122042976Y-84298214D02*
X122233452Y-84345833D01*
X122233452Y-84345833D02*
X122376309Y-84345833D01*
X122376309Y-84345833D02*
X122566785Y-84298214D01*
X122566785Y-84298214D02*
X122662023Y-84250595D01*
X122662023Y-84250595D02*
X122757261Y-84155357D01*
X122757261Y-84155357D02*
X122804880Y-84012500D01*
X122804880Y-84012500D02*
X122804880Y-83774405D01*
X122138214Y-85202976D02*
X122804880Y-85202976D01*
X121757261Y-84964881D02*
X122471547Y-84726786D01*
X122471547Y-84726786D02*
X122471547Y-85345833D01*
%TO.C,D66*%
X308542380Y-164260714D02*
X307542380Y-164260714D01*
X307542380Y-164260714D02*
X307542380Y-164498809D01*
X307542380Y-164498809D02*
X307590000Y-164641666D01*
X307590000Y-164641666D02*
X307685238Y-164736904D01*
X307685238Y-164736904D02*
X307780476Y-164784523D01*
X307780476Y-164784523D02*
X307970952Y-164832142D01*
X307970952Y-164832142D02*
X308113809Y-164832142D01*
X308113809Y-164832142D02*
X308304285Y-164784523D01*
X308304285Y-164784523D02*
X308399523Y-164736904D01*
X308399523Y-164736904D02*
X308494761Y-164641666D01*
X308494761Y-164641666D02*
X308542380Y-164498809D01*
X308542380Y-164498809D02*
X308542380Y-164260714D01*
X307542380Y-165689285D02*
X307542380Y-165498809D01*
X307542380Y-165498809D02*
X307590000Y-165403571D01*
X307590000Y-165403571D02*
X307637619Y-165355952D01*
X307637619Y-165355952D02*
X307780476Y-165260714D01*
X307780476Y-165260714D02*
X307970952Y-165213095D01*
X307970952Y-165213095D02*
X308351904Y-165213095D01*
X308351904Y-165213095D02*
X308447142Y-165260714D01*
X308447142Y-165260714D02*
X308494761Y-165308333D01*
X308494761Y-165308333D02*
X308542380Y-165403571D01*
X308542380Y-165403571D02*
X308542380Y-165594047D01*
X308542380Y-165594047D02*
X308494761Y-165689285D01*
X308494761Y-165689285D02*
X308447142Y-165736904D01*
X308447142Y-165736904D02*
X308351904Y-165784523D01*
X308351904Y-165784523D02*
X308113809Y-165784523D01*
X308113809Y-165784523D02*
X308018571Y-165736904D01*
X308018571Y-165736904D02*
X307970952Y-165689285D01*
X307970952Y-165689285D02*
X307923333Y-165594047D01*
X307923333Y-165594047D02*
X307923333Y-165403571D01*
X307923333Y-165403571D02*
X307970952Y-165308333D01*
X307970952Y-165308333D02*
X308018571Y-165260714D01*
X308018571Y-165260714D02*
X308113809Y-165213095D01*
X307542380Y-166641666D02*
X307542380Y-166451190D01*
X307542380Y-166451190D02*
X307590000Y-166355952D01*
X307590000Y-166355952D02*
X307637619Y-166308333D01*
X307637619Y-166308333D02*
X307780476Y-166213095D01*
X307780476Y-166213095D02*
X307970952Y-166165476D01*
X307970952Y-166165476D02*
X308351904Y-166165476D01*
X308351904Y-166165476D02*
X308447142Y-166213095D01*
X308447142Y-166213095D02*
X308494761Y-166260714D01*
X308494761Y-166260714D02*
X308542380Y-166355952D01*
X308542380Y-166355952D02*
X308542380Y-166546428D01*
X308542380Y-166546428D02*
X308494761Y-166641666D01*
X308494761Y-166641666D02*
X308447142Y-166689285D01*
X308447142Y-166689285D02*
X308351904Y-166736904D01*
X308351904Y-166736904D02*
X308113809Y-166736904D01*
X308113809Y-166736904D02*
X308018571Y-166689285D01*
X308018571Y-166689285D02*
X307970952Y-166641666D01*
X307970952Y-166641666D02*
X307923333Y-166546428D01*
X307923333Y-166546428D02*
X307923333Y-166355952D01*
X307923333Y-166355952D02*
X307970952Y-166260714D01*
X307970952Y-166260714D02*
X308018571Y-166213095D01*
X308018571Y-166213095D02*
X308113809Y-166165476D01*
%TO.C,D49*%
X189479880Y-145210714D02*
X188479880Y-145210714D01*
X188479880Y-145210714D02*
X188479880Y-145448809D01*
X188479880Y-145448809D02*
X188527500Y-145591666D01*
X188527500Y-145591666D02*
X188622738Y-145686904D01*
X188622738Y-145686904D02*
X188717976Y-145734523D01*
X188717976Y-145734523D02*
X188908452Y-145782142D01*
X188908452Y-145782142D02*
X189051309Y-145782142D01*
X189051309Y-145782142D02*
X189241785Y-145734523D01*
X189241785Y-145734523D02*
X189337023Y-145686904D01*
X189337023Y-145686904D02*
X189432261Y-145591666D01*
X189432261Y-145591666D02*
X189479880Y-145448809D01*
X189479880Y-145448809D02*
X189479880Y-145210714D01*
X188813214Y-146639285D02*
X189479880Y-146639285D01*
X188432261Y-146401190D02*
X189146547Y-146163095D01*
X189146547Y-146163095D02*
X189146547Y-146782142D01*
X189479880Y-147210714D02*
X189479880Y-147401190D01*
X189479880Y-147401190D02*
X189432261Y-147496428D01*
X189432261Y-147496428D02*
X189384642Y-147544047D01*
X189384642Y-147544047D02*
X189241785Y-147639285D01*
X189241785Y-147639285D02*
X189051309Y-147686904D01*
X189051309Y-147686904D02*
X188670357Y-147686904D01*
X188670357Y-147686904D02*
X188575119Y-147639285D01*
X188575119Y-147639285D02*
X188527500Y-147591666D01*
X188527500Y-147591666D02*
X188479880Y-147496428D01*
X188479880Y-147496428D02*
X188479880Y-147305952D01*
X188479880Y-147305952D02*
X188527500Y-147210714D01*
X188527500Y-147210714D02*
X188575119Y-147163095D01*
X188575119Y-147163095D02*
X188670357Y-147115476D01*
X188670357Y-147115476D02*
X188908452Y-147115476D01*
X188908452Y-147115476D02*
X189003690Y-147163095D01*
X189003690Y-147163095D02*
X189051309Y-147210714D01*
X189051309Y-147210714D02*
X189098928Y-147305952D01*
X189098928Y-147305952D02*
X189098928Y-147496428D01*
X189098928Y-147496428D02*
X189051309Y-147591666D01*
X189051309Y-147591666D02*
X189003690Y-147639285D01*
X189003690Y-147639285D02*
X188908452Y-147686904D01*
%TO.C,D62*%
X222817380Y-164260714D02*
X221817380Y-164260714D01*
X221817380Y-164260714D02*
X221817380Y-164498809D01*
X221817380Y-164498809D02*
X221865000Y-164641666D01*
X221865000Y-164641666D02*
X221960238Y-164736904D01*
X221960238Y-164736904D02*
X222055476Y-164784523D01*
X222055476Y-164784523D02*
X222245952Y-164832142D01*
X222245952Y-164832142D02*
X222388809Y-164832142D01*
X222388809Y-164832142D02*
X222579285Y-164784523D01*
X222579285Y-164784523D02*
X222674523Y-164736904D01*
X222674523Y-164736904D02*
X222769761Y-164641666D01*
X222769761Y-164641666D02*
X222817380Y-164498809D01*
X222817380Y-164498809D02*
X222817380Y-164260714D01*
X221817380Y-165689285D02*
X221817380Y-165498809D01*
X221817380Y-165498809D02*
X221865000Y-165403571D01*
X221865000Y-165403571D02*
X221912619Y-165355952D01*
X221912619Y-165355952D02*
X222055476Y-165260714D01*
X222055476Y-165260714D02*
X222245952Y-165213095D01*
X222245952Y-165213095D02*
X222626904Y-165213095D01*
X222626904Y-165213095D02*
X222722142Y-165260714D01*
X222722142Y-165260714D02*
X222769761Y-165308333D01*
X222769761Y-165308333D02*
X222817380Y-165403571D01*
X222817380Y-165403571D02*
X222817380Y-165594047D01*
X222817380Y-165594047D02*
X222769761Y-165689285D01*
X222769761Y-165689285D02*
X222722142Y-165736904D01*
X222722142Y-165736904D02*
X222626904Y-165784523D01*
X222626904Y-165784523D02*
X222388809Y-165784523D01*
X222388809Y-165784523D02*
X222293571Y-165736904D01*
X222293571Y-165736904D02*
X222245952Y-165689285D01*
X222245952Y-165689285D02*
X222198333Y-165594047D01*
X222198333Y-165594047D02*
X222198333Y-165403571D01*
X222198333Y-165403571D02*
X222245952Y-165308333D01*
X222245952Y-165308333D02*
X222293571Y-165260714D01*
X222293571Y-165260714D02*
X222388809Y-165213095D01*
X221912619Y-166165476D02*
X221865000Y-166213095D01*
X221865000Y-166213095D02*
X221817380Y-166308333D01*
X221817380Y-166308333D02*
X221817380Y-166546428D01*
X221817380Y-166546428D02*
X221865000Y-166641666D01*
X221865000Y-166641666D02*
X221912619Y-166689285D01*
X221912619Y-166689285D02*
X222007857Y-166736904D01*
X222007857Y-166736904D02*
X222103095Y-166736904D01*
X222103095Y-166736904D02*
X222245952Y-166689285D01*
X222245952Y-166689285D02*
X222817380Y-166117857D01*
X222817380Y-166117857D02*
X222817380Y-166736904D01*
%TO.C,D36*%
X160904880Y-126160714D02*
X159904880Y-126160714D01*
X159904880Y-126160714D02*
X159904880Y-126398809D01*
X159904880Y-126398809D02*
X159952500Y-126541666D01*
X159952500Y-126541666D02*
X160047738Y-126636904D01*
X160047738Y-126636904D02*
X160142976Y-126684523D01*
X160142976Y-126684523D02*
X160333452Y-126732142D01*
X160333452Y-126732142D02*
X160476309Y-126732142D01*
X160476309Y-126732142D02*
X160666785Y-126684523D01*
X160666785Y-126684523D02*
X160762023Y-126636904D01*
X160762023Y-126636904D02*
X160857261Y-126541666D01*
X160857261Y-126541666D02*
X160904880Y-126398809D01*
X160904880Y-126398809D02*
X160904880Y-126160714D01*
X159904880Y-127065476D02*
X159904880Y-127684523D01*
X159904880Y-127684523D02*
X160285833Y-127351190D01*
X160285833Y-127351190D02*
X160285833Y-127494047D01*
X160285833Y-127494047D02*
X160333452Y-127589285D01*
X160333452Y-127589285D02*
X160381071Y-127636904D01*
X160381071Y-127636904D02*
X160476309Y-127684523D01*
X160476309Y-127684523D02*
X160714404Y-127684523D01*
X160714404Y-127684523D02*
X160809642Y-127636904D01*
X160809642Y-127636904D02*
X160857261Y-127589285D01*
X160857261Y-127589285D02*
X160904880Y-127494047D01*
X160904880Y-127494047D02*
X160904880Y-127208333D01*
X160904880Y-127208333D02*
X160857261Y-127113095D01*
X160857261Y-127113095D02*
X160809642Y-127065476D01*
X159904880Y-128541666D02*
X159904880Y-128351190D01*
X159904880Y-128351190D02*
X159952500Y-128255952D01*
X159952500Y-128255952D02*
X160000119Y-128208333D01*
X160000119Y-128208333D02*
X160142976Y-128113095D01*
X160142976Y-128113095D02*
X160333452Y-128065476D01*
X160333452Y-128065476D02*
X160714404Y-128065476D01*
X160714404Y-128065476D02*
X160809642Y-128113095D01*
X160809642Y-128113095D02*
X160857261Y-128160714D01*
X160857261Y-128160714D02*
X160904880Y-128255952D01*
X160904880Y-128255952D02*
X160904880Y-128446428D01*
X160904880Y-128446428D02*
X160857261Y-128541666D01*
X160857261Y-128541666D02*
X160809642Y-128589285D01*
X160809642Y-128589285D02*
X160714404Y-128636904D01*
X160714404Y-128636904D02*
X160476309Y-128636904D01*
X160476309Y-128636904D02*
X160381071Y-128589285D01*
X160381071Y-128589285D02*
X160333452Y-128541666D01*
X160333452Y-128541666D02*
X160285833Y-128446428D01*
X160285833Y-128446428D02*
X160285833Y-128255952D01*
X160285833Y-128255952D02*
X160333452Y-128160714D01*
X160333452Y-128160714D02*
X160381071Y-128113095D01*
X160381071Y-128113095D02*
X160476309Y-128065476D01*
%TO.C,D64*%
X260917380Y-164260714D02*
X259917380Y-164260714D01*
X259917380Y-164260714D02*
X259917380Y-164498809D01*
X259917380Y-164498809D02*
X259965000Y-164641666D01*
X259965000Y-164641666D02*
X260060238Y-164736904D01*
X260060238Y-164736904D02*
X260155476Y-164784523D01*
X260155476Y-164784523D02*
X260345952Y-164832142D01*
X260345952Y-164832142D02*
X260488809Y-164832142D01*
X260488809Y-164832142D02*
X260679285Y-164784523D01*
X260679285Y-164784523D02*
X260774523Y-164736904D01*
X260774523Y-164736904D02*
X260869761Y-164641666D01*
X260869761Y-164641666D02*
X260917380Y-164498809D01*
X260917380Y-164498809D02*
X260917380Y-164260714D01*
X259917380Y-165689285D02*
X259917380Y-165498809D01*
X259917380Y-165498809D02*
X259965000Y-165403571D01*
X259965000Y-165403571D02*
X260012619Y-165355952D01*
X260012619Y-165355952D02*
X260155476Y-165260714D01*
X260155476Y-165260714D02*
X260345952Y-165213095D01*
X260345952Y-165213095D02*
X260726904Y-165213095D01*
X260726904Y-165213095D02*
X260822142Y-165260714D01*
X260822142Y-165260714D02*
X260869761Y-165308333D01*
X260869761Y-165308333D02*
X260917380Y-165403571D01*
X260917380Y-165403571D02*
X260917380Y-165594047D01*
X260917380Y-165594047D02*
X260869761Y-165689285D01*
X260869761Y-165689285D02*
X260822142Y-165736904D01*
X260822142Y-165736904D02*
X260726904Y-165784523D01*
X260726904Y-165784523D02*
X260488809Y-165784523D01*
X260488809Y-165784523D02*
X260393571Y-165736904D01*
X260393571Y-165736904D02*
X260345952Y-165689285D01*
X260345952Y-165689285D02*
X260298333Y-165594047D01*
X260298333Y-165594047D02*
X260298333Y-165403571D01*
X260298333Y-165403571D02*
X260345952Y-165308333D01*
X260345952Y-165308333D02*
X260393571Y-165260714D01*
X260393571Y-165260714D02*
X260488809Y-165213095D01*
X260250714Y-166641666D02*
X260917380Y-166641666D01*
X259869761Y-166403571D02*
X260584047Y-166165476D01*
X260584047Y-166165476D02*
X260584047Y-166784523D01*
%TO.C,D20*%
X137092380Y-107110714D02*
X136092380Y-107110714D01*
X136092380Y-107110714D02*
X136092380Y-107348809D01*
X136092380Y-107348809D02*
X136140000Y-107491666D01*
X136140000Y-107491666D02*
X136235238Y-107586904D01*
X136235238Y-107586904D02*
X136330476Y-107634523D01*
X136330476Y-107634523D02*
X136520952Y-107682142D01*
X136520952Y-107682142D02*
X136663809Y-107682142D01*
X136663809Y-107682142D02*
X136854285Y-107634523D01*
X136854285Y-107634523D02*
X136949523Y-107586904D01*
X136949523Y-107586904D02*
X137044761Y-107491666D01*
X137044761Y-107491666D02*
X137092380Y-107348809D01*
X137092380Y-107348809D02*
X137092380Y-107110714D01*
X136187619Y-108063095D02*
X136140000Y-108110714D01*
X136140000Y-108110714D02*
X136092380Y-108205952D01*
X136092380Y-108205952D02*
X136092380Y-108444047D01*
X136092380Y-108444047D02*
X136140000Y-108539285D01*
X136140000Y-108539285D02*
X136187619Y-108586904D01*
X136187619Y-108586904D02*
X136282857Y-108634523D01*
X136282857Y-108634523D02*
X136378095Y-108634523D01*
X136378095Y-108634523D02*
X136520952Y-108586904D01*
X136520952Y-108586904D02*
X137092380Y-108015476D01*
X137092380Y-108015476D02*
X137092380Y-108634523D01*
X136092380Y-109253571D02*
X136092380Y-109348809D01*
X136092380Y-109348809D02*
X136140000Y-109444047D01*
X136140000Y-109444047D02*
X136187619Y-109491666D01*
X136187619Y-109491666D02*
X136282857Y-109539285D01*
X136282857Y-109539285D02*
X136473333Y-109586904D01*
X136473333Y-109586904D02*
X136711428Y-109586904D01*
X136711428Y-109586904D02*
X136901904Y-109539285D01*
X136901904Y-109539285D02*
X136997142Y-109491666D01*
X136997142Y-109491666D02*
X137044761Y-109444047D01*
X137044761Y-109444047D02*
X137092380Y-109348809D01*
X137092380Y-109348809D02*
X137092380Y-109253571D01*
X137092380Y-109253571D02*
X137044761Y-109158333D01*
X137044761Y-109158333D02*
X136997142Y-109110714D01*
X136997142Y-109110714D02*
X136901904Y-109063095D01*
X136901904Y-109063095D02*
X136711428Y-109015476D01*
X136711428Y-109015476D02*
X136473333Y-109015476D01*
X136473333Y-109015476D02*
X136282857Y-109063095D01*
X136282857Y-109063095D02*
X136187619Y-109110714D01*
X136187619Y-109110714D02*
X136140000Y-109158333D01*
X136140000Y-109158333D02*
X136092380Y-109253571D01*
%TO.C,D39*%
X218054880Y-126160714D02*
X217054880Y-126160714D01*
X217054880Y-126160714D02*
X217054880Y-126398809D01*
X217054880Y-126398809D02*
X217102500Y-126541666D01*
X217102500Y-126541666D02*
X217197738Y-126636904D01*
X217197738Y-126636904D02*
X217292976Y-126684523D01*
X217292976Y-126684523D02*
X217483452Y-126732142D01*
X217483452Y-126732142D02*
X217626309Y-126732142D01*
X217626309Y-126732142D02*
X217816785Y-126684523D01*
X217816785Y-126684523D02*
X217912023Y-126636904D01*
X217912023Y-126636904D02*
X218007261Y-126541666D01*
X218007261Y-126541666D02*
X218054880Y-126398809D01*
X218054880Y-126398809D02*
X218054880Y-126160714D01*
X217054880Y-127065476D02*
X217054880Y-127684523D01*
X217054880Y-127684523D02*
X217435833Y-127351190D01*
X217435833Y-127351190D02*
X217435833Y-127494047D01*
X217435833Y-127494047D02*
X217483452Y-127589285D01*
X217483452Y-127589285D02*
X217531071Y-127636904D01*
X217531071Y-127636904D02*
X217626309Y-127684523D01*
X217626309Y-127684523D02*
X217864404Y-127684523D01*
X217864404Y-127684523D02*
X217959642Y-127636904D01*
X217959642Y-127636904D02*
X218007261Y-127589285D01*
X218007261Y-127589285D02*
X218054880Y-127494047D01*
X218054880Y-127494047D02*
X218054880Y-127208333D01*
X218054880Y-127208333D02*
X218007261Y-127113095D01*
X218007261Y-127113095D02*
X217959642Y-127065476D01*
X218054880Y-128160714D02*
X218054880Y-128351190D01*
X218054880Y-128351190D02*
X218007261Y-128446428D01*
X218007261Y-128446428D02*
X217959642Y-128494047D01*
X217959642Y-128494047D02*
X217816785Y-128589285D01*
X217816785Y-128589285D02*
X217626309Y-128636904D01*
X217626309Y-128636904D02*
X217245357Y-128636904D01*
X217245357Y-128636904D02*
X217150119Y-128589285D01*
X217150119Y-128589285D02*
X217102500Y-128541666D01*
X217102500Y-128541666D02*
X217054880Y-128446428D01*
X217054880Y-128446428D02*
X217054880Y-128255952D01*
X217054880Y-128255952D02*
X217102500Y-128160714D01*
X217102500Y-128160714D02*
X217150119Y-128113095D01*
X217150119Y-128113095D02*
X217245357Y-128065476D01*
X217245357Y-128065476D02*
X217483452Y-128065476D01*
X217483452Y-128065476D02*
X217578690Y-128113095D01*
X217578690Y-128113095D02*
X217626309Y-128160714D01*
X217626309Y-128160714D02*
X217673928Y-128255952D01*
X217673928Y-128255952D02*
X217673928Y-128446428D01*
X217673928Y-128446428D02*
X217626309Y-128541666D01*
X217626309Y-128541666D02*
X217578690Y-128589285D01*
X217578690Y-128589285D02*
X217483452Y-128636904D01*
%TO.C,D10*%
X246629880Y-83298214D02*
X245629880Y-83298214D01*
X245629880Y-83298214D02*
X245629880Y-83536309D01*
X245629880Y-83536309D02*
X245677500Y-83679166D01*
X245677500Y-83679166D02*
X245772738Y-83774404D01*
X245772738Y-83774404D02*
X245867976Y-83822023D01*
X245867976Y-83822023D02*
X246058452Y-83869642D01*
X246058452Y-83869642D02*
X246201309Y-83869642D01*
X246201309Y-83869642D02*
X246391785Y-83822023D01*
X246391785Y-83822023D02*
X246487023Y-83774404D01*
X246487023Y-83774404D02*
X246582261Y-83679166D01*
X246582261Y-83679166D02*
X246629880Y-83536309D01*
X246629880Y-83536309D02*
X246629880Y-83298214D01*
X246629880Y-84822023D02*
X246629880Y-84250595D01*
X246629880Y-84536309D02*
X245629880Y-84536309D01*
X245629880Y-84536309D02*
X245772738Y-84441071D01*
X245772738Y-84441071D02*
X245867976Y-84345833D01*
X245867976Y-84345833D02*
X245915595Y-84250595D01*
X245629880Y-85441071D02*
X245629880Y-85536309D01*
X245629880Y-85536309D02*
X245677500Y-85631547D01*
X245677500Y-85631547D02*
X245725119Y-85679166D01*
X245725119Y-85679166D02*
X245820357Y-85726785D01*
X245820357Y-85726785D02*
X246010833Y-85774404D01*
X246010833Y-85774404D02*
X246248928Y-85774404D01*
X246248928Y-85774404D02*
X246439404Y-85726785D01*
X246439404Y-85726785D02*
X246534642Y-85679166D01*
X246534642Y-85679166D02*
X246582261Y-85631547D01*
X246582261Y-85631547D02*
X246629880Y-85536309D01*
X246629880Y-85536309D02*
X246629880Y-85441071D01*
X246629880Y-85441071D02*
X246582261Y-85345833D01*
X246582261Y-85345833D02*
X246534642Y-85298214D01*
X246534642Y-85298214D02*
X246439404Y-85250595D01*
X246439404Y-85250595D02*
X246248928Y-85202976D01*
X246248928Y-85202976D02*
X246010833Y-85202976D01*
X246010833Y-85202976D02*
X245820357Y-85250595D01*
X245820357Y-85250595D02*
X245725119Y-85298214D01*
X245725119Y-85298214D02*
X245677500Y-85345833D01*
X245677500Y-85345833D02*
X245629880Y-85441071D01*
%TO.C,D47*%
X151379880Y-145210714D02*
X150379880Y-145210714D01*
X150379880Y-145210714D02*
X150379880Y-145448809D01*
X150379880Y-145448809D02*
X150427500Y-145591666D01*
X150427500Y-145591666D02*
X150522738Y-145686904D01*
X150522738Y-145686904D02*
X150617976Y-145734523D01*
X150617976Y-145734523D02*
X150808452Y-145782142D01*
X150808452Y-145782142D02*
X150951309Y-145782142D01*
X150951309Y-145782142D02*
X151141785Y-145734523D01*
X151141785Y-145734523D02*
X151237023Y-145686904D01*
X151237023Y-145686904D02*
X151332261Y-145591666D01*
X151332261Y-145591666D02*
X151379880Y-145448809D01*
X151379880Y-145448809D02*
X151379880Y-145210714D01*
X150713214Y-146639285D02*
X151379880Y-146639285D01*
X150332261Y-146401190D02*
X151046547Y-146163095D01*
X151046547Y-146163095D02*
X151046547Y-146782142D01*
X150379880Y-147067857D02*
X150379880Y-147734523D01*
X150379880Y-147734523D02*
X151379880Y-147305952D01*
%TO.C,D48*%
X170429880Y-145210714D02*
X169429880Y-145210714D01*
X169429880Y-145210714D02*
X169429880Y-145448809D01*
X169429880Y-145448809D02*
X169477500Y-145591666D01*
X169477500Y-145591666D02*
X169572738Y-145686904D01*
X169572738Y-145686904D02*
X169667976Y-145734523D01*
X169667976Y-145734523D02*
X169858452Y-145782142D01*
X169858452Y-145782142D02*
X170001309Y-145782142D01*
X170001309Y-145782142D02*
X170191785Y-145734523D01*
X170191785Y-145734523D02*
X170287023Y-145686904D01*
X170287023Y-145686904D02*
X170382261Y-145591666D01*
X170382261Y-145591666D02*
X170429880Y-145448809D01*
X170429880Y-145448809D02*
X170429880Y-145210714D01*
X169763214Y-146639285D02*
X170429880Y-146639285D01*
X169382261Y-146401190D02*
X170096547Y-146163095D01*
X170096547Y-146163095D02*
X170096547Y-146782142D01*
X169858452Y-147305952D02*
X169810833Y-147210714D01*
X169810833Y-147210714D02*
X169763214Y-147163095D01*
X169763214Y-147163095D02*
X169667976Y-147115476D01*
X169667976Y-147115476D02*
X169620357Y-147115476D01*
X169620357Y-147115476D02*
X169525119Y-147163095D01*
X169525119Y-147163095D02*
X169477500Y-147210714D01*
X169477500Y-147210714D02*
X169429880Y-147305952D01*
X169429880Y-147305952D02*
X169429880Y-147496428D01*
X169429880Y-147496428D02*
X169477500Y-147591666D01*
X169477500Y-147591666D02*
X169525119Y-147639285D01*
X169525119Y-147639285D02*
X169620357Y-147686904D01*
X169620357Y-147686904D02*
X169667976Y-147686904D01*
X169667976Y-147686904D02*
X169763214Y-147639285D01*
X169763214Y-147639285D02*
X169810833Y-147591666D01*
X169810833Y-147591666D02*
X169858452Y-147496428D01*
X169858452Y-147496428D02*
X169858452Y-147305952D01*
X169858452Y-147305952D02*
X169906071Y-147210714D01*
X169906071Y-147210714D02*
X169953690Y-147163095D01*
X169953690Y-147163095D02*
X170048928Y-147115476D01*
X170048928Y-147115476D02*
X170239404Y-147115476D01*
X170239404Y-147115476D02*
X170334642Y-147163095D01*
X170334642Y-147163095D02*
X170382261Y-147210714D01*
X170382261Y-147210714D02*
X170429880Y-147305952D01*
X170429880Y-147305952D02*
X170429880Y-147496428D01*
X170429880Y-147496428D02*
X170382261Y-147591666D01*
X170382261Y-147591666D02*
X170334642Y-147639285D01*
X170334642Y-147639285D02*
X170239404Y-147686904D01*
X170239404Y-147686904D02*
X170048928Y-147686904D01*
X170048928Y-147686904D02*
X169953690Y-147639285D01*
X169953690Y-147639285D02*
X169906071Y-147591666D01*
X169906071Y-147591666D02*
X169858452Y-147496428D01*
%TO.C,D13*%
X308542380Y-83298214D02*
X307542380Y-83298214D01*
X307542380Y-83298214D02*
X307542380Y-83536309D01*
X307542380Y-83536309D02*
X307590000Y-83679166D01*
X307590000Y-83679166D02*
X307685238Y-83774404D01*
X307685238Y-83774404D02*
X307780476Y-83822023D01*
X307780476Y-83822023D02*
X307970952Y-83869642D01*
X307970952Y-83869642D02*
X308113809Y-83869642D01*
X308113809Y-83869642D02*
X308304285Y-83822023D01*
X308304285Y-83822023D02*
X308399523Y-83774404D01*
X308399523Y-83774404D02*
X308494761Y-83679166D01*
X308494761Y-83679166D02*
X308542380Y-83536309D01*
X308542380Y-83536309D02*
X308542380Y-83298214D01*
X308542380Y-84822023D02*
X308542380Y-84250595D01*
X308542380Y-84536309D02*
X307542380Y-84536309D01*
X307542380Y-84536309D02*
X307685238Y-84441071D01*
X307685238Y-84441071D02*
X307780476Y-84345833D01*
X307780476Y-84345833D02*
X307828095Y-84250595D01*
X307542380Y-85155357D02*
X307542380Y-85774404D01*
X307542380Y-85774404D02*
X307923333Y-85441071D01*
X307923333Y-85441071D02*
X307923333Y-85583928D01*
X307923333Y-85583928D02*
X307970952Y-85679166D01*
X307970952Y-85679166D02*
X308018571Y-85726785D01*
X308018571Y-85726785D02*
X308113809Y-85774404D01*
X308113809Y-85774404D02*
X308351904Y-85774404D01*
X308351904Y-85774404D02*
X308447142Y-85726785D01*
X308447142Y-85726785D02*
X308494761Y-85679166D01*
X308494761Y-85679166D02*
X308542380Y-85583928D01*
X308542380Y-85583928D02*
X308542380Y-85298214D01*
X308542380Y-85298214D02*
X308494761Y-85202976D01*
X308494761Y-85202976D02*
X308447142Y-85155357D01*
%TO.C,D35*%
X141854880Y-126160714D02*
X140854880Y-126160714D01*
X140854880Y-126160714D02*
X140854880Y-126398809D01*
X140854880Y-126398809D02*
X140902500Y-126541666D01*
X140902500Y-126541666D02*
X140997738Y-126636904D01*
X140997738Y-126636904D02*
X141092976Y-126684523D01*
X141092976Y-126684523D02*
X141283452Y-126732142D01*
X141283452Y-126732142D02*
X141426309Y-126732142D01*
X141426309Y-126732142D02*
X141616785Y-126684523D01*
X141616785Y-126684523D02*
X141712023Y-126636904D01*
X141712023Y-126636904D02*
X141807261Y-126541666D01*
X141807261Y-126541666D02*
X141854880Y-126398809D01*
X141854880Y-126398809D02*
X141854880Y-126160714D01*
X140854880Y-127065476D02*
X140854880Y-127684523D01*
X140854880Y-127684523D02*
X141235833Y-127351190D01*
X141235833Y-127351190D02*
X141235833Y-127494047D01*
X141235833Y-127494047D02*
X141283452Y-127589285D01*
X141283452Y-127589285D02*
X141331071Y-127636904D01*
X141331071Y-127636904D02*
X141426309Y-127684523D01*
X141426309Y-127684523D02*
X141664404Y-127684523D01*
X141664404Y-127684523D02*
X141759642Y-127636904D01*
X141759642Y-127636904D02*
X141807261Y-127589285D01*
X141807261Y-127589285D02*
X141854880Y-127494047D01*
X141854880Y-127494047D02*
X141854880Y-127208333D01*
X141854880Y-127208333D02*
X141807261Y-127113095D01*
X141807261Y-127113095D02*
X141759642Y-127065476D01*
X140854880Y-128589285D02*
X140854880Y-128113095D01*
X140854880Y-128113095D02*
X141331071Y-128065476D01*
X141331071Y-128065476D02*
X141283452Y-128113095D01*
X141283452Y-128113095D02*
X141235833Y-128208333D01*
X141235833Y-128208333D02*
X141235833Y-128446428D01*
X141235833Y-128446428D02*
X141283452Y-128541666D01*
X141283452Y-128541666D02*
X141331071Y-128589285D01*
X141331071Y-128589285D02*
X141426309Y-128636904D01*
X141426309Y-128636904D02*
X141664404Y-128636904D01*
X141664404Y-128636904D02*
X141759642Y-128589285D01*
X141759642Y-128589285D02*
X141807261Y-128541666D01*
X141807261Y-128541666D02*
X141854880Y-128446428D01*
X141854880Y-128446428D02*
X141854880Y-128208333D01*
X141854880Y-128208333D02*
X141807261Y-128113095D01*
X141807261Y-128113095D02*
X141759642Y-128065476D01*
%TO.C,D22*%
X175192380Y-107110714D02*
X174192380Y-107110714D01*
X174192380Y-107110714D02*
X174192380Y-107348809D01*
X174192380Y-107348809D02*
X174240000Y-107491666D01*
X174240000Y-107491666D02*
X174335238Y-107586904D01*
X174335238Y-107586904D02*
X174430476Y-107634523D01*
X174430476Y-107634523D02*
X174620952Y-107682142D01*
X174620952Y-107682142D02*
X174763809Y-107682142D01*
X174763809Y-107682142D02*
X174954285Y-107634523D01*
X174954285Y-107634523D02*
X175049523Y-107586904D01*
X175049523Y-107586904D02*
X175144761Y-107491666D01*
X175144761Y-107491666D02*
X175192380Y-107348809D01*
X175192380Y-107348809D02*
X175192380Y-107110714D01*
X174287619Y-108063095D02*
X174240000Y-108110714D01*
X174240000Y-108110714D02*
X174192380Y-108205952D01*
X174192380Y-108205952D02*
X174192380Y-108444047D01*
X174192380Y-108444047D02*
X174240000Y-108539285D01*
X174240000Y-108539285D02*
X174287619Y-108586904D01*
X174287619Y-108586904D02*
X174382857Y-108634523D01*
X174382857Y-108634523D02*
X174478095Y-108634523D01*
X174478095Y-108634523D02*
X174620952Y-108586904D01*
X174620952Y-108586904D02*
X175192380Y-108015476D01*
X175192380Y-108015476D02*
X175192380Y-108634523D01*
X174287619Y-109015476D02*
X174240000Y-109063095D01*
X174240000Y-109063095D02*
X174192380Y-109158333D01*
X174192380Y-109158333D02*
X174192380Y-109396428D01*
X174192380Y-109396428D02*
X174240000Y-109491666D01*
X174240000Y-109491666D02*
X174287619Y-109539285D01*
X174287619Y-109539285D02*
X174382857Y-109586904D01*
X174382857Y-109586904D02*
X174478095Y-109586904D01*
X174478095Y-109586904D02*
X174620952Y-109539285D01*
X174620952Y-109539285D02*
X175192380Y-108967857D01*
X175192380Y-108967857D02*
X175192380Y-109586904D01*
%TO.C,D26*%
X251392380Y-107110714D02*
X250392380Y-107110714D01*
X250392380Y-107110714D02*
X250392380Y-107348809D01*
X250392380Y-107348809D02*
X250440000Y-107491666D01*
X250440000Y-107491666D02*
X250535238Y-107586904D01*
X250535238Y-107586904D02*
X250630476Y-107634523D01*
X250630476Y-107634523D02*
X250820952Y-107682142D01*
X250820952Y-107682142D02*
X250963809Y-107682142D01*
X250963809Y-107682142D02*
X251154285Y-107634523D01*
X251154285Y-107634523D02*
X251249523Y-107586904D01*
X251249523Y-107586904D02*
X251344761Y-107491666D01*
X251344761Y-107491666D02*
X251392380Y-107348809D01*
X251392380Y-107348809D02*
X251392380Y-107110714D01*
X250487619Y-108063095D02*
X250440000Y-108110714D01*
X250440000Y-108110714D02*
X250392380Y-108205952D01*
X250392380Y-108205952D02*
X250392380Y-108444047D01*
X250392380Y-108444047D02*
X250440000Y-108539285D01*
X250440000Y-108539285D02*
X250487619Y-108586904D01*
X250487619Y-108586904D02*
X250582857Y-108634523D01*
X250582857Y-108634523D02*
X250678095Y-108634523D01*
X250678095Y-108634523D02*
X250820952Y-108586904D01*
X250820952Y-108586904D02*
X251392380Y-108015476D01*
X251392380Y-108015476D02*
X251392380Y-108634523D01*
X250392380Y-109491666D02*
X250392380Y-109301190D01*
X250392380Y-109301190D02*
X250440000Y-109205952D01*
X250440000Y-109205952D02*
X250487619Y-109158333D01*
X250487619Y-109158333D02*
X250630476Y-109063095D01*
X250630476Y-109063095D02*
X250820952Y-109015476D01*
X250820952Y-109015476D02*
X251201904Y-109015476D01*
X251201904Y-109015476D02*
X251297142Y-109063095D01*
X251297142Y-109063095D02*
X251344761Y-109110714D01*
X251344761Y-109110714D02*
X251392380Y-109205952D01*
X251392380Y-109205952D02*
X251392380Y-109396428D01*
X251392380Y-109396428D02*
X251344761Y-109491666D01*
X251344761Y-109491666D02*
X251297142Y-109539285D01*
X251297142Y-109539285D02*
X251201904Y-109586904D01*
X251201904Y-109586904D02*
X250963809Y-109586904D01*
X250963809Y-109586904D02*
X250868571Y-109539285D01*
X250868571Y-109539285D02*
X250820952Y-109491666D01*
X250820952Y-109491666D02*
X250773333Y-109396428D01*
X250773333Y-109396428D02*
X250773333Y-109205952D01*
X250773333Y-109205952D02*
X250820952Y-109110714D01*
X250820952Y-109110714D02*
X250868571Y-109063095D01*
X250868571Y-109063095D02*
X250963809Y-109015476D01*
%TO.C,D30*%
X346642380Y-107110714D02*
X345642380Y-107110714D01*
X345642380Y-107110714D02*
X345642380Y-107348809D01*
X345642380Y-107348809D02*
X345690000Y-107491666D01*
X345690000Y-107491666D02*
X345785238Y-107586904D01*
X345785238Y-107586904D02*
X345880476Y-107634523D01*
X345880476Y-107634523D02*
X346070952Y-107682142D01*
X346070952Y-107682142D02*
X346213809Y-107682142D01*
X346213809Y-107682142D02*
X346404285Y-107634523D01*
X346404285Y-107634523D02*
X346499523Y-107586904D01*
X346499523Y-107586904D02*
X346594761Y-107491666D01*
X346594761Y-107491666D02*
X346642380Y-107348809D01*
X346642380Y-107348809D02*
X346642380Y-107110714D01*
X345642380Y-108015476D02*
X345642380Y-108634523D01*
X345642380Y-108634523D02*
X346023333Y-108301190D01*
X346023333Y-108301190D02*
X346023333Y-108444047D01*
X346023333Y-108444047D02*
X346070952Y-108539285D01*
X346070952Y-108539285D02*
X346118571Y-108586904D01*
X346118571Y-108586904D02*
X346213809Y-108634523D01*
X346213809Y-108634523D02*
X346451904Y-108634523D01*
X346451904Y-108634523D02*
X346547142Y-108586904D01*
X346547142Y-108586904D02*
X346594761Y-108539285D01*
X346594761Y-108539285D02*
X346642380Y-108444047D01*
X346642380Y-108444047D02*
X346642380Y-108158333D01*
X346642380Y-108158333D02*
X346594761Y-108063095D01*
X346594761Y-108063095D02*
X346547142Y-108015476D01*
X345642380Y-109253571D02*
X345642380Y-109348809D01*
X345642380Y-109348809D02*
X345690000Y-109444047D01*
X345690000Y-109444047D02*
X345737619Y-109491666D01*
X345737619Y-109491666D02*
X345832857Y-109539285D01*
X345832857Y-109539285D02*
X346023333Y-109586904D01*
X346023333Y-109586904D02*
X346261428Y-109586904D01*
X346261428Y-109586904D02*
X346451904Y-109539285D01*
X346451904Y-109539285D02*
X346547142Y-109491666D01*
X346547142Y-109491666D02*
X346594761Y-109444047D01*
X346594761Y-109444047D02*
X346642380Y-109348809D01*
X346642380Y-109348809D02*
X346642380Y-109253571D01*
X346642380Y-109253571D02*
X346594761Y-109158333D01*
X346594761Y-109158333D02*
X346547142Y-109110714D01*
X346547142Y-109110714D02*
X346451904Y-109063095D01*
X346451904Y-109063095D02*
X346261428Y-109015476D01*
X346261428Y-109015476D02*
X346023333Y-109015476D01*
X346023333Y-109015476D02*
X345832857Y-109063095D01*
X345832857Y-109063095D02*
X345737619Y-109110714D01*
X345737619Y-109110714D02*
X345690000Y-109158333D01*
X345690000Y-109158333D02*
X345642380Y-109253571D01*
%TO.C,D54*%
X284729880Y-145210714D02*
X283729880Y-145210714D01*
X283729880Y-145210714D02*
X283729880Y-145448809D01*
X283729880Y-145448809D02*
X283777500Y-145591666D01*
X283777500Y-145591666D02*
X283872738Y-145686904D01*
X283872738Y-145686904D02*
X283967976Y-145734523D01*
X283967976Y-145734523D02*
X284158452Y-145782142D01*
X284158452Y-145782142D02*
X284301309Y-145782142D01*
X284301309Y-145782142D02*
X284491785Y-145734523D01*
X284491785Y-145734523D02*
X284587023Y-145686904D01*
X284587023Y-145686904D02*
X284682261Y-145591666D01*
X284682261Y-145591666D02*
X284729880Y-145448809D01*
X284729880Y-145448809D02*
X284729880Y-145210714D01*
X283729880Y-146686904D02*
X283729880Y-146210714D01*
X283729880Y-146210714D02*
X284206071Y-146163095D01*
X284206071Y-146163095D02*
X284158452Y-146210714D01*
X284158452Y-146210714D02*
X284110833Y-146305952D01*
X284110833Y-146305952D02*
X284110833Y-146544047D01*
X284110833Y-146544047D02*
X284158452Y-146639285D01*
X284158452Y-146639285D02*
X284206071Y-146686904D01*
X284206071Y-146686904D02*
X284301309Y-146734523D01*
X284301309Y-146734523D02*
X284539404Y-146734523D01*
X284539404Y-146734523D02*
X284634642Y-146686904D01*
X284634642Y-146686904D02*
X284682261Y-146639285D01*
X284682261Y-146639285D02*
X284729880Y-146544047D01*
X284729880Y-146544047D02*
X284729880Y-146305952D01*
X284729880Y-146305952D02*
X284682261Y-146210714D01*
X284682261Y-146210714D02*
X284634642Y-146163095D01*
X284063214Y-147591666D02*
X284729880Y-147591666D01*
X283682261Y-147353571D02*
X284396547Y-147115476D01*
X284396547Y-147115476D02*
X284396547Y-147734523D01*
%TO.C,D11*%
X265679880Y-83298214D02*
X264679880Y-83298214D01*
X264679880Y-83298214D02*
X264679880Y-83536309D01*
X264679880Y-83536309D02*
X264727500Y-83679166D01*
X264727500Y-83679166D02*
X264822738Y-83774404D01*
X264822738Y-83774404D02*
X264917976Y-83822023D01*
X264917976Y-83822023D02*
X265108452Y-83869642D01*
X265108452Y-83869642D02*
X265251309Y-83869642D01*
X265251309Y-83869642D02*
X265441785Y-83822023D01*
X265441785Y-83822023D02*
X265537023Y-83774404D01*
X265537023Y-83774404D02*
X265632261Y-83679166D01*
X265632261Y-83679166D02*
X265679880Y-83536309D01*
X265679880Y-83536309D02*
X265679880Y-83298214D01*
X265679880Y-84822023D02*
X265679880Y-84250595D01*
X265679880Y-84536309D02*
X264679880Y-84536309D01*
X264679880Y-84536309D02*
X264822738Y-84441071D01*
X264822738Y-84441071D02*
X264917976Y-84345833D01*
X264917976Y-84345833D02*
X264965595Y-84250595D01*
X265679880Y-85774404D02*
X265679880Y-85202976D01*
X265679880Y-85488690D02*
X264679880Y-85488690D01*
X264679880Y-85488690D02*
X264822738Y-85393452D01*
X264822738Y-85393452D02*
X264917976Y-85298214D01*
X264917976Y-85298214D02*
X264965595Y-85202976D01*
%TO.C,D12*%
X284729880Y-83298214D02*
X283729880Y-83298214D01*
X283729880Y-83298214D02*
X283729880Y-83536309D01*
X283729880Y-83536309D02*
X283777500Y-83679166D01*
X283777500Y-83679166D02*
X283872738Y-83774404D01*
X283872738Y-83774404D02*
X283967976Y-83822023D01*
X283967976Y-83822023D02*
X284158452Y-83869642D01*
X284158452Y-83869642D02*
X284301309Y-83869642D01*
X284301309Y-83869642D02*
X284491785Y-83822023D01*
X284491785Y-83822023D02*
X284587023Y-83774404D01*
X284587023Y-83774404D02*
X284682261Y-83679166D01*
X284682261Y-83679166D02*
X284729880Y-83536309D01*
X284729880Y-83536309D02*
X284729880Y-83298214D01*
X284729880Y-84822023D02*
X284729880Y-84250595D01*
X284729880Y-84536309D02*
X283729880Y-84536309D01*
X283729880Y-84536309D02*
X283872738Y-84441071D01*
X283872738Y-84441071D02*
X283967976Y-84345833D01*
X283967976Y-84345833D02*
X284015595Y-84250595D01*
X283825119Y-85202976D02*
X283777500Y-85250595D01*
X283777500Y-85250595D02*
X283729880Y-85345833D01*
X283729880Y-85345833D02*
X283729880Y-85583928D01*
X283729880Y-85583928D02*
X283777500Y-85679166D01*
X283777500Y-85679166D02*
X283825119Y-85726785D01*
X283825119Y-85726785D02*
X283920357Y-85774404D01*
X283920357Y-85774404D02*
X284015595Y-85774404D01*
X284015595Y-85774404D02*
X284158452Y-85726785D01*
X284158452Y-85726785D02*
X284729880Y-85155357D01*
X284729880Y-85155357D02*
X284729880Y-85774404D01*
%TO.C,D9*%
X222817380Y-83774405D02*
X221817380Y-83774405D01*
X221817380Y-83774405D02*
X221817380Y-84012500D01*
X221817380Y-84012500D02*
X221865000Y-84155357D01*
X221865000Y-84155357D02*
X221960238Y-84250595D01*
X221960238Y-84250595D02*
X222055476Y-84298214D01*
X222055476Y-84298214D02*
X222245952Y-84345833D01*
X222245952Y-84345833D02*
X222388809Y-84345833D01*
X222388809Y-84345833D02*
X222579285Y-84298214D01*
X222579285Y-84298214D02*
X222674523Y-84250595D01*
X222674523Y-84250595D02*
X222769761Y-84155357D01*
X222769761Y-84155357D02*
X222817380Y-84012500D01*
X222817380Y-84012500D02*
X222817380Y-83774405D01*
X222817380Y-84822024D02*
X222817380Y-85012500D01*
X222817380Y-85012500D02*
X222769761Y-85107738D01*
X222769761Y-85107738D02*
X222722142Y-85155357D01*
X222722142Y-85155357D02*
X222579285Y-85250595D01*
X222579285Y-85250595D02*
X222388809Y-85298214D01*
X222388809Y-85298214D02*
X222007857Y-85298214D01*
X222007857Y-85298214D02*
X221912619Y-85250595D01*
X221912619Y-85250595D02*
X221865000Y-85202976D01*
X221865000Y-85202976D02*
X221817380Y-85107738D01*
X221817380Y-85107738D02*
X221817380Y-84917262D01*
X221817380Y-84917262D02*
X221865000Y-84822024D01*
X221865000Y-84822024D02*
X221912619Y-84774405D01*
X221912619Y-84774405D02*
X222007857Y-84726786D01*
X222007857Y-84726786D02*
X222245952Y-84726786D01*
X222245952Y-84726786D02*
X222341190Y-84774405D01*
X222341190Y-84774405D02*
X222388809Y-84822024D01*
X222388809Y-84822024D02*
X222436428Y-84917262D01*
X222436428Y-84917262D02*
X222436428Y-85107738D01*
X222436428Y-85107738D02*
X222388809Y-85202976D01*
X222388809Y-85202976D02*
X222341190Y-85250595D01*
X222341190Y-85250595D02*
X222245952Y-85298214D01*
%TO.C,D27*%
X277586130Y-107110714D02*
X276586130Y-107110714D01*
X276586130Y-107110714D02*
X276586130Y-107348809D01*
X276586130Y-107348809D02*
X276633750Y-107491666D01*
X276633750Y-107491666D02*
X276728988Y-107586904D01*
X276728988Y-107586904D02*
X276824226Y-107634523D01*
X276824226Y-107634523D02*
X277014702Y-107682142D01*
X277014702Y-107682142D02*
X277157559Y-107682142D01*
X277157559Y-107682142D02*
X277348035Y-107634523D01*
X277348035Y-107634523D02*
X277443273Y-107586904D01*
X277443273Y-107586904D02*
X277538511Y-107491666D01*
X277538511Y-107491666D02*
X277586130Y-107348809D01*
X277586130Y-107348809D02*
X277586130Y-107110714D01*
X276681369Y-108063095D02*
X276633750Y-108110714D01*
X276633750Y-108110714D02*
X276586130Y-108205952D01*
X276586130Y-108205952D02*
X276586130Y-108444047D01*
X276586130Y-108444047D02*
X276633750Y-108539285D01*
X276633750Y-108539285D02*
X276681369Y-108586904D01*
X276681369Y-108586904D02*
X276776607Y-108634523D01*
X276776607Y-108634523D02*
X276871845Y-108634523D01*
X276871845Y-108634523D02*
X277014702Y-108586904D01*
X277014702Y-108586904D02*
X277586130Y-108015476D01*
X277586130Y-108015476D02*
X277586130Y-108634523D01*
X276586130Y-108967857D02*
X276586130Y-109634523D01*
X276586130Y-109634523D02*
X277586130Y-109205952D01*
%TO.C,D65*%
X282348630Y-164260714D02*
X281348630Y-164260714D01*
X281348630Y-164260714D02*
X281348630Y-164498809D01*
X281348630Y-164498809D02*
X281396250Y-164641666D01*
X281396250Y-164641666D02*
X281491488Y-164736904D01*
X281491488Y-164736904D02*
X281586726Y-164784523D01*
X281586726Y-164784523D02*
X281777202Y-164832142D01*
X281777202Y-164832142D02*
X281920059Y-164832142D01*
X281920059Y-164832142D02*
X282110535Y-164784523D01*
X282110535Y-164784523D02*
X282205773Y-164736904D01*
X282205773Y-164736904D02*
X282301011Y-164641666D01*
X282301011Y-164641666D02*
X282348630Y-164498809D01*
X282348630Y-164498809D02*
X282348630Y-164260714D01*
X281348630Y-165689285D02*
X281348630Y-165498809D01*
X281348630Y-165498809D02*
X281396250Y-165403571D01*
X281396250Y-165403571D02*
X281443869Y-165355952D01*
X281443869Y-165355952D02*
X281586726Y-165260714D01*
X281586726Y-165260714D02*
X281777202Y-165213095D01*
X281777202Y-165213095D02*
X282158154Y-165213095D01*
X282158154Y-165213095D02*
X282253392Y-165260714D01*
X282253392Y-165260714D02*
X282301011Y-165308333D01*
X282301011Y-165308333D02*
X282348630Y-165403571D01*
X282348630Y-165403571D02*
X282348630Y-165594047D01*
X282348630Y-165594047D02*
X282301011Y-165689285D01*
X282301011Y-165689285D02*
X282253392Y-165736904D01*
X282253392Y-165736904D02*
X282158154Y-165784523D01*
X282158154Y-165784523D02*
X281920059Y-165784523D01*
X281920059Y-165784523D02*
X281824821Y-165736904D01*
X281824821Y-165736904D02*
X281777202Y-165689285D01*
X281777202Y-165689285D02*
X281729583Y-165594047D01*
X281729583Y-165594047D02*
X281729583Y-165403571D01*
X281729583Y-165403571D02*
X281777202Y-165308333D01*
X281777202Y-165308333D02*
X281824821Y-165260714D01*
X281824821Y-165260714D02*
X281920059Y-165213095D01*
X281348630Y-166689285D02*
X281348630Y-166213095D01*
X281348630Y-166213095D02*
X281824821Y-166165476D01*
X281824821Y-166165476D02*
X281777202Y-166213095D01*
X281777202Y-166213095D02*
X281729583Y-166308333D01*
X281729583Y-166308333D02*
X281729583Y-166546428D01*
X281729583Y-166546428D02*
X281777202Y-166641666D01*
X281777202Y-166641666D02*
X281824821Y-166689285D01*
X281824821Y-166689285D02*
X281920059Y-166736904D01*
X281920059Y-166736904D02*
X282158154Y-166736904D01*
X282158154Y-166736904D02*
X282253392Y-166689285D01*
X282253392Y-166689285D02*
X282301011Y-166641666D01*
X282301011Y-166641666D02*
X282348630Y-166546428D01*
X282348630Y-166546428D02*
X282348630Y-166308333D01*
X282348630Y-166308333D02*
X282301011Y-166213095D01*
X282301011Y-166213095D02*
X282253392Y-166165476D01*
%TO.C,D38*%
X199004880Y-126160714D02*
X198004880Y-126160714D01*
X198004880Y-126160714D02*
X198004880Y-126398809D01*
X198004880Y-126398809D02*
X198052500Y-126541666D01*
X198052500Y-126541666D02*
X198147738Y-126636904D01*
X198147738Y-126636904D02*
X198242976Y-126684523D01*
X198242976Y-126684523D02*
X198433452Y-126732142D01*
X198433452Y-126732142D02*
X198576309Y-126732142D01*
X198576309Y-126732142D02*
X198766785Y-126684523D01*
X198766785Y-126684523D02*
X198862023Y-126636904D01*
X198862023Y-126636904D02*
X198957261Y-126541666D01*
X198957261Y-126541666D02*
X199004880Y-126398809D01*
X199004880Y-126398809D02*
X199004880Y-126160714D01*
X198004880Y-127065476D02*
X198004880Y-127684523D01*
X198004880Y-127684523D02*
X198385833Y-127351190D01*
X198385833Y-127351190D02*
X198385833Y-127494047D01*
X198385833Y-127494047D02*
X198433452Y-127589285D01*
X198433452Y-127589285D02*
X198481071Y-127636904D01*
X198481071Y-127636904D02*
X198576309Y-127684523D01*
X198576309Y-127684523D02*
X198814404Y-127684523D01*
X198814404Y-127684523D02*
X198909642Y-127636904D01*
X198909642Y-127636904D02*
X198957261Y-127589285D01*
X198957261Y-127589285D02*
X199004880Y-127494047D01*
X199004880Y-127494047D02*
X199004880Y-127208333D01*
X199004880Y-127208333D02*
X198957261Y-127113095D01*
X198957261Y-127113095D02*
X198909642Y-127065476D01*
X198433452Y-128255952D02*
X198385833Y-128160714D01*
X198385833Y-128160714D02*
X198338214Y-128113095D01*
X198338214Y-128113095D02*
X198242976Y-128065476D01*
X198242976Y-128065476D02*
X198195357Y-128065476D01*
X198195357Y-128065476D02*
X198100119Y-128113095D01*
X198100119Y-128113095D02*
X198052500Y-128160714D01*
X198052500Y-128160714D02*
X198004880Y-128255952D01*
X198004880Y-128255952D02*
X198004880Y-128446428D01*
X198004880Y-128446428D02*
X198052500Y-128541666D01*
X198052500Y-128541666D02*
X198100119Y-128589285D01*
X198100119Y-128589285D02*
X198195357Y-128636904D01*
X198195357Y-128636904D02*
X198242976Y-128636904D01*
X198242976Y-128636904D02*
X198338214Y-128589285D01*
X198338214Y-128589285D02*
X198385833Y-128541666D01*
X198385833Y-128541666D02*
X198433452Y-128446428D01*
X198433452Y-128446428D02*
X198433452Y-128255952D01*
X198433452Y-128255952D02*
X198481071Y-128160714D01*
X198481071Y-128160714D02*
X198528690Y-128113095D01*
X198528690Y-128113095D02*
X198623928Y-128065476D01*
X198623928Y-128065476D02*
X198814404Y-128065476D01*
X198814404Y-128065476D02*
X198909642Y-128113095D01*
X198909642Y-128113095D02*
X198957261Y-128160714D01*
X198957261Y-128160714D02*
X199004880Y-128255952D01*
X199004880Y-128255952D02*
X199004880Y-128446428D01*
X199004880Y-128446428D02*
X198957261Y-128541666D01*
X198957261Y-128541666D02*
X198909642Y-128589285D01*
X198909642Y-128589285D02*
X198814404Y-128636904D01*
X198814404Y-128636904D02*
X198623928Y-128636904D01*
X198623928Y-128636904D02*
X198528690Y-128589285D01*
X198528690Y-128589285D02*
X198481071Y-128541666D01*
X198481071Y-128541666D02*
X198433452Y-128446428D01*
%TO.C,D58*%
X110754880Y-164260714D02*
X109754880Y-164260714D01*
X109754880Y-164260714D02*
X109754880Y-164498809D01*
X109754880Y-164498809D02*
X109802500Y-164641666D01*
X109802500Y-164641666D02*
X109897738Y-164736904D01*
X109897738Y-164736904D02*
X109992976Y-164784523D01*
X109992976Y-164784523D02*
X110183452Y-164832142D01*
X110183452Y-164832142D02*
X110326309Y-164832142D01*
X110326309Y-164832142D02*
X110516785Y-164784523D01*
X110516785Y-164784523D02*
X110612023Y-164736904D01*
X110612023Y-164736904D02*
X110707261Y-164641666D01*
X110707261Y-164641666D02*
X110754880Y-164498809D01*
X110754880Y-164498809D02*
X110754880Y-164260714D01*
X109754880Y-165736904D02*
X109754880Y-165260714D01*
X109754880Y-165260714D02*
X110231071Y-165213095D01*
X110231071Y-165213095D02*
X110183452Y-165260714D01*
X110183452Y-165260714D02*
X110135833Y-165355952D01*
X110135833Y-165355952D02*
X110135833Y-165594047D01*
X110135833Y-165594047D02*
X110183452Y-165689285D01*
X110183452Y-165689285D02*
X110231071Y-165736904D01*
X110231071Y-165736904D02*
X110326309Y-165784523D01*
X110326309Y-165784523D02*
X110564404Y-165784523D01*
X110564404Y-165784523D02*
X110659642Y-165736904D01*
X110659642Y-165736904D02*
X110707261Y-165689285D01*
X110707261Y-165689285D02*
X110754880Y-165594047D01*
X110754880Y-165594047D02*
X110754880Y-165355952D01*
X110754880Y-165355952D02*
X110707261Y-165260714D01*
X110707261Y-165260714D02*
X110659642Y-165213095D01*
X110183452Y-166355952D02*
X110135833Y-166260714D01*
X110135833Y-166260714D02*
X110088214Y-166213095D01*
X110088214Y-166213095D02*
X109992976Y-166165476D01*
X109992976Y-166165476D02*
X109945357Y-166165476D01*
X109945357Y-166165476D02*
X109850119Y-166213095D01*
X109850119Y-166213095D02*
X109802500Y-166260714D01*
X109802500Y-166260714D02*
X109754880Y-166355952D01*
X109754880Y-166355952D02*
X109754880Y-166546428D01*
X109754880Y-166546428D02*
X109802500Y-166641666D01*
X109802500Y-166641666D02*
X109850119Y-166689285D01*
X109850119Y-166689285D02*
X109945357Y-166736904D01*
X109945357Y-166736904D02*
X109992976Y-166736904D01*
X109992976Y-166736904D02*
X110088214Y-166689285D01*
X110088214Y-166689285D02*
X110135833Y-166641666D01*
X110135833Y-166641666D02*
X110183452Y-166546428D01*
X110183452Y-166546428D02*
X110183452Y-166355952D01*
X110183452Y-166355952D02*
X110231071Y-166260714D01*
X110231071Y-166260714D02*
X110278690Y-166213095D01*
X110278690Y-166213095D02*
X110373928Y-166165476D01*
X110373928Y-166165476D02*
X110564404Y-166165476D01*
X110564404Y-166165476D02*
X110659642Y-166213095D01*
X110659642Y-166213095D02*
X110707261Y-166260714D01*
X110707261Y-166260714D02*
X110754880Y-166355952D01*
X110754880Y-166355952D02*
X110754880Y-166546428D01*
X110754880Y-166546428D02*
X110707261Y-166641666D01*
X110707261Y-166641666D02*
X110659642Y-166689285D01*
X110659642Y-166689285D02*
X110564404Y-166736904D01*
X110564404Y-166736904D02*
X110373928Y-166736904D01*
X110373928Y-166736904D02*
X110278690Y-166689285D01*
X110278690Y-166689285D02*
X110231071Y-166641666D01*
X110231071Y-166641666D02*
X110183452Y-166546428D01*
%TO.C,D45*%
X113279880Y-145210714D02*
X112279880Y-145210714D01*
X112279880Y-145210714D02*
X112279880Y-145448809D01*
X112279880Y-145448809D02*
X112327500Y-145591666D01*
X112327500Y-145591666D02*
X112422738Y-145686904D01*
X112422738Y-145686904D02*
X112517976Y-145734523D01*
X112517976Y-145734523D02*
X112708452Y-145782142D01*
X112708452Y-145782142D02*
X112851309Y-145782142D01*
X112851309Y-145782142D02*
X113041785Y-145734523D01*
X113041785Y-145734523D02*
X113137023Y-145686904D01*
X113137023Y-145686904D02*
X113232261Y-145591666D01*
X113232261Y-145591666D02*
X113279880Y-145448809D01*
X113279880Y-145448809D02*
X113279880Y-145210714D01*
X112613214Y-146639285D02*
X113279880Y-146639285D01*
X112232261Y-146401190D02*
X112946547Y-146163095D01*
X112946547Y-146163095D02*
X112946547Y-146782142D01*
X112279880Y-147639285D02*
X112279880Y-147163095D01*
X112279880Y-147163095D02*
X112756071Y-147115476D01*
X112756071Y-147115476D02*
X112708452Y-147163095D01*
X112708452Y-147163095D02*
X112660833Y-147258333D01*
X112660833Y-147258333D02*
X112660833Y-147496428D01*
X112660833Y-147496428D02*
X112708452Y-147591666D01*
X112708452Y-147591666D02*
X112756071Y-147639285D01*
X112756071Y-147639285D02*
X112851309Y-147686904D01*
X112851309Y-147686904D02*
X113089404Y-147686904D01*
X113089404Y-147686904D02*
X113184642Y-147639285D01*
X113184642Y-147639285D02*
X113232261Y-147591666D01*
X113232261Y-147591666D02*
X113279880Y-147496428D01*
X113279880Y-147496428D02*
X113279880Y-147258333D01*
X113279880Y-147258333D02*
X113232261Y-147163095D01*
X113232261Y-147163095D02*
X113184642Y-147115476D01*
%TO.C,D55*%
X327592380Y-145210714D02*
X326592380Y-145210714D01*
X326592380Y-145210714D02*
X326592380Y-145448809D01*
X326592380Y-145448809D02*
X326640000Y-145591666D01*
X326640000Y-145591666D02*
X326735238Y-145686904D01*
X326735238Y-145686904D02*
X326830476Y-145734523D01*
X326830476Y-145734523D02*
X327020952Y-145782142D01*
X327020952Y-145782142D02*
X327163809Y-145782142D01*
X327163809Y-145782142D02*
X327354285Y-145734523D01*
X327354285Y-145734523D02*
X327449523Y-145686904D01*
X327449523Y-145686904D02*
X327544761Y-145591666D01*
X327544761Y-145591666D02*
X327592380Y-145448809D01*
X327592380Y-145448809D02*
X327592380Y-145210714D01*
X326592380Y-146686904D02*
X326592380Y-146210714D01*
X326592380Y-146210714D02*
X327068571Y-146163095D01*
X327068571Y-146163095D02*
X327020952Y-146210714D01*
X327020952Y-146210714D02*
X326973333Y-146305952D01*
X326973333Y-146305952D02*
X326973333Y-146544047D01*
X326973333Y-146544047D02*
X327020952Y-146639285D01*
X327020952Y-146639285D02*
X327068571Y-146686904D01*
X327068571Y-146686904D02*
X327163809Y-146734523D01*
X327163809Y-146734523D02*
X327401904Y-146734523D01*
X327401904Y-146734523D02*
X327497142Y-146686904D01*
X327497142Y-146686904D02*
X327544761Y-146639285D01*
X327544761Y-146639285D02*
X327592380Y-146544047D01*
X327592380Y-146544047D02*
X327592380Y-146305952D01*
X327592380Y-146305952D02*
X327544761Y-146210714D01*
X327544761Y-146210714D02*
X327497142Y-146163095D01*
X326592380Y-147639285D02*
X326592380Y-147163095D01*
X326592380Y-147163095D02*
X327068571Y-147115476D01*
X327068571Y-147115476D02*
X327020952Y-147163095D01*
X327020952Y-147163095D02*
X326973333Y-147258333D01*
X326973333Y-147258333D02*
X326973333Y-147496428D01*
X326973333Y-147496428D02*
X327020952Y-147591666D01*
X327020952Y-147591666D02*
X327068571Y-147639285D01*
X327068571Y-147639285D02*
X327163809Y-147686904D01*
X327163809Y-147686904D02*
X327401904Y-147686904D01*
X327401904Y-147686904D02*
X327497142Y-147639285D01*
X327497142Y-147639285D02*
X327544761Y-147591666D01*
X327544761Y-147591666D02*
X327592380Y-147496428D01*
X327592380Y-147496428D02*
X327592380Y-147258333D01*
X327592380Y-147258333D02*
X327544761Y-147163095D01*
X327544761Y-147163095D02*
X327497142Y-147115476D01*
%TO.C,D29*%
X327592380Y-107110714D02*
X326592380Y-107110714D01*
X326592380Y-107110714D02*
X326592380Y-107348809D01*
X326592380Y-107348809D02*
X326640000Y-107491666D01*
X326640000Y-107491666D02*
X326735238Y-107586904D01*
X326735238Y-107586904D02*
X326830476Y-107634523D01*
X326830476Y-107634523D02*
X327020952Y-107682142D01*
X327020952Y-107682142D02*
X327163809Y-107682142D01*
X327163809Y-107682142D02*
X327354285Y-107634523D01*
X327354285Y-107634523D02*
X327449523Y-107586904D01*
X327449523Y-107586904D02*
X327544761Y-107491666D01*
X327544761Y-107491666D02*
X327592380Y-107348809D01*
X327592380Y-107348809D02*
X327592380Y-107110714D01*
X326687619Y-108063095D02*
X326640000Y-108110714D01*
X326640000Y-108110714D02*
X326592380Y-108205952D01*
X326592380Y-108205952D02*
X326592380Y-108444047D01*
X326592380Y-108444047D02*
X326640000Y-108539285D01*
X326640000Y-108539285D02*
X326687619Y-108586904D01*
X326687619Y-108586904D02*
X326782857Y-108634523D01*
X326782857Y-108634523D02*
X326878095Y-108634523D01*
X326878095Y-108634523D02*
X327020952Y-108586904D01*
X327020952Y-108586904D02*
X327592380Y-108015476D01*
X327592380Y-108015476D02*
X327592380Y-108634523D01*
X327592380Y-109110714D02*
X327592380Y-109301190D01*
X327592380Y-109301190D02*
X327544761Y-109396428D01*
X327544761Y-109396428D02*
X327497142Y-109444047D01*
X327497142Y-109444047D02*
X327354285Y-109539285D01*
X327354285Y-109539285D02*
X327163809Y-109586904D01*
X327163809Y-109586904D02*
X326782857Y-109586904D01*
X326782857Y-109586904D02*
X326687619Y-109539285D01*
X326687619Y-109539285D02*
X326640000Y-109491666D01*
X326640000Y-109491666D02*
X326592380Y-109396428D01*
X326592380Y-109396428D02*
X326592380Y-109205952D01*
X326592380Y-109205952D02*
X326640000Y-109110714D01*
X326640000Y-109110714D02*
X326687619Y-109063095D01*
X326687619Y-109063095D02*
X326782857Y-109015476D01*
X326782857Y-109015476D02*
X327020952Y-109015476D01*
X327020952Y-109015476D02*
X327116190Y-109063095D01*
X327116190Y-109063095D02*
X327163809Y-109110714D01*
X327163809Y-109110714D02*
X327211428Y-109205952D01*
X327211428Y-109205952D02*
X327211428Y-109396428D01*
X327211428Y-109396428D02*
X327163809Y-109491666D01*
X327163809Y-109491666D02*
X327116190Y-109539285D01*
X327116190Y-109539285D02*
X327020952Y-109586904D01*
%TO.C,D25*%
X232342380Y-107110714D02*
X231342380Y-107110714D01*
X231342380Y-107110714D02*
X231342380Y-107348809D01*
X231342380Y-107348809D02*
X231390000Y-107491666D01*
X231390000Y-107491666D02*
X231485238Y-107586904D01*
X231485238Y-107586904D02*
X231580476Y-107634523D01*
X231580476Y-107634523D02*
X231770952Y-107682142D01*
X231770952Y-107682142D02*
X231913809Y-107682142D01*
X231913809Y-107682142D02*
X232104285Y-107634523D01*
X232104285Y-107634523D02*
X232199523Y-107586904D01*
X232199523Y-107586904D02*
X232294761Y-107491666D01*
X232294761Y-107491666D02*
X232342380Y-107348809D01*
X232342380Y-107348809D02*
X232342380Y-107110714D01*
X231437619Y-108063095D02*
X231390000Y-108110714D01*
X231390000Y-108110714D02*
X231342380Y-108205952D01*
X231342380Y-108205952D02*
X231342380Y-108444047D01*
X231342380Y-108444047D02*
X231390000Y-108539285D01*
X231390000Y-108539285D02*
X231437619Y-108586904D01*
X231437619Y-108586904D02*
X231532857Y-108634523D01*
X231532857Y-108634523D02*
X231628095Y-108634523D01*
X231628095Y-108634523D02*
X231770952Y-108586904D01*
X231770952Y-108586904D02*
X232342380Y-108015476D01*
X232342380Y-108015476D02*
X232342380Y-108634523D01*
X231342380Y-109539285D02*
X231342380Y-109063095D01*
X231342380Y-109063095D02*
X231818571Y-109015476D01*
X231818571Y-109015476D02*
X231770952Y-109063095D01*
X231770952Y-109063095D02*
X231723333Y-109158333D01*
X231723333Y-109158333D02*
X231723333Y-109396428D01*
X231723333Y-109396428D02*
X231770952Y-109491666D01*
X231770952Y-109491666D02*
X231818571Y-109539285D01*
X231818571Y-109539285D02*
X231913809Y-109586904D01*
X231913809Y-109586904D02*
X232151904Y-109586904D01*
X232151904Y-109586904D02*
X232247142Y-109539285D01*
X232247142Y-109539285D02*
X232294761Y-109491666D01*
X232294761Y-109491666D02*
X232342380Y-109396428D01*
X232342380Y-109396428D02*
X232342380Y-109158333D01*
X232342380Y-109158333D02*
X232294761Y-109063095D01*
X232294761Y-109063095D02*
X232247142Y-109015476D01*
%TO.C,D28*%
X308542380Y-107110714D02*
X307542380Y-107110714D01*
X307542380Y-107110714D02*
X307542380Y-107348809D01*
X307542380Y-107348809D02*
X307590000Y-107491666D01*
X307590000Y-107491666D02*
X307685238Y-107586904D01*
X307685238Y-107586904D02*
X307780476Y-107634523D01*
X307780476Y-107634523D02*
X307970952Y-107682142D01*
X307970952Y-107682142D02*
X308113809Y-107682142D01*
X308113809Y-107682142D02*
X308304285Y-107634523D01*
X308304285Y-107634523D02*
X308399523Y-107586904D01*
X308399523Y-107586904D02*
X308494761Y-107491666D01*
X308494761Y-107491666D02*
X308542380Y-107348809D01*
X308542380Y-107348809D02*
X308542380Y-107110714D01*
X307637619Y-108063095D02*
X307590000Y-108110714D01*
X307590000Y-108110714D02*
X307542380Y-108205952D01*
X307542380Y-108205952D02*
X307542380Y-108444047D01*
X307542380Y-108444047D02*
X307590000Y-108539285D01*
X307590000Y-108539285D02*
X307637619Y-108586904D01*
X307637619Y-108586904D02*
X307732857Y-108634523D01*
X307732857Y-108634523D02*
X307828095Y-108634523D01*
X307828095Y-108634523D02*
X307970952Y-108586904D01*
X307970952Y-108586904D02*
X308542380Y-108015476D01*
X308542380Y-108015476D02*
X308542380Y-108634523D01*
X307970952Y-109205952D02*
X307923333Y-109110714D01*
X307923333Y-109110714D02*
X307875714Y-109063095D01*
X307875714Y-109063095D02*
X307780476Y-109015476D01*
X307780476Y-109015476D02*
X307732857Y-109015476D01*
X307732857Y-109015476D02*
X307637619Y-109063095D01*
X307637619Y-109063095D02*
X307590000Y-109110714D01*
X307590000Y-109110714D02*
X307542380Y-109205952D01*
X307542380Y-109205952D02*
X307542380Y-109396428D01*
X307542380Y-109396428D02*
X307590000Y-109491666D01*
X307590000Y-109491666D02*
X307637619Y-109539285D01*
X307637619Y-109539285D02*
X307732857Y-109586904D01*
X307732857Y-109586904D02*
X307780476Y-109586904D01*
X307780476Y-109586904D02*
X307875714Y-109539285D01*
X307875714Y-109539285D02*
X307923333Y-109491666D01*
X307923333Y-109491666D02*
X307970952Y-109396428D01*
X307970952Y-109396428D02*
X307970952Y-109205952D01*
X307970952Y-109205952D02*
X308018571Y-109110714D01*
X308018571Y-109110714D02*
X308066190Y-109063095D01*
X308066190Y-109063095D02*
X308161428Y-109015476D01*
X308161428Y-109015476D02*
X308351904Y-109015476D01*
X308351904Y-109015476D02*
X308447142Y-109063095D01*
X308447142Y-109063095D02*
X308494761Y-109110714D01*
X308494761Y-109110714D02*
X308542380Y-109205952D01*
X308542380Y-109205952D02*
X308542380Y-109396428D01*
X308542380Y-109396428D02*
X308494761Y-109491666D01*
X308494761Y-109491666D02*
X308447142Y-109539285D01*
X308447142Y-109539285D02*
X308351904Y-109586904D01*
X308351904Y-109586904D02*
X308161428Y-109586904D01*
X308161428Y-109586904D02*
X308066190Y-109539285D01*
X308066190Y-109539285D02*
X308018571Y-109491666D01*
X308018571Y-109491666D02*
X307970952Y-109396428D01*
D12*
%TO.C,R_Flash1*%
X87130000Y-125246359D02*
X87130000Y-125553641D01*
X86370000Y-125246359D02*
X86370000Y-125553641D01*
%TO.C,C_3V-Decoup3*%
X74852500Y-136752836D02*
X74852500Y-136537164D01*
X75572500Y-136752836D02*
X75572500Y-136537164D01*
%TO.C,C_3V-Decoup4*%
X68192836Y-143892500D02*
X67977164Y-143892500D01*
X68192836Y-143172500D02*
X67977164Y-143172500D01*
%TO.C,D14*%
X324225000Y-86872500D02*
X324225000Y-82862500D01*
X326225000Y-86872500D02*
X324225000Y-86872500D01*
X326225000Y-86872500D02*
X326225000Y-82862500D01*
%TO.C,D46*%
X128962500Y-148785000D02*
X128962500Y-144775000D01*
X130962500Y-148785000D02*
X128962500Y-148785000D01*
X130962500Y-148785000D02*
X130962500Y-144775000D01*
%TO.C,R_DATA2*%
X73392500Y-138361359D02*
X73392500Y-138668641D01*
X72632500Y-138361359D02*
X72632500Y-138668641D01*
%TO.C,D53*%
X262312500Y-148785000D02*
X262312500Y-144775000D01*
X264312500Y-148785000D02*
X262312500Y-148785000D01*
X264312500Y-148785000D02*
X264312500Y-144775000D01*
%TO.C,D23*%
X190875000Y-110685000D02*
X190875000Y-106675000D01*
X192875000Y-110685000D02*
X190875000Y-110685000D01*
X192875000Y-110685000D02*
X192875000Y-106675000D01*
%TO.C,C_3V-Decoup6*%
X79604664Y-142965000D02*
X79820336Y-142965000D01*
X79604664Y-143685000D02*
X79820336Y-143685000D01*
%TO.C,R_Crystal1*%
X74332500Y-154768641D02*
X74332500Y-154461359D01*
X75092500Y-154768641D02*
X75092500Y-154461359D01*
%TO.C,D16*%
X57525000Y-110685000D02*
X57525000Y-106675000D01*
X59525000Y-110685000D02*
X57525000Y-110685000D01*
X59525000Y-110685000D02*
X59525000Y-106675000D01*
%TO.C,D56*%
X59906250Y-167835000D02*
X59906250Y-163825000D01*
X61906250Y-167835000D02*
X59906250Y-167835000D01*
X61906250Y-167835000D02*
X61906250Y-163825000D01*
%TO.C,D68*%
X343275000Y-167835000D02*
X343275000Y-163825000D01*
X345275000Y-167835000D02*
X343275000Y-167835000D01*
X345275000Y-167835000D02*
X345275000Y-163825000D01*
%TO.C,D67*%
X324225000Y-167835000D02*
X324225000Y-163825000D01*
X326225000Y-167835000D02*
X324225000Y-167835000D01*
X326225000Y-167835000D02*
X326225000Y-163825000D01*
%TO.C,D7*%
X181350000Y-86872500D02*
X181350000Y-82862500D01*
X183350000Y-86872500D02*
X181350000Y-86872500D01*
X183350000Y-86872500D02*
X183350000Y-82862500D01*
%TO.C,C_3V-Decoup2*%
X70352500Y-140332836D02*
X70352500Y-140117164D01*
X71072500Y-140332836D02*
X71072500Y-140117164D01*
%TO.C,D51*%
X224212500Y-148785000D02*
X224212500Y-144775000D01*
X226212500Y-148785000D02*
X224212500Y-148785000D01*
X226212500Y-148785000D02*
X226212500Y-144775000D01*
%TO.C,Y1*%
X73812500Y-155825000D02*
X77812500Y-155825000D01*
X73812500Y-159125000D02*
X73812500Y-155825000D01*
%TO.C,D41*%
X252787500Y-129735000D02*
X252787500Y-125725000D01*
X254787500Y-129735000D02*
X252787500Y-129735000D01*
X254787500Y-129735000D02*
X254787500Y-125725000D01*
%TO.C,D34*%
X119437500Y-129735000D02*
X119437500Y-125725000D01*
X121437500Y-129735000D02*
X119437500Y-129735000D01*
X121437500Y-129735000D02*
X121437500Y-125725000D01*
%TO.C,C_LD2*%
X63057836Y-116810000D02*
X62842164Y-116810000D01*
X63057836Y-116090000D02*
X62842164Y-116090000D01*
%TO.C,D32*%
X81337500Y-129735000D02*
X81337500Y-125725000D01*
X83337500Y-129735000D02*
X81337500Y-129735000D01*
X83337500Y-129735000D02*
X83337500Y-125725000D01*
%TO.C,D59*%
X119437500Y-167835000D02*
X119437500Y-163825000D01*
X121437500Y-167835000D02*
X119437500Y-167835000D01*
X121437500Y-167835000D02*
X121437500Y-163825000D01*
%TO.C,D8*%
X200400000Y-86872500D02*
X200400000Y-82862500D01*
X202400000Y-86872500D02*
X200400000Y-86872500D01*
X202400000Y-86872500D02*
X202400000Y-82862500D01*
%TO.C,C_Crystal1*%
X79072500Y-157517164D02*
X79072500Y-157732836D01*
X78352500Y-157517164D02*
X78352500Y-157732836D01*
%TO.C,D57*%
X81337500Y-167835000D02*
X81337500Y-163825000D01*
X83337500Y-167835000D02*
X81337500Y-167835000D01*
X83337500Y-167835000D02*
X83337500Y-163825000D01*
%TO.C,D50*%
X205162500Y-148785000D02*
X205162500Y-144775000D01*
X207162500Y-148785000D02*
X205162500Y-148785000D01*
X207162500Y-148785000D02*
X207162500Y-144775000D01*
%TO.C,U2*%
X90032500Y-131800000D02*
X89772500Y-131800000D01*
X84842500Y-131800000D02*
X84842500Y-130125000D01*
X84582500Y-131800000D02*
X84842500Y-131800000D01*
X90032500Y-134525000D02*
X90032500Y-131800000D01*
X90032500Y-134525000D02*
X90032500Y-137250000D01*
X84582500Y-134525000D02*
X84582500Y-131800000D01*
X84582500Y-134525000D02*
X84582500Y-137250000D01*
X90032500Y-137250000D02*
X89772500Y-137250000D01*
X84582500Y-137250000D02*
X84842500Y-137250000D01*
%TO.C,D2*%
X81337500Y-86872500D02*
X81337500Y-82862500D01*
X83337500Y-86872500D02*
X81337500Y-86872500D01*
X83337500Y-86872500D02*
X83337500Y-82862500D01*
%TO.C,D40*%
X233737500Y-129735000D02*
X233737500Y-125725000D01*
X235737500Y-129735000D02*
X233737500Y-129735000D01*
X235737500Y-129735000D02*
X235737500Y-125725000D01*
%TO.C,C_1V-Decoup3*%
X72672500Y-154497164D02*
X72672500Y-154712836D01*
X71952500Y-154497164D02*
X71952500Y-154712836D01*
%TO.C,D5*%
X138487500Y-86872500D02*
X138487500Y-82862500D01*
X140487500Y-86872500D02*
X138487500Y-86872500D01*
X140487500Y-86872500D02*
X140487500Y-82862500D01*
%TO.C,C_Crystal2*%
X72552500Y-157652836D02*
X72552500Y-157437164D01*
X73272500Y-157652836D02*
X73272500Y-157437164D01*
%TO.C,D42*%
X276600000Y-129735000D02*
X276600000Y-125725000D01*
X278600000Y-129735000D02*
X276600000Y-129735000D01*
X278600000Y-129735000D02*
X278600000Y-125725000D01*
%TO.C,D19*%
X114675000Y-110685000D02*
X114675000Y-106675000D01*
X116675000Y-110685000D02*
X114675000Y-110685000D01*
X116675000Y-110685000D02*
X116675000Y-106675000D01*
%TO.C,U1*%
X78185000Y-150435000D02*
X78185000Y-149785000D01*
X77535000Y-150435000D02*
X78185000Y-150435000D01*
X77535000Y-143215000D02*
X78185000Y-143215000D01*
X71615000Y-150435000D02*
X70965000Y-150435000D01*
X71615000Y-143215000D02*
X70965000Y-143215000D01*
X70965000Y-150435000D02*
X70965000Y-149785000D01*
X70965000Y-143215000D02*
X70965000Y-143865000D01*
%TO.C,D6*%
X162300000Y-86872500D02*
X162300000Y-82862500D01*
X164300000Y-86872500D02*
X162300000Y-86872500D01*
X164300000Y-86872500D02*
X164300000Y-82862500D01*
%TO.C,D44*%
X90862500Y-148785000D02*
X90862500Y-144775000D01*
X92862500Y-148785000D02*
X90862500Y-148785000D01*
X92862500Y-148785000D02*
X92862500Y-144775000D01*
%TO.C,D63*%
X238500000Y-167835000D02*
X238500000Y-163825000D01*
X240500000Y-167835000D02*
X238500000Y-167835000D01*
X240500000Y-167835000D02*
X240500000Y-163825000D01*
%TO.C,D33*%
X100387500Y-129735000D02*
X100387500Y-125725000D01*
X102387500Y-129735000D02*
X100387500Y-129735000D01*
X102387500Y-129735000D02*
X102387500Y-125725000D01*
%TO.C,D24*%
X209925000Y-110685000D02*
X209925000Y-106675000D01*
X211925000Y-110685000D02*
X209925000Y-110685000D01*
X211925000Y-110685000D02*
X211925000Y-106675000D01*
%TO.C,C_3V-Decoup1*%
X63057836Y-117810000D02*
X62842164Y-117810000D01*
X63057836Y-117090000D02*
X62842164Y-117090000D01*
%TO.C,D52*%
X243262500Y-148785000D02*
X243262500Y-144775000D01*
X245262500Y-148785000D02*
X243262500Y-148785000D01*
X245262500Y-148785000D02*
X245262500Y-144775000D01*
%TO.C,D21*%
X152775000Y-110685000D02*
X152775000Y-106675000D01*
X154775000Y-110685000D02*
X152775000Y-110685000D01*
X154775000Y-110685000D02*
X154775000Y-106675000D01*
%TO.C,D15*%
X343275000Y-86872500D02*
X343275000Y-82862500D01*
X345275000Y-86872500D02*
X343275000Y-86872500D01*
X345275000Y-86872500D02*
X345275000Y-82862500D01*
%TO.C,D37*%
X176587500Y-129735000D02*
X176587500Y-125725000D01*
X178587500Y-129735000D02*
X176587500Y-129735000D01*
X178587500Y-129735000D02*
X178587500Y-125725000D01*
%TO.C,D61*%
X190875000Y-167835000D02*
X190875000Y-163825000D01*
X192875000Y-167835000D02*
X190875000Y-167835000D01*
X192875000Y-167835000D02*
X192875000Y-163825000D01*
%TO.C,D31*%
X59906250Y-129735000D02*
X59906250Y-125725000D01*
X61906250Y-129735000D02*
X59906250Y-129735000D01*
X61906250Y-129735000D02*
X61906250Y-125725000D01*
%TO.C,D60*%
X150393750Y-167835000D02*
X150393750Y-163825000D01*
X152393750Y-167835000D02*
X150393750Y-167835000D01*
X152393750Y-167835000D02*
X152393750Y-163825000D01*
%TO.C,D4*%
X119437500Y-86872500D02*
X119437500Y-82862500D01*
X121437500Y-86872500D02*
X119437500Y-86872500D01*
X121437500Y-86872500D02*
X121437500Y-82862500D01*
%TO.C,C_1V-Decoup2*%
X76252500Y-137552836D02*
X76252500Y-137337164D01*
X76972500Y-137552836D02*
X76972500Y-137337164D01*
%TO.C,D66*%
X305175000Y-167835000D02*
X305175000Y-163825000D01*
X307175000Y-167835000D02*
X305175000Y-167835000D01*
X307175000Y-167835000D02*
X307175000Y-163825000D01*
%TO.C,SW1*%
X86085000Y-123960000D02*
X86085000Y-123157530D01*
X87290000Y-123960000D02*
X86085000Y-123960000D01*
X87290000Y-123960000D02*
X87290000Y-123413471D01*
X88050000Y-123960000D02*
X88810000Y-123960000D01*
X88810000Y-123960000D02*
X88810000Y-122850000D01*
X86085000Y-122542470D02*
X86085000Y-121740000D01*
X87290000Y-122286529D02*
X87290000Y-121740000D01*
X87290000Y-121740000D02*
X86085000Y-121740000D01*
%TO.C,D49*%
X186112500Y-148785000D02*
X186112500Y-144775000D01*
X188112500Y-148785000D02*
X186112500Y-148785000D01*
X188112500Y-148785000D02*
X188112500Y-144775000D01*
%TO.C,D62*%
X219450000Y-167835000D02*
X219450000Y-163825000D01*
X221450000Y-167835000D02*
X219450000Y-167835000D01*
X221450000Y-167835000D02*
X221450000Y-163825000D01*
%TO.C,D36*%
X157537500Y-129735000D02*
X157537500Y-125725000D01*
X159537500Y-129735000D02*
X157537500Y-129735000D01*
X159537500Y-129735000D02*
X159537500Y-125725000D01*
%TO.C,D64*%
X257550000Y-167835000D02*
X257550000Y-163825000D01*
X259550000Y-167835000D02*
X257550000Y-167835000D01*
X259550000Y-167835000D02*
X259550000Y-163825000D01*
%TO.C,D20*%
X133725000Y-110685000D02*
X133725000Y-106675000D01*
X135725000Y-110685000D02*
X133725000Y-110685000D01*
X135725000Y-110685000D02*
X135725000Y-106675000D01*
%TO.C,C_LD1*%
X64037836Y-111710000D02*
X63822164Y-111710000D01*
X64037836Y-110990000D02*
X63822164Y-110990000D01*
%TO.C,D39*%
X214687500Y-129735000D02*
X214687500Y-125725000D01*
X216687500Y-129735000D02*
X214687500Y-129735000D01*
X216687500Y-129735000D02*
X216687500Y-125725000D01*
%TO.C,R_DATA1*%
X74492500Y-138361359D02*
X74492500Y-138668641D01*
X73732500Y-138361359D02*
X73732500Y-138668641D01*
%TO.C,D10*%
X243262500Y-86872500D02*
X243262500Y-82862500D01*
X245262500Y-86872500D02*
X243262500Y-86872500D01*
X245262500Y-86872500D02*
X245262500Y-82862500D01*
%TO.C,R_RST1*%
X49982500Y-133128641D02*
X49982500Y-132821359D01*
X50742500Y-133128641D02*
X50742500Y-132821359D01*
%TO.C,J2*%
X48842500Y-143440000D02*
X46182500Y-143440000D01*
X48842500Y-133220000D02*
X48842500Y-143440000D01*
X48842500Y-133220000D02*
X46182500Y-133220000D01*
X48842500Y-131950000D02*
X48842500Y-130620000D01*
X48842500Y-130620000D02*
X47512500Y-130620000D01*
X46182500Y-133220000D02*
X46182500Y-143440000D01*
%TO.C,D47*%
X148012500Y-148785000D02*
X148012500Y-144775000D01*
X150012500Y-148785000D02*
X148012500Y-148785000D01*
X150012500Y-148785000D02*
X150012500Y-144775000D01*
%TO.C,U3*%
X62840000Y-113850000D02*
X62840000Y-114500000D01*
X62840000Y-113850000D02*
X62840000Y-113200000D01*
X65960000Y-113850000D02*
X65960000Y-115525000D01*
X65960000Y-113850000D02*
X65960000Y-113200000D01*
%TO.C,D48*%
X167062500Y-148785000D02*
X167062500Y-144775000D01*
X169062500Y-148785000D02*
X167062500Y-148785000D01*
X169062500Y-148785000D02*
X169062500Y-144775000D01*
%TO.C,C_3V-Decoup7*%
X68192836Y-141892500D02*
X67977164Y-141892500D01*
X68192836Y-141172500D02*
X67977164Y-141172500D01*
%TO.C,D13*%
X305175000Y-86872500D02*
X305175000Y-82862500D01*
X307175000Y-86872500D02*
X305175000Y-86872500D01*
X307175000Y-86872500D02*
X307175000Y-82862500D01*
%TO.C,C_1V-Decoup1*%
X71552500Y-139232836D02*
X71552500Y-139017164D01*
X72272500Y-139232836D02*
X72272500Y-139017164D01*
%TO.C,D35*%
X138487500Y-129735000D02*
X138487500Y-125725000D01*
X140487500Y-129735000D02*
X138487500Y-129735000D01*
X140487500Y-129735000D02*
X140487500Y-125725000D01*
%TO.C,D17*%
X76575000Y-110685000D02*
X76575000Y-106675000D01*
X78575000Y-110685000D02*
X76575000Y-110685000D01*
X78575000Y-110685000D02*
X78575000Y-106675000D01*
%TO.C,D3*%
X100387500Y-86872500D02*
X100387500Y-82862500D01*
X102387500Y-86872500D02*
X100387500Y-86872500D01*
X102387500Y-86872500D02*
X102387500Y-82862500D01*
%TO.C,C_3V-Decoup9*%
X83428307Y-154069190D02*
X83580810Y-154221693D01*
X82919190Y-154578307D02*
X83071693Y-154730810D01*
%TO.C,D18*%
X95625000Y-110685000D02*
X95625000Y-106675000D01*
X97625000Y-110685000D02*
X95625000Y-110685000D01*
X97625000Y-110685000D02*
X97625000Y-106675000D01*
%TO.C,C_Flash1*%
X83252500Y-137752836D02*
X83252500Y-137537164D01*
X83972500Y-137752836D02*
X83972500Y-137537164D01*
%TO.C,D22*%
X171825000Y-110685000D02*
X171825000Y-106675000D01*
X173825000Y-110685000D02*
X171825000Y-110685000D01*
X173825000Y-110685000D02*
X173825000Y-106675000D01*
%TO.C,D26*%
X248025000Y-110685000D02*
X248025000Y-106675000D01*
X250025000Y-110685000D02*
X248025000Y-110685000D01*
X250025000Y-110685000D02*
X250025000Y-106675000D01*
%TO.C,D30*%
X343275000Y-110685000D02*
X343275000Y-106675000D01*
X345275000Y-110685000D02*
X343275000Y-110685000D01*
X345275000Y-110685000D02*
X345275000Y-106675000D01*
%TO.C,C_3V-Decoup8*%
X73872500Y-154497164D02*
X73872500Y-154712836D01*
X73152500Y-154497164D02*
X73152500Y-154712836D01*
%TO.C,D1*%
X57525000Y-86872500D02*
X57525000Y-82862500D01*
X59525000Y-86872500D02*
X57525000Y-86872500D01*
X59525000Y-86872500D02*
X59525000Y-82862500D01*
%TO.C,C_3V-Decoup5*%
X68192836Y-142892500D02*
X67977164Y-142892500D01*
X68192836Y-142172500D02*
X67977164Y-142172500D01*
%TO.C,D54*%
X281362500Y-148785000D02*
X281362500Y-144775000D01*
X283362500Y-148785000D02*
X281362500Y-148785000D01*
X283362500Y-148785000D02*
X283362500Y-144775000D01*
%TO.C,D11*%
X262312500Y-86872500D02*
X262312500Y-82862500D01*
X264312500Y-86872500D02*
X262312500Y-86872500D01*
X264312500Y-86872500D02*
X264312500Y-82862500D01*
%TO.C,D12*%
X281362500Y-86872500D02*
X281362500Y-82862500D01*
X283362500Y-86872500D02*
X281362500Y-86872500D01*
X283362500Y-86872500D02*
X283362500Y-82862500D01*
%TO.C,D9*%
X219450000Y-86872500D02*
X219450000Y-82862500D01*
X221450000Y-86872500D02*
X219450000Y-86872500D01*
X221450000Y-86872500D02*
X221450000Y-82862500D01*
%TO.C,D27*%
X274218750Y-110685000D02*
X274218750Y-106675000D01*
X276218750Y-110685000D02*
X274218750Y-110685000D01*
X276218750Y-110685000D02*
X276218750Y-106675000D01*
%TO.C,D65*%
X278981250Y-167835000D02*
X278981250Y-163825000D01*
X280981250Y-167835000D02*
X278981250Y-167835000D01*
X280981250Y-167835000D02*
X280981250Y-163825000D01*
%TO.C,D43*%
X64668750Y-148785000D02*
X64668750Y-144775000D01*
X66668750Y-148785000D02*
X64668750Y-148785000D01*
X66668750Y-148785000D02*
X66668750Y-144775000D01*
%TO.C,D38*%
X195637500Y-129735000D02*
X195637500Y-125725000D01*
X197637500Y-129735000D02*
X195637500Y-129735000D01*
X197637500Y-129735000D02*
X197637500Y-125725000D01*
%TO.C,D58*%
X107387500Y-167835000D02*
X107387500Y-163825000D01*
X109387500Y-167835000D02*
X107387500Y-167835000D01*
X109387500Y-167835000D02*
X109387500Y-163825000D01*
%TO.C,D45*%
X109912500Y-148785000D02*
X109912500Y-144775000D01*
X111912500Y-148785000D02*
X109912500Y-148785000D01*
X111912500Y-148785000D02*
X111912500Y-144775000D01*
%TO.C,D55*%
X324225000Y-148785000D02*
X324225000Y-144775000D01*
X326225000Y-148785000D02*
X324225000Y-148785000D01*
X326225000Y-148785000D02*
X326225000Y-144775000D01*
%TO.C,D29*%
X324225000Y-110685000D02*
X324225000Y-106675000D01*
X326225000Y-110685000D02*
X324225000Y-110685000D01*
X326225000Y-110685000D02*
X326225000Y-106675000D01*
%TO.C,D25*%
X228975000Y-110685000D02*
X228975000Y-106675000D01*
X230975000Y-110685000D02*
X228975000Y-110685000D01*
X230975000Y-110685000D02*
X230975000Y-106675000D01*
%TO.C,J1*%
X72627500Y-115015000D02*
X70127500Y-115015000D01*
X70127500Y-115015000D02*
X70127500Y-116065000D01*
X70127500Y-116065000D02*
X69137500Y-116065000D01*
X74597500Y-116185000D02*
X74597500Y-120065000D01*
X72627500Y-121235000D02*
X70127500Y-121235000D01*
X70127500Y-121235000D02*
X70127500Y-120185000D01*
%TO.C,D28*%
X305175000Y-110685000D02*
X305175000Y-106675000D01*
X307175000Y-110685000D02*
X305175000Y-110685000D01*
X307175000Y-110685000D02*
X307175000Y-106675000D01*
%TD*%
%LPC*%
D13*
%TO.C,MX60*%
X217350000Y-157220000D03*
X122100000Y-157220000D03*
D14*
X217350000Y-172460000D03*
X122100000Y-172460000D03*
D15*
X174805000Y-165475000D03*
X164645000Y-165475000D03*
D16*
X165915000Y-162935000D03*
D13*
X169725000Y-165475000D03*
D16*
X172265000Y-160395000D03*
%TD*%
D13*
%TO.C,MX61*%
X217350000Y-157220000D03*
X179250000Y-157220000D03*
D14*
X217350000Y-172460000D03*
X179250000Y-172460000D03*
D15*
X203380000Y-165475000D03*
X193220000Y-165475000D03*
D13*
X198300000Y-165475000D03*
D16*
X194490000Y-162935000D03*
X200840000Y-160395000D03*
%TD*%
D13*
%TO.C,MX60*%
X160200000Y-157220000D03*
X122100000Y-157220000D03*
D14*
X160200000Y-172460000D03*
X122100000Y-172460000D03*
D15*
X146230000Y-165475000D03*
X136070000Y-165475000D03*
D13*
X141150000Y-165475000D03*
D16*
X137340000Y-162935000D03*
X143690000Y-160395000D03*
%TD*%
D15*
%TO.C,MX58*%
X105748750Y-165475000D03*
X95588750Y-165475000D03*
D16*
X96858750Y-162935000D03*
D13*
X100668750Y-165475000D03*
D16*
X103208750Y-160395000D03*
%TD*%
D13*
%TO.C,MX60*%
X217343650Y-157220000D03*
X117343850Y-157220000D03*
D14*
X217343650Y-172460000D03*
X117343850Y-172460000D03*
D15*
X172423750Y-165475000D03*
X162263750Y-165475000D03*
D16*
X163533750Y-162935000D03*
D13*
X167343750Y-165475000D03*
D16*
X169883750Y-160395000D03*
%TD*%
D15*
%TO.C,MX20*%
X126545000Y-108325000D03*
D13*
X131625000Y-108325000D03*
D15*
X136705000Y-108325000D03*
D16*
X127815000Y-105785000D03*
X134165000Y-103245000D03*
%TD*%
D15*
%TO.C,MX23*%
X183695000Y-108325000D03*
D13*
X188775000Y-108325000D03*
D15*
X193855000Y-108325000D03*
D16*
X184965000Y-105785000D03*
X191315000Y-103245000D03*
%TD*%
D15*
%TO.C,MX27*%
X267038750Y-108325000D03*
D13*
X272118750Y-108325000D03*
D15*
X277198750Y-108325000D03*
D16*
X268308750Y-105785000D03*
X274658750Y-103245000D03*
%TD*%
D15*
%TO.C,MX36*%
X150357500Y-127375000D03*
D13*
X155437500Y-127375000D03*
D15*
X160517500Y-127375000D03*
D16*
X151627500Y-124835000D03*
X157977500Y-122295000D03*
%TD*%
D15*
%TO.C,MX53*%
X255132500Y-146425000D03*
D13*
X260212500Y-146425000D03*
D15*
X265292500Y-146425000D03*
D16*
X256402500Y-143885000D03*
X262752500Y-141345000D03*
%TD*%
D15*
%TO.C,MX49*%
X178932500Y-146425000D03*
D13*
X184012500Y-146425000D03*
D15*
X189092500Y-146425000D03*
D16*
X180202500Y-143885000D03*
X186552500Y-141345000D03*
%TD*%
D15*
%TO.C,MX10*%
X236082500Y-84512500D03*
D13*
X241162500Y-84512500D03*
D15*
X246242500Y-84512500D03*
D16*
X237352500Y-81972500D03*
X243702500Y-79432500D03*
%TD*%
D15*
%TO.C,MX6*%
X155120000Y-84512500D03*
D13*
X160200000Y-84512500D03*
D15*
X165280000Y-84512500D03*
D16*
X156390000Y-81972500D03*
X162740000Y-79432500D03*
%TD*%
D15*
%TO.C,MX32*%
X74157500Y-127375000D03*
D13*
X79237500Y-127375000D03*
D15*
X84317500Y-127375000D03*
D16*
X75427500Y-124835000D03*
X81777500Y-122295000D03*
%TD*%
D15*
%TO.C,MX24*%
X202745000Y-108325000D03*
D13*
X207825000Y-108325000D03*
D15*
X212905000Y-108325000D03*
D16*
X204015000Y-105785000D03*
X210365000Y-103245000D03*
%TD*%
D15*
%TO.C,MX65*%
X271801250Y-165475000D03*
D13*
X276881250Y-165475000D03*
D15*
X281961250Y-165475000D03*
D16*
X273071250Y-162935000D03*
X279421250Y-160395000D03*
%TD*%
D15*
%TO.C,MX19*%
X107495000Y-108325000D03*
D13*
X112575000Y-108325000D03*
D15*
X117655000Y-108325000D03*
D16*
X108765000Y-105785000D03*
X115115000Y-103245000D03*
%TD*%
D15*
%TO.C,MX17*%
X69395000Y-108325000D03*
D13*
X74475000Y-108325000D03*
D15*
X79555000Y-108325000D03*
D16*
X70665000Y-105785000D03*
X77015000Y-103245000D03*
%TD*%
D15*
%TO.C,MX21*%
X145595000Y-108325000D03*
D13*
X150675000Y-108325000D03*
D15*
X155755000Y-108325000D03*
D16*
X146865000Y-105785000D03*
X153215000Y-103245000D03*
%TD*%
D15*
%TO.C,MX44*%
X83682500Y-146425000D03*
D13*
X88762500Y-146425000D03*
D15*
X93842500Y-146425000D03*
D16*
X84952500Y-143885000D03*
X91302500Y-141345000D03*
%TD*%
D15*
%TO.C,MX5*%
X131307500Y-84512500D03*
D13*
X136387500Y-84512500D03*
D15*
X141467500Y-84512500D03*
D16*
X132577500Y-81972500D03*
X138927500Y-79432500D03*
%TD*%
D15*
%TO.C,MX47*%
X140832500Y-146425000D03*
D13*
X145912500Y-146425000D03*
D15*
X150992500Y-146425000D03*
D16*
X142102500Y-143885000D03*
X148452500Y-141345000D03*
%TD*%
D15*
%TO.C,MX56*%
X52726250Y-165475000D03*
D13*
X57806250Y-165475000D03*
D15*
X62886250Y-165475000D03*
D16*
X53996250Y-162935000D03*
X60346250Y-160395000D03*
%TD*%
D15*
%TO.C,MX45*%
X102732500Y-146425000D03*
D13*
X107812500Y-146425000D03*
D15*
X112892500Y-146425000D03*
D16*
X104002500Y-143885000D03*
X110352500Y-141345000D03*
%TD*%
D15*
%TO.C,MX64*%
X250370000Y-165475000D03*
D13*
X255450000Y-165475000D03*
D15*
X260530000Y-165475000D03*
D16*
X251640000Y-162935000D03*
X257990000Y-160395000D03*
%TD*%
D15*
%TO.C,MX41*%
X245607500Y-127375000D03*
D13*
X250687500Y-127375000D03*
D15*
X255767500Y-127375000D03*
D16*
X246877500Y-124835000D03*
X253227500Y-122295000D03*
%TD*%
D15*
%TO.C,MX13*%
X297995000Y-84512500D03*
D13*
X303075000Y-84512500D03*
D15*
X308155000Y-84512500D03*
D16*
X299265000Y-81972500D03*
X305615000Y-79432500D03*
%TD*%
D15*
%TO.C,MX57*%
X74157500Y-165475000D03*
D13*
X79237500Y-165475000D03*
D15*
X84317500Y-165475000D03*
D16*
X75427500Y-162935000D03*
X81777500Y-160395000D03*
%TD*%
D13*
%TO.C,MX61*%
X176868750Y-157220000D03*
D14*
X176868750Y-172460000D03*
D15*
X183695000Y-165475000D03*
D13*
X188775000Y-165475000D03*
D15*
X193855000Y-165475000D03*
D13*
X200681250Y-157220000D03*
D14*
X200681250Y-172460000D03*
D16*
X184965000Y-162935000D03*
X191315000Y-160395000D03*
%TD*%
D15*
%TO.C,MX67*%
X317045000Y-165475000D03*
D13*
X322125000Y-165475000D03*
D15*
X327205000Y-165475000D03*
D16*
X318315000Y-162935000D03*
X324665000Y-160395000D03*
%TD*%
D15*
%TO.C,MX39*%
X207507500Y-127375000D03*
D13*
X212587500Y-127375000D03*
D15*
X217667500Y-127375000D03*
D16*
X208777500Y-124835000D03*
X215127500Y-122295000D03*
%TD*%
D15*
%TO.C,MX1*%
X50345000Y-84512500D03*
D13*
X55425000Y-84512500D03*
D15*
X60505000Y-84512500D03*
D16*
X51615000Y-81972500D03*
X57965000Y-79432500D03*
%TD*%
D15*
%TO.C,MX12*%
X274182500Y-84512500D03*
D13*
X279262500Y-84512500D03*
D15*
X284342500Y-84512500D03*
D16*
X275452500Y-81972500D03*
X281802500Y-79432500D03*
%TD*%
D15*
%TO.C,MX7*%
X174170000Y-84512500D03*
D13*
X179250000Y-84512500D03*
D15*
X184330000Y-84512500D03*
D16*
X175440000Y-81972500D03*
X181790000Y-79432500D03*
%TD*%
D15*
%TO.C,MX2*%
X74157500Y-84512500D03*
D13*
X79237500Y-84512500D03*
D15*
X84317500Y-84512500D03*
D16*
X75427500Y-81972500D03*
X81777500Y-79432500D03*
%TD*%
D15*
%TO.C,MX48*%
X159882500Y-146425000D03*
D13*
X164962500Y-146425000D03*
D15*
X170042500Y-146425000D03*
D16*
X161152500Y-143885000D03*
X167502500Y-141345000D03*
%TD*%
D15*
%TO.C,MX3*%
X93207500Y-84512500D03*
D13*
X98287500Y-84512500D03*
D15*
X103367500Y-84512500D03*
D16*
X94477500Y-81972500D03*
X100827500Y-79432500D03*
%TD*%
D15*
%TO.C,MX18*%
X88445000Y-108325000D03*
D13*
X93525000Y-108325000D03*
D15*
X98605000Y-108325000D03*
D16*
X89715000Y-105785000D03*
X96065000Y-103245000D03*
%TD*%
D15*
%TO.C,MX58*%
X93207500Y-165475000D03*
D13*
X98287500Y-165475000D03*
D15*
X103367500Y-165475000D03*
D16*
X94477500Y-162935000D03*
X100827500Y-160395000D03*
%TD*%
D15*
%TO.C,MX40*%
X226557500Y-127375000D03*
D13*
X231637500Y-127375000D03*
D15*
X236717500Y-127375000D03*
D16*
X227827500Y-124835000D03*
X234177500Y-122295000D03*
%TD*%
D15*
%TO.C,MX35*%
X131307500Y-127375000D03*
D13*
X136387500Y-127375000D03*
D15*
X141467500Y-127375000D03*
D16*
X132577500Y-124835000D03*
X138927500Y-122295000D03*
%TD*%
D15*
%TO.C,MX28*%
X297995000Y-108325000D03*
D13*
X303075000Y-108325000D03*
D15*
X308155000Y-108325000D03*
D16*
X299265000Y-105785000D03*
X305615000Y-103245000D03*
%TD*%
D15*
%TO.C,MX25*%
X221795000Y-108325000D03*
D13*
X226875000Y-108325000D03*
D15*
X231955000Y-108325000D03*
D16*
X223065000Y-105785000D03*
X229415000Y-103245000D03*
%TD*%
D15*
%TO.C,MX54*%
X274182500Y-146425000D03*
D13*
X279262500Y-146425000D03*
D15*
X284342500Y-146425000D03*
D16*
X275452500Y-143885000D03*
X281802500Y-141345000D03*
%TD*%
D15*
%TO.C,MX46*%
X121782500Y-146425000D03*
D13*
X126862500Y-146425000D03*
D15*
X131942500Y-146425000D03*
D16*
X123052500Y-143885000D03*
X129402500Y-141345000D03*
%TD*%
D15*
%TO.C,MX15*%
X336095000Y-84512500D03*
D13*
X341175000Y-84512500D03*
D15*
X346255000Y-84512500D03*
D16*
X337365000Y-81972500D03*
X343715000Y-79432500D03*
%TD*%
D15*
%TO.C,MX59*%
X112257500Y-165475000D03*
D13*
X117337500Y-165475000D03*
D15*
X122417500Y-165475000D03*
D16*
X113527500Y-162935000D03*
X119877500Y-160395000D03*
%TD*%
D15*
%TO.C,MX63*%
X231320000Y-165475000D03*
D13*
X236400000Y-165475000D03*
D15*
X241480000Y-165475000D03*
D16*
X232590000Y-162935000D03*
X238940000Y-160395000D03*
%TD*%
D15*
%TO.C,MX11*%
X255132500Y-84512500D03*
D13*
X260212500Y-84512500D03*
D15*
X265292500Y-84512500D03*
D16*
X256402500Y-81972500D03*
X262752500Y-79432500D03*
%TD*%
D15*
%TO.C,MX22*%
X164645000Y-108325000D03*
D13*
X169725000Y-108325000D03*
D15*
X174805000Y-108325000D03*
D16*
X165915000Y-105785000D03*
X172265000Y-103245000D03*
%TD*%
D15*
%TO.C,MX29*%
X317045000Y-108325000D03*
D13*
X322125000Y-108325000D03*
D15*
X327205000Y-108325000D03*
D16*
X318315000Y-105785000D03*
X324665000Y-103245000D03*
%TD*%
D15*
%TO.C,MX14*%
X317045000Y-84512500D03*
D13*
X322125000Y-84512500D03*
D15*
X327205000Y-84512500D03*
D16*
X318315000Y-81972500D03*
X324665000Y-79432500D03*
%TD*%
D15*
%TO.C,MX30*%
X336095000Y-108325000D03*
D13*
X341175000Y-108325000D03*
D15*
X346255000Y-108325000D03*
D16*
X337365000Y-105785000D03*
X343715000Y-103245000D03*
%TD*%
D15*
%TO.C,MX16*%
X50345000Y-108325000D03*
D13*
X55425000Y-108325000D03*
D15*
X60505000Y-108325000D03*
D16*
X51615000Y-105785000D03*
X57965000Y-103245000D03*
%TD*%
D15*
%TO.C,MX9*%
X212270000Y-84512500D03*
D13*
X217350000Y-84512500D03*
D15*
X222430000Y-84512500D03*
D16*
X213540000Y-81972500D03*
X219890000Y-79432500D03*
%TD*%
D15*
%TO.C,MX68*%
X336095000Y-165475000D03*
D13*
X341175000Y-165475000D03*
D15*
X346255000Y-165475000D03*
D16*
X337365000Y-162935000D03*
X343715000Y-160395000D03*
%TD*%
D15*
%TO.C,MX66*%
X297995000Y-165475000D03*
D13*
X303075000Y-165475000D03*
D15*
X308155000Y-165475000D03*
D16*
X299265000Y-162935000D03*
X305615000Y-160395000D03*
%TD*%
D15*
%TO.C,MX62*%
X212270000Y-165475000D03*
D13*
X217350000Y-165475000D03*
D15*
X222430000Y-165475000D03*
D16*
X213540000Y-162935000D03*
X219890000Y-160395000D03*
%TD*%
D15*
%TO.C,MX31*%
X52726250Y-127375000D03*
D13*
X57806250Y-127375000D03*
D15*
X62886250Y-127375000D03*
D16*
X53996250Y-124835000D03*
X60346250Y-122295000D03*
%TD*%
D15*
%TO.C,MX26*%
X240845000Y-108325000D03*
D13*
X245925000Y-108325000D03*
D15*
X251005000Y-108325000D03*
D16*
X242115000Y-105785000D03*
X248465000Y-103245000D03*
%TD*%
D15*
%TO.C,MX55*%
X317045000Y-146425000D03*
D13*
X322125000Y-146425000D03*
D15*
X327205000Y-146425000D03*
D16*
X318315000Y-143885000D03*
X324665000Y-141345000D03*
%TD*%
D15*
%TO.C,MX33*%
X93207500Y-127375000D03*
D13*
X98287500Y-127375000D03*
D15*
X103367500Y-127375000D03*
D16*
X94477500Y-124835000D03*
X100827500Y-122295000D03*
%TD*%
D15*
%TO.C,MX38*%
X188457500Y-127375000D03*
D13*
X193537500Y-127375000D03*
D15*
X198617500Y-127375000D03*
D16*
X189727500Y-124835000D03*
X196077500Y-122295000D03*
%TD*%
D15*
%TO.C,MX37*%
X169407500Y-127375000D03*
D13*
X174487500Y-127375000D03*
D15*
X179567500Y-127375000D03*
D16*
X170677500Y-124835000D03*
X177027500Y-122295000D03*
%TD*%
D15*
%TO.C,MX52*%
X236082500Y-146425000D03*
D13*
X241162500Y-146425000D03*
D15*
X246242500Y-146425000D03*
D16*
X237352500Y-143885000D03*
X243702500Y-141345000D03*
%TD*%
D15*
%TO.C,MX34*%
X112257500Y-127375000D03*
D13*
X117337500Y-127375000D03*
D15*
X122417500Y-127375000D03*
D16*
X113527500Y-124835000D03*
X119877500Y-122295000D03*
%TD*%
D15*
%TO.C,MX51*%
X217032500Y-146425000D03*
D13*
X222112500Y-146425000D03*
D15*
X227192500Y-146425000D03*
D16*
X218302500Y-143885000D03*
X224652500Y-141345000D03*
%TD*%
D13*
%TO.C,MX60*%
X136387500Y-157220000D03*
D14*
X136387500Y-172460000D03*
D15*
X143213750Y-165475000D03*
D13*
X148293750Y-165475000D03*
D15*
X153373750Y-165475000D03*
D13*
X160200000Y-157220000D03*
D14*
X160200000Y-172460000D03*
D16*
X144483750Y-162935000D03*
X150833750Y-160395000D03*
%TD*%
D15*
%TO.C,MX4*%
X112257500Y-84512500D03*
D13*
X117337500Y-84512500D03*
D15*
X122417500Y-84512500D03*
D16*
X113527500Y-81972500D03*
X119877500Y-79432500D03*
%TD*%
D15*
%TO.C,MX50*%
X197982500Y-146425000D03*
D13*
X203062500Y-146425000D03*
D15*
X208142500Y-146425000D03*
D16*
X199252500Y-143885000D03*
X205602500Y-141345000D03*
%TD*%
D15*
%TO.C,MX42*%
X269420000Y-127375000D03*
D13*
X274500000Y-127375000D03*
D15*
X279580000Y-127375000D03*
D16*
X270690000Y-124835000D03*
X277040000Y-122295000D03*
%TD*%
D15*
%TO.C,MX43*%
X57488750Y-146425000D03*
D13*
X62568750Y-146425000D03*
D15*
X67648750Y-146425000D03*
D16*
X58758750Y-143885000D03*
X65108750Y-141345000D03*
%TD*%
D15*
%TO.C,MX8*%
X193220000Y-84512500D03*
D13*
X198300000Y-84512500D03*
D15*
X203380000Y-84512500D03*
D16*
X194490000Y-81972500D03*
X200840000Y-79432500D03*
%TD*%
D17*
%TO.C,R_Flash1*%
X86750000Y-124890000D03*
X86750000Y-125910000D03*
%TD*%
D18*
%TO.C,C_3V-Decoup3*%
X75212500Y-137125000D03*
X75212500Y-136165000D03*
%TD*%
D19*
%TO.C,C_3V-Decoup4*%
X68565000Y-143532500D03*
X67605000Y-143532500D03*
%TD*%
D20*
%TO.C,D14*%
X325225000Y-86162500D03*
X325225000Y-82862500D03*
%TD*%
%TO.C,D46*%
X129962500Y-148075000D03*
X129962500Y-144775000D03*
%TD*%
D17*
%TO.C,R_DATA2*%
X73012500Y-138005000D03*
X73012500Y-139025000D03*
%TD*%
D20*
%TO.C,D53*%
X263312500Y-148075000D03*
X263312500Y-144775000D03*
%TD*%
%TO.C,D23*%
X191875000Y-109975000D03*
X191875000Y-106675000D03*
%TD*%
D21*
%TO.C,C_3V-Decoup6*%
X79232500Y-143325000D03*
X80192500Y-143325000D03*
%TD*%
D22*
%TO.C,R_Crystal1*%
X74712500Y-155125000D03*
X74712500Y-154105000D03*
%TD*%
D20*
%TO.C,D16*%
X58525000Y-109975000D03*
X58525000Y-106675000D03*
%TD*%
%TO.C,D56*%
X60906250Y-167125000D03*
X60906250Y-163825000D03*
%TD*%
%TO.C,D68*%
X344275000Y-167125000D03*
X344275000Y-163825000D03*
%TD*%
%TO.C,D67*%
X325225000Y-167125000D03*
X325225000Y-163825000D03*
%TD*%
%TO.C,D7*%
X182350000Y-86162500D03*
X182350000Y-82862500D03*
%TD*%
D18*
%TO.C,C_3V-Decoup2*%
X70712500Y-140705000D03*
X70712500Y-139745000D03*
%TD*%
D20*
%TO.C,D51*%
X225212500Y-148075000D03*
X225212500Y-144775000D03*
%TD*%
D23*
%TO.C,Y1*%
X74712499Y-156624999D03*
X76912499Y-156624999D03*
X76912499Y-158324999D03*
X74712499Y-158324999D03*
%TD*%
D20*
%TO.C,D41*%
X253787500Y-129025000D03*
X253787500Y-125725000D03*
%TD*%
%TO.C,D34*%
X120437500Y-129025000D03*
X120437500Y-125725000D03*
%TD*%
D19*
%TO.C,C_LD2*%
X63430000Y-116450000D03*
X62470000Y-116450000D03*
%TD*%
D20*
%TO.C,D32*%
X82337500Y-129025000D03*
X82337500Y-125725000D03*
%TD*%
%TO.C,D59*%
X120437500Y-167125000D03*
X120437500Y-163825000D03*
%TD*%
%TO.C,D8*%
X201400000Y-86162500D03*
X201400000Y-82862500D03*
%TD*%
D24*
%TO.C,C_Crystal1*%
X78712500Y-157145000D03*
X78712500Y-158105000D03*
%TD*%
D20*
%TO.C,D57*%
X82337500Y-167125000D03*
X82337500Y-163825000D03*
%TD*%
%TO.C,D50*%
X206162500Y-148075000D03*
X206162500Y-144775000D03*
%TD*%
D25*
%TO.C,U2*%
X85402500Y-130925000D03*
X86672500Y-130925000D03*
X87942500Y-130925000D03*
X89212500Y-130925000D03*
X89212500Y-138125000D03*
X87942500Y-138125000D03*
X86672500Y-138125000D03*
X85402500Y-138125000D03*
%TD*%
D20*
%TO.C,D2*%
X82337500Y-86162500D03*
X82337500Y-82862500D03*
%TD*%
%TO.C,D40*%
X234737500Y-129025000D03*
X234737500Y-125725000D03*
%TD*%
D24*
%TO.C,C_1V-Decoup3*%
X72312500Y-154125000D03*
X72312500Y-155085000D03*
%TD*%
D20*
%TO.C,D5*%
X139487500Y-86162500D03*
X139487500Y-82862500D03*
%TD*%
D18*
%TO.C,C_Crystal2*%
X72912500Y-158025000D03*
X72912500Y-157065000D03*
%TD*%
D20*
%TO.C,D42*%
X277600000Y-129025000D03*
X277600000Y-125725000D03*
%TD*%
%TO.C,D19*%
X115675000Y-109975000D03*
X115675000Y-106675000D03*
%TD*%
D26*
%TO.C,U1*%
X78012500Y-144225000D03*
X78012500Y-144625000D03*
X78012500Y-145025000D03*
X78012500Y-145425000D03*
X78012500Y-145825000D03*
X78012500Y-146225000D03*
X78012500Y-146625000D03*
X78012500Y-147025000D03*
X78012500Y-147425000D03*
X78012500Y-147825000D03*
X78012500Y-148225000D03*
X78012500Y-148625000D03*
X78012500Y-149025000D03*
X78012500Y-149425000D03*
D27*
X77175000Y-150262500D03*
X76775000Y-150262500D03*
X76375000Y-150262500D03*
X75975000Y-150262500D03*
X75575000Y-150262500D03*
X75175000Y-150262500D03*
X74775000Y-150262500D03*
X74375000Y-150262500D03*
X73975000Y-150262500D03*
X73575000Y-150262500D03*
X73175000Y-150262500D03*
X72775000Y-150262500D03*
X72375000Y-150262500D03*
X71975000Y-150262500D03*
D26*
X71137500Y-149425000D03*
X71137500Y-149025000D03*
X71137500Y-148625000D03*
X71137500Y-148225000D03*
X71137500Y-147825000D03*
X71137500Y-147425000D03*
X71137500Y-147025000D03*
X71137500Y-146625000D03*
X71137500Y-146225000D03*
X71137500Y-145825000D03*
X71137500Y-145425000D03*
X71137500Y-145025000D03*
X71137500Y-144625000D03*
X71137500Y-144225000D03*
D27*
X71975000Y-143387500D03*
X72375000Y-143387500D03*
X72775000Y-143387500D03*
X73175000Y-143387500D03*
X73575000Y-143387500D03*
X73975000Y-143387500D03*
X74375000Y-143387500D03*
X74775000Y-143387500D03*
X75175000Y-143387500D03*
X75575000Y-143387500D03*
X75975000Y-143387500D03*
X76375000Y-143387500D03*
X76775000Y-143387500D03*
X77175000Y-143387500D03*
D28*
X74575000Y-146825000D03*
%TD*%
D20*
%TO.C,D6*%
X163300000Y-86162500D03*
X163300000Y-82862500D03*
%TD*%
%TO.C,D44*%
X91862500Y-148075000D03*
X91862500Y-144775000D03*
%TD*%
%TO.C,D63*%
X239500000Y-167125000D03*
X239500000Y-163825000D03*
%TD*%
%TO.C,D33*%
X101387500Y-129025000D03*
X101387500Y-125725000D03*
%TD*%
%TO.C,D24*%
X210925000Y-109975000D03*
X210925000Y-106675000D03*
%TD*%
D19*
%TO.C,C_3V-Decoup1*%
X63430000Y-117450000D03*
X62470000Y-117450000D03*
%TD*%
D20*
%TO.C,D52*%
X244262500Y-148075000D03*
X244262500Y-144775000D03*
%TD*%
%TO.C,D21*%
X153775000Y-109975000D03*
X153775000Y-106675000D03*
%TD*%
%TO.C,D15*%
X344275000Y-86162500D03*
X344275000Y-82862500D03*
%TD*%
%TO.C,D37*%
X177587500Y-129025000D03*
X177587500Y-125725000D03*
%TD*%
%TO.C,D61*%
X191875000Y-167125000D03*
X191875000Y-163825000D03*
%TD*%
%TO.C,D31*%
X60906250Y-129025000D03*
X60906250Y-125725000D03*
%TD*%
%TO.C,D60*%
X151393750Y-167125000D03*
X151393750Y-163825000D03*
%TD*%
%TO.C,D4*%
X120437500Y-86162500D03*
X120437500Y-82862500D03*
%TD*%
D18*
%TO.C,C_1V-Decoup2*%
X76612500Y-137925000D03*
X76612500Y-136965000D03*
%TD*%
D20*
%TO.C,D66*%
X306175000Y-167125000D03*
X306175000Y-163825000D03*
%TD*%
D29*
%TO.C,SW1*%
X88049999Y-122849999D03*
D30*
X86779999Y-122849999D03*
%TD*%
D20*
%TO.C,D49*%
X187112500Y-148075000D03*
X187112500Y-144775000D03*
%TD*%
%TO.C,D62*%
X220450000Y-167125000D03*
X220450000Y-163825000D03*
%TD*%
%TO.C,D36*%
X158537500Y-129025000D03*
X158537500Y-125725000D03*
%TD*%
%TO.C,D64*%
X258550000Y-167125000D03*
X258550000Y-163825000D03*
%TD*%
%TO.C,D20*%
X134725000Y-109975000D03*
X134725000Y-106675000D03*
%TD*%
D19*
%TO.C,C_LD1*%
X64410000Y-111350000D03*
X63450000Y-111350000D03*
%TD*%
D20*
%TO.C,D39*%
X215687500Y-129025000D03*
X215687500Y-125725000D03*
%TD*%
D17*
%TO.C,R_DATA1*%
X74112500Y-138005000D03*
X74112500Y-139025000D03*
%TD*%
D20*
%TO.C,D10*%
X244262500Y-86162500D03*
X244262500Y-82862500D03*
%TD*%
D22*
%TO.C,R_RST1*%
X50362500Y-133485000D03*
X50362500Y-132465000D03*
%TD*%
D31*
%TO.C,J2*%
X47512499Y-131949999D03*
D32*
X47512499Y-134489999D03*
X47512499Y-137029999D03*
X47512499Y-139569999D03*
X47512499Y-142109999D03*
%TD*%
D20*
%TO.C,D47*%
X149012500Y-148075000D03*
X149012500Y-144775000D03*
%TD*%
D33*
%TO.C,U3*%
X65350000Y-114787500D03*
X63450000Y-114787500D03*
X64400000Y-112912500D03*
%TD*%
D20*
%TO.C,D48*%
X168062500Y-148075000D03*
X168062500Y-144775000D03*
%TD*%
D19*
%TO.C,C_3V-Decoup7*%
X68565000Y-141532500D03*
X67605000Y-141532500D03*
%TD*%
D20*
%TO.C,D13*%
X306175000Y-86162500D03*
X306175000Y-82862500D03*
%TD*%
D18*
%TO.C,C_1V-Decoup1*%
X71912500Y-139605000D03*
X71912500Y-138645000D03*
%TD*%
D20*
%TO.C,D35*%
X139487500Y-129025000D03*
X139487500Y-125725000D03*
%TD*%
%TO.C,D17*%
X77575000Y-109975000D03*
X77575000Y-106675000D03*
%TD*%
%TO.C,D3*%
X101387500Y-86162500D03*
X101387500Y-82862500D03*
%TD*%
D34*
%TO.C,C_3V-Decoup9*%
X82910589Y-154060589D03*
X83589411Y-154739411D03*
%TD*%
D20*
%TO.C,D18*%
X96625000Y-109975000D03*
X96625000Y-106675000D03*
%TD*%
D18*
%TO.C,C_Flash1*%
X83612500Y-138125000D03*
X83612500Y-137165000D03*
%TD*%
D20*
%TO.C,D22*%
X172825000Y-109975000D03*
X172825000Y-106675000D03*
%TD*%
%TO.C,D26*%
X249025000Y-109975000D03*
X249025000Y-106675000D03*
%TD*%
%TO.C,D30*%
X344275000Y-109975000D03*
X344275000Y-106675000D03*
%TD*%
D24*
%TO.C,C_3V-Decoup8*%
X73512500Y-154125000D03*
X73512500Y-155085000D03*
%TD*%
D20*
%TO.C,D1*%
X58525000Y-86162500D03*
X58525000Y-82862500D03*
%TD*%
D19*
%TO.C,C_3V-Decoup5*%
X68565000Y-142532500D03*
X67605000Y-142532500D03*
%TD*%
D20*
%TO.C,D54*%
X282362500Y-148075000D03*
X282362500Y-144775000D03*
%TD*%
%TO.C,D11*%
X263312500Y-86162500D03*
X263312500Y-82862500D03*
%TD*%
%TO.C,D12*%
X282362500Y-86162500D03*
X282362500Y-82862500D03*
%TD*%
%TO.C,D9*%
X220450000Y-86162500D03*
X220450000Y-82862500D03*
%TD*%
%TO.C,D27*%
X275218750Y-109975000D03*
X275218750Y-106675000D03*
%TD*%
%TO.C,D65*%
X279981250Y-167125000D03*
X279981250Y-163825000D03*
%TD*%
%TO.C,D43*%
X65668750Y-148075000D03*
X65668750Y-144775000D03*
%TD*%
%TO.C,D38*%
X196637500Y-129025000D03*
X196637500Y-125725000D03*
%TD*%
%TO.C,D58*%
X108387500Y-167125000D03*
X108387500Y-163825000D03*
%TD*%
%TO.C,D45*%
X110912500Y-148075000D03*
X110912500Y-144775000D03*
%TD*%
%TO.C,D55*%
X325225000Y-148075000D03*
X325225000Y-144775000D03*
%TD*%
%TO.C,D29*%
X325225000Y-109975000D03*
X325225000Y-106675000D03*
%TD*%
%TO.C,D25*%
X229975000Y-109975000D03*
X229975000Y-106675000D03*
%TD*%
D35*
%TO.C,J1*%
X69912500Y-116625000D03*
X69912500Y-117625000D03*
X69912500Y-118625000D03*
X69912500Y-119625000D03*
D36*
X73787500Y-115325000D03*
X73787500Y-120925000D03*
%TD*%
D20*
%TO.C,D28*%
X306175000Y-109975000D03*
X306175000Y-106675000D03*
%TD*%
M02*
