M48
; DRILL file {KiCad (7.0.0-0)} date Wednesday, July 19, 2023 at 14:43:01
; FORMAT={-:-/ absolute / inch / decimal}
; #@! TF.CreationDate,2023-07-19T14:43:01-04:00
; #@! TF.GenerationSoftware,Kicad,Pcbnew,(7.0.0-0)
; #@! TF.FileFunction,Plated,1,2,PTH
FMAT,2
INCH
; #@! TA.AperFunction,Plated,PTH,ComponentDrill
T1C0.0138
; #@! TA.AperFunction,Plated,PTH,ViaDrill
T2C0.0157
; #@! TA.AperFunction,Plated,PTH,ComponentDrill
T3C0.0256
; #@! TA.AperFunction,Plated,PTH,ComponentDrill
T4C0.0394
; #@! TA.AperFunction,Plated,PTH,ComponentDrill
T5C0.0579
%
G90
G05
T1
X2.8858Y-5.7303
X2.8858Y-5.7805
X2.8858Y-5.8307
X2.936Y-5.7303
X2.936Y-5.7805
X2.936Y-5.8307
X2.9862Y-5.7303
X2.9862Y-5.7805
X2.9862Y-5.8307
T2
X1.9272Y-3.8366
X2.0991Y-5.2426
X2.252Y-5.3622
X2.3411Y-6.021
X2.3504Y-3.5098
X2.3839Y-5.9075
X2.3858Y-3.8307
X2.4041Y-5.177
X2.4173Y-4.374
X2.4409Y-3.8642
X2.561Y-5.0551
X2.5728Y-4.5965
X2.5852Y-5.7532
X2.6057Y-5.187
X2.6535Y-5.9242
X2.6614Y-5.4941
X2.6949Y-5.1614
X2.6969Y-4.628
X2.7028Y-5.9016
X2.7047Y-5.6969
X2.7382Y-5.7815
X2.7721Y-5.6073
X2.784Y-5.4262
X2.8017Y-6.0679
X2.8406Y-5.0512
X2.8706Y-6.2726
X2.8878Y-5.6909
X2.9035Y-5.2776
X2.9124Y-5.8686
X2.9611Y-5.4492
X2.9631Y-5.5305
X3.0906Y-4.685
X3.0989Y-5.4537
X3.0989Y-6.1427
X3.124Y-4.8858
X3.1398Y-5.5079
X3.1465Y-5.8378
X3.1516Y-5.2008
X3.1693Y-6.061
X3.2092Y-5.6467
X3.248Y-5.5039
X3.2913Y-5.3602
X3.311Y-6.1299
X3.3543Y-5.0955
X3.3878Y-5.7874
X3.4023Y-5.8253
X3.4154Y-5.0236
X3.4173Y-5.2441
X3.5157Y-5.2185
X3.752Y-5.4646
X3.9114Y-5.435
X3.9311Y-5.7264
X4.4449Y-5.3169
X4.7165Y-5.6398
X4.7382Y-5.3898
X5.5118Y-5.4429
X7.0374Y-5.8425
X7.1535Y-5.8268
X7.5413Y-5.8524
X7.8898Y-5.8504
X8.3858Y-5.8563
X8.6654Y-5.8543
X9.1732Y-5.8524
X9.4094Y-5.8524
X9.8799Y-5.8543
X10.0592Y-5.8545
X10.6988Y-5.8583
X10.8406Y-5.8583
X11.3917Y-4.3051
X11.4567Y-5.1693
X11.4606Y-4.3051
X11.4606Y-4.9154
X11.939Y-4.8012
T3
X3.4165Y-4.8366
X3.4665Y-4.8366
T4
X1.8706Y-5.1949
X1.8706Y-5.2949
X1.8706Y-5.3949
X1.8706Y-5.4949
X1.8706Y-5.5949
T5
X2.0321Y-3.2273
X2.0321Y-4.1648
X2.1258Y-4.9148
X2.1258Y-6.4148
X2.2821Y-3.1273
X2.2821Y-4.0648
X2.3133Y-5.6648
X2.3758Y-4.8148
X2.3758Y-6.3148
X2.5633Y-5.5648
X2.7821Y-4.1648
X2.9696Y-3.2273
X2.9696Y-4.9148
X2.9696Y-6.4148
X3.0321Y-4.0648
X3.2196Y-3.1273
X3.2196Y-4.8148
X3.2196Y-6.3148
X3.3446Y-5.6648
X3.5321Y-4.1648
X3.5946Y-5.5648
X3.7196Y-3.2273
X3.7196Y-4.9148
X3.7196Y-6.4148
X3.7821Y-4.0648
X3.8133Y-6.4148
X3.9696Y-3.1273
X3.9696Y-4.8148
X3.9696Y-6.3148
X4.0633Y-6.3148
X4.0946Y-5.6648
X4.2821Y-4.1648
X4.3446Y-5.5648
X4.4696Y-3.2273
X4.4696Y-4.9148
X4.4696Y-6.4148
X4.5321Y-4.0648
X4.7196Y-3.1273
X4.7196Y-4.8148
X4.7196Y-6.3148
X4.8446Y-5.6648
X5.0321Y-4.1648
X5.0946Y-5.5648
X5.2196Y-3.2273
X5.2196Y-4.9148
X5.2821Y-4.0648
X5.4071Y-6.4148
X5.4696Y-3.1273
X5.4696Y-4.8148
X5.5946Y-5.6648
X5.6571Y-6.3148
X5.6883Y-6.4148
X5.7821Y-4.1648
X5.8446Y-5.5648
X5.9383Y-6.3148
X5.9696Y-4.9148
X6.0321Y-4.0648
X6.1571Y-3.2273
X6.2196Y-4.8148
X6.3446Y-5.6648
X6.4071Y-3.1273
X6.4383Y-6.4148
X6.5321Y-4.1648
X6.5321Y-6.4148
X6.5946Y-5.5648
X6.6883Y-6.3148
X6.7196Y-4.9148
X6.7821Y-4.0648
X6.7821Y-6.3148
X6.9071Y-3.2273
X6.9696Y-4.8148
X7.0946Y-5.6648
X7.1571Y-3.1273
X7.2821Y-4.1648
X7.2821Y-6.4148
X7.3446Y-5.5648
X7.4696Y-4.9148
X7.5321Y-4.0648
X7.5321Y-6.3148
X7.6571Y-3.2273
X7.6571Y-6.4148
X7.7196Y-4.8148
X7.8446Y-5.6648
X7.9071Y-3.1273
X7.9071Y-6.3148
X8.0321Y-4.1648
X8.0946Y-5.5648
X8.2196Y-4.9148
X8.2821Y-4.0648
X8.4071Y-3.2273
X8.4071Y-6.4148
X8.4696Y-4.8148
X8.5946Y-5.6648
X8.6571Y-3.1273
X8.6571Y-6.3148
X8.7821Y-4.1648
X8.8446Y-5.5648
X8.9696Y-4.9148
X9.0321Y-4.0648
X9.1571Y-6.4148
X9.2196Y-4.8148
X9.3446Y-3.2273
X9.3446Y-5.6648
X9.4071Y-6.3148
X9.5321Y-4.1648
X9.5946Y-3.1273
X9.5946Y-5.5648
X9.7196Y-4.9148
X9.7821Y-4.0648
X9.9071Y-6.4148
X9.9696Y-4.8148
X10.0946Y-3.2273
X10.0946Y-5.6648
X10.1571Y-6.3148
X10.3446Y-3.1273
X10.3446Y-5.5648
X10.5633Y-4.1648
X10.6571Y-4.9148
X10.7508Y-6.4148
X10.8133Y-4.0648
X10.8446Y-3.2273
X10.8446Y-5.6648
X10.9071Y-4.8148
X11.0008Y-6.3148
X11.0946Y-3.1273
X11.0946Y-5.5648
X11.7821Y-3.2273
X11.7821Y-4.1648
X11.7821Y-6.4148
X12.0321Y-3.1273
X12.0321Y-4.0648
X12.0321Y-6.3148
X12.5321Y-3.2273
X12.5321Y-4.1648
X12.5321Y-5.6648
X12.5321Y-6.4148
X12.7821Y-3.1273
X12.7821Y-4.0648
X12.7821Y-5.5648
X12.7821Y-6.3148
X13.2821Y-3.2273
X13.2821Y-4.1648
X13.2821Y-6.4148
X13.5321Y-3.1273
X13.5321Y-4.0648
X13.5321Y-6.3148
T0
M30
