%TF.GenerationSoftware,KiCad,Pcbnew,(7.0.0-0)*%
%TF.CreationDate,2023-07-19T14:43:01-04:00*%
%TF.ProjectId,meadowstumble,6d656164-6f77-4737-9475-6d626c652e6b,rev?*%
%TF.SameCoordinates,Original*%
%TF.FileFunction,Profile,NP*%
%FSLAX46Y46*%
G04 Gerber Fmt 4.6, Leading zero omitted, Abs format (unit mm)*
G04 Created by KiCad (PCBNEW (7.0.0-0)) date 2023-07-19 14:43:01*
%MOMM*%
%LPD*%
G01*
G04 APERTURE LIST*
%TA.AperFunction,Profile*%
%ADD10C,0.200000*%
%TD*%
%TA.AperFunction,Profile*%
%ADD11C,0.120000*%
%TD*%
G04 APERTURE END LIST*
D10*
X46900000Y-74987500D02*
X349700000Y-74987500D01*
X349700000Y-175000000D02*
G75*
G03*
X350700000Y-174000000I0J1000000D01*
G01*
X45900000Y-174000000D02*
X45900000Y-75987500D01*
X349700000Y-175000000D02*
X46900000Y-175000000D01*
X350700000Y-75987500D02*
X350700000Y-174000000D01*
X46900000Y-74987500D02*
G75*
G03*
X45900000Y-75987500I0J-1000000D01*
G01*
X45900000Y-174000000D02*
G75*
G03*
X46900000Y-175000000I1000000J0D01*
G01*
X350700000Y-75987500D02*
G75*
G03*
X349700000Y-74987500I-1000000J0D01*
G01*
D11*
%TO.C,D70*%
X311675000Y-125575000D02*
X311675000Y-129175000D01*
X308575000Y-125575000D02*
X311675000Y-125575000D01*
X311675000Y-129175000D02*
X308575000Y-129175000D01*
X308575000Y-129175000D02*
X308575000Y-125575000D01*
%TO.C,D75*%
X341675000Y-125575000D02*
X341675000Y-129175000D01*
X338575000Y-125575000D02*
X341675000Y-125575000D01*
X341675000Y-129175000D02*
X338575000Y-129175000D01*
X338575000Y-129175000D02*
X338575000Y-125575000D01*
%TO.C,D69*%
X305675000Y-125575000D02*
X305675000Y-129175000D01*
X302575000Y-125575000D02*
X305675000Y-125575000D01*
X305675000Y-129175000D02*
X302575000Y-129175000D01*
X302575000Y-129175000D02*
X302575000Y-125575000D01*
%TO.C,D74*%
X335675000Y-125575000D02*
X335675000Y-129175000D01*
X332575000Y-125575000D02*
X335675000Y-125575000D01*
X335675000Y-129175000D02*
X332575000Y-129175000D01*
X332575000Y-129175000D02*
X332575000Y-125575000D01*
%TO.C,D72*%
X323675000Y-125575000D02*
X323675000Y-129175000D01*
X320575000Y-125575000D02*
X323675000Y-125575000D01*
X323675000Y-129175000D02*
X320575000Y-129175000D01*
X320575000Y-129175000D02*
X320575000Y-125575000D01*
%TO.C,D73*%
X329675000Y-125575000D02*
X329675000Y-129175000D01*
X326575000Y-125575000D02*
X329675000Y-125575000D01*
X329675000Y-129175000D02*
X326575000Y-129175000D01*
X326575000Y-129175000D02*
X326575000Y-125575000D01*
%TO.C,D71*%
X317675000Y-125575000D02*
X317675000Y-129175000D01*
X314575000Y-125575000D02*
X317675000Y-125575000D01*
X317675000Y-129175000D02*
X314575000Y-129175000D01*
X314575000Y-129175000D02*
X314575000Y-125575000D01*
%TD*%
M02*
